<svg width="312" height="210" viewBox="0 0 312 210" fill="none" xmlns="http://www.w3.org/2000/svg">
<g clip-path="url(#clip0_0_10335)">
<rect width="312" height="210" rx="16" fill="#ECEFF4"/>
<g filter="url(#filter0_d_0_10335)">
<g clip-path="url(#clip1_0_10335)">
<rect x="-10" y="22" width="312" height="120" rx="16" fill="white"/>
<line x1="-10" y1="22.5" x2="302" y2="22.5" stroke="#F2F2F2"/>
<line x1="-10" y1="46.5" x2="302" y2="46.5" stroke="#F2F2F2"/>
<line x1="-10" y1="70.5" x2="302" y2="70.5" stroke="#F2F2F2"/>
<line x1="-10" y1="94.5" x2="302" y2="94.5" stroke="#F2F2F2"/>
<line x1="-10" y1="118.5" x2="302" y2="118.5" stroke="#F2F2F2"/>
<path d="M16.548 55.86C16.548 53.606 18.214 52.78 20.286 52.78C22.358 52.78 24.038 53.606 24.038 55.86C24.038 58.086 22.358 58.898 20.286 58.898C18.214 58.898 16.548 58.086 16.548 55.86ZM17.542 55.874C17.542 57.54 18.788 58.142 20.286 58.142C21.812 58.142 23.058 57.54 23.058 55.874C23.058 54.152 21.812 53.536 20.286 53.536C18.788 53.536 17.542 54.152 17.542 55.874ZM14.392 62.202C14.182 61.978 14.406 61.628 14.658 61.754C14.896 61.866 15.47 61.866 16.212 61.866H19.936V60.788C19.936 60.228 19.796 60.088 19.11 59.92C18.844 59.85 18.928 59.36 19.264 59.402L20.692 59.556C20.972 59.584 20.944 59.766 20.944 59.864C20.944 59.99 20.902 60.172 20.902 60.55V61.866H25.592C25.844 61.866 25.956 61.81 26.082 61.81C26.25 61.81 26.32 61.908 26.32 62.076C26.32 62.356 25.998 62.636 25.592 62.636H16.212C15.778 62.636 15.484 62.706 15.26 62.706C15.022 62.706 14.714 62.552 14.392 62.202ZM35.0335 53.564V56.182H36.9795V53.536C36.9795 52.878 36.6995 52.696 35.9855 52.514C35.7195 52.444 35.8595 51.954 36.1535 51.996L37.7075 52.22C38.0015 52.262 37.9735 52.43 37.9735 52.528C37.9735 52.64 37.9175 52.878 37.9175 53.27V60.088C37.9175 60.634 37.7215 61.124 37.3155 61.124C37.1335 61.124 36.9795 60.914 36.9795 60.424V56.938H35.0335V58.87C35.0335 59.416 34.8375 59.906 34.4455 59.906C34.2635 59.906 34.1095 59.696 34.1095 59.206V58.772C32.4575 59.248 30.7355 59.598 28.9015 59.598C28.2855 59.598 27.9635 59.192 27.9635 58.632V57.092C27.9635 56.616 27.8235 56.462 27.2215 56.378C26.9135 56.336 27.0395 55.832 27.2635 55.832H31.2675V53.886H29.3635C28.9295 53.886 28.6355 53.956 28.4115 53.956C28.1735 53.956 27.8655 53.802 27.5435 53.452C27.3335 53.228 27.5575 52.878 27.8095 53.004C28.0475 53.116 28.6215 53.116 29.3635 53.116H30.9035C31.3655 53.102 31.5195 53.032 31.7015 53.032C31.9395 53.032 32.2615 53.284 32.2615 53.466C32.2615 53.592 32.2195 53.774 32.2195 54.152V56.042C32.2195 56.28 31.9395 56.602 31.6315 56.602H28.9155V58.436C28.9155 58.646 29.0135 58.758 29.2235 58.758C30.8615 58.758 32.4855 58.534 34.1095 58.184V53.816C34.1095 53.186 33.8575 53.004 33.1715 52.822C32.9195 52.752 33.0455 52.276 33.3395 52.318L34.8235 52.514C35.1175 52.556 35.0895 52.724 35.0895 52.822C35.0895 52.934 35.0335 53.172 35.0335 53.564ZM35.0335 60.844C34.8375 61.32 34.5995 61.782 34.3195 62.216C35.7335 63.014 36.9935 63.672 38.1415 64.19C38.3235 64.344 38.5615 64.75 38.5615 65.072C38.5615 65.296 38.3235 65.506 38.0715 65.31C37.2175 64.68 35.8175 63.854 33.8715 62.818C32.9615 63.882 31.6315 64.778 29.6995 65.422C29.4055 65.52 29.0975 65.1 29.3635 64.988C31.3375 64.148 32.8075 62.944 33.7455 61.418C33.8295 61.04 33.5775 60.76 32.9895 60.592C32.7375 60.522 32.8495 60.018 33.1855 60.088L34.8095 60.452C35.0895 60.508 35.0755 60.746 35.0335 60.844ZM42.0109 63.028C42.0109 61.264 43.6069 60.606 45.5529 60.606C47.4849 60.606 49.0949 61.264 49.0949 63.028C49.0949 64.792 47.4849 65.436 45.5529 65.436C43.6069 65.436 42.0109 64.792 42.0109 63.028ZM48.5769 57.022H45.9729V58.758H50.8029C51.0549 58.758 51.1669 58.702 51.2929 58.702C51.4609 58.702 51.5309 58.8 51.5309 58.968C51.5309 59.248 51.2089 59.528 50.8029 59.528H41.4229C40.9889 59.528 40.6949 59.598 40.4709 59.598C40.2329 59.598 39.9249 59.444 39.6029 59.094C39.3929 58.87 39.6169 58.52 39.8689 58.646C40.1069 58.758 40.6809 58.758 41.4229 58.758H45.0069V57.022H42.9349C42.3189 57.022 41.9969 56.616 41.9969 56.056V53.984C41.9969 53.508 41.8569 53.354 41.2549 53.27C40.9469 53.228 41.0729 52.724 41.2969 52.724H48.3949C48.6469 52.724 48.7589 52.668 48.8849 52.668C48.9969 52.668 49.1229 52.808 49.1229 52.934C49.1229 53.172 48.7029 53.494 48.3949 53.494H42.9629V55.93C42.9629 56.14 43.0609 56.252 43.2709 56.252H48.5769C48.8289 56.252 48.9409 56.196 49.0669 56.196C49.1789 56.196 49.3049 56.336 49.3049 56.462C49.3049 56.7 48.8849 57.022 48.5769 57.022ZM43.0189 63.042C43.0189 64.246 44.1669 64.68 45.5529 64.68C46.9809 64.68 48.1009 64.246 48.1009 63.042C48.1009 61.81 46.9809 61.362 45.5529 61.362C44.1669 61.362 43.0189 61.81 43.0189 63.042ZM52.6004 56.238C52.6004 53.998 54.0144 53.186 55.7504 53.186C57.4864 53.186 58.9144 53.998 58.9144 56.238C58.9144 58.45 57.4864 59.262 55.7504 59.262C54.0144 59.262 52.6004 58.45 52.6004 56.238ZM53.6084 56.252C53.6084 57.918 54.5744 58.506 55.7504 58.506C56.9264 58.506 57.9204 57.918 57.9204 56.252C57.9204 54.53 56.9264 53.942 55.7504 53.942C54.5744 53.942 53.6084 54.53 53.6084 56.252ZM62.1064 53.27V56.126H63.5764C63.8424 56.126 63.9404 56.07 64.0664 56.07C64.1784 56.07 64.3044 56.21 64.3044 56.336C64.3044 56.56 63.8844 56.896 63.5764 56.896H62.1064V60.676C62.1064 61.222 61.9244 61.74 61.4904 61.74C61.2804 61.74 61.1404 61.53 61.1404 61.026V53.536C61.1404 52.878 60.8604 52.696 60.1464 52.514C59.8804 52.444 60.0204 51.954 60.3144 51.996L61.8964 52.22C62.1904 52.262 62.1624 52.43 62.1624 52.528C62.1624 52.64 62.1064 52.878 62.1064 53.27ZM55.4284 64.134V62.314C55.4284 61.698 55.2324 61.586 54.5184 61.404C54.2524 61.334 54.3364 60.844 54.6724 60.886L56.1844 61.054C56.4644 61.096 56.4364 61.264 56.4364 61.362C56.4364 61.488 56.3944 61.67 56.3944 62.048V64.008C56.3944 64.218 56.4924 64.33 56.7024 64.33H61.9664C62.2324 64.33 62.4004 64.26 62.5264 64.26C62.6384 64.26 62.7644 64.4 62.7644 64.526C62.7644 64.764 62.3024 65.1 61.9664 65.1H56.3664C55.7504 65.1 55.4284 64.694 55.4284 64.134ZM71.1457 64.288V61.908C71.1457 61.418 71.0897 61.292 70.5437 61.194C70.2357 61.152 70.3617 60.648 70.5857 60.648H74.1417V58.156H70.5577C70.1237 58.156 69.8297 58.226 69.6057 58.226C69.3677 58.226 69.0597 58.072 68.7377 57.722C68.5277 57.498 68.7517 57.148 69.0037 57.274C69.2417 57.386 69.8157 57.386 70.5577 57.386H72.0277C72.4197 56.14 72.6857 54.824 72.8677 53.494H71.6917C71.2577 53.494 70.9637 53.564 70.7397 53.564C70.5017 53.564 70.1937 53.41 69.8717 53.06C69.6617 52.836 69.8857 52.486 70.1377 52.612C70.3757 52.724 70.9497 52.724 71.6917 52.724H72.4617C73.0497 52.724 73.2597 52.64 73.4557 52.64C73.6937 52.64 74.0017 52.892 74.0017 53.074C74.0017 53.2 73.9877 53.354 73.9737 53.62C73.7217 54.964 73.3017 56.224 72.6857 57.386H77.4597C77.7537 56.14 77.9497 54.824 78.0337 53.494H76.2417C75.8077 53.494 75.5137 53.564 75.2897 53.564C75.0517 53.564 74.7437 53.41 74.4217 53.06C74.2117 52.836 74.4357 52.486 74.6877 52.612C74.9257 52.724 75.4997 52.724 76.2417 52.724H77.6277C78.2157 52.724 78.4257 52.64 78.6217 52.64C78.8597 52.64 79.1677 52.892 79.1677 53.074C79.1677 53.2 79.1537 53.34 79.1397 53.62C78.9997 54.922 78.6357 56.182 78.1037 57.386H79.9377C80.1897 57.386 80.3017 57.33 80.4277 57.33C80.5957 57.33 80.6657 57.428 80.6657 57.596C80.6657 57.876 80.3437 58.156 79.9377 58.156H75.1077V60.648H76.7317C77.3337 60.648 77.5017 60.564 77.7117 60.564C77.9497 60.564 78.2717 60.816 78.2717 60.998C78.2717 61.124 78.2297 61.306 78.2297 61.684V64.666V64.694C78.2297 64.932 77.9637 65.254 77.6417 65.254H72.0837C71.4677 65.254 71.1457 64.848 71.1457 64.288ZM72.4197 64.484H77.2637V61.418H72.1117V64.162C72.1117 64.372 72.2097 64.484 72.4197 64.484ZM83.5552 54.488C83.5552 52.766 85.1932 52.136 87.2372 52.136C89.2952 52.136 90.9472 52.766 90.9472 54.488C90.9472 56.21 89.2952 56.826 87.2372 56.826C85.1932 56.826 83.5552 56.21 83.5552 54.488ZM90.4432 59.892C90.6812 59.892 91.0032 60.144 91.0032 60.326C91.0032 60.452 90.9612 60.634 90.9612 61.012V62.384V62.412C90.9612 62.636 90.7652 62.958 90.4432 62.958H84.7172V64.162C84.7172 64.372 84.8152 64.484 85.0252 64.484H90.7372C91.0032 64.484 91.1712 64.414 91.2972 64.414C91.4092 64.414 91.5352 64.554 91.5352 64.68C91.5352 64.904 91.0732 65.24 90.7372 65.24H84.6892C84.0732 65.24 83.7512 64.834 83.7512 64.274V63.378C83.7512 62.944 83.7092 62.804 83.1492 62.734C82.8412 62.692 82.9532 62.202 83.1912 62.202H89.9952V60.732H85.1092C84.6752 60.732 84.3812 60.802 84.1572 60.802C83.9192 60.802 83.6112 60.648 83.2892 60.298C83.0652 60.074 83.3032 59.752 83.5552 59.864C83.7932 59.976 84.3672 59.976 85.1092 59.976H89.4632C90.0652 59.976 90.2332 59.892 90.4432 59.892ZM84.5492 54.502C84.5492 55.664 85.7812 56.07 87.2372 56.07C88.7352 56.07 89.9672 55.664 89.9672 54.502C89.9672 53.312 88.7352 52.892 87.2372 52.892C85.7812 52.892 84.5492 53.312 84.5492 54.502ZM81.3432 58.184C81.1332 57.96 81.3572 57.61 81.6092 57.736C81.8472 57.848 82.4212 57.848 83.1632 57.848H92.5432C92.7952 57.848 92.9072 57.792 93.0332 57.792C93.2012 57.792 93.2712 57.89 93.2712 58.058C93.2712 58.338 92.9492 58.618 92.5432 58.618H83.1632C82.7292 58.618 82.4352 58.688 82.2112 58.688C81.9732 58.688 81.6652 58.534 81.3432 58.184ZM107.7 54.516C107.504 56.994 107.042 59.29 106.342 61.446H109.072C109.324 61.446 109.436 61.39 109.562 61.39C109.73 61.39 109.8 61.488 109.8 61.656C109.8 61.936 109.478 62.216 109.072 62.216H99.6925C99.2585 62.216 98.9645 62.286 98.7405 62.286C98.5025 62.286 98.1945 62.132 97.8725 61.782C97.6625 61.558 97.8865 61.208 98.1385 61.334C98.3765 61.446 98.9505 61.446 99.6925 61.446H105.726C106.174 59.15 106.44 56.742 106.566 54.25H101.274C100.84 54.25 100.546 54.32 100.322 54.32C100.084 54.32 99.7765 54.166 99.4545 53.816C99.2445 53.592 99.4685 53.242 99.7205 53.368C99.9585 53.48 100.532 53.48 101.274 53.48H106.16C106.748 53.48 106.986 53.396 107.182 53.396C107.42 53.396 107.742 53.648 107.742 53.83C107.742 53.956 107.714 54.138 107.7 54.516ZM116.484 57.876H112.886V60.41C112.886 60.62 112.984 60.732 113.194 60.732C115.574 60.732 117.758 60.508 120.11 59.906V53.536C120.11 52.878 119.83 52.696 119.116 52.514C118.85 52.444 118.99 51.954 119.284 51.996L120.866 52.22C121.16 52.262 121.132 52.43 121.132 52.528C121.132 52.64 121.076 52.878 121.076 53.27V63.728C121.076 64.274 120.894 64.792 120.46 64.792C120.25 64.792 120.11 64.582 120.11 64.078V60.494C117.716 61.208 115.406 61.53 112.858 61.572C112.242 61.586 111.92 61.166 111.92 60.606V58.366C111.92 57.89 111.78 57.736 111.178 57.652C110.87 57.61 110.996 57.106 111.22 57.106H116.106V54.446H113.32C112.886 54.446 112.592 54.516 112.368 54.516C112.13 54.516 111.822 54.362 111.5 54.012C111.29 53.788 111.514 53.438 111.766 53.564C112.004 53.676 112.578 53.676 113.32 53.676H115.574C116.162 53.676 116.358 53.592 116.554 53.592C116.792 53.592 117.114 53.844 117.114 54.026C117.114 54.152 117.072 54.334 117.072 54.712V57.288V57.316C117.072 57.554 116.792 57.876 116.484 57.876ZM132.099 57.302H126.359C125.743 57.302 125.421 56.896 125.421 56.336V54.18C125.421 53.62 125.267 53.494 124.553 53.312C124.287 53.242 124.371 52.752 124.707 52.794L126.177 52.948C126.457 52.976 126.429 53.158 126.429 53.256C126.429 53.382 126.387 53.564 126.387 53.942V56.21C126.387 56.42 126.485 56.532 126.695 56.532H132.099C132.351 56.532 132.463 56.476 132.589 56.476C132.701 56.476 132.827 56.616 132.827 56.742C132.827 56.98 132.407 57.302 132.099 57.302ZM123.083 59.458C122.873 59.234 123.097 58.884 123.349 59.01C123.587 59.122 124.161 59.122 124.903 59.122H134.283C134.535 59.122 134.647 59.066 134.773 59.066C134.941 59.066 135.011 59.164 135.011 59.332C135.011 59.612 134.689 59.892 134.283 59.892H124.903C124.469 59.892 124.175 59.962 123.951 59.962C123.713 59.962 123.405 59.808 123.083 59.458ZM125.729 64.134V62.65C125.729 62.034 125.533 61.922 124.819 61.74C124.553 61.67 124.637 61.18 124.973 61.222L126.485 61.39C126.765 61.432 126.737 61.6 126.737 61.698C126.737 61.824 126.695 62.006 126.695 62.384V64.008C126.695 64.218 126.793 64.33 127.003 64.33H132.407C132.673 64.33 132.841 64.26 132.967 64.26C133.079 64.26 133.205 64.4 133.205 64.526C133.205 64.764 132.743 65.1 132.407 65.1H126.667C126.051 65.1 125.729 64.694 125.729 64.134ZM150.981 57.708H149.511V63.728C149.511 64.274 149.329 64.792 148.895 64.792C148.685 64.792 148.545 64.582 148.545 64.078V53.536C148.545 52.878 148.265 52.696 147.551 52.514C147.285 52.444 147.425 51.954 147.719 51.996L149.301 52.22C149.595 52.262 149.567 52.43 149.567 52.528C149.567 52.64 149.511 52.878 149.511 53.27V56.938H150.981C151.247 56.938 151.345 56.882 151.471 56.882C151.583 56.882 151.709 57.022 151.709 57.148C151.709 57.372 151.289 57.708 150.981 57.708ZM146.697 60.62C146.655 60.83 146.389 61.012 146.179 60.788C145.297 59.752 144.107 58.632 142.973 57.666C142.245 59.024 141.279 60.2 140.061 61.138C139.837 61.334 139.473 60.998 139.655 60.774C141.391 58.982 142.609 56.826 143.155 54.474C143.155 54.04 142.875 53.844 142.259 53.62C142.007 53.508 142.119 53.046 142.455 53.116L144.079 53.494C144.359 53.55 144.317 53.788 144.303 53.886C144.079 54.978 143.757 56.014 143.323 56.952C144.289 57.862 145.409 58.842 146.431 59.64C146.585 59.808 146.739 60.284 146.697 60.62ZM161.444 65.24H156.096C155.48 65.24 155.158 64.834 155.158 64.274V62.076C155.158 61.586 155.102 61.46 154.556 61.362C154.248 61.32 154.374 60.816 154.598 60.816H160.702C161.164 60.802 161.318 60.732 161.514 60.732C161.752 60.732 162.074 60.984 162.074 61.166C162.074 61.292 162.032 61.474 162.032 61.852V64.68C162.032 64.918 161.766 65.24 161.444 65.24ZM162.116 53.27V55.902H163.586C163.852 55.902 163.95 55.846 164.076 55.846C164.188 55.846 164.314 55.986 164.314 56.112C164.314 56.336 163.894 56.672 163.586 56.672H162.116V59.038C162.116 59.584 161.934 60.102 161.5 60.102C161.29 60.102 161.15 59.892 161.15 59.388V58.24C158.518 58.996 156.236 59.374 154.108 59.402C153.492 59.416 153.17 58.996 153.17 58.436V57.036C153.17 56.56 153.03 56.406 152.428 56.322C152.12 56.28 152.246 55.776 152.47 55.776H157.664V53.956H154.57C154.136 53.956 153.842 54.026 153.618 54.026C153.38 54.026 153.072 53.872 152.75 53.522C152.54 53.298 152.764 52.948 153.016 53.074C153.254 53.186 153.828 53.186 154.57 53.186H157.132C157.72 53.186 157.916 53.102 158.112 53.102C158.35 53.102 158.672 53.354 158.672 53.536C158.672 53.662 158.63 53.844 158.63 54.222V55.986C158.63 56.224 158.35 56.546 158.042 56.546H154.136V58.24C154.136 58.45 154.234 58.562 154.444 58.562C156.404 58.604 158.504 58.31 161.15 57.652V53.536C161.15 52.878 160.87 52.696 160.156 52.514C159.89 52.444 160.03 51.954 160.324 51.996L161.906 52.22C162.2 52.262 162.172 52.43 162.172 52.528C162.172 52.64 162.116 52.878 162.116 53.27ZM156.124 64.148C156.124 64.358 156.222 64.47 156.432 64.47H161.066V61.586H156.124V64.148ZM167.036 55.118C167.036 53.2 168.674 52.5 170.718 52.5C172.776 52.5 174.428 53.2 174.428 55.118C174.428 57.022 172.776 57.708 170.718 57.708C168.674 57.708 167.036 57.022 167.036 55.118ZM168.03 55.132C168.03 56.476 169.262 56.952 170.718 56.952C172.216 56.952 173.448 56.476 173.448 55.132C173.448 53.746 172.216 53.256 170.718 53.256C169.262 53.256 168.03 53.746 168.03 55.132ZM164.824 59.486C164.614 59.262 164.838 58.912 165.09 59.038C165.328 59.15 165.902 59.15 166.644 59.15H176.024C176.276 59.15 176.388 59.094 176.514 59.094C176.682 59.094 176.752 59.192 176.752 59.36C176.752 59.64 176.43 59.92 176.024 59.92H166.644C166.21 59.92 165.916 59.99 165.692 59.99C165.454 59.99 165.146 59.836 164.824 59.486ZM167.47 64.134V62.594C167.47 61.978 167.274 61.866 166.56 61.684C166.294 61.614 166.378 61.124 166.714 61.166L168.226 61.334C168.506 61.376 168.478 61.544 168.478 61.642C168.478 61.768 168.436 61.95 168.436 62.328V64.008C168.436 64.218 168.534 64.33 168.744 64.33H174.148C174.414 64.33 174.582 64.26 174.708 64.26C174.82 64.26 174.946 64.4 174.946 64.526C174.946 64.764 174.484 65.1 174.148 65.1H168.408C167.792 65.1 167.47 64.694 167.47 64.134ZM187.289 60.816H182.991C182.375 60.816 182.053 60.41 182.053 59.85V55.216C182.053 54.726 181.997 54.6 181.451 54.502C181.143 54.46 181.269 53.956 181.493 53.956H186.547C187.009 53.942 187.163 53.872 187.359 53.872C187.597 53.872 187.919 54.124 187.919 54.306C187.919 54.432 187.877 54.614 187.877 54.992V60.256C187.877 60.494 187.611 60.816 187.289 60.816ZM183.019 59.724C183.019 59.934 183.117 60.046 183.327 60.046H186.911V54.726H183.019V59.724ZM192.721 57.848H191.251V63.728C191.251 64.274 191.069 64.792 190.635 64.792C190.425 64.792 190.285 64.582 190.285 64.078V53.536C190.285 52.878 190.005 52.696 189.291 52.514C189.025 52.444 189.165 51.954 189.459 51.996L191.041 52.22C191.335 52.262 191.307 52.43 191.307 52.528C191.307 52.64 191.251 52.878 191.251 53.27V57.078H192.721C192.987 57.078 193.085 57.022 193.211 57.022C193.323 57.022 193.449 57.162 193.449 57.288C193.449 57.512 193.029 57.848 192.721 57.848ZM203.884 65.24H198.396C197.78 65.24 197.458 64.834 197.458 64.274V62.076C197.458 61.586 197.402 61.46 196.856 61.362C196.548 61.32 196.674 60.816 196.898 60.816H202.974C203.576 60.816 203.744 60.732 203.954 60.732C204.192 60.732 204.514 60.984 204.514 61.166C204.514 61.292 204.472 61.474 204.472 61.852V64.652V64.68C204.472 64.918 204.206 65.24 203.884 65.24ZM198.424 64.148C198.424 64.358 198.522 64.47 198.732 64.47H203.506V61.586H198.424V64.148ZM201.77 59.43C201.742 59.626 201.476 59.808 201.252 59.598C200.58 58.996 199.67 58.324 198.55 57.554C197.542 58.408 196.296 59.122 194.84 59.696C194.574 59.808 194.266 59.388 194.518 59.262C196.772 58.156 198.438 56.756 199.488 55.02H196.786C196.352 55.02 196.058 55.09 195.834 55.09C195.596 55.09 195.288 54.936 194.966 54.586C194.756 54.362 194.98 54.012 195.232 54.138C195.47 54.25 196.044 54.25 196.786 54.25H199.18C199.768 54.25 199.992 54.166 200.188 54.166C200.426 54.166 200.748 54.446 200.748 54.6C200.748 54.754 200.622 55.02 200.482 55.272C200.104 55.916 199.656 56.504 199.11 57.05C199.95 57.638 200.748 58.142 201.518 58.562C201.672 58.73 201.798 59.108 201.77 59.43ZM204.556 53.27V59.038C204.556 59.584 204.374 60.102 203.94 60.102C203.73 60.102 203.59 59.892 203.59 59.388V53.536C203.59 52.878 203.31 52.696 202.596 52.514C202.33 52.444 202.47 51.954 202.764 51.996L204.346 52.22C204.64 52.262 204.612 52.43 204.612 52.528C204.612 52.64 204.556 52.878 204.556 53.27ZM197.99 53.326C197.304 53.326 196.786 53.34 196.198 52.794C195.974 52.584 196.198 52.206 196.464 52.318C196.702 52.43 197.052 52.5 197.99 52.5H199.474C199.586 52.5 199.698 52.668 199.698 52.822C199.698 53.06 199.152 53.326 197.99 53.326ZM214.46 53.564V56.924H216.546V53.536C216.546 52.878 216.266 52.696 215.552 52.514C215.286 52.444 215.426 51.954 215.72 51.996L217.274 52.22C217.568 52.262 217.54 52.43 217.54 52.528C217.54 52.64 217.484 52.878 217.484 53.27V63.742C217.484 64.288 217.288 64.778 216.882 64.778C216.7 64.778 216.546 64.568 216.546 64.078V57.68H214.46V63.196C214.46 63.742 214.264 64.232 213.872 64.232C213.69 64.232 213.536 64.022 213.536 63.532V60.228C211.856 60.788 210.26 61.04 208.412 61.04C207.796 61.04 207.474 60.634 207.474 60.074V55.328C207.474 54.866 207.46 54.656 206.746 54.474C206.494 54.404 206.564 53.928 206.9 53.97L208.216 54.11C208.496 54.152 208.468 54.32 208.468 54.418C208.468 54.544 208.426 54.726 208.426 55.104V59.878C208.426 60.088 208.524 60.2 208.734 60.2C210.47 60.2 211.926 60.074 213.536 59.64V53.816C213.536 53.186 213.284 53.004 212.598 52.822C212.346 52.752 212.472 52.276 212.766 52.318L214.25 52.514C214.544 52.556 214.516 52.724 214.516 52.822C214.516 52.934 214.46 53.172 214.46 53.564ZM232.921 54.516C232.725 56.994 232.263 59.29 231.563 61.446H234.293C234.545 61.446 234.657 61.39 234.783 61.39C234.951 61.39 235.021 61.488 235.021 61.656C235.021 61.936 234.699 62.216 234.293 62.216H224.913C224.479 62.216 224.185 62.286 223.961 62.286C223.723 62.286 223.415 62.132 223.093 61.782C222.883 61.558 223.107 61.208 223.359 61.334C223.597 61.446 224.171 61.446 224.913 61.446H230.947C231.395 59.15 231.661 56.742 231.787 54.25H226.495C226.061 54.25 225.767 54.32 225.543 54.32C225.305 54.32 224.997 54.166 224.675 53.816C224.465 53.592 224.689 53.242 224.941 53.368C225.179 53.48 225.753 53.48 226.495 53.48H231.381C231.969 53.48 232.207 53.396 232.403 53.396C232.641 53.396 232.963 53.648 232.963 53.83C232.963 53.956 232.935 54.138 232.921 54.516ZM242.03 64.288V61.908C242.03 61.418 241.974 61.292 241.428 61.194C241.12 61.152 241.246 60.648 241.47 60.648H245.026V58.156H241.442C241.008 58.156 240.714 58.226 240.49 58.226C240.252 58.226 239.944 58.072 239.622 57.722C239.412 57.498 239.636 57.148 239.888 57.274C240.126 57.386 240.7 57.386 241.442 57.386H242.912C243.304 56.14 243.57 54.824 243.752 53.494H242.576C242.142 53.494 241.848 53.564 241.624 53.564C241.386 53.564 241.078 53.41 240.756 53.06C240.546 52.836 240.77 52.486 241.022 52.612C241.26 52.724 241.834 52.724 242.576 52.724H243.346C243.934 52.724 244.144 52.64 244.34 52.64C244.578 52.64 244.886 52.892 244.886 53.074C244.886 53.2 244.872 53.354 244.858 53.62C244.606 54.964 244.186 56.224 243.57 57.386H248.344C248.638 56.14 248.834 54.824 248.918 53.494H247.126C246.692 53.494 246.398 53.564 246.174 53.564C245.936 53.564 245.628 53.41 245.306 53.06C245.096 52.836 245.32 52.486 245.572 52.612C245.81 52.724 246.384 52.724 247.126 52.724H248.512C249.1 52.724 249.31 52.64 249.506 52.64C249.744 52.64 250.052 52.892 250.052 53.074C250.052 53.2 250.038 53.34 250.024 53.62C249.884 54.922 249.52 56.182 248.988 57.386H250.822C251.074 57.386 251.186 57.33 251.312 57.33C251.48 57.33 251.55 57.428 251.55 57.596C251.55 57.876 251.228 58.156 250.822 58.156H245.992V60.648H247.616C248.218 60.648 248.386 60.564 248.596 60.564C248.834 60.564 249.156 60.816 249.156 60.998C249.156 61.124 249.114 61.306 249.114 61.684V64.666V64.694C249.114 64.932 248.848 65.254 248.526 65.254H242.968C242.352 65.254 242.03 64.848 242.03 64.288ZM243.304 64.484H248.148V61.418H242.996V64.162C242.996 64.372 243.094 64.484 243.304 64.484ZM254.44 54.488C254.44 52.766 256.078 52.136 258.122 52.136C260.18 52.136 261.832 52.766 261.832 54.488C261.832 56.21 260.18 56.826 258.122 56.826C256.078 56.826 254.44 56.21 254.44 54.488ZM261.328 59.892C261.566 59.892 261.888 60.144 261.888 60.326C261.888 60.452 261.846 60.634 261.846 61.012V62.384V62.412C261.846 62.636 261.65 62.958 261.328 62.958H255.602V64.162C255.602 64.372 255.7 64.484 255.91 64.484H261.622C261.888 64.484 262.056 64.414 262.182 64.414C262.294 64.414 262.42 64.554 262.42 64.68C262.42 64.904 261.958 65.24 261.622 65.24H255.574C254.958 65.24 254.636 64.834 254.636 64.274V63.378C254.636 62.944 254.594 62.804 254.034 62.734C253.726 62.692 253.838 62.202 254.076 62.202H260.88V60.732H255.994C255.56 60.732 255.266 60.802 255.042 60.802C254.804 60.802 254.496 60.648 254.174 60.298C253.95 60.074 254.188 59.752 254.44 59.864C254.678 59.976 255.252 59.976 255.994 59.976H260.348C260.95 59.976 261.118 59.892 261.328 59.892ZM255.434 54.502C255.434 55.664 256.666 56.07 258.122 56.07C259.62 56.07 260.852 55.664 260.852 54.502C260.852 53.312 259.62 52.892 258.122 52.892C256.666 52.892 255.434 53.312 255.434 54.502ZM252.228 58.184C252.018 57.96 252.242 57.61 252.494 57.736C252.732 57.848 253.306 57.848 254.048 57.848H263.428C263.68 57.848 263.792 57.792 263.918 57.792C264.086 57.792 264.156 57.89 264.156 58.058C264.156 58.338 263.834 58.618 263.428 58.618H254.048C253.614 58.618 253.32 58.688 253.096 58.688C252.858 58.688 252.55 58.534 252.228 58.184ZM24.29 77.27V79.412H25.76C26.026 79.412 26.124 79.356 26.25 79.356C26.362 79.356 26.488 79.496 26.488 79.622C26.488 79.846 26.068 80.182 25.76 80.182H24.29V82.114C24.29 82.66 24.108 83.178 23.674 83.178C23.464 83.178 23.324 82.968 23.324 82.464V81.12C20.692 81.876 18.298 82.254 16.17 82.282C15.554 82.296 15.232 81.876 15.232 81.316V78.418C15.232 77.928 15.092 77.802 14.49 77.704C14.182 77.662 14.308 77.158 14.532 77.158H20.272C20.538 77.158 20.636 77.102 20.762 77.102C20.874 77.102 21 77.242 21 77.368C21 77.592 20.58 77.928 20.272 77.928H16.198V81.12C16.198 81.33 16.296 81.442 16.506 81.442C18.466 81.484 20.678 81.19 23.324 80.532V77.536C23.324 76.878 23.044 76.696 22.33 76.514C22.064 76.444 22.204 75.954 22.498 75.996L24.08 76.22C24.374 76.262 24.346 76.43 24.346 76.528C24.346 76.64 24.29 76.878 24.29 77.27ZM23.702 89.24H21.504C20.888 89.24 20.566 88.834 20.566 88.274V84.9C20.566 84.452 20.482 84.326 20.104 84.256C19.796 84.214 19.908 83.78 20.146 83.78H22.806C23.408 83.78 23.562 83.696 23.772 83.696C24.01 83.696 24.332 83.948 24.332 84.13C24.332 84.256 24.29 84.438 24.29 84.816V88.68C24.29 88.918 24.024 89.24 23.702 89.24ZM19.068 83.696C19.306 83.696 19.628 83.948 19.628 84.13C19.628 84.256 19.586 84.438 19.586 84.816V86.314C19.586 86.552 19.39 86.86 19.068 86.86H17.192V88.162C17.192 88.372 17.29 88.484 17.5 88.484C18.214 88.484 18.942 88.456 19.6 88.386C19.866 88.344 19.922 88.302 20.048 88.288C20.16 88.288 20.3 88.414 20.3 88.54C20.314 88.778 19.978 89.016 19.656 89.072C19.012 89.184 18.186 89.24 17.192 89.24C16.576 89.24 16.254 88.834 16.254 88.274V87.238C16.254 86.832 16.226 86.664 15.722 86.594C15.414 86.552 15.526 86.104 15.764 86.104H18.648V84.536H17.612C17.178 84.536 16.884 84.592 16.66 84.592C16.422 84.592 16.114 84.452 15.792 84.102C15.568 83.878 15.806 83.556 16.058 83.668C16.296 83.78 16.87 83.78 17.612 83.78H18.284C18.746 83.766 18.872 83.696 19.068 83.696ZM21.504 88.148C21.504 88.358 21.602 88.47 21.812 88.47H23.352V84.55H21.504V88.148ZM27.3895 81.344C27.3895 78.698 28.8315 77.704 30.5955 77.704C32.3455 77.704 33.8015 78.698 33.8015 81.344C33.8015 83.99 32.3455 84.956 30.5955 84.956C28.8315 84.956 27.3895 83.99 27.3895 81.344ZM28.3975 81.358C28.3975 83.458 29.4055 84.2 30.5955 84.2C31.8135 84.2 32.7935 83.458 32.7935 81.358C32.7935 79.23 31.8135 78.46 30.5955 78.46C29.4055 78.46 28.3975 79.23 28.3975 81.358ZM38.3655 81.848H36.8955V87.728C36.8955 88.274 36.7135 88.792 36.2795 88.792C36.0695 88.792 35.9295 88.582 35.9295 88.078V77.536C35.9295 76.878 35.6495 76.696 34.9355 76.514C34.6695 76.444 34.8095 75.954 35.1035 75.996L36.6855 76.22C36.9795 76.262 36.9515 76.43 36.9515 76.528C36.9515 76.64 36.8955 76.878 36.8955 77.27V81.078H38.3655C38.6315 81.078 38.7295 81.022 38.8555 81.022C38.9675 81.022 39.0935 81.162 39.0935 81.288C39.0935 81.512 38.6735 81.848 38.3655 81.848ZM43.6528 83.654C46.3128 82.394 48.0768 80.56 48.9448 78.138H46.1308C45.6968 78.138 45.4028 78.208 45.1788 78.208C44.9408 78.208 44.6328 78.054 44.3108 77.704C44.1008 77.48 44.3248 77.13 44.5768 77.256C44.8148 77.368 45.3888 77.368 46.1308 77.368H48.5668C49.1548 77.368 49.4068 77.284 49.6028 77.284C49.8408 77.284 50.1628 77.536 50.1628 77.718C50.1628 77.872 50.0508 78.096 49.9528 78.39C49.0288 81.022 47.0408 82.982 43.9468 84.116C43.6668 84.214 43.3868 83.78 43.6528 83.654ZM53.4248 77.27V80.406H54.8948C55.1468 80.406 55.2588 80.35 55.3848 80.35C55.4968 80.35 55.6228 80.49 55.6228 80.616C55.6228 80.854 55.2028 81.176 54.8948 81.176H53.4248V84.536C53.4248 85.082 53.2288 85.6 52.8088 85.6C52.6128 85.6 52.4588 85.39 52.4588 84.886V77.536C52.4588 76.892 52.1648 76.696 51.4648 76.514C51.1988 76.444 51.3248 75.954 51.6328 75.996L53.2148 76.22C53.5088 76.262 53.4808 76.43 53.4808 76.528C53.4808 76.64 53.4248 76.878 53.4248 77.27ZM46.7468 88.134V86.174C46.7468 85.572 46.5508 85.446 45.8368 85.264C45.5708 85.194 45.6548 84.704 45.9908 84.746L47.5028 84.914C47.7828 84.942 47.7548 85.124 47.7548 85.222C47.7548 85.348 47.7128 85.53 47.7128 85.908V88.008C47.7128 88.218 47.8108 88.33 48.0208 88.33H53.2848C53.5508 88.33 53.7188 88.26 53.8448 88.26C53.9568 88.26 54.0828 88.4 54.0828 88.526C54.0828 88.764 53.6068 89.1 53.2848 89.1H47.6848C47.0688 89.1 46.7468 88.694 46.7468 88.134ZM57.9382 83.794C57.9382 84.004 58.0362 84.116 58.2462 84.116C60.2062 84.158 62.4182 83.864 65.0642 83.206V77.536C65.0642 76.878 64.7842 76.696 64.0702 76.514C63.8042 76.444 63.9442 75.954 64.2382 75.996L65.8202 76.22C66.1142 76.262 66.0862 76.43 66.0862 76.528C66.0862 76.64 66.0302 76.878 66.0302 77.27V81.078H67.5002C67.7662 81.078 67.8642 81.022 67.9902 81.022C68.1022 81.022 68.2282 81.162 68.2282 81.288C68.2282 81.512 67.8082 81.848 67.5002 81.848H66.0302V87.728C66.0302 88.274 65.8482 88.792 65.4142 88.792C65.2042 88.792 65.0642 88.582 65.0642 88.078V83.794C62.4322 84.55 60.0382 84.928 57.9102 84.956C57.2942 84.97 56.9722 84.55 56.9722 83.99V79.216C56.9722 78.726 56.8322 78.6 56.2302 78.502C55.9222 78.46 56.0482 77.956 56.2722 77.956H62.0122C62.2782 77.956 62.3762 77.9 62.5022 77.9C62.6142 77.9 62.7402 78.04 62.7402 78.166C62.7402 78.39 62.3202 78.726 62.0122 78.726H57.9382V83.794ZM70.0537 87.644C69.6057 87.644 69.2557 87.294 69.2557 86.874C69.2557 86.426 69.6197 86.09 70.0537 86.09C70.4877 86.09 70.8657 86.412 70.8657 86.874C70.8657 87.308 70.5157 87.644 70.0537 87.644Z" fill="#373737"/>
<path d="M194.914 106.94H191.302C191.106 106.94 191.008 106.842 191.008 106.646V106.394C191.008 106.198 191.106 106.1 191.302 106.1H194.914C195.11 106.1 195.208 106.198 195.208 106.394V106.646C195.208 106.842 195.11 106.94 194.914 106.94ZM203.758 110.846C203.758 108.942 205.326 108.242 207.244 108.242C209.148 108.242 210.73 108.942 210.73 110.846C210.73 112.75 209.148 113.436 207.244 113.436C205.326 113.436 203.758 112.75 203.758 110.846ZM201.182 104.028C201.182 101.956 202.596 101.186 204.332 101.186C206.068 101.186 207.496 101.956 207.496 104.028C207.496 106.086 206.068 106.828 204.332 106.828C202.596 106.828 201.182 106.086 201.182 104.028ZM204.766 110.86C204.766 112.19 205.9 112.68 207.244 112.68C208.63 112.68 209.736 112.19 209.736 110.86C209.736 109.502 208.63 108.998 207.244 108.998C205.9 108.998 204.766 109.502 204.766 110.86ZM202.19 104.042C202.19 105.554 203.156 106.072 204.332 106.072C205.508 106.072 206.502 105.554 206.502 104.042C206.502 102.474 205.508 101.942 204.332 101.942C203.156 101.942 202.19 102.474 202.19 104.042ZM210.688 101.27V103.762H212.158C212.424 103.762 212.522 103.706 212.648 103.706C212.76 103.706 212.886 103.846 212.886 103.972C212.886 104.196 212.466 104.532 212.158 104.532H210.688V107.094C210.688 107.64 210.506 108.158 210.072 108.158C209.862 108.158 209.722 107.948 209.722 107.444V101.536C209.722 100.878 209.442 100.696 208.728 100.514C208.462 100.444 208.602 99.954 208.896 99.996L210.478 100.22C210.772 100.262 210.744 100.43 210.744 100.528C210.744 100.64 210.688 100.878 210.688 101.27ZM215.72 105.988V102.488C215.72 102.012 215.58 101.858 214.978 101.774C214.67 101.732 214.796 101.228 215.02 101.228H222.258C222.51 101.228 222.622 101.172 222.748 101.172C222.86 101.172 222.986 101.312 222.986 101.438C222.986 101.676 222.566 101.998 222.258 101.998H216.686V105.862C216.686 106.072 216.784 106.184 216.994 106.184H222.44C222.692 106.184 222.804 106.128 222.93 106.128C223.042 106.128 223.168 106.268 223.168 106.394C223.168 106.632 222.748 106.954 222.44 106.954H216.658C216.042 106.954 215.72 106.548 215.72 105.988ZM213.396 110.062C213.186 109.838 213.41 109.488 213.662 109.614C213.9 109.726 214.474 109.726 215.216 109.726H224.596C224.848 109.726 224.96 109.67 225.086 109.67C225.254 109.67 225.324 109.768 225.324 109.936C225.324 110.216 225.002 110.496 224.596 110.496H215.216C214.782 110.496 214.488 110.566 214.264 110.566C214.026 110.566 213.718 110.412 213.396 110.062ZM230.635 101.886C230.873 101.886 231.195 102.138 231.195 102.32C231.195 102.446 231.153 102.628 231.153 103.006V105.47V105.498C231.153 105.736 230.873 106.058 230.565 106.058H227.919V108.606C227.919 108.816 228.017 108.928 228.227 108.928C229.417 108.928 230.621 108.872 231.811 108.69C232.077 108.648 232.133 108.606 232.259 108.592C232.371 108.592 232.511 108.718 232.511 108.844C232.525 109.082 232.189 109.306 231.867 109.376C230.663 109.614 229.347 109.74 227.891 109.768C227.275 109.782 226.967 109.362 226.967 108.802V106.548C226.967 106.072 226.827 105.918 226.225 105.834C225.917 105.792 226.043 105.288 226.267 105.288H230.201V102.74H228.367C227.933 102.74 227.639 102.81 227.415 102.81C227.177 102.81 226.869 102.656 226.547 102.306C226.337 102.082 226.561 101.732 226.813 101.858C227.051 101.97 227.625 101.97 228.367 101.97H229.837C230.299 101.956 230.453 101.886 230.635 101.886ZM231.559 105.4C231.335 105.176 231.573 104.854 231.825 104.966C232.035 105.064 232.357 105.078 233.141 105.078H233.393V101.816C233.393 101.186 233.141 101.004 232.455 100.822C232.203 100.752 232.329 100.276 232.623 100.318L234.107 100.514C234.401 100.556 234.373 100.724 234.373 100.822C234.373 100.934 234.317 101.172 234.317 101.564V111.196C234.317 111.742 234.121 112.232 233.729 112.232C233.547 112.232 233.393 112.022 233.393 111.532V105.834H233.141C232.707 105.834 232.623 105.904 232.413 105.904C232.231 105.904 231.881 105.722 231.559 105.4ZM236.921 101.27V111.742C236.921 112.288 236.725 112.778 236.319 112.778C236.137 112.778 235.983 112.568 235.983 112.078V101.536C235.983 100.878 235.703 100.696 234.989 100.514C234.723 100.444 234.863 99.954 235.157 99.996L236.711 100.22C237.005 100.262 236.977 100.43 236.977 100.528C236.977 100.64 236.921 100.878 236.921 101.27ZM248.467 106.142H244.169C243.553 106.142 243.231 105.736 243.231 105.176V102.418C243.231 101.928 243.175 101.802 242.629 101.704C242.321 101.662 242.447 101.158 242.671 101.158H247.725C248.187 101.144 248.341 101.074 248.537 101.074C248.775 101.074 249.097 101.326 249.097 101.508C249.097 101.634 249.055 101.816 249.055 102.194V105.582C249.055 105.82 248.789 106.142 248.467 106.142ZM251.827 107.64C252.065 107.64 252.387 107.892 252.387 108.074C252.387 108.2 252.345 108.382 252.345 108.76V110.286C252.345 110.51 252.149 110.832 251.827 110.832H246.381V112.162C246.381 112.372 246.479 112.484 246.689 112.484H252.149C252.415 112.484 252.583 112.414 252.709 112.414C252.821 112.414 252.947 112.554 252.947 112.68C252.947 112.904 252.485 113.24 252.149 113.24H246.353C245.737 113.24 245.415 112.834 245.415 112.274V111.252C245.415 110.818 245.373 110.678 244.813 110.608C244.505 110.566 244.617 110.076 244.855 110.076H251.379V108.48H246.703C246.269 108.48 245.975 108.55 245.751 108.55C245.513 108.55 245.205 108.396 244.883 108.046C244.659 107.822 244.897 107.5 245.149 107.612C245.387 107.724 245.961 107.724 246.703 107.724H251.015C251.477 107.71 251.631 107.64 251.827 107.64ZM244.197 105.05C244.197 105.26 244.295 105.372 244.505 105.372H248.089V101.928H244.197V105.05ZM252.429 101.27V103.412H253.899C254.165 103.412 254.263 103.356 254.389 103.356C254.501 103.356 254.627 103.496 254.627 103.622C254.627 103.846 254.207 104.182 253.899 104.182H252.429V106.058C252.429 106.604 252.247 107.122 251.813 107.122C251.603 107.122 251.463 106.912 251.463 106.408V101.536C251.463 100.878 251.183 100.696 250.469 100.514C250.203 100.444 250.343 99.954 250.637 99.996L252.219 100.22C252.513 100.262 252.485 100.43 252.485 100.528C252.485 100.64 252.429 100.878 252.429 101.27ZM264.138 100.99C264.376 100.99 264.698 101.242 264.698 101.424C264.698 101.55 264.656 101.732 264.656 102.11V104.07V104.098C264.656 104.336 264.376 104.658 264.068 104.658H258.384V106.394C258.384 106.604 258.482 106.716 258.692 106.716H264.432C264.684 106.716 264.796 106.66 264.922 106.66C265.034 106.66 265.16 106.814 265.16 106.94C265.16 107.178 264.74 107.486 264.432 107.486H258.356C257.74 107.486 257.418 107.08 257.418 106.52V105.078C257.418 104.644 257.376 104.504 256.816 104.434C256.508 104.392 256.634 103.888 256.858 103.888H263.69V101.844H258.846C258.412 101.844 258.118 101.914 257.894 101.914C257.656 101.914 257.348 101.76 257.026 101.41C256.816 101.186 257.04 100.836 257.292 100.962C257.53 101.074 258.104 101.074 258.846 101.074H263.326C263.788 101.06 263.956 100.99 264.138 100.99ZM255.136 110.342C254.926 110.118 255.15 109.768 255.402 109.894C255.64 110.006 256.214 110.006 256.956 110.006H260.68V109.264C260.68 108.704 260.54 108.564 259.854 108.396C259.588 108.326 259.672 107.836 260.008 107.878L261.436 108.032C261.716 108.06 261.688 108.242 261.688 108.34C261.688 108.466 261.646 108.648 261.646 109.026V110.006H266.336C266.588 110.006 266.7 109.95 266.826 109.95C266.994 109.95 267.064 110.048 267.064 110.216C267.064 110.496 266.742 110.776 266.336 110.776H256.956C256.522 110.776 256.228 110.846 256.004 110.846C255.766 110.846 255.458 110.692 255.136 110.342ZM276.439 106.94H272.827C272.631 106.94 272.533 106.842 272.533 106.646V106.394C272.533 106.198 272.631 106.1 272.827 106.1H276.439C276.635 106.1 276.733 106.198 276.733 106.394V106.646C276.733 106.842 276.635 106.94 276.439 106.94Z" fill="#ABB8CE"/>
</g>
<rect x="-9.5" y="22.5" width="311" height="119" rx="15.5" stroke="#F2F2F2"/>
</g>
<path d="M105.545 164.27H104.187L103.557 166.706C103.501 166.902 103.375 167 103.179 167H102.843C102.647 167 102.577 166.902 102.633 166.706L103.263 164.27H101.303L100.673 166.706C100.617 166.902 100.491 167 100.295 167H99.959C99.763 167 99.693 166.902 99.749 166.706L100.379 164.27H99.245C99.049 164.27 98.937 164.172 98.993 163.99L99.077 163.71C99.133 163.542 99.203 163.5 99.399 163.5H100.575L101.107 161.414H99.791C99.595 161.414 99.483 161.316 99.539 161.134L99.623 160.854C99.679 160.686 99.749 160.644 99.945 160.644H101.303L101.947 158.194C102.003 157.998 102.129 157.9 102.325 157.9H102.661C102.857 157.9 102.927 157.998 102.871 158.194L102.227 160.644H104.187L104.831 158.194C104.887 157.998 105.013 157.9 105.209 157.9H105.545C105.741 157.9 105.811 157.998 105.755 158.194L105.111 160.644H106.245C106.441 160.644 106.553 160.742 106.497 160.924L106.413 161.204C106.357 161.372 106.287 161.414 106.091 161.414H104.915L104.383 163.5H105.699C105.895 163.5 106.007 163.598 105.951 163.78L105.867 164.06C105.811 164.228 105.741 164.27 105.545 164.27ZM102.031 161.414L101.499 163.5H103.459L103.991 161.414H102.031ZM108.739 159.174C108.739 158.614 108.585 158.488 107.871 158.306C107.605 158.236 107.689 157.746 108.025 157.788L109.495 157.942C109.775 157.984 109.747 158.152 109.747 158.25C109.747 158.376 109.705 158.558 109.705 158.936V163.766C109.705 163.976 109.803 164.088 110.013 164.088C111.973 164.13 114.045 163.836 116.691 163.178V157.536C116.691 156.878 116.411 156.696 115.697 156.514C115.431 156.444 115.571 155.954 115.865 155.996L117.447 156.22C117.741 156.262 117.713 156.43 117.713 156.528C117.713 156.64 117.657 156.878 117.657 157.27V160.798H119.127C119.393 160.798 119.491 160.742 119.617 160.742C119.729 160.742 119.855 160.882 119.855 161.008C119.855 161.232 119.435 161.568 119.127 161.568H117.657V167.728C117.657 168.274 117.475 168.792 117.041 168.792C116.831 168.792 116.691 168.582 116.691 168.078V163.766C114.045 164.536 111.847 164.886 109.677 164.928C109.061 164.942 108.739 164.522 108.739 163.962V159.174ZM120.757 161.344C120.757 158.698 122.199 157.704 123.963 157.704C125.713 157.704 127.169 158.698 127.169 161.344C127.169 163.99 125.713 164.956 123.963 164.956C122.199 164.956 120.757 163.99 120.757 161.344ZM121.765 161.358C121.765 163.458 122.773 164.2 123.963 164.2C125.181 164.2 126.161 163.458 126.161 161.358C126.161 159.23 125.181 158.46 123.963 158.46C122.773 158.46 121.765 159.23 121.765 161.358ZM131.733 161.848H130.263V167.728C130.263 168.274 130.081 168.792 129.647 168.792C129.437 168.792 129.297 168.582 129.297 168.078V157.536C129.297 156.878 129.017 156.696 128.303 156.514C128.037 156.444 128.177 155.954 128.471 155.996L130.053 156.22C130.347 156.262 130.319 156.43 130.319 156.528C130.319 156.64 130.263 156.878 130.263 157.27V161.078H131.733C131.999 161.078 132.097 161.022 132.223 161.022C132.335 161.022 132.461 161.162 132.461 161.288C132.461 161.512 132.041 161.848 131.733 161.848ZM144.338 162.268H142.868V167.728C142.868 168.274 142.686 168.792 142.252 168.792C142.042 168.792 141.902 168.582 141.902 168.078V157.536C141.902 156.878 141.622 156.696 140.908 156.514C140.642 156.444 140.782 155.954 141.076 155.996L142.658 156.22C142.952 156.262 142.924 156.43 142.924 156.528C142.924 156.64 142.868 156.878 142.868 157.27V161.498H144.338C144.604 161.498 144.702 161.442 144.828 161.442C144.94 161.442 145.066 161.582 145.066 161.708C145.066 161.932 144.646 162.268 144.338 162.268ZM132.984 165.222C135.756 163.71 137.576 161.442 138.542 158.656H135.28C134.846 158.656 134.552 158.726 134.328 158.726C134.09 158.726 133.782 158.572 133.46 158.222C133.25 157.998 133.474 157.648 133.726 157.774C133.964 157.886 134.538 157.886 135.28 157.886H138.164C138.752 157.886 138.976 157.802 139.172 157.802C139.41 157.802 139.732 158.054 139.732 158.236C139.732 158.39 139.62 158.614 139.55 158.908C138.556 161.974 136.442 164.228 133.278 165.684C132.998 165.81 132.718 165.362 132.984 165.222ZM145.968 161.344C145.968 158.698 147.41 157.704 149.174 157.704C150.924 157.704 152.38 158.698 152.38 161.344C152.38 163.99 150.924 164.956 149.174 164.956C147.41 164.956 145.968 163.99 145.968 161.344ZM146.976 161.358C146.976 163.458 147.984 164.2 149.174 164.2C150.392 164.2 151.372 163.458 151.372 161.358C151.372 159.23 150.392 158.46 149.174 158.46C147.984 158.46 146.976 159.23 146.976 161.358ZM156.944 163.934H155.474V167.728C155.474 168.274 155.292 168.792 154.858 168.792C154.648 168.792 154.508 168.582 154.508 168.078V157.536C154.508 156.878 154.228 156.696 153.514 156.514C153.248 156.444 153.388 155.954 153.682 155.996L155.264 156.22C155.558 156.262 155.53 156.43 155.53 156.528C155.53 156.64 155.474 156.878 155.474 157.27V159.664H156.944C157.21 159.664 157.308 159.608 157.434 159.608C157.546 159.608 157.672 159.748 157.672 159.874C157.672 160.098 157.252 160.434 156.944 160.434H155.474V163.164H156.944C157.21 163.164 157.308 163.108 157.434 163.108C157.546 163.108 157.672 163.248 157.672 163.374C157.672 163.598 157.252 163.934 156.944 163.934ZM159.119 161.204C159.119 159.706 160.435 159.132 162.059 159.132C163.697 159.132 165.027 159.706 165.027 161.204C165.027 162.702 163.697 163.262 162.059 163.262C160.435 163.262 159.119 162.702 159.119 161.204ZM167.477 164.144C167.715 164.144 168.037 164.396 168.037 164.578C168.037 164.704 167.995 164.886 167.995 165.264V166.538C167.995 166.762 167.799 167.084 167.477 167.084H162.031V168.162C162.031 168.372 162.129 168.484 162.339 168.484H167.799C168.065 168.484 168.233 168.414 168.359 168.414C168.471 168.414 168.597 168.554 168.597 168.68C168.597 168.904 168.135 169.24 167.799 169.24H162.003C161.387 169.24 161.065 168.834 161.065 168.274V167.504C161.065 167.07 161.023 166.93 160.463 166.86C160.155 166.818 160.267 166.328 160.505 166.328H167.029V164.984H162.353C161.919 164.984 161.625 165.054 161.401 165.054C161.163 165.054 160.855 164.9 160.533 164.55C160.309 164.326 160.547 164.004 160.799 164.116C161.037 164.228 161.611 164.228 162.353 164.228H166.665C167.127 164.214 167.281 164.144 167.477 164.144ZM168.079 157.27V159.916H169.549C169.815 159.916 169.913 159.86 170.039 159.86C170.151 159.86 170.277 160 170.277 160.126C170.277 160.35 169.857 160.686 169.549 160.686H168.079V162.562C168.079 163.108 167.897 163.626 167.463 163.626C167.253 163.626 167.113 163.416 167.113 162.912V157.536C167.113 156.878 166.833 156.696 166.119 156.514C165.853 156.444 165.993 155.954 166.287 155.996L167.869 156.22C168.163 156.262 168.135 156.43 168.135 156.528C168.135 156.64 168.079 156.878 168.079 157.27ZM160.113 161.218C160.113 162.184 161.009 162.506 162.059 162.506C163.151 162.506 164.047 162.184 164.047 161.218C164.047 160.224 163.151 159.902 162.059 159.902C161.009 159.902 160.113 160.224 160.113 161.218ZM165.027 158.572H160.113C159.679 158.572 159.385 158.642 159.161 158.642C158.923 158.642 158.615 158.474 158.293 158.124C158.083 157.9 158.307 157.578 158.559 157.704C158.797 157.816 159.371 157.816 160.113 157.816H165.027C165.279 157.816 165.391 157.76 165.517 157.76C165.629 157.76 165.755 157.886 165.755 158.012C165.755 158.25 165.335 158.572 165.027 158.572ZM162.003 157.102C161.317 157.102 160.631 157.116 160.043 156.57C159.819 156.36 160.043 155.982 160.309 156.094C160.547 156.206 161.065 156.276 162.003 156.276H163.655C163.767 156.276 163.879 156.444 163.879 156.598C163.879 156.836 163.165 157.102 162.003 157.102ZM179.187 157.55V161.204H180.923V157.522C180.923 156.864 180.811 156.696 180.097 156.514C179.831 156.444 179.971 155.954 180.265 155.996L181.637 156.206C181.931 156.248 181.903 156.416 181.903 156.514C181.903 156.626 181.847 156.864 181.847 157.256V167.742C181.847 168.288 181.665 168.778 181.259 168.778C181.077 168.778 180.923 168.568 180.923 168.078V161.96H179.187V167.196C179.187 167.742 179.005 168.232 178.613 168.232C178.431 168.232 178.277 168.022 178.277 167.532V164.298C177.493 164.69 176.625 164.97 175.659 165.11C175.197 165.18 174.903 164.914 174.777 164.55C174.133 164.872 173.377 165.054 172.509 165.11C171.893 165.152 171.571 164.704 171.571 164.144V159.37C171.571 158.88 171.529 158.726 171.053 158.656C170.745 158.614 170.871 158.11 171.095 158.11H173.181C173.447 158.11 173.545 158.054 173.671 158.054C173.783 158.054 173.909 158.194 173.909 158.32C173.909 158.544 173.489 158.88 173.181 158.88H172.495V163.948C172.495 164.158 172.593 164.27 172.803 164.27C173.377 164.27 174.063 164.172 174.721 163.976V159.37C174.721 158.88 174.693 158.726 174.301 158.656C173.993 158.6 174.119 158.11 174.343 158.11H176.765C177.031 158.11 177.129 158.054 177.255 158.054C177.367 158.054 177.493 158.194 177.493 158.32C177.493 158.544 177.073 158.88 176.765 158.88H175.645V163.948C175.645 164.158 175.743 164.284 175.953 164.27C176.695 164.2 177.451 164.004 178.277 163.71V157.802C178.277 157.172 178.193 157.004 177.507 156.822C177.255 156.752 177.381 156.276 177.675 156.318L178.977 156.5C179.271 156.542 179.243 156.71 179.243 156.808C179.243 156.92 179.187 157.158 179.187 157.55Z" fill="#ABB8CE"/>
<path d="M199.334 164.27H197.976L197.346 166.706C197.29 166.902 197.164 167 196.968 167H196.632C196.436 167 196.366 166.902 196.422 166.706L197.052 164.27H195.092L194.462 166.706C194.406 166.902 194.28 167 194.084 167H193.748C193.552 167 193.482 166.902 193.538 166.706L194.168 164.27H193.034C192.838 164.27 192.726 164.172 192.782 163.99L192.866 163.71C192.922 163.542 192.992 163.5 193.188 163.5H194.364L194.896 161.414H193.58C193.384 161.414 193.272 161.316 193.328 161.134L193.412 160.854C193.468 160.686 193.538 160.644 193.734 160.644H195.092L195.736 158.194C195.792 157.998 195.918 157.9 196.114 157.9H196.45C196.646 157.9 196.716 157.998 196.66 158.194L196.016 160.644H197.976L198.62 158.194C198.676 157.998 198.802 157.9 198.998 157.9H199.334C199.53 157.9 199.6 157.998 199.544 158.194L198.9 160.644H200.034C200.23 160.644 200.342 160.742 200.286 160.924L200.202 161.204C200.146 161.372 200.076 161.414 199.88 161.414H198.704L198.172 163.5H199.488C199.684 163.5 199.796 163.598 199.74 163.78L199.656 164.06C199.6 164.228 199.53 164.27 199.334 164.27ZM195.82 161.414L195.288 163.5H197.248L197.78 161.414H195.82ZM203.956 168.288V165.908C203.956 165.418 203.9 165.292 203.354 165.194C203.046 165.152 203.172 164.648 203.396 164.648H206.952V162.156H203.368C202.934 162.156 202.64 162.226 202.416 162.226C202.178 162.226 201.87 162.072 201.548 161.722C201.338 161.498 201.562 161.148 201.814 161.274C202.052 161.386 202.626 161.386 203.368 161.386H204.838C205.23 160.14 205.496 158.824 205.678 157.494H204.502C204.068 157.494 203.774 157.564 203.55 157.564C203.312 157.564 203.004 157.41 202.682 157.06C202.472 156.836 202.696 156.486 202.948 156.612C203.186 156.724 203.76 156.724 204.502 156.724H205.272C205.86 156.724 206.07 156.64 206.266 156.64C206.504 156.64 206.812 156.892 206.812 157.074C206.812 157.2 206.798 157.354 206.784 157.62C206.532 158.964 206.112 160.224 205.496 161.386H210.27C210.564 160.14 210.76 158.824 210.844 157.494H209.052C208.618 157.494 208.324 157.564 208.1 157.564C207.862 157.564 207.554 157.41 207.232 157.06C207.022 156.836 207.246 156.486 207.498 156.612C207.736 156.724 208.31 156.724 209.052 156.724H210.438C211.026 156.724 211.236 156.64 211.432 156.64C211.67 156.64 211.978 156.892 211.978 157.074C211.978 157.2 211.964 157.34 211.95 157.62C211.81 158.922 211.446 160.182 210.914 161.386H212.748C213 161.386 213.112 161.33 213.238 161.33C213.406 161.33 213.476 161.428 213.476 161.596C213.476 161.876 213.154 162.156 212.748 162.156H207.918V164.648H209.542C210.144 164.648 210.312 164.564 210.522 164.564C210.76 164.564 211.082 164.816 211.082 164.998C211.082 165.124 211.04 165.306 211.04 165.684V168.666V168.694C211.04 168.932 210.774 169.254 210.452 169.254H204.894C204.278 169.254 203.956 168.848 203.956 168.288ZM205.23 168.484H210.074V165.418H204.922V168.162C204.922 168.372 205.02 168.484 205.23 168.484ZM216.366 158.488C216.366 156.766 218.004 156.136 220.048 156.136C222.106 156.136 223.758 156.766 223.758 158.488C223.758 160.21 222.106 160.826 220.048 160.826C218.004 160.826 216.366 160.21 216.366 158.488ZM223.254 163.892C223.492 163.892 223.814 164.144 223.814 164.326C223.814 164.452 223.772 164.634 223.772 165.012V166.384V166.412C223.772 166.636 223.576 166.958 223.254 166.958H217.528V168.162C217.528 168.372 217.626 168.484 217.836 168.484H223.548C223.814 168.484 223.982 168.414 224.108 168.414C224.22 168.414 224.346 168.554 224.346 168.68C224.346 168.904 223.884 169.24 223.548 169.24H217.5C216.884 169.24 216.562 168.834 216.562 168.274V167.378C216.562 166.944 216.52 166.804 215.96 166.734C215.652 166.692 215.764 166.202 216.002 166.202H222.806V164.732H217.92C217.486 164.732 217.192 164.802 216.968 164.802C216.73 164.802 216.422 164.648 216.1 164.298C215.876 164.074 216.114 163.752 216.366 163.864C216.604 163.976 217.178 163.976 217.92 163.976H222.274C222.876 163.976 223.044 163.892 223.254 163.892ZM217.36 158.502C217.36 159.664 218.592 160.07 220.048 160.07C221.546 160.07 222.778 159.664 222.778 158.502C222.778 157.312 221.546 156.892 220.048 156.892C218.592 156.892 217.36 157.312 217.36 158.502ZM214.154 162.184C213.944 161.96 214.168 161.61 214.42 161.736C214.658 161.848 215.232 161.848 215.974 161.848H225.354C225.606 161.848 225.718 161.792 225.844 161.792C226.012 161.792 226.082 161.89 226.082 162.058C226.082 162.338 225.76 162.618 225.354 162.618H215.974C215.54 162.618 215.246 162.688 215.022 162.688C214.784 162.688 214.476 162.534 214.154 162.184ZM237.357 157.27V167.728C237.357 168.274 237.175 168.792 236.741 168.792C236.531 168.792 236.391 168.582 236.391 168.078V157.536C236.391 156.878 236.111 156.696 235.397 156.514C235.131 156.444 235.271 155.954 235.565 155.996L237.147 156.22C237.441 156.262 237.413 156.43 237.413 156.528C237.413 156.64 237.357 156.878 237.357 157.27ZM227.571 161.344C227.571 158.698 228.999 157.704 230.735 157.704C232.471 157.704 233.913 158.698 233.913 161.344C233.913 163.99 232.471 164.956 230.735 164.956C228.999 164.956 227.571 163.99 227.571 161.344ZM228.579 161.358C228.579 163.458 229.573 164.2 230.735 164.2C231.911 164.2 232.905 163.458 232.905 161.358C232.905 159.23 231.911 158.46 230.735 158.46C229.573 158.46 228.579 159.23 228.579 161.358ZM248.339 156.514C248.577 156.514 248.899 156.766 248.899 156.948C248.899 157.074 248.857 157.256 248.857 157.634V159.384C248.857 159.608 248.661 159.93 248.339 159.93H242.641V161.4C242.641 161.61 242.739 161.722 242.949 161.722H248.549C248.815 161.722 248.983 161.652 249.109 161.652C249.221 161.652 249.347 161.792 249.347 161.918C249.347 162.142 248.885 162.478 248.549 162.478H242.613C241.997 162.478 241.675 162.072 241.675 161.512V160.35C241.675 159.916 241.633 159.776 241.073 159.706C240.765 159.664 240.877 159.174 241.115 159.174H247.891V157.354H243.103C242.669 157.354 242.375 157.424 242.151 157.424C241.913 157.424 241.605 157.27 241.283 156.92C241.059 156.696 241.297 156.374 241.549 156.486C241.787 156.598 242.361 156.598 243.103 156.598H247.359C247.961 156.598 248.129 156.514 248.339 156.514ZM239.365 164.382C239.155 164.158 239.379 163.808 239.631 163.934C239.869 164.046 240.443 164.046 241.185 164.046H250.565C250.817 164.046 250.929 163.99 251.055 163.99C251.223 163.99 251.293 164.088 251.293 164.256C251.293 164.536 250.971 164.816 250.565 164.816H245.749V168.008C245.749 168.554 245.553 169.072 245.105 169.072C244.825 169.072 244.783 168.68 244.783 168.358V164.816H241.185C240.751 164.816 240.457 164.886 240.233 164.886C239.995 164.886 239.687 164.732 239.365 164.382ZM251.97 165.922C251.76 165.698 251.984 165.348 252.236 165.474C252.474 165.586 253.048 165.586 253.79 165.586H256.534V162.548C256.534 161.988 256.394 161.848 255.708 161.68C255.442 161.61 255.526 161.12 255.862 161.162L257.29 161.316C257.57 161.344 257.542 161.526 257.542 161.624C257.542 161.75 257.5 161.932 257.5 162.31V165.586H263.17C263.422 165.586 263.534 165.53 263.66 165.53C263.828 165.53 263.898 165.628 263.898 165.796C263.898 166.076 263.576 166.356 263.17 166.356H253.79C253.356 166.356 253.062 166.426 252.838 166.426C252.6 166.426 252.292 166.272 251.97 165.922ZM261.798 158.376C261.756 159.762 261.238 162.156 260.496 164.046C260.384 164.34 259.88 164.2 259.936 163.934C260.356 162.002 260.608 160.07 260.664 158.11H255.372C254.938 158.11 254.644 158.18 254.42 158.18C254.182 158.18 253.874 158.026 253.552 157.676C253.342 157.452 253.566 157.102 253.818 157.228C254.056 157.34 254.63 157.34 255.372 157.34H260.258C260.846 157.34 261.084 157.256 261.28 157.256C261.518 157.256 261.84 157.508 261.84 157.69C261.84 157.816 261.812 157.998 261.798 158.376ZM275.104 169.24H268.636C268.202 169.24 267.908 169.31 267.684 169.31C267.446 169.31 267.138 169.156 266.816 168.806C266.606 168.582 266.83 168.232 267.082 168.358C267.32 168.47 267.894 168.47 268.636 168.47H269.21V167.154C269.21 166.594 269.196 166.454 268.622 166.314C268.356 166.244 268.44 165.782 268.776 165.824L269.938 165.95C270.218 165.978 270.19 166.16 270.19 166.258C270.19 166.384 270.148 166.566 270.148 166.944V168.47H273.074V167.07C273.074 166.51 273.06 166.356 272.486 166.216C272.22 166.146 272.304 165.684 272.64 165.726L273.802 165.866C274.082 165.894 274.054 166.076 274.054 166.174C274.054 166.3 274.012 166.482 274.012 166.86V168.47H275.104C275.398 168.47 275.608 168.414 275.734 168.414C275.846 168.414 275.972 168.554 275.972 168.68C275.972 168.918 275.454 169.24 275.104 169.24ZM269.56 157.312C269.364 158.138 269.084 158.894 268.706 159.594C269.686 160.35 270.736 161.05 271.716 161.596C271.884 161.75 272.08 162.198 272.08 162.534C272.08 162.744 271.814 162.968 271.59 162.758C270.75 162.002 269.616 161.134 268.328 160.252C267.628 161.33 266.662 162.24 265.416 162.968C265.15 163.122 264.786 162.786 265.01 162.604C266.662 161.33 267.824 159.776 268.412 157.914C268.412 157.48 268.132 157.284 267.516 157.06C267.264 156.948 267.376 156.486 267.712 156.556L269.336 156.92C269.616 156.976 269.574 157.214 269.56 157.312ZM275.174 157.27V162.702C275.174 163.248 274.978 163.766 274.558 163.766C274.362 163.766 274.208 163.556 274.208 163.052V157.536C274.208 156.892 273.914 156.696 273.214 156.514C272.948 156.444 273.074 155.954 273.382 155.996L274.964 156.22C275.258 156.262 275.23 156.43 275.23 156.528C275.23 156.64 275.174 156.878 275.174 157.27ZM274.684 165.264H269.056C268.622 165.264 268.328 165.334 268.104 165.334C267.866 165.334 267.558 165.18 267.236 164.83C267.026 164.606 267.25 164.256 267.502 164.382C267.74 164.494 268.314 164.494 269.056 164.494H274.684C274.978 164.494 275.188 164.438 275.314 164.438C275.426 164.438 275.552 164.578 275.552 164.704C275.552 164.942 275.034 165.264 274.684 165.264ZM279.393 158.488C279.393 156.766 281.031 156.136 283.075 156.136C285.133 156.136 286.785 156.766 286.785 158.488C286.785 160.21 285.133 160.826 283.075 160.826C281.031 160.826 279.393 160.21 279.393 158.488ZM286.281 163.892C286.519 163.892 286.841 164.144 286.841 164.326C286.841 164.452 286.799 164.634 286.799 165.012V166.384V166.412C286.799 166.636 286.603 166.958 286.281 166.958H280.555V168.162C280.555 168.372 280.653 168.484 280.863 168.484H286.575C286.841 168.484 287.009 168.414 287.135 168.414C287.247 168.414 287.373 168.554 287.373 168.68C287.373 168.904 286.911 169.24 286.575 169.24H280.527C279.911 169.24 279.589 168.834 279.589 168.274V167.378C279.589 166.944 279.547 166.804 278.987 166.734C278.679 166.692 278.791 166.202 279.029 166.202H285.833V164.732H280.947C280.513 164.732 280.219 164.802 279.995 164.802C279.757 164.802 279.449 164.648 279.127 164.298C278.903 164.074 279.141 163.752 279.393 163.864C279.631 163.976 280.205 163.976 280.947 163.976H285.301C285.903 163.976 286.071 163.892 286.281 163.892ZM280.387 158.502C280.387 159.664 281.619 160.07 283.075 160.07C284.573 160.07 285.805 159.664 285.805 158.502C285.805 157.312 284.573 156.892 283.075 156.892C281.619 156.892 280.387 157.312 280.387 158.502ZM277.181 162.184C276.971 161.96 277.195 161.61 277.447 161.736C277.685 161.848 278.259 161.848 279.001 161.848H288.381C288.633 161.848 288.745 161.792 288.871 161.792C289.039 161.792 289.109 161.89 289.109 162.058C289.109 162.338 288.787 162.618 288.381 162.618H279.001C278.567 162.618 278.273 162.688 278.049 162.688C277.811 162.688 277.503 162.534 277.181 162.184ZM298.187 157.55V161.204H299.923V157.522C299.923 156.864 299.811 156.696 299.097 156.514C298.831 156.444 298.971 155.954 299.265 155.996L300.637 156.206C300.931 156.248 300.903 156.416 300.903 156.514C300.903 156.626 300.847 156.864 300.847 157.256V167.742C300.847 168.288 300.665 168.778 300.259 168.778C300.077 168.778 299.923 168.568 299.923 168.078V161.96H298.187V167.196C298.187 167.742 298.005 168.232 297.613 168.232C297.431 168.232 297.277 168.022 297.277 167.532V164.298C296.493 164.69 295.625 164.97 294.659 165.11C294.197 165.18 293.903 164.914 293.777 164.55C293.133 164.872 292.377 165.054 291.509 165.11C290.893 165.152 290.571 164.704 290.571 164.144V159.37C290.571 158.88 290.529 158.726 290.053 158.656C289.745 158.614 289.871 158.11 290.095 158.11H292.181C292.447 158.11 292.545 158.054 292.671 158.054C292.783 158.054 292.909 158.194 292.909 158.32C292.909 158.544 292.489 158.88 292.181 158.88H291.495V163.948C291.495 164.158 291.593 164.27 291.803 164.27C292.377 164.27 293.063 164.172 293.721 163.976V159.37C293.721 158.88 293.693 158.726 293.301 158.656C292.993 158.6 293.119 158.11 293.343 158.11H295.765C296.031 158.11 296.129 158.054 296.255 158.054C296.367 158.054 296.493 158.194 296.493 158.32C296.493 158.544 296.073 158.88 295.765 158.88H294.645V163.948C294.645 164.158 294.743 164.284 294.953 164.27C295.695 164.2 296.451 164.004 297.277 163.71V157.802C297.277 157.172 297.193 157.004 296.507 156.822C296.255 156.752 296.381 156.276 296.675 156.318L297.977 156.5C298.271 156.542 298.243 156.71 298.243 156.808C298.243 156.92 298.187 157.158 298.187 157.55Z" fill="#ABB8CE"/>
<g filter="url(#filter1_d_0_10335)">
<g clip-path="url(#clip2_0_10335)">
<rect x="-10" y="190" width="312" height="168" rx="16" fill="white"/>
<line x1="-10" y1="190.5" x2="302" y2="190.5" stroke="#F2F2F2"/>
</g>
<rect x="-9.5" y="190.5" width="311" height="167" rx="15.5" stroke="#F2F2F2"/>
</g>
</g>
<rect x="0.5" y="0.5" width="311" height="209" rx="15.5" stroke="#D2D9E3"/>
<defs>
<filter id="filter0_d_0_10335" x="-22" y="13" width="336" height="144" filterUnits="userSpaceOnUse" color-interpolation-filters="sRGB">
<feFlood flood-opacity="0" result="BackgroundImageFix"/>
<feColorMatrix in="SourceAlpha" type="matrix" values="0 0 0 0 0 0 0 0 0 0 0 0 0 0 0 0 0 0 127 0" result="hardAlpha"/>
<feOffset dy="3"/>
<feGaussianBlur stdDeviation="6"/>
<feComposite in2="hardAlpha" operator="out"/>
<feColorMatrix type="matrix" values="0 0 0 0 0 0 0 0 0 0 0 0 0 0 0 0 0 0 0.04 0"/>
<feBlend mode="normal" in2="BackgroundImageFix" result="effect1_dropShadow_0_10335"/>
<feBlend mode="normal" in="SourceGraphic" in2="effect1_dropShadow_0_10335" result="shape"/>
</filter>
<filter id="filter1_d_0_10335" x="-22" y="181" width="336" height="192" filterUnits="userSpaceOnUse" color-interpolation-filters="sRGB">
<feFlood flood-opacity="0" result="BackgroundImageFix"/>
<feColorMatrix in="SourceAlpha" type="matrix" values="0 0 0 0 0 0 0 0 0 0 0 0 0 0 0 0 0 0 127 0" result="hardAlpha"/>
<feOffset dy="3"/>
<feGaussianBlur stdDeviation="6"/>
<feComposite in2="hardAlpha" operator="out"/>
<feColorMatrix type="matrix" values="0 0 0 0 0 0 0 0 0 0 0 0 0 0 0 0 0 0 0.04 0"/>
<feBlend mode="normal" in2="BackgroundImageFix" result="effect1_dropShadow_0_10335"/>
<feBlend mode="normal" in="SourceGraphic" in2="effect1_dropShadow_0_10335" result="shape"/>
</filter>
<clipPath id="clip0_0_10335">
<rect width="312" height="210" rx="16" fill="white"/>
</clipPath>
<clipPath id="clip1_0_10335">
<rect x="-10" y="22" width="312" height="120" rx="16" fill="white"/>
</clipPath>
<clipPath id="clip2_0_10335">
<rect x="-10" y="190" width="312" height="168" rx="16" fill="white"/>
</clipPath>
</defs>
</svg>
