<svg width="312" height="209" viewBox="0 0 312 209" fill="none" xmlns="http://www.w3.org/2000/svg">
<g clip-path="url(#clip0_0_10334)">
<rect width="312" height="209" rx="16" fill="#ECEFF4"/>
<path d="M93.6 148.1H91.66L90.76 151.58C90.68 151.86 90.5 152 90.22 152H89.74C89.46 152 89.36 151.86 89.44 151.58L90.34 148.1H87.54L86.64 151.58C86.56 151.86 86.38 152 86.1 152H85.62C85.34 152 85.24 151.86 85.32 151.58L86.22 148.1H84.6C84.32 148.1 84.16 147.96 84.24 147.7L84.36 147.3C84.44 147.06 84.54 147 84.82 147H86.5L87.26 144.02H85.38C85.1 144.02 84.94 143.88 85.02 143.62L85.14 143.22C85.22 142.98 85.32 142.92 85.6 142.92H87.54L88.46 139.42C88.54 139.14 88.72 139 89 139H89.48C89.76 139 89.86 139.14 89.78 139.42L88.86 142.92H91.66L92.58 139.42C92.66 139.14 92.84 139 93.12 139H93.6C93.88 139 93.98 139.14 93.9 139.42L92.98 142.92H94.6C94.88 142.92 95.04 143.06 94.96 143.32L94.84 143.72C94.76 143.96 94.66 144.02 94.38 144.02H92.7L91.94 147H93.82C94.1 147 94.26 147.14 94.18 147.4L94.06 147.8C93.98 148.04 93.88 148.1 93.6 148.1ZM88.58 144.02L87.82 147H90.62L91.38 144.02H88.58ZM99.8431 140.74C99.8431 137.74 102.223 136.64 105.183 136.64C108.143 136.64 110.543 137.74 110.543 140.74C110.543 143.72 108.143 144.8 105.183 144.8C102.223 144.8 99.8431 143.72 99.8431 140.74ZM101.263 140.76C101.263 142.94 103.043 143.72 105.183 143.72C107.363 143.72 109.143 142.94 109.143 140.76C109.143 138.52 107.363 137.72 105.183 137.72C103.043 137.72 101.263 138.52 101.263 140.76ZM96.7631 147.46C96.4631 147.14 96.7831 146.64 97.1431 146.82C97.4831 146.98 98.3031 146.98 99.3631 146.98H112.763C113.123 146.98 113.283 146.9 113.463 146.9C113.703 146.9 113.803 147.04 113.803 147.28C113.803 147.68 113.343 148.08 112.763 148.08H105.883V153.44C105.883 154.22 105.603 154.96 104.963 154.96C104.543 154.96 104.503 154.4 104.503 153.94V148.08H99.3631C98.7431 148.08 98.3231 148.18 98.0031 148.18C97.6631 148.18 97.2231 147.96 96.7631 147.46ZM117.551 148.34C117.231 148.02 117.571 147.56 117.931 147.72C118.271 147.88 119.091 147.88 120.151 147.88H122.491V145.66H117.371C116.751 145.66 116.331 145.76 116.011 145.76C115.671 145.76 115.231 145.54 114.771 145.04C114.471 144.72 114.791 144.22 115.151 144.4C115.491 144.56 116.311 144.56 117.371 144.56H130.771C131.131 144.56 131.291 144.48 131.471 144.48C131.711 144.48 131.811 144.62 131.811 144.86C131.811 145.26 131.351 145.66 130.771 145.66H123.871V147.88H126.371C127.231 147.88 127.471 147.76 127.771 147.76C128.111 147.76 128.571 148.12 128.571 148.38C128.571 148.56 128.511 148.82 128.511 149.36V151.26C128.511 151.58 128.231 152.04 127.771 152.04H119.591V153.66C119.591 153.96 119.731 154.12 120.031 154.12H128.191C128.571 154.12 128.811 154.02 128.991 154.02C129.151 154.02 129.331 154.22 129.331 154.4C129.331 154.72 128.671 155.2 128.191 155.2H119.551C118.671 155.2 118.211 154.62 118.211 153.82V152.64C118.211 152.02 118.151 151.82 117.351 151.72C116.911 151.66 117.071 150.96 117.411 150.96H127.131V148.96H120.151C119.531 148.96 119.111 149.06 118.791 149.06C118.451 149.06 118.011 148.84 117.551 148.34ZM117.931 139.84C117.931 137.38 120.271 136.48 123.191 136.48C126.131 136.48 128.491 137.38 128.491 139.84C128.491 142.3 126.131 143.18 123.191 143.18C120.271 143.18 117.931 142.3 117.931 139.84ZM119.351 139.86C119.351 141.52 121.111 142.1 123.191 142.1C125.331 142.1 127.091 141.52 127.091 139.86C127.091 138.16 125.331 137.56 123.191 137.56C121.111 137.56 119.351 138.16 119.351 139.86ZM144.259 138.52V143.72H147.039V138.48C147.039 137.54 146.639 137.28 145.619 137.02C145.239 136.92 145.439 136.22 145.859 136.28L148.079 136.6C148.499 136.66 148.459 136.9 148.459 137.04C148.459 137.2 148.379 137.54 148.379 138.1V153.06C148.379 153.84 148.099 154.54 147.519 154.54C147.259 154.54 147.039 154.24 147.039 153.54V144.8H144.259V152.28C144.259 153.06 143.979 153.76 143.419 153.76C143.159 153.76 142.939 153.46 142.939 152.76V138.88C142.939 137.98 142.579 137.72 141.599 137.46C141.239 137.36 141.419 136.68 141.839 136.74L143.959 137.02C144.379 137.08 144.339 137.32 144.339 137.46C144.339 137.62 144.259 137.96 144.259 138.52ZM133.759 146.92C133.759 144.38 135.419 143.44 137.499 143.44C139.599 143.44 141.279 144.38 141.279 146.92C141.279 149.42 139.599 150.36 137.499 150.36C135.419 150.36 133.759 149.42 133.759 146.92ZM135.179 146.94C135.179 148.66 136.259 149.26 137.499 149.26C138.799 149.26 139.879 148.66 139.879 146.94C139.879 145.16 138.799 144.54 137.499 144.54C136.259 144.54 135.179 145.16 135.179 146.94ZM140.779 142.24H135.519C134.899 142.24 134.479 142.34 134.159 142.34C133.819 142.34 133.379 142.1 132.919 141.6C132.619 141.28 132.939 140.82 133.299 141C133.639 141.16 134.459 141.16 135.519 141.16H140.779C141.139 141.16 141.299 141.08 141.479 141.08C141.639 141.08 141.819 141.26 141.819 141.44C141.819 141.78 141.219 142.24 140.779 142.24ZM137.579 139.4C136.599 139.4 135.819 139.42 134.979 138.64C134.659 138.34 134.979 137.8 135.359 137.96C135.699 138.12 136.239 138.22 137.579 138.22H139.639C139.799 138.22 139.959 138.46 139.959 138.68C139.959 139.02 139.239 139.4 137.579 139.4ZM153.867 141.74C153.867 138.56 156.247 137.4 159.207 137.4C162.167 137.4 164.567 138.56 164.567 141.74C164.567 144.9 162.167 146.04 159.207 146.04C156.247 146.04 153.867 144.9 153.867 141.74ZM155.287 141.76C155.287 144.1 157.067 144.96 159.207 144.96C161.387 144.96 163.167 144.1 163.167 141.76C163.167 139.36 161.387 138.48 159.207 138.48C157.067 138.48 155.287 139.36 155.287 141.76ZM150.787 150.86C150.487 150.54 150.807 150.04 151.167 150.22C151.507 150.38 152.327 150.38 153.387 150.38H155.727V148.46C155.727 147.66 155.607 147.5 154.687 147.24C154.307 147.14 154.427 146.44 154.907 146.5L156.807 146.7C157.207 146.74 157.167 147 157.167 147.14C157.167 147.32 157.107 147.58 157.107 148.12V150.38H161.887V148.38C161.887 147.58 161.747 147.4 160.847 147.14C160.467 147.04 160.587 146.34 161.067 146.4L162.967 146.62C163.367 146.66 163.327 146.92 163.327 147.06C163.327 147.24 163.267 147.5 163.267 148.04V150.38H166.787C167.147 150.38 167.307 150.3 167.487 150.3C167.727 150.3 167.827 150.44 167.827 150.68C167.827 151.08 167.367 151.48 166.787 151.48H153.387C152.767 151.48 152.347 151.58 152.027 151.58C151.687 151.58 151.247 151.36 150.787 150.86Z" fill="#ABB8CE"/>
<path d="M114.6 178.1H112.66L111.76 181.58C111.68 181.86 111.5 182 111.22 182H110.74C110.46 182 110.36 181.86 110.44 181.58L111.34 178.1H108.54L107.64 181.58C107.56 181.86 107.38 182 107.1 182H106.62C106.34 182 106.24 181.86 106.32 181.58L107.22 178.1H105.6C105.32 178.1 105.16 177.96 105.24 177.7L105.36 177.3C105.44 177.06 105.54 177 105.82 177H107.5L108.26 174.02H106.38C106.1 174.02 105.94 173.88 106.02 173.62L106.14 173.22C106.22 172.98 106.32 172.92 106.6 172.92H108.54L109.46 169.42C109.54 169.14 109.72 169 110 169H110.48C110.76 169 110.86 169.14 110.78 169.42L109.86 172.92H112.66L113.58 169.42C113.66 169.14 113.84 169 114.12 169H114.6C114.88 169 114.98 169.14 114.9 169.42L113.98 172.92H115.6C115.88 172.92 116.04 173.06 115.96 173.32L115.84 173.72C115.76 173.96 115.66 174.02 115.38 174.02H113.7L112.94 177H114.82C115.1 177 115.26 177.14 115.18 177.4L115.06 177.8C114.98 178.04 114.88 178.1 114.6 178.1ZM109.58 174.02L108.82 177H111.62L112.38 174.02H109.58ZM130.763 177.56C131.103 177.56 131.563 177.92 131.563 178.18C131.563 178.36 131.503 178.62 131.503 179.16V181.12V181.16C131.503 181.48 131.223 181.94 130.763 181.94H122.583V183.66C122.583 183.96 122.723 184.12 123.023 184.12H131.183C131.563 184.12 131.803 184.02 131.983 184.02C132.143 184.02 132.323 184.22 132.323 184.4C132.323 184.72 131.663 185.2 131.183 185.2H122.543C121.663 185.2 121.203 184.62 121.203 183.82V182.54C121.203 181.92 121.143 181.72 120.343 181.62C119.903 181.56 120.063 180.86 120.403 180.86H130.123V178.76H123.143C122.523 178.76 122.103 178.86 121.783 178.86C121.443 178.86 121.003 178.64 120.543 178.14C120.223 177.82 120.563 177.36 120.923 177.52C121.263 177.68 122.083 177.68 123.143 177.68H129.363C130.223 177.68 130.463 177.56 130.763 177.56ZM127.763 167.56C127.583 168.26 127.263 168.94 126.743 169.58C128.783 170.54 130.663 171.36 132.363 172.04C132.703 172.3 133.003 172.88 133.003 173.24C133.003 173.52 132.703 173.78 132.343 173.58C130.883 172.8 128.763 171.7 126.003 170.38C124.683 171.6 122.723 172.68 120.103 173.64C119.703 173.78 119.223 173.2 119.603 173.02C122.683 171.64 124.903 170.02 125.983 168.18C126.003 167.82 125.643 167.48 124.763 167.16C124.383 167.02 124.583 166.34 125.043 166.44L127.443 167C127.843 167.08 127.803 167.42 127.763 167.56ZM117.763 175.12C117.463 174.8 117.783 174.3 118.143 174.48C118.483 174.64 119.303 174.64 120.363 174.64H133.763C134.123 174.64 134.283 174.56 134.463 174.56C134.703 174.56 134.803 174.7 134.803 174.94C134.803 175.34 134.343 175.74 133.763 175.74H120.363C119.743 175.74 119.323 175.84 119.003 175.84C118.663 175.84 118.223 175.62 117.763 175.12ZM148.771 178.16C149.111 178.16 149.571 178.52 149.571 178.78C149.571 178.96 149.511 179.22 149.511 179.76V181.42V181.46C149.511 181.78 149.231 182.24 148.771 182.24H140.591V183.66C140.591 183.96 140.731 184.12 141.031 184.12H149.191C149.571 184.12 149.811 184.02 149.991 184.02C150.151 184.02 150.331 184.22 150.331 184.4C150.331 184.72 149.671 185.2 149.191 185.2H140.551C139.671 185.2 139.211 184.62 139.211 183.82V182.84C139.211 182.22 139.151 182.02 138.351 181.92C137.911 181.86 138.071 181.16 138.411 181.16H148.131V179.36H141.151C140.531 179.36 140.111 179.46 139.791 179.46C139.451 179.46 139.011 179.24 138.551 178.74C138.231 178.42 138.571 177.96 138.931 178.12C139.271 178.28 140.091 178.28 141.151 178.28H147.611C148.271 178.26 148.491 178.16 148.771 178.16ZM149.751 173.5H140.131C139.511 173.5 139.091 173.6 138.771 173.6C138.431 173.6 137.991 173.38 137.531 172.88C137.211 172.56 137.551 172.08 137.911 172.24C138.251 172.4 139.071 172.4 140.131 172.4H140.711V170.76C140.711 169.94 140.671 169.78 139.871 169.56C139.491 169.46 139.611 168.8 140.091 168.86L141.751 169.04C142.151 169.08 142.111 169.34 142.111 169.48C142.111 169.66 142.051 169.92 142.051 170.46V172.4H146.751V170.52C146.751 169.72 146.711 169.52 145.911 169.3C145.531 169.2 145.651 168.54 146.131 168.6L147.791 168.8C148.191 168.86 148.151 169.1 148.151 169.24C148.151 169.42 148.091 169.68 148.091 170.22V172.4H149.751C150.171 172.4 150.471 172.32 150.651 172.32C150.811 172.32 150.991 172.52 150.991 172.7C150.991 173.02 150.251 173.5 149.751 173.5ZM135.771 175.88C135.471 175.56 135.791 175.06 136.151 175.24C136.491 175.4 137.311 175.4 138.371 175.4H151.771C152.131 175.4 152.291 175.32 152.471 175.32C152.711 175.32 152.811 175.46 152.811 175.7C152.811 176.1 152.351 176.5 151.771 176.5H138.371C137.751 176.5 137.331 176.6 137.011 176.6C136.671 176.6 136.231 176.38 135.771 175.88ZM149.271 168.02H140.491C139.871 168.02 139.451 168.12 139.131 168.12C138.791 168.12 138.351 167.9 137.891 167.4C137.571 167.08 137.911 166.6 138.271 166.76C138.611 166.92 139.431 166.92 140.491 166.92H149.271C149.691 166.92 149.991 166.84 150.171 166.84C150.331 166.84 150.511 167.04 150.511 167.22C150.511 167.54 149.771 168.02 149.271 168.02ZM165.779 168.5V173.72H168.259V168.46C168.259 167.52 168.099 167.28 167.079 167.02C166.699 166.92 166.899 166.22 167.319 166.28L169.279 166.58C169.699 166.64 169.659 166.88 169.659 167.02C169.659 167.18 169.579 167.52 169.579 168.08V183.06C169.579 183.84 169.319 184.54 168.739 184.54C168.479 184.54 168.259 184.24 168.259 183.54V174.8H165.779V182.28C165.779 183.06 165.519 183.76 164.959 183.76C164.699 183.76 164.479 183.46 164.479 182.76V178.14C163.359 178.7 162.119 179.1 160.739 179.3C160.079 179.4 159.659 179.02 159.479 178.5C158.559 178.96 157.479 179.22 156.239 179.3C155.359 179.36 154.899 178.72 154.899 177.92V171.1C154.899 170.4 154.839 170.18 154.159 170.08C153.719 170.02 153.899 169.3 154.219 169.3H157.199C157.579 169.3 157.719 169.22 157.899 169.22C158.059 169.22 158.239 169.42 158.239 169.6C158.239 169.92 157.639 170.4 157.199 170.4H156.219V177.64C156.219 177.94 156.359 178.1 156.659 178.1C157.479 178.1 158.459 177.96 159.399 177.68V171.1C159.399 170.4 159.359 170.18 158.799 170.08C158.359 170 158.539 169.3 158.859 169.3H162.319C162.699 169.3 162.839 169.22 163.019 169.22C163.179 169.22 163.359 169.42 163.359 169.6C163.359 169.92 162.759 170.4 162.319 170.4H160.719V177.64C160.719 177.94 160.859 178.12 161.159 178.1C162.219 178 163.299 177.72 164.479 177.3V168.86C164.479 167.96 164.359 167.72 163.379 167.46C163.019 167.36 163.199 166.68 163.619 166.74L165.479 167C165.899 167.06 165.859 167.3 165.859 167.44C165.859 167.6 165.779 167.94 165.779 168.5ZM172.347 174.24C172.347 170.46 174.047 169.04 176.127 169.04C178.007 169.04 179.607 170.24 179.867 173.36C180.167 173.48 180.727 173.5 181.827 173.5H182.347V168.88C182.347 167.98 181.987 167.72 181.007 167.46C180.647 167.36 180.827 166.68 181.247 166.74L183.367 167.02C183.787 167.08 183.747 167.32 183.747 167.46C183.747 167.62 183.667 167.96 183.667 168.52V182.28C183.667 183.06 183.387 183.76 182.827 183.76C182.567 183.76 182.347 183.46 182.347 182.76V174.58H181.827C181.207 174.58 181.007 174.68 180.687 174.68C180.507 174.68 180.207 174.56 179.907 174.34C179.867 178.04 178.167 179.4 176.127 179.4C174.047 179.4 172.347 178.02 172.347 174.24ZM173.767 174.26C173.767 177.26 174.847 178.32 176.127 178.32C177.407 178.32 178.487 177.26 178.487 174.26C178.487 171.22 177.407 170.12 176.127 170.12C174.847 170.12 173.767 171.22 173.767 174.26ZM187.387 168.1V183.06C187.387 183.84 187.107 184.54 186.527 184.54C186.267 184.54 186.047 184.24 186.047 183.54V168.48C186.047 167.54 185.647 167.28 184.627 167.02C184.247 166.92 184.447 166.22 184.867 166.28L187.087 166.6C187.507 166.66 187.467 166.9 187.467 167.04C187.467 167.2 187.387 167.54 187.387 168.1ZM204.934 168.1V175.26C204.934 176.04 204.674 176.78 204.054 176.78C203.754 176.78 203.554 176.48 203.554 175.76V174.12C200.514 175.04 197.014 175.48 193.114 175.56C192.494 175.58 192.074 175.66 191.754 175.66C191.414 175.66 190.974 175.44 190.514 174.94C190.214 174.62 190.534 174.12 190.894 174.3C191.214 174.46 192.014 174.46 193.034 174.46V172C193.034 171.2 193.014 171 192.194 170.8C191.814 170.7 191.934 170.04 192.414 170.1L194.074 170.28C194.474 170.32 194.434 170.58 194.434 170.72C194.434 170.9 194.374 171.16 194.374 171.7V174.44C195.594 174.42 196.794 174.34 197.974 174.22V171.68C197.974 170.88 197.954 170.66 197.134 170.46C196.754 170.36 196.874 169.7 197.354 169.76L199.014 169.96C199.414 170 199.374 170.26 199.374 170.4C199.374 170.58 199.314 170.84 199.314 171.38V174.06C200.754 173.86 202.174 173.6 203.554 173.28V168.48C203.554 167.54 203.154 167.28 202.134 167.02C201.754 166.92 201.954 166.22 202.374 166.28L204.634 166.6C205.054 166.66 205.014 166.9 205.014 167.04C205.014 167.2 204.934 167.54 204.934 168.1ZM204.074 177.52C204.414 177.52 204.874 177.88 204.874 178.14C204.874 178.32 204.814 178.58 204.814 179.12V181.1V181.14C204.814 181.46 204.534 181.92 204.074 181.92H196.094V183.66C196.094 183.96 196.234 184.12 196.534 184.12H204.534C204.914 184.12 205.154 184.02 205.334 184.02C205.494 184.02 205.674 184.22 205.674 184.4C205.674 184.72 205.014 185.2 204.534 185.2H196.054C195.174 185.2 194.714 184.62 194.714 183.82V182.52C194.714 181.9 194.654 181.7 193.854 181.6C193.414 181.54 193.574 180.84 193.914 180.84H203.434V178.72H196.554C195.934 178.72 195.514 178.82 195.194 178.82C194.854 178.82 194.414 178.6 193.954 178.1C193.634 177.78 193.974 177.32 194.334 177.48C194.674 177.64 195.494 177.64 196.554 177.64H202.914C203.574 177.62 203.794 177.52 204.074 177.52ZM199.974 169.02H193.314C192.694 169.02 192.274 169.12 191.954 169.12C191.614 169.12 191.174 168.9 190.714 168.4C190.414 168.08 190.734 167.58 191.094 167.76C191.434 167.92 192.254 167.92 193.314 167.92H199.974C200.394 167.92 200.694 167.84 200.874 167.84C201.034 167.84 201.214 168.04 201.214 168.22C201.214 168.56 200.474 169.02 199.974 169.02ZM220.662 167.7C221.002 167.7 221.462 168.06 221.462 168.32C221.462 168.5 221.402 168.76 221.402 169.3V172.1V172.14C221.402 172.48 221.002 172.94 220.562 172.94H212.442V175.42C212.442 175.72 212.582 175.88 212.882 175.88H221.082C221.442 175.88 221.602 175.8 221.782 175.8C221.942 175.8 222.122 176.02 222.122 176.2C222.122 176.54 221.522 176.98 221.082 176.98H212.402C211.522 176.98 211.062 176.4 211.062 175.6V173.54C211.062 172.92 211.002 172.72 210.202 172.62C209.762 172.56 209.942 171.84 210.262 171.84H220.022V168.92H213.102C212.482 168.92 212.062 169.02 211.742 169.02C211.402 169.02 210.962 168.8 210.502 168.3C210.202 167.98 210.522 167.48 210.882 167.66C211.222 167.82 212.042 167.82 213.102 167.82H219.502C220.162 167.8 220.402 167.7 220.662 167.7ZM207.802 181.06C207.502 180.74 207.822 180.24 208.182 180.42C208.522 180.58 209.342 180.58 210.402 180.58H215.722V179.52C215.722 178.72 215.522 178.52 214.542 178.28C214.162 178.18 214.282 177.48 214.762 177.54L216.802 177.76C217.202 177.8 217.162 178.06 217.162 178.2C217.162 178.38 217.102 178.64 217.102 179.18V180.58H223.802C224.162 180.58 224.322 180.5 224.502 180.5C224.742 180.5 224.842 180.64 224.842 180.88C224.842 181.28 224.382 181.68 223.802 181.68H210.402C209.782 181.68 209.362 181.78 209.042 181.78C208.702 181.78 208.262 181.56 207.802 181.06ZM239.85 169.88C239.57 173.42 238.91 176.7 237.91 179.78H241.81C242.17 179.78 242.33 179.7 242.51 179.7C242.75 179.7 242.85 179.84 242.85 180.08C242.85 180.48 242.39 180.88 241.81 180.88H228.41C227.79 180.88 227.37 180.98 227.05 180.98C226.71 180.98 226.27 180.76 225.81 180.26C225.51 179.94 225.83 179.44 226.19 179.62C226.53 179.78 227.35 179.78 228.41 179.78H237.03C237.67 176.5 238.05 173.06 238.23 169.5H230.67C230.05 169.5 229.63 169.6 229.31 169.6C228.97 169.6 228.53 169.38 228.07 168.88C227.77 168.56 228.09 168.06 228.45 168.24C228.79 168.4 229.61 168.4 230.67 168.4H237.65C238.49 168.4 238.83 168.28 239.11 168.28C239.45 168.28 239.91 168.64 239.91 168.9C239.91 169.08 239.87 169.34 239.85 169.88Z" fill="#ABB8CE"/>
<path d="M262.6 178.1H260.66L259.76 181.58C259.68 181.86 259.5 182 259.22 182H258.74C258.46 182 258.36 181.86 258.44 181.58L259.34 178.1H256.54L255.64 181.58C255.56 181.86 255.38 182 255.1 182H254.62C254.34 182 254.24 181.86 254.32 181.58L255.22 178.1H253.6C253.32 178.1 253.16 177.96 253.24 177.7L253.36 177.3C253.44 177.06 253.54 177 253.82 177H255.5L256.26 174.02H254.38C254.1 174.02 253.94 173.88 254.02 173.62L254.14 173.22C254.22 172.98 254.32 172.92 254.6 172.92H256.54L257.46 169.42C257.54 169.14 257.72 169 258 169H258.48C258.76 169 258.86 169.14 258.78 169.42L257.86 172.92H260.66L261.58 169.42C261.66 169.14 261.84 169 262.12 169H262.6C262.88 169 262.98 169.14 262.9 169.42L261.98 172.92H263.6C263.88 172.92 264.04 173.06 263.96 173.32L263.84 173.72C263.76 173.96 263.66 174.02 263.38 174.02H261.7L260.94 177H262.82C263.1 177 263.26 177.14 263.18 177.4L263.06 177.8C262.98 178.04 262.88 178.1 262.6 178.1ZM257.58 174.02L256.82 177H259.62L260.38 174.02H257.58ZM267.863 171.26C267.863 168.56 269.883 167.54 272.383 167.54C274.883 167.54 276.923 168.56 276.923 171.26C276.923 173.96 274.883 174.92 272.383 174.92C269.883 174.92 267.863 173.96 267.863 171.26ZM268.963 177.06C272.343 177.06 276.123 176.82 279.523 176.4V168.48C279.523 167.54 279.123 167.28 278.103 167.02C277.723 166.92 277.923 166.22 278.343 166.28L280.603 166.6C281.023 166.66 280.983 166.9 280.983 167.04C280.983 167.2 280.903 167.54 280.903 168.1V183.04C280.903 183.82 280.643 184.56 280.023 184.56C279.723 184.56 279.523 184.26 279.523 183.54V177.24C277.623 177.58 275.563 177.84 273.463 178V182.78C273.463 183.56 273.203 184.3 272.583 184.3C272.283 184.3 272.083 184 272.083 183.28V178.08C271.023 178.14 269.983 178.16 268.963 178.16C268.343 178.16 267.923 178.26 267.603 178.26C267.263 178.26 266.823 178.04 266.363 177.54C266.063 177.22 266.383 176.72 266.743 176.9C267.083 177.06 267.903 177.06 268.963 177.06ZM269.303 171.28C269.303 173.18 270.703 173.84 272.383 173.84C274.063 173.84 275.503 173.18 275.503 171.28C275.503 169.26 274.063 168.62 272.383 168.62C270.703 168.62 269.303 169.26 269.303 171.28ZM296.631 167.7C296.971 167.7 297.431 168.06 297.431 168.32C297.431 168.5 297.371 168.76 297.371 169.3V172.1V172.14C297.371 172.48 296.971 172.94 296.531 172.94H288.411V175.42C288.411 175.72 288.551 175.88 288.851 175.88H297.051C297.411 175.88 297.571 175.8 297.751 175.8C297.911 175.8 298.091 176.02 298.091 176.2C298.091 176.54 297.491 176.98 297.051 176.98H288.371C287.491 176.98 287.031 176.4 287.031 175.6V173.54C287.031 172.92 286.971 172.72 286.171 172.62C285.731 172.56 285.911 171.84 286.231 171.84H295.991V168.92H289.071C288.451 168.92 288.031 169.02 287.711 169.02C287.371 169.02 286.931 168.8 286.471 168.3C286.171 167.98 286.491 167.48 286.851 167.66C287.191 167.82 288.011 167.82 289.071 167.82H295.471C296.131 167.8 296.371 167.7 296.631 167.7ZM283.771 181.06C283.471 180.74 283.791 180.24 284.151 180.42C284.491 180.58 285.311 180.58 286.371 180.58H291.691V179.52C291.691 178.72 291.491 178.52 290.511 178.28C290.131 178.18 290.251 177.48 290.731 177.54L292.771 177.76C293.171 177.8 293.131 178.06 293.131 178.2C293.131 178.38 293.071 178.64 293.071 179.18V180.58H299.771C300.131 180.58 300.291 180.5 300.471 180.5C300.711 180.5 300.811 180.64 300.811 180.88C300.811 181.28 300.351 181.68 299.771 181.68H286.371C285.751 181.68 285.331 181.78 285.011 181.78C284.671 181.78 284.231 181.56 283.771 181.06ZM318.019 175.24H315.919V183.04C315.919 183.82 315.659 184.56 315.039 184.56C314.739 184.56 314.539 184.26 314.539 183.54V168.48C314.539 167.54 314.139 167.28 313.119 167.02C312.739 166.92 312.939 166.22 313.359 166.28L315.619 166.6C316.039 166.66 315.999 166.9 315.999 167.04C315.999 167.2 315.919 167.54 315.919 168.1V174.14H318.019C318.399 174.14 318.539 174.06 318.719 174.06C318.879 174.06 319.059 174.26 319.059 174.44C319.059 174.76 318.459 175.24 318.019 175.24ZM301.799 179.46C305.759 177.3 308.359 174.06 309.739 170.08H305.079C304.459 170.08 304.039 170.18 303.719 170.18C303.379 170.18 302.939 169.96 302.479 169.46C302.179 169.14 302.499 168.64 302.859 168.82C303.199 168.98 304.019 168.98 305.079 168.98H309.199C310.039 168.98 310.359 168.86 310.639 168.86C310.979 168.86 311.439 169.22 311.439 169.48C311.439 169.7 311.279 170.02 311.179 170.44C309.759 174.82 306.739 178.04 302.219 180.12C301.819 180.3 301.419 179.66 301.799 179.46Z" fill="#ABB8CE"/>
<path d="M187.6 148.1H185.66L184.76 151.58C184.68 151.86 184.5 152 184.22 152H183.74C183.46 152 183.36 151.86 183.44 151.58L184.34 148.1H181.54L180.64 151.58C180.56 151.86 180.38 152 180.1 152H179.62C179.34 152 179.24 151.86 179.32 151.58L180.22 148.1H178.6C178.32 148.1 178.16 147.96 178.24 147.7L178.36 147.3C178.44 147.06 178.54 147 178.82 147H180.5L181.26 144.02H179.38C179.1 144.02 178.94 143.88 179.02 143.62L179.14 143.22C179.22 142.98 179.32 142.92 179.6 142.92H181.54L182.46 139.42C182.54 139.14 182.72 139 183 139H183.48C183.76 139 183.86 139.14 183.78 139.42L182.86 142.92H185.66L186.58 139.42C186.66 139.14 186.84 139 187.12 139H187.6C187.88 139 187.98 139.14 187.9 139.42L186.98 142.92H188.6C188.88 142.92 189.04 143.06 188.96 143.32L188.84 143.72C188.76 143.96 188.66 144.02 188.38 144.02H186.7L185.94 147H187.82C188.1 147 188.26 147.14 188.18 147.4L188.06 147.8C187.98 148.04 187.88 148.1 187.6 148.1ZM182.58 144.02L181.82 147H184.62L185.38 144.02H182.58ZM199.243 148.88H193.103C192.223 148.88 191.763 148.3 191.763 147.5V140.88C191.763 140.18 191.683 140 190.903 139.86C190.463 139.8 190.643 139.08 190.963 139.08H198.183C198.843 139.06 199.063 138.96 199.343 138.96C199.683 138.96 200.143 139.32 200.143 139.58C200.143 139.76 200.083 140.02 200.083 140.56V148.08C200.083 148.42 199.703 148.88 199.243 148.88ZM193.143 147.32C193.143 147.62 193.283 147.78 193.583 147.78H198.703V140.18H193.143V147.32ZM207.003 144.64H204.903V153.04C204.903 153.82 204.643 154.56 204.023 154.56C203.723 154.56 203.523 154.26 203.523 153.54V138.48C203.523 137.54 203.123 137.28 202.103 137.02C201.723 136.92 201.923 136.22 202.343 136.28L204.603 136.6C205.023 136.66 204.983 136.9 204.983 137.04C204.983 137.2 204.903 137.54 204.903 138.1V143.54H207.003C207.383 143.54 207.523 143.46 207.703 143.46C207.863 143.46 208.043 143.66 208.043 143.84C208.043 144.16 207.443 144.64 207.003 144.64ZM221.491 155.22H213.551C212.671 155.22 212.211 154.64 212.211 153.84V150.88C212.211 150.18 212.131 150 211.351 149.86C210.911 149.8 211.091 149.08 211.411 149.08H220.191C221.051 149.08 221.291 148.96 221.591 148.96C221.931 148.96 222.391 149.32 222.391 149.58C222.391 149.76 222.331 150.02 222.331 150.56V154.42C222.331 154.76 221.951 155.22 221.491 155.22ZM211.931 140.36C211.931 137.76 214.271 136.8 217.191 136.8C220.131 136.8 222.491 137.76 222.491 140.36C222.491 142.92 220.131 143.86 217.191 143.86C214.271 143.86 211.931 142.92 211.931 140.36ZM213.351 140.38C213.351 142.14 215.091 142.78 217.191 142.78C219.351 142.78 221.091 142.14 221.091 140.38C221.091 138.54 219.351 137.88 217.191 137.88C215.091 137.88 213.351 138.54 213.351 140.38ZM213.591 153.66C213.591 153.96 213.731 154.12 214.031 154.12H220.951V150.18H213.591V153.66ZM208.771 146.22C208.471 145.9 208.791 145.4 209.151 145.58C209.491 145.74 210.311 145.74 211.371 145.74H224.771C225.131 145.74 225.291 145.66 225.471 145.66C225.711 145.66 225.811 145.8 225.811 146.04C225.811 146.44 225.351 146.84 224.771 146.84H211.371C210.751 146.84 210.331 146.94 210.011 146.94C209.671 146.94 209.231 146.72 208.771 146.22ZM241.919 138.1V153.04C241.919 153.82 241.659 154.56 241.039 154.56C240.739 154.56 240.539 154.26 240.539 153.54V138.48C240.539 137.54 240.139 137.28 239.119 137.02C238.739 136.92 238.939 136.22 239.359 136.28L241.619 136.6C242.039 136.66 241.999 136.9 241.999 137.04C241.999 137.2 241.919 137.54 241.919 138.1ZM227.939 143.92C227.939 140.14 229.979 138.72 232.459 138.72C234.939 138.72 236.999 140.14 236.999 143.92C236.999 147.7 234.939 149.08 232.459 149.08C229.979 149.08 227.939 147.7 227.939 143.92ZM229.379 143.94C229.379 146.94 230.799 148 232.459 148C234.139 148 235.559 146.94 235.559 143.94C235.559 140.9 234.139 139.8 232.459 139.8C230.799 139.8 229.379 140.9 229.379 143.94ZM255.547 147C255.507 147.28 255.127 147.54 254.807 147.24C253.827 146.34 252.687 145.46 251.107 144.34C249.647 145.62 247.847 146.64 245.747 147.48C245.367 147.64 244.927 147.04 245.287 146.86C248.427 145.32 250.827 143.26 252.387 140.66H248.527C247.907 140.66 247.487 140.76 247.167 140.76C246.827 140.76 246.387 140.54 245.927 140.04C245.627 139.72 245.947 139.22 246.307 139.4C246.647 139.56 247.467 139.56 248.527 139.56H251.947C252.787 139.56 253.107 139.44 253.387 139.44C253.727 139.44 254.187 139.84 254.187 140.06C254.187 140.28 254.007 140.66 253.807 141.02C253.267 141.96 252.627 142.82 251.867 143.6C253.067 144.44 254.067 145.1 255.187 145.76C255.407 146 255.587 146.54 255.547 147ZM258.927 138.1V142.26H261.027C261.407 142.26 261.547 142.18 261.727 142.18C261.887 142.18 262.067 142.38 262.067 142.56C262.067 142.88 261.467 143.36 261.027 143.36H258.927V146.44C258.927 147.22 258.667 147.96 258.047 147.96C257.747 147.96 257.547 147.66 257.547 146.94V138.48C257.547 137.54 257.147 137.28 256.127 137.02C255.747 136.92 255.947 136.22 256.367 136.28L258.627 136.6C259.047 136.66 259.007 136.9 259.007 137.04C259.007 137.2 258.927 137.54 258.927 138.1ZM258.807 150.46V153.84C258.807 154.62 258.547 155.36 257.927 155.36C257.627 155.36 257.427 155.06 257.427 154.34V150.08H250.607C249.987 150.08 249.567 150.18 249.247 150.18C248.907 150.18 248.467 149.96 248.007 149.46C247.687 149.14 248.027 148.66 248.387 148.82C248.727 148.98 249.547 148.98 250.607 148.98H256.607C257.467 148.98 257.767 148.86 258.067 148.86C258.407 148.86 258.867 149.22 258.867 149.48C258.867 149.66 258.807 149.92 258.807 150.46ZM250.247 138.18C249.267 138.18 248.527 138.2 247.687 137.42C247.367 137.12 247.687 136.58 248.067 136.74C248.407 136.9 248.907 137 250.247 137H252.367C252.527 137 252.687 137.24 252.687 137.46C252.687 137.8 251.907 138.18 250.247 138.18ZM275.974 155.2H268.334C267.454 155.2 266.994 154.62 266.994 153.82V150.3C266.994 149.5 266.854 149.3 265.954 149.08C265.574 148.98 265.694 148.28 266.174 148.34L268.074 148.54C268.474 148.58 268.434 148.84 268.434 148.98C268.434 149.16 268.374 149.42 268.374 149.96V150.88H275.434V150.1C275.434 149.3 275.274 149.1 274.394 148.86C274.014 148.76 274.134 148.06 274.614 148.12L276.514 148.34C276.914 148.38 276.874 148.64 276.874 148.78C276.874 148.96 276.814 149.22 276.814 149.76V154.36V154.4C276.814 154.74 276.434 155.2 275.974 155.2ZM273.614 145.92C273.574 146.2 273.174 146.48 272.874 146.16C271.854 145.14 270.594 144.1 269.154 143C267.714 144.4 265.914 145.56 263.694 146.4C263.294 146.56 262.874 145.96 263.234 145.78C266.614 144.1 268.954 141.82 270.414 138.98H266.714C266.094 138.98 265.674 139.08 265.354 139.08C265.014 139.08 264.574 138.86 264.114 138.36C263.814 138.04 264.134 137.54 264.494 137.72C264.834 137.88 265.654 137.88 266.714 137.88H269.974C270.814 137.88 271.134 137.76 271.414 137.76C271.754 137.76 272.214 138.16 272.214 138.38C272.214 138.6 272.034 138.98 271.834 139.34C271.294 140.38 270.654 141.34 269.894 142.22C271.014 143.1 272.134 143.9 273.234 144.64C273.454 144.88 273.654 145.46 273.614 145.92ZM276.934 138.1V141.36H279.034C279.414 141.36 279.554 141.28 279.734 141.28C279.894 141.28 280.074 141.48 280.074 141.66C280.074 141.98 279.474 142.46 279.034 142.46H276.934V145.84C276.934 146.62 276.674 147.36 276.054 147.36C275.754 147.36 275.554 147.06 275.554 146.34V138.48C275.554 137.54 275.154 137.28 274.134 137.02C273.754 136.92 273.954 136.22 274.374 136.28L276.634 136.6C277.054 136.66 277.014 136.9 277.014 137.04C277.014 137.2 276.934 137.54 276.934 138.1ZM268.814 154.1H275.434V151.98H268.374V153.64C268.374 153.94 268.514 154.1 268.814 154.1ZM282.142 143.72C282.142 141.58 284.022 140.76 286.342 140.76C288.682 140.76 290.582 141.58 290.582 143.72C290.582 145.86 288.682 146.66 286.342 146.66C284.022 146.66 282.142 145.86 282.142 143.72ZM294.082 147.92C294.422 147.92 294.882 148.28 294.882 148.54C294.882 148.72 294.822 148.98 294.822 149.52V151.34C294.822 151.66 294.542 152.12 294.082 152.12H286.302V153.66C286.302 153.96 286.442 154.12 286.742 154.12H294.542C294.922 154.12 295.162 154.02 295.342 154.02C295.502 154.02 295.682 154.22 295.682 154.4C295.682 154.72 295.022 155.2 294.542 155.2H286.262C285.382 155.2 284.922 154.62 284.922 153.82V152.72C284.922 152.1 284.862 151.9 284.062 151.8C283.622 151.74 283.782 151.04 284.122 151.04H293.442V149.12H286.762C286.142 149.12 285.722 149.22 285.402 149.22C285.062 149.22 284.622 149 284.162 148.5C283.842 148.18 284.182 147.72 284.542 147.88C284.882 148.04 285.702 148.04 286.762 148.04H292.922C293.582 148.02 293.802 147.92 294.082 147.92ZM294.942 138.1V141.88H297.042C297.422 141.88 297.562 141.8 297.742 141.8C297.902 141.8 298.082 142 298.082 142.18C298.082 142.5 297.482 142.98 297.042 142.98H294.942V145.66C294.942 146.44 294.682 147.18 294.062 147.18C293.762 147.18 293.562 146.88 293.562 146.16V138.48C293.562 137.54 293.162 137.28 292.142 137.02C291.762 136.92 291.962 136.22 292.382 136.28L294.642 136.6C295.062 136.66 295.022 136.9 295.022 137.04C295.022 137.2 294.942 137.54 294.942 138.1ZM283.562 143.74C283.562 145.12 284.842 145.58 286.342 145.58C287.902 145.58 289.182 145.12 289.182 143.74C289.182 142.32 287.902 141.86 286.342 141.86C284.842 141.86 283.562 142.32 283.562 143.74ZM290.582 139.96H283.562C282.942 139.96 282.522 140.06 282.202 140.06C281.862 140.06 281.422 139.82 280.962 139.32C280.662 139 280.982 138.54 281.342 138.72C281.682 138.88 282.502 138.88 283.562 138.88H290.582C290.942 138.88 291.102 138.8 291.282 138.8C291.442 138.8 291.622 138.98 291.622 139.16C291.622 139.5 291.022 139.96 290.582 139.96ZM286.262 137.86C285.282 137.86 284.302 137.88 283.462 137.1C283.142 136.8 283.462 136.26 283.842 136.42C284.182 136.58 284.922 136.68 286.262 136.68H288.622C288.782 136.68 288.942 136.92 288.942 137.14C288.942 137.48 287.922 137.86 286.262 137.86ZM310.81 138.5V143.72H313.29V138.46C313.29 137.52 313.13 137.28 312.11 137.02C311.73 136.92 311.93 136.22 312.35 136.28L314.31 136.58C314.73 136.64 314.69 136.88 314.69 137.02C314.69 137.18 314.61 137.52 314.61 138.08V153.06C314.61 153.84 314.35 154.54 313.77 154.54C313.51 154.54 313.29 154.24 313.29 153.54V144.8H310.81V152.28C310.81 153.06 310.55 153.76 309.99 153.76C309.73 153.76 309.51 153.46 309.51 152.76V148.14C308.39 148.7 307.15 149.1 305.77 149.3C305.11 149.4 304.69 149.02 304.51 148.5C303.59 148.96 302.51 149.22 301.27 149.3C300.39 149.36 299.93 148.72 299.93 147.92V141.1C299.93 140.4 299.87 140.18 299.19 140.08C298.75 140.02 298.93 139.3 299.25 139.3H302.23C302.61 139.3 302.75 139.22 302.93 139.22C303.09 139.22 303.27 139.42 303.27 139.6C303.27 139.92 302.67 140.4 302.23 140.4H301.25V147.64C301.25 147.94 301.39 148.1 301.69 148.1C302.51 148.1 303.49 147.96 304.43 147.68V141.1C304.43 140.4 304.39 140.18 303.83 140.08C303.39 140 303.57 139.3 303.89 139.3H307.35C307.73 139.3 307.87 139.22 308.05 139.22C308.21 139.22 308.39 139.42 308.39 139.6C308.39 139.92 307.79 140.4 307.35 140.4H305.75V147.64C305.75 147.94 305.89 148.12 306.19 148.1C307.25 148 308.33 147.72 309.51 147.3V138.86C309.51 137.96 309.39 137.72 308.41 137.46C308.05 137.36 308.23 136.68 308.65 136.74L310.51 137C310.93 137.06 310.89 137.3 310.89 137.44C310.89 137.6 310.81 137.94 310.81 138.5Z" fill="#ABB8CE"/>
<rect x="-20" y="29" width="64" height="64" rx="16" fill="#AFBACD" fill-opacity="0.15"/>
<g clip-path="url(#clip1_0_10334)">
<path d="M12 77C20.8366 77 28 69.8366 28 61C28 52.1634 20.8366 45 12 45C3.16344 45 -4 52.1634 -4 61C-4 69.8366 3.16344 77 12 77Z" fill="#D6DBE2"/>
<path d="M17.8103 66.7776C17.7958 67.5118 17.1514 69.2955 14.8702 70.4008C13.9754 70.8363 12.9941 71.0625 12 71.0625C11.0059 71.0625 10.0246 70.8363 9.12976 70.4008C6.84464 69.2995 6.20417 67.5118 6.18968 66.7776C6.16332 66.3654 6.37417 65.8724 6.93293 66.0301C7.84487 66.3641 9.27604 66.5602 10.3857 66.6623C11.4595 66.7643 12.5405 66.7643 13.6143 66.6623C14.724 66.5562 16.1551 66.3641 17.0671 66.0301C17.6258 65.8724 17.8367 66.3654 17.8103 66.7776Z" fill="#BABFC8"/>
<path d="M13.6765 55.0602C13.445 55.9293 13.5549 56.8106 14.0259 57.8363C14.4454 58.7541 15.1351 59.755 15.9347 60.9136C16.2076 61.3094 16.5152 61.759 16.8337 62.2327C16.9183 62.358 17.045 62.4489 17.1908 62.4887C17.3376 62.5292 17.4941 62.5138 17.6301 62.4454C18.144 62.1927 18.6254 61.9533 19.0699 61.753C20.3416 61.1485 21.4394 60.6267 22.2615 60.0434C23.1817 59.3889 23.718 58.6816 23.9517 57.8119C24.1824 57.0057 24.0999 56.1421 23.7208 55.3941C23.5366 55.0394 23.2798 54.7275 22.9673 54.4784C22.6547 54.2294 22.2933 54.0488 21.9065 53.9483C21.3195 53.7875 20.6951 53.8323 20.1371 54.0753C19.8354 54.2025 19.5537 54.3728 19.301 54.5811C19.1863 54.2745 19.0285 53.9858 18.8324 53.7238C18.4699 53.2382 17.9538 52.8894 17.368 52.7343C16.9825 52.6286 16.5793 52.6047 16.1841 52.664C15.7889 52.7233 15.4104 52.8646 15.073 53.0787C14.3752 53.5404 13.8767 54.2478 13.6765 55.0602Z" fill="#BABFC8"/>
<path d="M8.92343 53.0876C8.58601 52.8735 8.20756 52.7322 7.81234 52.6729C7.41712 52.6136 7.01387 52.6375 6.62845 52.7432C6.04263 52.8983 5.52652 53.247 5.16404 53.7327C4.96788 53.9947 4.81008 54.2834 4.69538 54.59C4.44269 54.3817 4.16105 54.2113 3.85932 54.0842C3.30127 53.8412 2.67693 53.7964 2.08991 53.9572C1.70309 54.0577 1.34168 54.2383 1.02912 54.4873C0.716567 54.7364 0.459835 55.0483 0.275569 55.403C-0.103518 56.151 -0.185965 57.0146 0.0447471 57.8208C0.278366 58.6905 0.814726 59.3977 1.73491 60.0523C2.55699 60.6355 3.65476 61.1574 4.9265 61.7619C5.36037 61.9683 5.85241 62.2016 6.36631 62.4543C6.5023 62.5226 6.65884 62.5381 6.80556 62.4976C6.95141 62.4577 7.07814 62.3669 7.1627 62.2416C7.48124 61.7679 7.78881 61.3183 8.06168 60.9225C8.8613 59.7639 9.54264 58.7607 9.97055 57.8452C10.4415 56.8195 10.5514 55.9382 10.3199 55.0691C10.1198 54.2567 9.62123 53.5493 8.92343 53.0876Z" fill="#BABFC8"/>
</g>
<path d="M10.3359 105.449V107.863H11.8125V108.93H10.3359V111.402H9.03516V105.449H10.3359ZM7.39453 106.094C7.38281 108.848 5.57812 110.758 2.41406 111.602L1.89844 110.559C4.35352 109.926 5.74805 108.678 5.97656 107.148H2.40234V106.094H7.39453ZM10.3359 111.824V115.902H3.48047V111.824H10.3359ZM4.78125 112.891V114.871H9.04688V112.891H4.78125ZM22.0195 110.523V111.566H12.3516V110.523H16.5469V109.516H13.5352V105.93H20.8477V106.949H14.8359V108.484H20.9062V109.516H17.8242V110.523H22.0195ZM17.168 112.176C19.4531 112.176 20.8242 112.867 20.8359 114.109C20.8242 115.34 19.4531 116.043 17.168 116.043C14.8594 116.043 13.4766 115.34 13.4766 114.109C13.4766 112.867 14.8594 112.176 17.168 112.176ZM17.168 113.172C15.6211 113.172 14.7891 113.5 14.8008 114.109C14.7891 114.719 15.6211 115.035 17.168 115.035C18.6797 115.035 19.5234 114.719 19.5352 114.109C19.5234 113.5 18.6797 113.172 17.168 113.172Z" fill="#999999"/>
<rect x="52" y="29" width="64" height="64" rx="16" fill="#AFBACD" fill-opacity="0.15"/>
<g clip-path="url(#clip2_0_10334)">
<path d="M84 77C92.8366 77 100 69.8366 100 61C100 52.1634 92.8366 45 84 45C75.1634 45 68 52.1634 68 61C68 69.8366 75.1634 77 84 77Z" fill="#D6DBE2"/>
<path d="M79.875 59.5C80.8415 59.5 81.625 58.7165 81.625 57.75C81.625 56.7835 80.8415 56 79.875 56C78.9085 56 78.125 56.7835 78.125 57.75C78.125 58.7165 78.9085 59.5 79.875 59.5Z" fill="#BABFC8"/>
<path d="M88.125 59.5C89.0915 59.5 89.875 58.7165 89.875 57.75C89.875 56.7835 89.0915 56 88.125 56C87.1585 56 86.375 56.7835 86.375 57.75C86.375 58.7165 87.1585 59.5 88.125 59.5Z" fill="#BABFC8"/>
<path d="M91 64.9375C89.6756 67.3914 87.0518 69.0625 84.0312 69.0625C81.0107 69.0625 78.3869 67.3914 77.0625 64.9375" stroke="#BABFC8" stroke-width="2.15054" stroke-linecap="round"/>
</g>
<path d="M82.8281 105.449V116.043H81.5156V105.449H82.8281ZM79.6641 106.574C79.6641 109.727 78.4453 112.41 74.7305 114.168L74.0508 113.125C76.8223 111.807 78.1113 110.014 78.3398 107.605H74.5898V106.574H79.6641ZM86.3906 105.707V106.738H87.6094V105.707H88.8281V109.785H85.1602V105.707H86.3906ZM86.3906 108.742H87.6094V107.734H86.3906V108.742ZM90.7617 105.707V106.738H91.957V105.707H93.1992V109.785H89.5195V105.707H90.7617ZM90.7617 108.742H91.957V107.734H90.7617V108.742ZM94.0078 110.594V111.648H84.3516V110.594H94.0078ZM92.8242 112.492V115.914H85.4883V112.492H92.8242ZM86.7656 113.523V114.859H91.5469V113.523H86.7656Z" fill="#999999"/>
<rect x="124" y="29" width="64" height="64" rx="16" fill="#AFBACD" fill-opacity="0.15"/>
<path d="M156 77C164.837 77 172 69.8366 172 61C172 52.1634 164.837 45 156 45C147.163 45 140 52.1634 140 61C140 69.8366 147.163 77 156 77Z" fill="#D6DBE2"/>
<path d="M153.885 72.5607L153.703 71.6574L156.021 71.1856C156.194 71.1473 156.357 71.0736 156.5 70.9691C156.643 70.8646 156.762 70.7316 156.851 70.5785C157.035 70.2801 157.1 69.9241 157.034 69.5801C157.033 69.5655 157.033 69.5508 157.034 69.5362C156.951 69.2011 156.744 68.9101 156.455 68.7225C156.312 68.6265 156.151 68.5597 155.982 68.5258C155.813 68.4919 155.64 68.4916 155.471 68.525L148.957 69.8507C148.907 69.8626 148.854 69.8636 148.803 69.8535C148.752 69.8434 148.704 69.8225 148.661 69.7922C148.579 69.7334 148.521 69.6461 148.498 69.5472C148.485 69.4788 148.49 69.4081 148.513 69.3424L149.071 67.7735V67.7588C149.139 67.5033 149.141 67.2346 149.077 66.9781C149.012 66.7216 148.883 66.4857 148.702 66.2929C148.521 66.1001 148.294 65.9567 148.042 65.8763C147.79 65.7959 147.522 65.7811 147.262 65.8334C147.049 65.8763 146.847 65.9637 146.67 66.0897C146.492 66.2157 146.344 66.3775 146.233 66.5648L144.715 69.1431C143.918 70.499 143.651 72.102 143.965 73.6432C144.252 75.0542 145.087 76.2938 146.287 77.0893C147.487 77.8848 148.954 78.1712 150.365 77.8855C151.539 77.6475 152.569 76.9532 153.231 75.9553C153.892 74.9574 154.13 73.7377 153.893 72.5643L153.885 72.5607Z" fill="#BABFC8"/>
<path d="M162.023 53.5002C162.023 53.5002 160.933 53.7008 159.654 54.4781C158.376 55.2553 157.562 55.9766 157.562 55.9766" stroke="#BABFC8" stroke-width="1.79211" stroke-linecap="round" stroke-linejoin="round"/>
<path d="M148.937 57.5069C148.937 57.5069 149.997 57.2652 151.492 57.1978C152.019 57.1741 152.491 57.2019 152.882 57.248" stroke="#BABFC8" stroke-width="1.79211" stroke-linecap="round" stroke-linejoin="round"/>
<path d="M151.375 62C152.341 62 153.125 61.2165 153.125 60.25C153.125 59.2835 152.341 58.5 151.375 58.5C150.409 58.5 149.625 59.2835 149.625 60.25C149.625 61.2165 150.409 62 151.375 62Z" fill="#BABFC8"/>
<rect x="159.312" y="57" width="2.6875" height="4.6875" rx="1.34375" fill="#BABFC8"/>
<path d="M159.914 67.0098C158.591 66.1146 156.938 65.6969 155.231 65.9594C154.884 66.0127 154.548 66.0922 154.224 66.1954" stroke="#BABFC8" stroke-width="2.15054" stroke-linecap="round"/>
<path d="M154.629 106.422V107.441C154.617 108.754 154.617 110.23 154.207 112.445L152.895 112.305C153.305 110.242 153.305 108.736 153.316 107.465H146.988V106.422H154.629ZM155.637 113.605V114.672H145.98V113.605H149.543V109.926H150.832V113.605H155.637ZM162 106.328V111.367H156.891V106.328H162ZM158.18 107.371V110.324H160.711V107.371H158.18ZM165.176 105.461V113.02H163.863V105.461H165.176ZM165.469 114.707V115.762H158.168V112.305H159.48V114.707H165.469Z" fill="#999999"/>
<rect x="197.5" y="30.5" width="61" height="61" rx="14.5" stroke="#5195EE" stroke-width="3"/>
<g clip-path="url(#clip3_0_10334)">
<path d="M228 77C236.837 77 244 69.8366 244 61C244 52.1634 236.837 45 228 45C219.163 45 212 52.1634 212 61C212 69.8366 219.163 77 228 77Z" fill="#FBC85B"/>
<path d="M224.886 68.0795C224.886 69.9263 223.496 71.4221 221.777 71.4221C220.058 71.4221 218.669 69.9263 218.669 68.0795C218.669 66.6166 220.605 63.967 221.412 62.9156C221.452 62.86 221.506 62.8148 221.567 62.7837C221.629 62.7526 221.696 62.7363 221.765 62.7363C221.834 62.7363 221.902 62.7526 221.964 62.7837C222.025 62.8148 222.078 62.86 222.119 62.9156C222.949 63.967 224.886 66.6221 224.886 68.0795Z" fill="#5195EE"/>
<path d="M223.875 59.5C224.841 59.5 225.625 58.7165 225.625 57.75C225.625 56.7835 224.841 56 223.875 56C222.909 56 222.125 56.7835 222.125 57.75C222.125 58.7165 222.909 59.5 223.875 59.5Z" fill="#3E414D"/>
<path d="M232.125 59.5C233.091 59.5 233.875 58.7165 233.875 57.75C233.875 56.7835 233.091 56 232.125 56C231.159 56 230.375 56.7835 230.375 57.75C230.375 58.7165 231.159 59.5 232.125 59.5Z" fill="#3E414D"/>
<path d="M232.5 68.375C231.329 67.2893 229.758 66.625 228.031 66.625C227.68 66.625 227.336 66.6524 227 66.7052" stroke="#9A695E" stroke-width="2.15054" stroke-linecap="round"/>
</g>
<path d="M223.477 105.824C223.477 106.949 224.918 108.016 227.145 108.25L226.688 109.234C224.906 109.018 223.482 108.297 222.809 107.266C222.117 108.297 220.699 109.018 218.918 109.234L218.473 108.25C220.688 108.016 222.129 106.949 222.141 105.824V105.531H223.477V105.824ZM227.637 109.727V110.781H217.98V109.727H227.637ZM226.43 111.531V114.156H220.406V114.953H226.723V115.949H219.129V113.23H225.152V112.504H219.117V111.531H226.43ZM238.008 110.57V111.625H228.352V110.57H238.008ZM237.117 105.812V106.867H235.664V108.707H237.059V109.75H229.277V108.707H230.672V106.867H229.219V105.812H237.117ZM236.836 112.516V115.914H229.488V112.516H236.836ZM230.777 113.535V114.859H235.57V113.535H230.777ZM231.973 108.707H234.352V106.867H231.973V108.707Z" fill="#121212"/>
<rect x="268" y="29" width="64" height="64" rx="16" fill="#AFBACD" fill-opacity="0.15"/>
<path d="M300 77C308.837 77 316 69.8366 316 61C316 52.1634 308.837 45 300 45C291.163 45 284 52.1634 284 61C284 69.8366 291.163 77 300 77Z" fill="#D6DBE2"/>
<path d="M310.839 64.0977H289.161C288.591 64.0977 288.129 64.5598 288.129 65.1299V72.3557C288.129 72.9258 288.591 73.388 289.161 73.388H310.839C311.409 73.388 311.871 72.9258 311.871 72.3557V65.13C311.871 64.5598 311.409 64.0977 310.839 64.0977Z" fill="#BABFC8"/>
<path d="M308.73 70.033L309.139 69.6238C309.341 69.4222 309.341 69.0955 309.139 68.894C308.937 68.6924 308.611 68.6924 308.409 68.894L308 69.3032L307.638 68.9416C308.012 68.6587 308.258 68.2145 308.258 67.7105C308.258 66.8567 307.563 66.1621 306.71 66.1621C305.856 66.1621 305.161 66.8567 305.161 67.7105C305.161 67.8759 305.194 68.0322 305.242 68.1818C304.832 68.5559 304.604 69.1058 304.652 69.6732C304.73 70.5985 305.555 71.3234 306.529 71.3234C307.068 71.3234 307.591 71.1132 307.992 70.7545L308.409 71.1721C308.51 71.2729 308.642 71.3233 308.774 71.3233C308.906 71.3233 309.038 71.2729 309.139 71.1721C309.341 70.9705 309.341 70.6439 309.139 70.4423L308.73 70.033ZM306.71 67.1944C306.994 67.1944 307.226 67.4257 307.226 67.7105C307.226 67.9952 306.994 68.2266 306.71 68.2266C306.425 68.2266 306.194 67.9952 306.194 67.7105C306.194 67.4257 306.425 67.1944 306.71 67.1944ZM306.529 70.2911C306.094 70.2911 305.713 69.9745 305.68 69.5865C305.662 69.3689 305.735 69.1646 305.872 69.0089C306.05 69.1243 306.254 69.2008 306.472 69.2349L307.262 70.0247C307.055 70.1922 306.796 70.2911 306.529 70.2911Z" fill="#EBEFF4"/>
<path d="M295.148 66.2651C294.92 66.0948 294.597 66.1401 294.426 66.3684L291.329 70.4975C291.158 70.7253 291.204 71.0489 291.433 71.2198C291.525 71.2893 291.634 71.3231 291.742 71.3231C291.899 71.3231 292.054 71.252 292.155 71.1164L295.252 66.9874C295.423 66.7596 295.377 66.436 295.148 66.2651Z" fill="#EBEFF4"/>
<path d="M297.419 69.775C297.705 69.775 297.936 69.5441 297.936 69.2589V66.6782C297.936 66.3929 297.705 66.1621 297.419 66.1621C297.134 66.1621 296.903 66.393 296.903 66.6782V69.2589C296.903 69.5442 297.134 69.775 297.419 69.775Z" fill="#EBEFF4"/>
<path d="M297.419 70.291C297.134 70.291 296.903 70.5219 296.903 70.8071C296.903 71.0924 297.134 71.3233 297.419 71.3233H297.425C297.71 71.3233 297.938 71.0924 297.938 70.8071C297.938 70.5219 297.705 70.291 297.419 70.291Z" fill="#EBEFF4"/>
<path d="M303.613 67.1932H303.499L303.597 66.802C303.667 66.5258 303.498 66.2456 303.222 66.1765C302.945 66.105 302.665 66.2748 302.596 66.552L302.436 67.1932H301.435L301.533 66.802C301.602 66.5258 301.434 66.2456 301.157 66.1765C300.88 66.105 300.6 66.2748 300.532 66.552L300.372 67.1932H300C299.715 67.1932 299.484 67.424 299.484 67.7093C299.484 67.9945 299.715 68.2254 300 68.2254H300.113L299.855 69.2577H299.484C299.199 69.2577 298.968 69.4885 298.968 69.7738C298.968 70.059 299.199 70.2899 299.484 70.2899H299.597L299.5 70.681C299.43 70.9572 299.598 71.2375 299.875 71.3065C299.917 71.3171 299.959 71.3222 300.001 71.3222C300.232 71.3222 300.442 71.1659 300.501 70.931L300.661 70.2899H301.662L301.564 70.681C301.494 70.9572 301.663 71.2375 301.94 71.3065C301.981 71.3171 302.024 71.3222 302.065 71.3222C302.296 71.3222 302.507 71.1659 302.565 70.931L302.725 70.2899H303.097C303.382 70.2899 303.613 70.059 303.613 69.7738C303.613 69.4885 303.382 69.2577 303.097 69.2577H302.983L303.241 68.2254H303.613C303.898 68.2254 304.129 67.9945 304.129 67.7093C304.129 67.424 303.898 67.1932 303.613 67.1932ZM301.92 69.2577H300.919L301.177 68.2254H302.178L301.92 69.2577Z" fill="#EBEFF4"/>
<path d="M292.774 67.1944C292.774 66.6253 292.311 66.1621 291.742 66.1621C291.173 66.1621 290.71 66.6253 290.71 67.1944C290.71 67.7634 291.173 68.2266 291.742 68.2266C292.311 68.2266 292.774 67.7634 292.774 67.1944Z" fill="#EBEFF4"/>
<path d="M294.839 69.2578C294.27 69.2578 293.806 69.721 293.806 70.2901C293.806 70.8591 294.27 71.3223 294.839 71.3223C295.408 71.3223 295.871 70.8591 295.871 70.2901C295.871 69.721 295.408 69.2578 294.839 69.2578Z" fill="#EBEFF4"/>
<path d="M307.841 53.7168C307.665 53.4613 307.373 53.4522 307.06 53.5721C307.06 53.5721 305.647 54.2191 304.779 54.4395C303.911 54.6599 302.498 54.8635 302.498 54.8635C302.214 54.9193 301.893 55.1629 301.911 55.4729C301.93 55.783 302.196 56.0193 302.506 56.0007L302.565 55.9966C302.601 55.9939 302.652 55.9897 302.717 55.9835C302.849 55.9713 303.037 55.9512 303.272 55.9199C303.74 55.8572 304.395 55.7489 305.145 55.566C305.919 55.3772 306.549 55.1154 306.988 54.8996C307.208 54.7915 307.381 54.6945 307.501 54.623C307.561 54.5873 307.607 54.5579 307.64 54.5367L307.697 54.4991C307.953 54.3229 308.018 53.9726 307.841 53.7168Z" fill="#BABFC8"/>
<path d="M292.145 53.7168C292.321 53.4613 292.613 53.4522 292.926 53.5721C292.926 53.5721 294.339 54.2191 295.207 54.4395C296.075 54.6599 297.488 54.8635 297.488 54.8635C297.772 54.9193 298.093 55.1629 298.075 55.4729C298.056 55.783 297.79 56.0193 297.48 56.0007L297.421 55.9966C297.386 55.9939 297.334 55.9897 297.269 55.9835C297.137 55.9713 296.949 55.9512 296.714 55.9199C296.246 55.8572 295.591 55.7489 294.841 55.566C294.067 55.3772 293.437 55.1154 292.998 54.8996C292.778 54.7915 292.605 54.6945 292.485 54.623C292.425 54.5873 292.379 54.5579 292.346 54.5367L292.289 54.4991C292.033 54.3229 291.969 53.9726 292.145 53.7168Z" fill="#BABFC8"/>
<path d="M295.875 61C296.841 61 297.625 60.2165 297.625 59.25C297.625 58.2835 296.841 57.5 295.875 57.5C294.909 57.5 294.125 58.2835 294.125 59.25C294.125 60.2165 294.909 61 295.875 61Z" fill="#BABFC8"/>
<path d="M304.125 61C305.091 61 305.875 60.2165 305.875 59.25C305.875 58.2835 305.091 57.5 304.125 57.5C303.159 57.5 302.375 58.2835 302.375 59.25C302.375 60.2165 303.159 61 304.125 61Z" fill="#BABFC8"/>
<path d="M299.648 110.934V111.977H295.559V113.805H294.27V111.977H289.969V110.934H299.648ZM298.582 114.777V115.832H291.141V112.914H292.43V114.777H298.582ZM292.523 105.789V106.984H297.094V105.789H298.383V110.102H291.234V105.789H292.523ZM292.523 109.07H297.094V107.957H292.523V109.07ZM308.965 110.102V111.156H305.836V113.723H310.031V114.777H300.352V113.723H304.523V111.156H301.465V106.293H302.801V110.102H308.965Z" fill="#999999"/>
</g>
<rect x="0.5" y="0.5" width="311" height="208" rx="15.5" stroke="#D2D9E3"/>
<defs>
<clipPath id="clip0_0_10334">
<rect width="312" height="209" rx="16" fill="white"/>
</clipPath>
<clipPath id="clip1_0_10334">
<rect width="32" height="32" fill="white" transform="translate(-4 45)"/>
</clipPath>
<clipPath id="clip2_0_10334">
<rect width="32" height="32" fill="white" transform="translate(68 45)"/>
</clipPath>
<clipPath id="clip3_0_10334">
<rect width="32" height="32" fill="white" transform="translate(212 45)"/>
</clipPath>
</defs>
</svg>
