<svg width="312" height="209" viewBox="0 0 312 209" fill="none" xmlns="http://www.w3.org/2000/svg">
<g clip-path="url(#clip0_0_10336)">
<rect width="312" height="209" rx="16" fill="#ECEFF4"/>
<rect x="195" y="53" width="8" height="8" rx="2" fill="#48BB98"/>
<g clip-path="url(#clip1_0_10336)">
<path d="M219 65C223.418 65 227 61.4183 227 57C227 52.5817 223.418 49 219 49C214.582 49 211 52.5817 211 57C211 61.4183 214.582 65 219 65Z" fill="#FBC85B"/>
<path d="M216.938 56.25C217.421 56.25 217.813 55.8582 217.813 55.375C217.813 54.8918 217.421 54.5 216.938 54.5C216.454 54.5 216.062 54.8918 216.062 55.375C216.062 55.8582 216.454 56.25 216.938 56.25Z" fill="#3E414D"/>
<path d="M221.063 56.25C221.546 56.25 221.938 55.8582 221.938 55.375C221.938 54.8918 221.546 54.5 221.063 54.5C220.579 54.5 220.188 54.8918 220.188 55.375C220.188 55.8582 220.579 56.25 221.063 56.25Z" fill="#3E414D"/>
<path d="M222.5 58.9688C221.838 60.1957 220.526 61.0313 219.016 61.0313C217.505 61.0313 216.193 60.1957 215.531 58.9688" stroke="#9A695E" stroke-width="1.07527" stroke-linecap="round"/>
</g>
<path d="M238.762 61.1172C237.004 61.1172 235.75 60.168 235.703 58.7852H237.016C237.062 59.5352 237.801 60.0039 238.75 60.0039C239.77 60.0039 240.52 59.4414 240.52 58.6211C240.52 57.7891 239.816 57.1797 238.609 57.1797H237.883V56.125H238.609C239.57 56.125 240.25 55.5859 240.25 54.7773C240.25 54.0039 239.676 53.4766 238.773 53.4766C237.918 53.4766 237.168 53.9453 237.133 54.7188H235.891C235.926 53.3359 237.203 52.3984 238.785 52.3984C240.449 52.3984 241.504 53.4531 241.492 54.707C241.504 55.668 240.906 56.3711 239.992 56.5938V56.6523C241.152 56.8164 241.82 57.5898 241.82 58.668C241.82 60.0859 240.52 61.1172 238.762 61.1172ZM246.121 61.1172C244.516 61.1172 243.309 60.1328 243.25 58.7852H244.504C244.574 59.5117 245.266 60.0391 246.121 60.0391C247.152 60.0391 247.891 59.2891 247.891 58.2812C247.891 57.25 247.129 56.5 246.062 56.4883C245.383 56.4883 244.867 56.7109 244.574 57.2383H243.355L243.906 52.5156H248.711V53.6172H244.973L244.691 55.9961H244.773C245.125 55.6562 245.723 55.4219 246.367 55.4219C247.961 55.4219 249.145 56.6055 249.145 58.2461C249.145 59.9219 247.891 61.1172 246.121 61.1172ZM252.461 56.5469C251.301 56.5586 250.668 55.6914 250.68 54.4375C250.668 53.1953 251.324 52.3398 252.461 52.3398C253.621 52.3398 254.242 53.1953 254.242 54.4375C254.242 55.7031 253.598 56.5586 252.461 56.5469ZM252.461 55.7266C253.012 55.7266 253.27 55.2109 253.27 54.4375C253.27 53.6758 253.023 53.1602 252.461 53.1602C251.922 53.1719 251.641 53.6758 251.641 54.4375C251.641 55.2109 251.91 55.7266 252.461 55.7266ZM257.816 61.1758C256.656 61.1758 256.023 60.3203 256.035 59.0664C256.023 57.8125 256.691 56.957 257.816 56.957C258.977 56.957 259.598 57.8125 259.598 59.0664C259.598 60.3203 258.953 61.1758 257.816 61.1758ZM257.816 60.3438C258.367 60.3438 258.625 59.8281 258.625 59.0664C258.625 58.293 258.379 57.7773 257.816 57.7773C257.277 57.7891 256.996 58.3047 256.996 59.0664C256.996 59.8281 257.277 60.3438 257.816 60.3438ZM251.641 61L257.465 52.5156H258.531L252.707 61H251.641Z" fill="#3E3E3E"/>
<rect x="195" y="77" width="8" height="8" rx="2" fill="#FBC85B"/>
<g clip-path="url(#clip2_0_10336)">
<path d="M219 89C223.418 89 227 85.4183 227 81C227 76.5817 223.418 73 219 73C214.582 73 211 76.5817 211 81C211 85.4183 214.582 89 219 89Z" fill="#FBC85B"/>
<path d="M221.905 83.8888C221.898 84.2559 221.576 85.1478 220.435 85.7004C219.988 85.9181 219.497 86.0312 219 86.0312C218.503 86.0312 218.012 85.9181 217.565 85.7004C216.422 85.1498 216.102 84.2559 216.095 83.8888C216.082 83.6827 216.187 83.4362 216.466 83.5151C216.922 83.682 217.638 83.7801 218.193 83.8311C218.73 83.8822 219.27 83.8822 219.807 83.8311C220.362 83.7781 221.078 83.682 221.534 83.5151C221.813 83.4362 221.918 83.6827 221.905 83.8888Z" fill="#9A695E"/>
<path d="M219.838 78.0301C219.722 78.4646 219.777 78.9053 220.013 79.4182C220.223 79.8771 220.568 80.3775 220.967 80.9568C221.104 81.1547 221.258 81.3795 221.417 81.6164C221.459 81.679 221.522 81.7244 221.595 81.7443C221.669 81.7646 221.747 81.7569 221.815 81.7227C222.072 81.5964 222.313 81.4766 222.535 81.3765C223.171 81.0742 223.72 80.8133 224.131 80.5217C224.591 80.1944 224.859 79.8408 224.976 79.406C225.091 79.0029 225.05 78.571 224.86 78.197C224.768 78.0197 224.64 77.8637 224.484 77.7392C224.327 77.6147 224.147 77.5244 223.953 77.4742C223.66 77.3938 223.348 77.4162 223.069 77.5376C222.918 77.6012 222.777 77.6864 222.651 77.7905C222.593 77.6373 222.514 77.4929 222.416 77.3619C222.235 77.1191 221.977 76.9447 221.684 76.8672C221.491 76.8143 221.29 76.8023 221.092 76.832C220.894 76.8617 220.705 76.9323 220.536 77.0394C220.188 77.2702 219.938 77.6239 219.838 78.0301Z" fill="#E46E80"/>
<path d="M217.462 77.0428C217.293 76.9358 217.104 76.8651 216.906 76.8355C216.709 76.8058 216.507 76.8178 216.314 76.8706C216.021 76.9482 215.763 77.1225 215.582 77.3654C215.484 77.4964 215.405 77.6407 215.348 77.794C215.221 77.6899 215.081 77.6047 214.93 77.5411C214.651 77.4196 214.338 77.3972 214.045 77.4776C213.852 77.5278 213.671 77.6181 213.515 77.7427C213.358 77.8672 213.23 78.0232 213.138 78.2005C212.948 78.5745 212.907 79.0063 213.022 79.4094C213.139 79.8443 213.407 80.1979 213.867 80.5252C214.278 80.8168 214.827 81.0777 215.463 81.38C215.68 81.4832 215.926 81.5998 216.183 81.7262C216.251 81.7603 216.329 81.7681 216.403 81.7478C216.476 81.7279 216.539 81.6825 216.581 81.6198C216.741 81.383 216.894 81.1582 217.031 80.9603C217.431 80.381 217.771 79.8794 217.985 79.4216C218.221 78.9088 218.276 78.4681 218.16 78.0336C218.06 77.6274 217.811 77.2737 217.462 77.0428Z" fill="#E46E80"/>
</g>
<path d="M235.75 85V84.0625L238.691 81.0977C239.617 80.125 240.086 79.5859 240.086 78.8477C240.086 78.0156 239.406 77.4766 238.516 77.4766C237.578 77.4766 236.969 78.0742 236.969 78.9766H235.75C235.738 77.4297 236.922 76.3984 238.539 76.3984C240.18 76.3984 241.305 77.4297 241.316 78.8125C241.305 79.7617 240.859 80.5117 239.266 82.082L237.543 83.8281V83.8984H241.457V85H235.75ZM245.84 85.1172C243.871 85.1172 242.723 83.5352 242.723 80.7578C242.723 78.0039 243.895 76.3984 245.84 76.3984C247.785 76.3984 248.957 78.0039 248.957 80.7578C248.957 83.5352 247.797 85.1172 245.84 85.1172ZM245.84 84.0039C246.988 84.0039 247.668 82.8789 247.668 80.7578C247.668 78.6484 246.977 77.4883 245.84 77.4883C244.703 77.4883 244.012 78.6484 244.012 80.7578C244.012 82.8789 244.691 84.0039 245.84 84.0039ZM252.238 80.5469C251.078 80.5586 250.445 79.6914 250.457 78.4375C250.445 77.1953 251.102 76.3398 252.238 76.3398C253.398 76.3398 254.02 77.1953 254.02 78.4375C254.02 79.7031 253.375 80.5586 252.238 80.5469ZM252.238 79.7266C252.789 79.7266 253.047 79.2109 253.047 78.4375C253.047 77.6758 252.801 77.1602 252.238 77.1602C251.699 77.1719 251.418 77.6758 251.418 78.4375C251.418 79.2109 251.688 79.7266 252.238 79.7266ZM257.594 85.1758C256.434 85.1758 255.801 84.3203 255.812 83.0664C255.801 81.8125 256.469 80.957 257.594 80.957C258.754 80.957 259.375 81.8125 259.375 83.0664C259.375 84.3203 258.73 85.1758 257.594 85.1758ZM257.594 84.3438C258.145 84.3438 258.402 83.8281 258.402 83.0664C258.402 82.293 258.156 81.7773 257.594 81.7773C257.055 81.7891 256.773 82.3047 256.773 83.0664C256.773 83.8281 257.055 84.3438 257.594 84.3438ZM251.418 85L257.242 76.5156H258.309L252.484 85H251.418Z" fill="#C6C6C6"/>
<rect x="195" y="101" width="8" height="8" rx="2" fill="#B7C2D2"/>
<path d="M219 113C223.418 113 227 109.418 227 105C227 100.582 223.418 97 219 97C214.582 97 211 100.582 211 105C211 109.418 214.582 113 219 113Z" fill="#FBC85B"/>
<path d="M217.943 110.779L217.851 110.328L219.01 110.092C219.097 110.073 219.178 110.036 219.25 109.984C219.321 109.931 219.381 109.865 219.426 109.788C219.517 109.639 219.55 109.461 219.517 109.289C219.516 109.282 219.516 109.274 219.517 109.267C219.476 109.1 219.372 108.954 219.227 108.86C219.156 108.812 219.075 108.779 218.991 108.762C218.907 108.745 218.82 108.745 218.735 108.762L215.479 109.424C215.453 109.43 215.427 109.431 215.401 109.426C215.376 109.421 215.352 109.41 215.33 109.395C215.289 109.366 215.26 109.322 215.249 109.273C215.242 109.238 215.245 109.203 215.256 109.17L215.535 108.386V108.378C215.569 108.251 215.57 108.116 215.538 107.988C215.506 107.86 215.442 107.742 215.351 107.645C215.26 107.549 215.147 107.477 215.021 107.437C214.895 107.397 214.761 107.39 214.631 107.416C214.524 107.437 214.423 107.481 214.335 107.544C214.246 107.607 214.172 107.688 214.116 107.781L213.357 109.071C212.959 109.748 212.825 110.55 212.983 111.321C213.126 112.026 213.543 112.646 214.143 113.044C214.743 113.441 215.477 113.585 216.183 113.442C216.769 113.323 217.285 112.976 217.615 112.477C217.946 111.978 218.065 111.368 217.946 110.781L217.943 110.779Z" fill="#E8AA26"/>
<path d="M222.011 101.25C222.011 101.25 221.466 101.35 220.827 101.739C220.188 102.128 219.781 102.488 219.781 102.488" stroke="#3E414D" stroke-width="0.896057" stroke-linecap="round" stroke-linejoin="round"/>
<path d="M215.469 103.254C215.469 103.254 215.999 103.134 216.746 103.1C217.01 103.088 217.246 103.102 217.441 103.125" stroke="#3E414D" stroke-width="0.896057" stroke-linecap="round" stroke-linejoin="round"/>
<path d="M216.688 105.5C217.171 105.5 217.563 105.108 217.563 104.625C217.563 104.142 217.171 103.75 216.688 103.75C216.204 103.75 215.812 104.142 215.812 104.625C215.812 105.108 216.204 105.5 216.688 105.5Z" fill="#3E414D"/>
<rect x="220.656" y="103" width="1.34375" height="2.34375" rx="0.671875" fill="#494D59"/>
<path d="M220.957 108.004C220.296 107.556 219.469 107.347 218.615 107.479C218.442 107.505 218.274 107.545 218.112 107.597" stroke="#9A695E" stroke-width="1.07527" stroke-linecap="round"/>
<path d="M238.973 100.516V109H237.672V101.805H237.625L235.598 103.129V101.898L237.707 100.516H238.973ZM244.047 100.398C245.605 100.41 247.246 101.348 247.246 104.453C247.246 107.43 245.969 109.117 243.93 109.117C242.371 109.117 241.27 108.156 241.07 106.773H242.348C242.523 107.488 243.074 107.992 243.93 107.992C245.242 107.992 246.004 106.844 246.016 104.91H245.91C245.453 105.625 244.656 106.059 243.742 106.059C242.219 106.059 241 104.898 241 103.27C241 101.652 242.207 100.387 244.047 100.398ZM244.047 101.477C243.016 101.477 242.254 102.273 242.254 103.246C242.254 104.23 242.992 105.004 244.023 105.004C245.043 105.004 245.84 104.172 245.84 103.234C245.84 102.32 245.09 101.477 244.047 101.477ZM250.551 104.547C249.391 104.559 248.758 103.691 248.77 102.438C248.758 101.195 249.414 100.34 250.551 100.34C251.711 100.34 252.332 101.195 252.332 102.438C252.332 103.703 251.688 104.559 250.551 104.547ZM250.551 103.727C251.102 103.727 251.359 103.211 251.359 102.438C251.359 101.676 251.113 101.16 250.551 101.16C250.012 101.172 249.73 101.676 249.73 102.438C249.73 103.211 250 103.727 250.551 103.727ZM255.906 109.176C254.746 109.176 254.113 108.32 254.125 107.066C254.113 105.812 254.781 104.957 255.906 104.957C257.066 104.957 257.688 105.812 257.688 107.066C257.688 108.32 257.043 109.176 255.906 109.176ZM255.906 108.344C256.457 108.344 256.715 107.828 256.715 107.066C256.715 106.293 256.469 105.777 255.906 105.777C255.367 105.789 255.086 106.305 255.086 107.066C255.086 107.828 255.367 108.344 255.906 108.344ZM249.73 109L255.555 100.516H256.621L250.797 109H249.73Z" fill="#C6C6C6"/>
<rect x="195" y="125" width="8" height="8" rx="2" fill="#D6DCE4"/>
<g clip-path="url(#clip3_0_10336)">
<path d="M219 137C223.418 137 227 133.418 227 129C227 124.582 223.418 121 219 121C214.582 121 211 124.582 211 129C211 133.418 214.582 137 219 137Z" fill="#FBC85B"/>
<path d="M217.443 132.541C217.443 133.464 216.748 134.212 215.889 134.212C215.029 134.212 214.334 133.464 214.334 132.541C214.334 131.809 215.303 130.484 215.706 129.959C215.726 129.931 215.753 129.908 215.784 129.893C215.814 129.877 215.848 129.869 215.883 129.869C215.917 129.869 215.951 129.877 215.982 129.893C216.013 129.908 216.039 129.931 216.06 129.959C216.475 130.484 217.443 131.812 217.443 132.541Z" fill="#5195EE"/>
<path d="M216.938 128.25C217.421 128.25 217.813 127.858 217.813 127.375C217.813 126.892 217.421 126.5 216.938 126.5C216.454 126.5 216.062 126.892 216.062 127.375C216.062 127.858 216.454 128.25 216.938 128.25Z" fill="#3E414D"/>
<path d="M221.063 128.25C221.546 128.25 221.938 127.858 221.938 127.375C221.938 126.892 221.546 126.5 221.063 126.5C220.579 126.5 220.188 126.892 220.188 127.375C220.188 127.858 220.579 128.25 221.063 128.25Z" fill="#3E414D"/>
<path d="M221.25 132.688C220.665 132.145 219.879 131.813 219.016 131.813C218.84 131.813 218.668 131.826 218.5 131.853" stroke="#9A695E" stroke-width="1.43369" stroke-linecap="round"/>
</g>
<path d="M238.973 124.516V133H237.672V125.805H237.625L235.598 127.129V125.898L237.707 124.516H238.973ZM241.422 133L245.207 125.688V125.617H240.836V124.516H246.543V125.664L242.77 133H241.422ZM249.789 128.547C248.629 128.559 247.996 127.691 248.008 126.438C247.996 125.195 248.652 124.34 249.789 124.34C250.949 124.34 251.57 125.195 251.57 126.438C251.57 127.703 250.926 128.559 249.789 128.547ZM249.789 127.727C250.34 127.727 250.598 127.211 250.598 126.438C250.598 125.676 250.352 125.16 249.789 125.16C249.25 125.172 248.969 125.676 248.969 126.438C248.969 127.211 249.238 127.727 249.789 127.727ZM255.145 133.176C253.984 133.176 253.352 132.32 253.363 131.066C253.352 129.812 254.02 128.957 255.145 128.957C256.305 128.957 256.926 129.812 256.926 131.066C256.926 132.32 256.281 133.176 255.145 133.176ZM255.145 132.344C255.695 132.344 255.953 131.828 255.953 131.066C255.953 130.293 255.707 129.777 255.145 129.777C254.605 129.789 254.324 130.305 254.324 131.066C254.324 131.828 254.605 132.344 255.145 132.344ZM248.969 133L254.793 124.516H255.859L250.035 133H248.969Z" fill="#C6C6C6"/>
<rect x="195" y="149" width="8" height="8" rx="2" fill="#DDE2EB"/>
<path d="M219 161C223.418 161 227 157.418 227 153C227 148.582 223.418 145 219 145C214.582 145 211 148.582 211 153C211 157.418 214.582 161 219 161Z" fill="#E46E80"/>
<path d="M224.42 154.549H213.581C213.296 154.549 213.065 154.78 213.065 155.065V158.678C213.065 158.963 213.296 159.194 213.581 159.194H224.42C224.705 159.194 224.936 158.963 224.936 158.678V155.065C224.936 154.78 224.705 154.549 224.42 154.549Z" fill="#494D59"/>
<path d="M223.365 157.516L223.57 157.311C223.67 157.21 223.67 157.047 223.57 156.946C223.469 156.845 223.305 156.845 223.205 156.946L223 157.151L222.819 156.97C223.006 156.828 223.129 156.606 223.129 156.354C223.129 155.927 222.782 155.58 222.355 155.58C221.928 155.58 221.581 155.927 221.581 156.354C221.581 156.437 221.597 156.515 221.621 156.59C221.416 156.777 221.302 157.052 221.326 157.336C221.365 157.798 221.777 158.161 222.265 158.161C222.534 158.161 222.796 158.056 222.996 157.876L223.205 158.085C223.255 158.135 223.321 158.161 223.387 158.161C223.453 158.161 223.519 158.135 223.57 158.085C223.67 157.984 223.67 157.821 223.57 157.72L223.365 157.516ZM222.355 156.096C222.497 156.096 222.613 156.212 222.613 156.354C222.613 156.497 222.497 156.612 222.355 156.612C222.212 156.612 222.097 156.497 222.097 156.354C222.097 156.212 222.212 156.096 222.355 156.096ZM222.265 157.645C222.047 157.645 221.857 157.486 221.84 157.292C221.831 157.183 221.867 157.081 221.936 157.003C222.025 157.061 222.127 157.099 222.236 157.116L222.631 157.511C222.528 157.595 222.398 157.645 222.265 157.645Z" fill="#F9FAFC"/>
<path d="M216.574 155.632C216.46 155.546 216.298 155.569 216.213 155.683L214.665 157.748C214.579 157.862 214.602 158.023 214.716 158.109C214.763 158.144 214.817 158.161 214.871 158.161C214.949 158.161 215.027 158.125 215.077 158.057L216.626 155.993C216.711 155.879 216.688 155.717 216.574 155.632Z" fill="#F9FAFC"/>
<path d="M217.71 157.387C217.852 157.387 217.968 157.271 217.968 157.128V155.838C217.968 155.695 217.852 155.58 217.71 155.58C217.567 155.58 217.452 155.696 217.452 155.838V157.128C217.452 157.271 217.567 157.387 217.71 157.387Z" fill="#F9FAFC"/>
<path d="M217.71 157.645C217.567 157.645 217.452 157.76 217.452 157.903C217.452 158.045 217.567 158.161 217.71 158.161H217.712C217.855 158.161 217.969 158.045 217.969 157.903C217.969 157.76 217.852 157.645 217.71 157.645Z" fill="#F9FAFC"/>
<path d="M220.806 156.097H220.75L220.799 155.901C220.833 155.763 220.749 155.623 220.611 155.588C220.473 155.552 220.333 155.637 220.298 155.776L220.218 156.097H219.718L219.766 155.901C219.801 155.763 219.717 155.623 219.579 155.588C219.44 155.552 219.3 155.637 219.266 155.776L219.186 156.097H219C218.857 156.097 218.742 156.212 218.742 156.355C218.742 156.497 218.857 156.613 219 156.613H219.057L218.928 157.129H218.742C218.599 157.129 218.484 157.244 218.484 157.387C218.484 157.53 218.599 157.645 218.742 157.645H218.799L218.75 157.841C218.715 157.979 218.799 158.119 218.938 158.153C218.958 158.159 218.98 158.161 219 158.161C219.116 158.161 219.221 158.083 219.25 157.966L219.33 157.645H219.831L219.782 157.841C219.747 157.979 219.831 158.119 219.97 158.153C219.991 158.159 220.012 158.161 220.033 158.161C220.148 158.161 220.253 158.083 220.283 157.966L220.363 157.645H220.548C220.691 157.645 220.806 157.53 220.806 157.387C220.806 157.244 220.691 157.129 220.548 157.129H220.492L220.621 156.613H220.806C220.949 156.613 221.065 156.497 221.065 156.355C221.065 156.212 220.949 156.097 220.806 156.097ZM219.96 157.129H219.459L219.588 156.613H220.089L219.96 157.129Z" fill="#F9FAFC"/>
<path d="M215.387 156.096C215.387 155.812 215.156 155.58 214.871 155.58C214.587 155.58 214.355 155.812 214.355 156.096C214.355 156.381 214.587 156.612 214.871 156.612C215.156 156.612 215.387 156.381 215.387 156.096Z" fill="#F9FAFC"/>
<path d="M216.419 157.129C216.135 157.129 215.903 157.36 215.903 157.645C215.903 157.93 216.135 158.161 216.419 158.161C216.704 158.161 216.936 157.93 216.936 157.645C216.936 157.36 216.704 157.129 216.419 157.129Z" fill="#F9FAFC"/>
<path d="M222.921 149.357C222.833 149.23 222.686 149.225 222.53 149.285C222.53 149.285 221.823 149.609 221.389 149.719C220.955 149.829 220.249 149.931 220.249 149.931C220.107 149.959 219.946 150.08 219.956 150.235C219.965 150.391 220.098 150.509 220.253 150.499L220.282 150.497C220.3 150.496 220.326 150.494 220.359 150.491C220.424 150.485 220.519 150.475 220.636 150.459C220.87 150.428 221.197 150.373 221.572 150.282C221.96 150.188 222.275 150.057 222.494 149.949C222.604 149.895 222.69 149.846 222.75 149.811C222.78 149.793 222.804 149.778 222.82 149.767L222.849 149.749C222.977 149.66 223.009 149.485 222.921 149.357Z" fill="#3E414D"/>
<path d="M215.072 149.357C215.16 149.23 215.307 149.225 215.463 149.285C215.463 149.285 216.17 149.609 216.604 149.719C217.037 149.829 217.744 149.931 217.744 149.931C217.886 149.959 218.047 150.08 218.037 150.235C218.028 150.391 217.895 150.509 217.74 150.499L217.71 150.497C217.693 150.496 217.667 150.494 217.634 150.491C217.569 150.485 217.474 150.475 217.357 150.459C217.123 150.428 216.795 150.373 216.42 150.282C216.033 150.188 215.718 150.057 215.499 149.949C215.389 149.895 215.303 149.846 215.243 149.811C215.213 149.793 215.189 149.778 215.173 149.767L215.144 149.749C215.016 149.66 214.984 149.485 215.072 149.357Z" fill="#3E414D"/>
<path d="M216.938 153C217.421 153 217.813 152.608 217.813 152.125C217.813 151.642 217.421 151.25 216.938 151.25C216.454 151.25 216.062 151.642 216.062 152.125C216.062 152.608 216.454 153 216.938 153Z" fill="#3E414D"/>
<path d="M221.063 153C221.546 153 221.938 152.608 221.938 152.125C221.938 151.642 221.546 151.25 221.063 151.25C220.579 151.25 220.188 151.642 220.188 152.125C220.188 152.608 220.579 153 221.063 153Z" fill="#3E414D"/>
<path d="M238.668 148.398C240.227 148.41 241.867 149.348 241.867 152.453C241.867 155.43 240.59 157.117 238.551 157.117C236.992 157.117 235.891 156.156 235.691 154.773H236.969C237.145 155.488 237.695 155.992 238.551 155.992C239.863 155.992 240.625 154.844 240.637 152.91H240.531C240.074 153.625 239.277 154.059 238.363 154.059C236.84 154.059 235.621 152.898 235.621 151.27C235.621 149.652 236.828 148.387 238.668 148.398ZM238.668 149.477C237.637 149.477 236.875 150.273 236.875 151.246C236.875 152.23 237.613 153.004 238.645 153.004C239.664 153.004 240.461 152.172 240.461 151.234C240.461 150.32 239.711 149.477 238.668 149.477ZM245.172 152.547C244.012 152.559 243.379 151.691 243.391 150.438C243.379 149.195 244.035 148.34 245.172 148.34C246.332 148.34 246.953 149.195 246.953 150.438C246.953 151.703 246.309 152.559 245.172 152.547ZM245.172 151.727C245.723 151.727 245.98 151.211 245.98 150.438C245.98 149.676 245.734 149.16 245.172 149.16C244.633 149.172 244.352 149.676 244.352 150.438C244.352 151.211 244.621 151.727 245.172 151.727ZM250.527 157.176C249.367 157.176 248.734 156.32 248.746 155.066C248.734 153.812 249.402 152.957 250.527 152.957C251.688 152.957 252.309 153.812 252.309 155.066C252.309 156.32 251.664 157.176 250.527 157.176ZM250.527 156.344C251.078 156.344 251.336 155.828 251.336 155.066C251.336 154.293 251.09 153.777 250.527 153.777C249.988 153.789 249.707 154.305 249.707 155.066C249.707 155.828 249.988 156.344 250.527 156.344ZM244.352 157L250.176 148.516H251.242L245.418 157H244.352Z" fill="#C6C6C6"/>
<path fill-rule="evenodd" clip-rule="evenodd" d="M76.4038 12.2972C76.3803 8.68551 73.4299 5.754 69.8278 6.01856C57.2855 6.93977 45.0363 10.2694 33.7511 15.8252C30.5184 17.4167 29.458 21.4275 31.2581 24.5487C33.0618 27.676 37.0517 28.7208 40.306 27.1579C49.396 22.7922 59.3822 19.9981 69.9133 19.1274C73.5131 18.8298 76.4273 15.9092 76.4038 12.2972Z" fill="#DDE2EB"/>
<path d="M69.9133 19.1274L69.7617 17.2942L69.9133 19.1274ZM40.306 27.1579L39.5097 25.4998L40.306 27.1579ZM34.5635 17.4755C45.6368 12.024 57.6559 8.75693 69.9626 7.85303L69.6931 4.18409C56.9151 5.12261 44.4358 8.51484 32.9386 14.175L34.5635 17.4755ZM41.1024 28.8159C49.9938 24.5456 59.7619 21.8124 70.0649 20.9606L69.7617 17.2942C59.0025 18.1839 48.7981 21.0388 39.5097 25.4998L41.1024 28.8159ZM70.0649 20.9606C74.5337 20.5911 78.2735 16.946 78.2431 12.2852L74.5644 12.3092C74.5811 14.8723 72.4924 17.0685 69.7617 17.2942L70.0649 20.9606ZM29.6647 25.4677C31.9931 29.5047 37.0625 30.7562 41.1024 28.8159L39.5097 25.4998C37.041 26.6854 34.1305 25.8473 32.8515 23.6297L29.6647 25.4677ZM69.9626 7.85303C72.4217 7.67241 74.5473 9.67807 74.5644 12.3092L78.2431 12.2852C78.2133 7.69295 74.4381 3.83558 69.6931 4.18409L69.9626 7.85303ZM32.9386 14.175C28.6788 16.2721 27.3749 21.4975 29.6647 25.4677L32.8515 23.6297C31.541 21.3575 32.358 18.5613 34.5635 17.4755L32.9386 14.175Z" fill="#ECEFF4"/>
<path fill-rule="evenodd" clip-rule="evenodd" d="M29.0131 33.7382C31.9843 31.6979 33.0684 27.7276 31.2677 24.6054C29.4635 21.4772 25.4498 20.3875 22.4507 22.3991C13.5968 28.3376 5.75723 35.6906 -0.748471 44.1779C-7.25963 52.6723 -12.3288 62.1644 -15.7675 72.2721C-16.9271 75.6806 -14.8425 79.2638 -11.3652 80.1965C-7.88367 81.1304 -4.32898 79.0515 -3.13286 75.6512C2.9039 58.4899 14.2863 43.8512 29.0131 33.7382Z" fill="#D6DCE4"/>
<path d="M-0.748471 44.1779L0.711397 45.2969L-0.748471 44.1779ZM0.711397 45.2969C7.0951 36.9688 14.7876 29.7537 23.4753 23.9267L21.4261 20.8715C12.406 26.9214 4.41936 34.4125 -2.20834 43.0589L0.711397 45.2969ZM-14.0261 72.8646C-10.6518 62.9463 -5.67767 53.632 0.711397 45.2969L-2.20834 43.0589C-8.8416 51.7125 -14.0057 61.3826 -17.5089 71.6797L-14.0261 72.8646ZM-1.39767 76.2615C4.50767 59.4739 15.644 45.1502 30.0544 35.2545L27.9719 32.2219C12.9285 42.5522 1.30014 57.506 -4.86804 75.0408L-1.39767 76.2615ZM-11.8417 81.9732C-7.34629 83.179 -2.88275 80.4833 -1.39767 76.2615L-4.86804 75.0408C-5.7752 77.6196 -8.42106 79.0818 -10.8886 78.4199L-11.8417 81.9732ZM-17.5089 71.6797C-19.0372 76.1719 -16.2661 80.7864 -11.8417 81.9732L-10.8886 78.4199C-13.419 77.7412 -14.817 75.1892 -14.0261 72.8646L-17.5089 71.6797ZM29.6743 25.5244C30.9518 27.7394 30.2259 30.674 27.9719 32.2219L30.0544 35.2545C33.7426 32.7218 35.185 27.7158 32.8611 23.6864L29.6743 25.5244ZM32.8611 23.6864C30.5667 19.7082 25.3775 18.2212 21.4261 20.8715L23.4753 23.9267C25.5222 22.5539 28.3604 23.2462 29.6743 25.5244L32.8611 23.6864Z" fill="#ECEFF4"/>
<path fill-rule="evenodd" clip-rule="evenodd" d="M12.328 168.636C14.8776 166.083 14.8561 161.964 12.5088 159.224C-0.234306 144.354 -7.93345 125.025 -7.93345 103.896C-7.93345 98.5482 -7.44019 93.3154 -6.49671 88.2412C-5.83848 84.701 -7.87708 81.1299 -11.355 80.197C-14.837 79.263 -18.4393 81.3271 -19.138 84.8638C-22.0417 99.5611 -21.5492 114.76 -17.6607 129.287C-13.7738 143.809 -6.61297 157.213 3.23663 168.485C5.61383 171.205 9.77473 171.191 12.328 168.636Z" fill="#B7C2D2"/>
<path d="M3.23663 168.485L1.85151 169.695L3.23663 168.485ZM13.9055 158.027C1.43742 143.478 -6.09404 124.57 -6.09404 103.896H-9.77286C-9.77286 125.48 -1.90603 145.23 11.112 160.421L13.9055 158.027ZM-6.09404 103.896C-6.09404 98.6615 -5.61125 93.5413 -4.6883 88.5774L-8.30513 87.9049C-9.26912 93.0896 -9.77286 98.4348 -9.77286 103.896H-6.09404ZM-15.8839 128.811C-19.6995 114.556 -20.1828 99.6423 -17.3335 85.2203L-20.9426 84.5073C-23.9006 99.4799 -23.399 114.963 -19.4376 129.763L-15.8839 128.811ZM4.62175 167.274C-5.04311 156.214 -12.0697 143.061 -15.8839 128.811L-19.4376 129.763C-15.4778 144.556 -8.18282 158.211 1.85151 169.695L4.62175 167.274ZM-10.8785 78.4204C-15.3081 77.2322 -20.0218 79.8465 -20.9426 84.5073L-17.3335 85.2203C-16.8569 82.8076 -14.3659 81.2938 -11.8315 81.9736L-10.8785 78.4204ZM-4.6883 88.5774C-3.87103 84.182 -6.38855 79.6247 -10.8785 78.4204L-11.8315 81.9736C-9.3656 82.6351 -7.80592 85.22 -8.30513 87.9049L-4.6883 88.5774ZM1.85151 169.695C4.98321 173.279 10.3825 173.186 13.6294 169.936L11.0267 167.336C9.16697 169.197 6.24445 169.131 4.62175 167.274L1.85151 169.695ZM11.112 160.421C12.8925 162.499 12.8358 165.525 11.0267 167.336L13.6294 169.936C16.9194 166.642 16.8198 161.428 13.9055 158.027L11.112 160.421Z" fill="#ECEFF4"/>
<path fill-rule="evenodd" clip-rule="evenodd" d="M122.741 183.207C120.937 180.08 116.948 179.035 113.693 180.598C102.587 185.932 90.1418 188.92 76.9998 188.92C55.898 188.92 36.5935 181.217 21.7398 168.466C18.9986 166.112 14.8714 166.091 12.3182 168.647C9.76867 171.199 9.75507 175.353 12.4688 177.73C26.99 190.448 44.9822 198.627 64.2081 201.161C83.4359 203.695 102.932 200.456 120.248 191.93C123.48 190.339 124.541 186.328 122.741 183.207Z" fill="#FBC85B"/>
<path d="M64.2081 201.161L63.9677 202.984L64.2081 201.161ZM120.248 191.93L119.435 190.28L120.248 191.93ZM112.897 178.94C102.033 184.157 89.8602 187.081 76.9998 187.081V190.76C90.4234 190.76 103.14 187.707 114.49 182.256L112.897 178.94ZM76.9998 187.081C56.3541 187.081 37.4709 179.546 22.938 167.07L20.5417 169.861C35.7162 182.888 55.4419 190.76 76.9998 190.76V187.081ZM64.4484 199.337C45.5838 196.851 27.9294 188.826 13.6807 176.346L11.2568 179.113C26.0505 192.071 44.3806 200.403 63.9677 202.984L64.4484 199.337ZM119.435 190.28C102.444 198.645 83.3149 201.824 64.4484 199.337L63.9677 202.984C83.5569 205.566 103.419 202.266 121.06 193.581L119.435 190.28ZM11.0168 167.347C7.77467 170.592 7.682 175.982 11.2568 179.113L13.6807 176.346C11.8281 174.723 11.7627 171.806 13.6195 169.947L11.0168 167.347ZM22.938 167.07C19.5349 164.149 14.3117 164.049 11.0168 167.347L13.6195 169.947C15.4312 168.133 18.4623 168.076 20.5417 169.861L22.938 167.07ZM121.06 193.581C125.32 191.484 126.624 186.258 124.334 182.288L121.148 184.126C122.458 186.398 121.641 189.194 119.435 190.28L121.06 193.581ZM114.49 182.256C116.958 181.071 119.869 181.909 121.148 184.126L124.334 182.288C122.006 178.251 116.937 177 112.897 178.94L114.49 182.256Z" fill="#ECEFF4"/>
<path fill-rule="evenodd" clip-rule="evenodd" d="M167.539 141.44C160.12 159.37 147.575 174.648 131.549 185.397C128.55 187.408 124.536 186.319 122.732 183.191C120.931 180.069 122.016 176.098 124.987 174.058C147.298 158.736 161.932 133.028 161.932 103.897C161.932 59.144 127.391 22.4667 83.5394 19.1239C79.9379 18.8494 76.9995 15.9475 76.9995 12.3356C76.9995 8.72357 79.9312 5.77272 83.5351 6.0138C102.783 7.30131 121.277 14.2534 136.658 26.0679C153.773 39.2145 166.076 57.6471 171.66 78.5068C177.244 99.3666 175.795 121.488 167.539 141.44Z" fill="#48BB98"/>
<path d="M167.539 141.44L165.84 140.736L167.539 141.44ZM136.658 26.0679L137.778 24.6092L136.658 26.0679ZM171.66 78.5068L173.437 78.0312L171.66 78.5068ZM83.5394 19.1239L83.3996 20.958L83.5394 19.1239ZM124.987 174.058L123.945 172.541L124.987 174.058ZM131.549 185.397L132.574 186.925L131.549 185.397ZM132.574 186.925C148.901 175.974 161.681 160.409 169.239 142.143L165.84 140.736C158.559 158.331 146.25 173.322 130.524 183.869L132.574 186.925ZM160.093 103.897C160.093 132.397 145.778 157.549 123.945 172.541L126.028 175.574C148.818 159.924 163.772 133.659 163.772 103.897H160.093ZM83.3996 20.958C126.298 24.2282 160.093 60.1114 160.093 103.897H163.772C163.772 58.1766 128.484 20.7053 83.6792 17.2898L83.3996 20.958ZM137.778 24.6092C122.109 12.5729 103.267 5.4902 83.6579 4.17848L83.4123 7.84911C102.298 9.11243 120.445 15.9339 135.537 27.5267L137.778 24.6092ZM173.437 78.0312C167.749 56.7807 155.215 38.0025 137.778 24.6092L135.537 27.5267C152.331 40.4265 164.404 58.5134 169.883 78.9824L173.437 78.0312ZM169.239 142.143C177.649 121.817 179.125 99.2817 173.437 78.0312L169.883 78.9824C175.362 99.4515 173.941 121.158 165.84 140.736L169.239 142.143ZM83.6792 17.2898C80.9453 17.0814 78.8389 14.897 78.8389 12.3356L75.1601 12.3356C75.1601 16.9981 78.9305 20.6173 83.3996 20.958L83.6792 17.2898ZM124.325 182.272C123.048 180.057 123.774 177.122 126.028 175.574L123.945 172.541C120.257 175.074 118.814 180.08 121.138 184.11L124.325 182.272ZM78.8389 12.3356C78.8389 9.70426 80.9518 7.68451 83.4123 7.84911L83.6579 4.17848C78.9106 3.86092 75.1601 7.74287 75.1601 12.3356L78.8389 12.3356ZM130.524 183.869C128.477 185.242 125.639 184.55 124.325 182.272L121.138 184.11C123.433 188.088 128.622 189.575 132.574 186.925L130.524 183.869Z" fill="#ECEFF4"/>
<g clip-path="url(#clip4_0_10336)">
<path d="M75.3666 104.102C86.1913 104.102 94.9665 95.3178 94.9665 84.4817C94.9665 73.6457 86.1913 64.8613 75.3666 64.8613C64.5418 64.8613 55.7666 73.6457 55.7666 84.4817C55.7666 95.3178 64.5418 104.102 75.3666 104.102Z" fill="#FBC85B"/>
<path d="M70.3132 82.6416C71.4971 82.6416 72.4569 81.6808 72.4569 80.4956C72.4569 79.3104 71.4971 78.3496 70.3132 78.3496C69.1292 78.3496 68.1694 79.3104 68.1694 80.4956C68.1694 81.6808 69.1292 82.6416 70.3132 82.6416Z" fill="#3E414D"/>
<path d="M80.4196 82.6416C81.6036 82.6416 82.5634 81.6808 82.5634 80.4956C82.5634 79.3104 81.6036 78.3496 80.4196 78.3496C79.2357 78.3496 78.2759 79.3104 78.2759 80.4956C78.2759 81.6808 79.2357 82.6416 80.4196 82.6416Z" fill="#3E414D"/>
<path d="M83.9416 89.3105C82.3192 92.3197 79.105 94.3689 75.4049 94.3689C71.7047 94.3689 68.4905 92.3197 66.8682 89.3105" stroke="#9A695E" stroke-width="2.63715" stroke-linecap="round"/>
</g>
<path d="M72.9664 114.745V137.993H69.6708V114.745H72.9664ZM65.9919 117.172C65.9919 124.223 63.5138 130.073 55.2109 134.008L53.4993 131.402C59.5029 128.566 62.1471 124.887 62.6708 119.727H54.7511V117.172H65.9919ZM80.7583 115.307V117.351H82.9299V115.307H85.9445V124.325H77.6926V115.307H80.7583ZM80.7583 121.719H82.9299V119.803H80.7583V121.719ZM90.3897 115.307V117.351H92.4846V115.307H95.5758V124.325H87.2985V115.307H90.3897ZM90.3897 121.719H92.4846V119.803H90.3897V121.719ZM97.2364 125.883V128.489H76.0321V125.883H97.2364ZM94.6561 130.099V137.737H78.4846V130.099H94.6561ZM81.678 132.679V135.132H91.4882V132.679H81.678Z" fill="#3E3E3E"/>
<ellipse cx="76.9999" cy="103.897" rx="76.7665" ry="76.8466" stroke="#E8E8E8" stroke-width="1.63503" stroke-dasharray="1.64 8.18"/>
</g>
<rect x="0.5" y="0.5" width="311" height="208" rx="15.5" stroke="#D2D9E3"/>
<defs>
<clipPath id="clip0_0_10336">
<rect width="312" height="209" rx="16" fill="white"/>
</clipPath>
<clipPath id="clip1_0_10336">
<rect width="16" height="16" fill="white" transform="translate(211 49)"/>
</clipPath>
<clipPath id="clip2_0_10336">
<rect width="16" height="16" fill="white" transform="translate(211 73)"/>
</clipPath>
<clipPath id="clip3_0_10336">
<rect width="16" height="16" fill="white" transform="translate(211 121)"/>
</clipPath>
<clipPath id="clip4_0_10336">
<rect width="39.1999" height="39.2408" fill="white" transform="translate(55.7666 64.8613)"/>
</clipPath>
</defs>
</svg>
