<svg width="384" height="240" viewBox="0 0 384 240" fill="none" xmlns="http://www.w3.org/2000/svg">
<g clip-path="url(#clip0_0_10363)">
<rect width="384" height="240" rx="16" fill="#ECEFF4"/>
<path d="M186.516 201.981H184.576L183.676 205.461C183.596 205.741 183.416 205.881 183.136 205.881H182.656C182.376 205.881 182.276 205.741 182.356 205.461L183.256 201.981H180.456L179.556 205.461C179.476 205.741 179.296 205.881 179.016 205.881H178.536C178.256 205.881 178.156 205.741 178.236 205.461L179.136 201.981H177.516C177.236 201.981 177.076 201.841 177.156 201.581L177.276 201.181C177.356 200.941 177.456 200.881 177.736 200.881H179.416L180.176 197.901H178.296C178.016 197.901 177.856 197.761 177.936 197.501L178.056 197.101C178.136 196.861 178.236 196.801 178.516 196.801H180.456L181.376 193.301C181.456 193.021 181.636 192.881 181.916 192.881H182.396C182.676 192.881 182.776 193.021 182.696 193.301L181.776 196.801H184.576L185.496 193.301C185.576 193.021 185.756 192.881 186.036 192.881H186.516C186.796 192.881 186.896 193.021 186.816 193.301L185.896 196.801H187.516C187.796 196.801 187.956 196.941 187.876 197.201L187.756 197.601C187.676 197.841 187.576 197.901 187.296 197.901H185.616L184.856 200.881H186.736C187.016 200.881 187.176 201.021 187.096 201.281L186.976 201.681C186.896 201.921 186.796 201.981 186.516 201.981ZM181.496 197.901L180.736 200.881H183.536L184.296 197.901H181.496ZM202.679 201.441C203.019 201.441 203.479 201.801 203.479 202.061C203.479 202.241 203.419 202.501 203.419 203.041V205.001V205.041C203.419 205.361 203.139 205.821 202.679 205.821H194.499V207.541C194.499 207.841 194.639 208.001 194.939 208.001H203.099C203.479 208.001 203.719 207.901 203.899 207.901C204.059 207.901 204.239 208.101 204.239 208.281C204.239 208.601 203.579 209.081 203.099 209.081H194.459C193.579 209.081 193.119 208.501 193.119 207.701V206.421C193.119 205.801 193.059 205.601 192.259 205.501C191.819 205.441 191.979 204.741 192.319 204.741H202.039V202.641H195.059C194.439 202.641 194.019 202.741 193.699 202.741C193.359 202.741 192.919 202.521 192.459 202.021C192.139 201.701 192.479 201.241 192.839 201.401C193.179 201.561 193.999 201.561 195.059 201.561H201.279C202.139 201.561 202.379 201.441 202.679 201.441ZM199.679 191.441C199.499 192.141 199.179 192.821 198.659 193.461C200.699 194.421 202.579 195.241 204.279 195.921C204.619 196.181 204.919 196.761 204.919 197.121C204.919 197.401 204.619 197.661 204.259 197.461C202.799 196.681 200.679 195.581 197.919 194.261C196.599 195.481 194.639 196.561 192.019 197.521C191.619 197.661 191.139 197.081 191.519 196.901C194.599 195.521 196.819 193.901 197.899 192.061C197.919 191.701 197.559 191.361 196.679 191.041C196.299 190.901 196.499 190.221 196.959 190.321L199.359 190.881C199.759 190.961 199.719 191.301 199.679 191.441ZM189.679 199.001C189.379 198.681 189.699 198.181 190.059 198.361C190.399 198.521 191.219 198.521 192.279 198.521H205.679C206.039 198.521 206.199 198.441 206.379 198.441C206.619 198.441 206.719 198.581 206.719 198.821C206.719 199.221 206.259 199.621 205.679 199.621H192.279C191.659 199.621 191.239 199.721 190.919 199.721C190.579 199.721 190.139 199.501 189.679 199.001ZM220.687 202.041C221.027 202.041 221.487 202.401 221.487 202.661C221.487 202.841 221.427 203.101 221.427 203.641V205.301V205.341C221.427 205.661 221.147 206.121 220.687 206.121H212.507V207.541C212.507 207.841 212.647 208.001 212.947 208.001H221.107C221.487 208.001 221.727 207.901 221.907 207.901C222.067 207.901 222.247 208.101 222.247 208.281C222.247 208.601 221.587 209.081 221.107 209.081H212.467C211.587 209.081 211.127 208.501 211.127 207.701V206.721C211.127 206.101 211.067 205.901 210.267 205.801C209.827 205.741 209.987 205.041 210.327 205.041H220.047V203.241H213.067C212.447 203.241 212.027 203.341 211.707 203.341C211.367 203.341 210.927 203.121 210.467 202.621C210.147 202.301 210.487 201.841 210.847 202.001C211.187 202.161 212.007 202.161 213.067 202.161H219.527C220.187 202.141 220.407 202.041 220.687 202.041ZM221.667 197.381H212.047C211.427 197.381 211.007 197.481 210.687 197.481C210.347 197.481 209.907 197.261 209.447 196.761C209.127 196.441 209.467 195.961 209.827 196.121C210.167 196.281 210.987 196.281 212.047 196.281H212.627V194.641C212.627 193.821 212.587 193.661 211.787 193.441C211.407 193.341 211.527 192.681 212.007 192.741L213.667 192.921C214.067 192.961 214.027 193.221 214.027 193.361C214.027 193.541 213.967 193.801 213.967 194.341V196.281H218.667V194.401C218.667 193.601 218.627 193.401 217.827 193.181C217.447 193.081 217.567 192.421 218.047 192.481L219.707 192.681C220.107 192.741 220.067 192.981 220.067 193.121C220.067 193.301 220.007 193.561 220.007 194.101V196.281H221.667C222.087 196.281 222.387 196.201 222.567 196.201C222.727 196.201 222.907 196.401 222.907 196.581C222.907 196.901 222.167 197.381 221.667 197.381ZM207.687 199.761C207.387 199.441 207.707 198.941 208.067 199.121C208.407 199.281 209.227 199.281 210.287 199.281H223.687C224.047 199.281 224.207 199.201 224.387 199.201C224.627 199.201 224.727 199.341 224.727 199.581C224.727 199.981 224.267 200.381 223.687 200.381H210.287C209.667 200.381 209.247 200.481 208.927 200.481C208.587 200.481 208.147 200.261 207.687 199.761ZM221.187 191.901H212.407C211.787 191.901 211.367 192.001 211.047 192.001C210.707 192.001 210.267 191.781 209.807 191.281C209.487 190.961 209.827 190.481 210.187 190.641C210.527 190.801 211.347 190.801 212.407 190.801H221.187C221.607 190.801 221.907 190.721 222.087 190.721C222.247 190.721 222.427 190.921 222.427 191.101C222.427 191.421 221.687 191.901 221.187 191.901ZM237.695 192.381V197.601H240.175V192.341C240.175 191.401 240.015 191.161 238.995 190.901C238.615 190.801 238.815 190.101 239.235 190.161L241.195 190.461C241.615 190.521 241.575 190.761 241.575 190.901C241.575 191.061 241.495 191.401 241.495 191.961V206.941C241.495 207.721 241.235 208.421 240.655 208.421C240.395 208.421 240.175 208.121 240.175 207.421V198.681H237.695V206.161C237.695 206.941 237.435 207.641 236.875 207.641C236.615 207.641 236.395 207.341 236.395 206.641V202.021C235.275 202.581 234.035 202.981 232.655 203.181C231.995 203.281 231.575 202.901 231.395 202.381C230.475 202.841 229.395 203.101 228.155 203.181C227.275 203.241 226.815 202.601 226.815 201.801V194.981C226.815 194.281 226.755 194.061 226.075 193.961C225.635 193.901 225.815 193.181 226.135 193.181H229.115C229.495 193.181 229.635 193.101 229.815 193.101C229.975 193.101 230.155 193.301 230.155 193.481C230.155 193.801 229.555 194.281 229.115 194.281H228.135V201.521C228.135 201.821 228.275 201.981 228.575 201.981C229.395 201.981 230.375 201.841 231.315 201.561V194.981C231.315 194.281 231.275 194.061 230.715 193.961C230.275 193.881 230.455 193.181 230.775 193.181H234.235C234.615 193.181 234.755 193.101 234.935 193.101C235.095 193.101 235.275 193.301 235.275 193.481C235.275 193.801 234.675 194.281 234.235 194.281H232.635V201.521C232.635 201.821 232.775 202.001 233.075 201.981C234.135 201.881 235.215 201.601 236.395 201.181V192.741C236.395 191.841 236.275 191.601 235.295 191.341C234.935 191.241 235.115 190.561 235.535 190.621L237.395 190.881C237.815 190.941 237.775 191.181 237.775 191.321C237.775 191.481 237.695 191.821 237.695 192.381ZM244.263 198.121C244.263 194.341 245.963 192.921 248.043 192.921C249.923 192.921 251.523 194.121 251.783 197.241C252.083 197.361 252.643 197.381 253.743 197.381H254.263V192.761C254.263 191.861 253.903 191.601 252.923 191.341C252.563 191.241 252.743 190.561 253.163 190.621L255.283 190.901C255.703 190.961 255.663 191.201 255.663 191.341C255.663 191.501 255.583 191.841 255.583 192.401V206.161C255.583 206.941 255.303 207.641 254.743 207.641C254.483 207.641 254.263 207.341 254.263 206.641V198.461H253.743C253.123 198.461 252.923 198.561 252.603 198.561C252.423 198.561 252.123 198.441 251.823 198.221C251.783 201.921 250.083 203.281 248.043 203.281C245.963 203.281 244.263 201.901 244.263 198.121ZM245.683 198.141C245.683 201.141 246.763 202.201 248.043 202.201C249.323 202.201 250.403 201.141 250.403 198.141C250.403 195.101 249.323 194.001 248.043 194.001C246.763 194.001 245.683 195.101 245.683 198.141ZM259.303 191.981V206.941C259.303 207.721 259.023 208.421 258.443 208.421C258.183 208.421 257.963 208.121 257.963 207.421V192.361C257.963 191.421 257.563 191.161 256.543 190.901C256.163 190.801 256.363 190.101 256.783 190.161L259.003 190.481C259.423 190.541 259.383 190.781 259.383 190.921C259.383 191.081 259.303 191.421 259.303 191.981ZM276.851 191.981V199.141C276.851 199.921 276.591 200.661 275.971 200.661C275.671 200.661 275.471 200.361 275.471 199.641V198.001C272.431 198.921 268.931 199.361 265.031 199.441C264.411 199.461 263.991 199.541 263.671 199.541C263.331 199.541 262.891 199.321 262.431 198.821C262.131 198.501 262.451 198.001 262.811 198.181C263.131 198.341 263.931 198.341 264.951 198.341V195.881C264.951 195.081 264.931 194.881 264.111 194.681C263.731 194.581 263.851 193.921 264.331 193.981L265.991 194.161C266.391 194.201 266.351 194.461 266.351 194.601C266.351 194.781 266.291 195.041 266.291 195.581V198.321C267.511 198.301 268.711 198.221 269.891 198.101V195.561C269.891 194.761 269.871 194.541 269.051 194.341C268.671 194.241 268.791 193.581 269.271 193.641L270.931 193.841C271.331 193.881 271.291 194.141 271.291 194.281C271.291 194.461 271.231 194.721 271.231 195.261V197.941C272.671 197.741 274.091 197.481 275.471 197.161V192.361C275.471 191.421 275.071 191.161 274.051 190.901C273.671 190.801 273.871 190.101 274.291 190.161L276.551 190.481C276.971 190.541 276.931 190.781 276.931 190.921C276.931 191.081 276.851 191.421 276.851 191.981ZM275.991 201.401C276.331 201.401 276.791 201.761 276.791 202.021C276.791 202.201 276.731 202.461 276.731 203.001V204.981V205.021C276.731 205.341 276.451 205.801 275.991 205.801H268.011V207.541C268.011 207.841 268.151 208.001 268.451 208.001H276.451C276.831 208.001 277.071 207.901 277.251 207.901C277.411 207.901 277.591 208.101 277.591 208.281C277.591 208.601 276.931 209.081 276.451 209.081H267.971C267.091 209.081 266.631 208.501 266.631 207.701V206.401C266.631 205.781 266.571 205.581 265.771 205.481C265.331 205.421 265.491 204.721 265.831 204.721H275.351V202.601H268.471C267.851 202.601 267.431 202.701 267.111 202.701C266.771 202.701 266.331 202.481 265.871 201.981C265.551 201.661 265.891 201.201 266.251 201.361C266.591 201.521 267.411 201.521 268.471 201.521H274.831C275.491 201.501 275.711 201.401 275.991 201.401ZM271.891 192.901H265.231C264.611 192.901 264.191 193.001 263.871 193.001C263.531 193.001 263.091 192.781 262.631 192.281C262.331 191.961 262.651 191.461 263.011 191.641C263.351 191.801 264.171 191.801 265.231 191.801H271.891C272.311 191.801 272.611 191.721 272.791 191.721C272.951 191.721 273.131 191.921 273.131 192.101C273.131 192.441 272.391 192.901 271.891 192.901ZM292.578 191.581C292.918 191.581 293.378 191.941 293.378 192.201C293.378 192.381 293.318 192.641 293.318 193.181V195.981V196.021C293.318 196.361 292.918 196.821 292.478 196.821H284.358V199.301C284.358 199.601 284.498 199.761 284.798 199.761H292.998C293.358 199.761 293.518 199.681 293.698 199.681C293.858 199.681 294.038 199.901 294.038 200.081C294.038 200.421 293.438 200.861 292.998 200.861H284.318C283.438 200.861 282.978 200.281 282.978 199.481V197.421C282.978 196.801 282.918 196.601 282.118 196.501C281.678 196.441 281.858 195.721 282.178 195.721H291.938V192.801H285.018C284.398 192.801 283.978 192.901 283.658 192.901C283.318 192.901 282.878 192.681 282.418 192.181C282.118 191.861 282.438 191.361 282.798 191.541C283.138 191.701 283.958 191.701 285.018 191.701H291.418C292.078 191.681 292.318 191.581 292.578 191.581ZM279.718 204.941C279.418 204.621 279.738 204.121 280.098 204.301C280.438 204.461 281.258 204.461 282.318 204.461H287.638V203.401C287.638 202.601 287.438 202.401 286.458 202.161C286.078 202.061 286.198 201.361 286.678 201.421L288.718 201.641C289.118 201.681 289.078 201.941 289.078 202.081C289.078 202.261 289.018 202.521 289.018 203.061V204.461H295.718C296.078 204.461 296.238 204.381 296.418 204.381C296.658 204.381 296.758 204.521 296.758 204.761C296.758 205.161 296.298 205.561 295.718 205.561H282.318C281.698 205.561 281.278 205.661 280.958 205.661C280.618 205.661 280.178 205.441 279.718 204.941ZM311.766 193.761C311.486 197.301 310.826 200.581 309.826 203.661H313.726C314.086 203.661 314.246 203.581 314.426 203.581C314.666 203.581 314.766 203.721 314.766 203.961C314.766 204.361 314.306 204.761 313.726 204.761H300.326C299.706 204.761 299.286 204.861 298.966 204.861C298.626 204.861 298.186 204.641 297.726 204.141C297.426 203.821 297.746 203.321 298.106 203.501C298.446 203.661 299.266 203.661 300.326 203.661H308.946C309.586 200.381 309.966 196.941 310.146 193.381H302.586C301.966 193.381 301.546 193.481 301.226 193.481C300.886 193.481 300.446 193.261 299.986 192.761C299.686 192.441 300.006 191.941 300.366 192.121C300.706 192.281 301.526 192.281 302.586 192.281H309.566C310.406 192.281 310.746 192.161 311.026 192.161C311.366 192.161 311.826 192.521 311.826 192.781C311.826 192.961 311.786 193.221 311.766 193.761Z" fill="#ABB8CE"/>
<path d="M162.391 167.53H160.451L159.551 171.01C159.471 171.29 159.291 171.43 159.011 171.43H158.531C158.251 171.43 158.151 171.29 158.231 171.01L159.131 167.53H156.331L155.431 171.01C155.351 171.29 155.171 171.43 154.891 171.43H154.411C154.131 171.43 154.031 171.29 154.111 171.01L155.011 167.53H153.391C153.111 167.53 152.951 167.39 153.031 167.13L153.151 166.73C153.231 166.49 153.331 166.43 153.611 166.43H155.291L156.051 163.45H154.171C153.891 163.45 153.731 163.31 153.811 163.05L153.931 162.65C154.011 162.41 154.111 162.35 154.391 162.35H156.331L157.251 158.85C157.331 158.57 157.511 158.43 157.791 158.43H158.271C158.551 158.43 158.651 158.57 158.571 158.85L157.651 162.35H160.451L161.371 158.85C161.451 158.57 161.631 158.43 161.911 158.43H162.391C162.671 158.43 162.771 158.57 162.691 158.85L161.771 162.35H163.391C163.671 162.35 163.831 162.49 163.751 162.75L163.631 163.15C163.551 163.39 163.451 163.45 163.171 163.45H161.491L160.731 166.43H162.611C162.891 166.43 163.051 166.57 162.971 166.83L162.851 167.23C162.771 167.47 162.671 167.53 162.391 167.53ZM157.371 163.45L156.611 166.43H159.411L160.171 163.45H157.371ZM168.634 160.17C168.634 157.17 171.014 156.07 173.974 156.07C176.934 156.07 179.334 157.17 179.334 160.17C179.334 163.15 176.934 164.23 173.974 164.23C171.014 164.23 168.634 163.15 168.634 160.17ZM170.054 160.19C170.054 162.37 171.834 163.15 173.974 163.15C176.154 163.15 177.934 162.37 177.934 160.19C177.934 157.95 176.154 157.15 173.974 157.15C171.834 157.15 170.054 157.95 170.054 160.19ZM165.554 166.89C165.254 166.57 165.574 166.07 165.934 166.25C166.274 166.41 167.094 166.41 168.154 166.41H181.554C181.914 166.41 182.074 166.33 182.254 166.33C182.494 166.33 182.594 166.47 182.594 166.71C182.594 167.11 182.134 167.51 181.554 167.51H174.674V172.87C174.674 173.65 174.394 174.39 173.754 174.39C173.334 174.39 173.294 173.83 173.294 173.37V167.51H168.154C167.534 167.51 167.114 167.61 166.794 167.61C166.454 167.61 166.014 167.39 165.554 166.89ZM186.341 167.77C186.021 167.45 186.361 166.99 186.721 167.15C187.061 167.31 187.881 167.31 188.941 167.31H191.281V165.09H186.161C185.541 165.09 185.121 165.19 184.801 165.19C184.461 165.19 184.021 164.97 183.561 164.47C183.261 164.15 183.581 163.65 183.941 163.83C184.281 163.99 185.101 163.99 186.161 163.99H199.561C199.921 163.99 200.081 163.91 200.261 163.91C200.501 163.91 200.601 164.05 200.601 164.29C200.601 164.69 200.141 165.09 199.561 165.09H192.661V167.31H195.161C196.021 167.31 196.261 167.19 196.561 167.19C196.901 167.19 197.361 167.55 197.361 167.81C197.361 167.99 197.301 168.25 197.301 168.79V170.69C197.301 171.01 197.021 171.47 196.561 171.47H188.381V173.09C188.381 173.39 188.521 173.55 188.821 173.55H196.981C197.361 173.55 197.601 173.45 197.781 173.45C197.941 173.45 198.121 173.65 198.121 173.83C198.121 174.15 197.461 174.63 196.981 174.63H188.341C187.461 174.63 187.001 174.05 187.001 173.25V172.07C187.001 171.45 186.941 171.25 186.141 171.15C185.701 171.09 185.861 170.39 186.201 170.39H195.921V168.39H188.941C188.321 168.39 187.901 168.49 187.581 168.49C187.241 168.49 186.801 168.27 186.341 167.77ZM186.721 159.27C186.721 156.81 189.061 155.91 191.981 155.91C194.921 155.91 197.281 156.81 197.281 159.27C197.281 161.73 194.921 162.61 191.981 162.61C189.061 162.61 186.721 161.73 186.721 159.27ZM188.141 159.29C188.141 160.95 189.901 161.53 191.981 161.53C194.121 161.53 195.881 160.95 195.881 159.29C195.881 157.59 194.121 156.99 191.981 156.99C189.901 156.99 188.141 157.59 188.141 159.29ZM213.049 157.95V163.15H215.829V157.91C215.829 156.97 215.429 156.71 214.409 156.45C214.029 156.35 214.229 155.65 214.649 155.71L216.869 156.03C217.289 156.09 217.249 156.33 217.249 156.47C217.249 156.63 217.169 156.97 217.169 157.53V172.49C217.169 173.27 216.889 173.97 216.309 173.97C216.049 173.97 215.829 173.67 215.829 172.97V164.23H213.049V171.71C213.049 172.49 212.769 173.19 212.209 173.19C211.949 173.19 211.729 172.89 211.729 172.19V158.31C211.729 157.41 211.369 157.15 210.389 156.89C210.029 156.79 210.209 156.11 210.629 156.17L212.749 156.45C213.169 156.51 213.129 156.75 213.129 156.89C213.129 157.05 213.049 157.39 213.049 157.95ZM202.549 166.35C202.549 163.81 204.209 162.87 206.289 162.87C208.389 162.87 210.069 163.81 210.069 166.35C210.069 168.85 208.389 169.79 206.289 169.79C204.209 169.79 202.549 168.85 202.549 166.35ZM203.969 166.37C203.969 168.09 205.049 168.69 206.289 168.69C207.589 168.69 208.669 168.09 208.669 166.37C208.669 164.59 207.589 163.97 206.289 163.97C205.049 163.97 203.969 164.59 203.969 166.37ZM209.569 161.67H204.309C203.689 161.67 203.269 161.77 202.949 161.77C202.609 161.77 202.169 161.53 201.709 161.03C201.409 160.71 201.729 160.25 202.089 160.43C202.429 160.59 203.249 160.59 204.309 160.59H209.569C209.929 160.59 210.089 160.51 210.269 160.51C210.429 160.51 210.609 160.69 210.609 160.87C210.609 161.21 210.009 161.67 209.569 161.67ZM206.369 158.83C205.389 158.83 204.609 158.85 203.769 158.07C203.449 157.77 203.769 157.23 204.149 157.39C204.489 157.55 205.029 157.65 206.369 157.65H208.429C208.589 157.65 208.749 157.89 208.749 158.11C208.749 158.45 208.029 158.83 206.369 158.83ZM222.657 161.17C222.657 157.99 225.037 156.83 227.997 156.83C230.957 156.83 233.357 157.99 233.357 161.17C233.357 164.33 230.957 165.47 227.997 165.47C225.037 165.47 222.657 164.33 222.657 161.17ZM224.077 161.19C224.077 163.53 225.857 164.39 227.997 164.39C230.177 164.39 231.957 163.53 231.957 161.19C231.957 158.79 230.177 157.91 227.997 157.91C225.857 157.91 224.077 158.79 224.077 161.19ZM219.577 170.29C219.277 169.97 219.597 169.47 219.957 169.65C220.297 169.81 221.117 169.81 222.177 169.81H224.517V167.89C224.517 167.09 224.397 166.93 223.477 166.67C223.097 166.57 223.217 165.87 223.697 165.93L225.597 166.13C225.997 166.17 225.957 166.43 225.957 166.57C225.957 166.75 225.897 167.01 225.897 167.55V169.81H230.677V167.81C230.677 167.01 230.537 166.83 229.637 166.57C229.257 166.47 229.377 165.77 229.857 165.83L231.757 166.05C232.157 166.09 232.117 166.35 232.117 166.49C232.117 166.67 232.057 166.93 232.057 167.47V169.81H235.577C235.937 169.81 236.097 169.73 236.277 169.73C236.517 169.73 236.617 169.87 236.617 170.11C236.617 170.51 236.157 170.91 235.577 170.91H222.177C221.557 170.91 221.137 171.01 220.817 171.01C220.477 171.01 220.037 170.79 219.577 170.29Z" fill="#ABB8CE"/>
<path d="M335.291 201.981H333.351L332.451 205.461C332.371 205.741 332.191 205.881 331.911 205.881H331.431C331.151 205.881 331.051 205.741 331.131 205.461L332.031 201.981H329.231L328.331 205.461C328.251 205.741 328.071 205.881 327.791 205.881H327.311C327.031 205.881 326.931 205.741 327.011 205.461L327.911 201.981H326.291C326.011 201.981 325.851 201.841 325.931 201.581L326.051 201.181C326.131 200.941 326.231 200.881 326.511 200.881H328.191L328.951 197.901H327.071C326.791 197.901 326.631 197.761 326.711 197.501L326.831 197.101C326.911 196.861 327.011 196.801 327.291 196.801H329.231L330.151 193.301C330.231 193.021 330.411 192.881 330.691 192.881H331.171C331.451 192.881 331.551 193.021 331.471 193.301L330.551 196.801H333.351L334.271 193.301C334.351 193.021 334.531 192.881 334.811 192.881H335.291C335.571 192.881 335.671 193.021 335.591 193.301L334.671 196.801H336.291C336.571 196.801 336.731 196.941 336.651 197.201L336.531 197.601C336.451 197.841 336.351 197.901 336.071 197.901H334.391L333.631 200.881H335.511C335.791 200.881 335.951 201.021 335.871 201.281L335.751 201.681C335.671 201.921 335.571 201.981 335.291 201.981ZM330.271 197.901L329.511 200.881H332.311L333.071 197.901H330.271ZM340.554 195.141C340.554 192.441 342.574 191.421 345.074 191.421C347.574 191.421 349.614 192.441 349.614 195.141C349.614 197.841 347.574 198.801 345.074 198.801C342.574 198.801 340.554 197.841 340.554 195.141ZM341.654 200.941C345.034 200.941 348.814 200.701 352.214 200.281V192.361C352.214 191.421 351.814 191.161 350.794 190.901C350.414 190.801 350.614 190.101 351.034 190.161L353.294 190.481C353.714 190.541 353.674 190.781 353.674 190.921C353.674 191.081 353.594 191.421 353.594 191.981V206.921C353.594 207.701 353.334 208.441 352.714 208.441C352.414 208.441 352.214 208.141 352.214 207.421V201.121C350.314 201.461 348.254 201.721 346.154 201.881V206.661C346.154 207.441 345.894 208.181 345.274 208.181C344.974 208.181 344.774 207.881 344.774 207.161V201.961C343.714 202.021 342.674 202.041 341.654 202.041C341.034 202.041 340.614 202.141 340.294 202.141C339.954 202.141 339.514 201.921 339.054 201.421C338.754 201.101 339.074 200.601 339.434 200.781C339.774 200.941 340.594 200.941 341.654 200.941ZM341.994 195.161C341.994 197.061 343.394 197.721 345.074 197.721C346.754 197.721 348.194 197.061 348.194 195.161C348.194 193.141 346.754 192.501 345.074 192.501C343.394 192.501 341.994 193.141 341.994 195.161ZM369.322 191.581C369.662 191.581 370.122 191.941 370.122 192.201C370.122 192.381 370.062 192.641 370.062 193.181V195.981V196.021C370.062 196.361 369.662 196.821 369.222 196.821H361.102V199.301C361.102 199.601 361.242 199.761 361.542 199.761H369.742C370.102 199.761 370.262 199.681 370.442 199.681C370.602 199.681 370.782 199.901 370.782 200.081C370.782 200.421 370.182 200.861 369.742 200.861H361.062C360.182 200.861 359.722 200.281 359.722 199.481V197.421C359.722 196.801 359.662 196.601 358.862 196.501C358.422 196.441 358.602 195.721 358.922 195.721H368.682V192.801H361.762C361.142 192.801 360.722 192.901 360.402 192.901C360.062 192.901 359.622 192.681 359.162 192.181C358.862 191.861 359.182 191.361 359.542 191.541C359.882 191.701 360.702 191.701 361.762 191.701H368.162C368.822 191.681 369.062 191.581 369.322 191.581ZM356.462 204.941C356.162 204.621 356.482 204.121 356.842 204.301C357.182 204.461 358.002 204.461 359.062 204.461H364.382V203.401C364.382 202.601 364.182 202.401 363.202 202.161C362.822 202.061 362.942 201.361 363.422 201.421L365.462 201.641C365.862 201.681 365.822 201.941 365.822 202.081C365.822 202.261 365.762 202.521 365.762 203.061V204.461H372.462C372.822 204.461 372.982 204.381 373.162 204.381C373.402 204.381 373.502 204.521 373.502 204.761C373.502 205.161 373.042 205.561 372.462 205.561H359.062C358.442 205.561 358.022 205.661 357.702 205.661C357.362 205.661 356.922 205.441 356.462 204.941ZM390.71 199.121H388.61V206.921C388.61 207.701 388.35 208.441 387.73 208.441C387.43 208.441 387.23 208.141 387.23 207.421V192.361C387.23 191.421 386.83 191.161 385.81 190.901C385.43 190.801 385.63 190.101 386.05 190.161L388.31 190.481C388.73 190.541 388.69 190.781 388.69 190.921C388.69 191.081 388.61 191.421 388.61 191.981V198.021H390.71C391.09 198.021 391.23 197.941 391.41 197.941C391.57 197.941 391.75 198.141 391.75 198.321C391.75 198.641 391.15 199.121 390.71 199.121ZM374.49 203.341C378.45 201.181 381.05 197.941 382.43 193.961H377.77C377.15 193.961 376.73 194.061 376.41 194.061C376.07 194.061 375.63 193.841 375.17 193.341C374.87 193.021 375.19 192.521 375.55 192.701C375.89 192.861 376.71 192.861 377.77 192.861H381.89C382.73 192.861 383.05 192.741 383.33 192.741C383.67 192.741 384.13 193.101 384.13 193.361C384.13 193.581 383.97 193.901 383.87 194.321C382.45 198.701 379.43 201.921 374.91 204.001C374.51 204.181 374.11 203.541 374.49 203.341Z" fill="#ABB8CE"/>
<path d="M256.883 167.53H254.943L254.043 171.01C253.963 171.29 253.783 171.43 253.503 171.43H253.023C252.743 171.43 252.643 171.29 252.723 171.01L253.623 167.53H250.823L249.923 171.01C249.843 171.29 249.663 171.43 249.383 171.43H248.903C248.623 171.43 248.523 171.29 248.603 171.01L249.503 167.53H247.883C247.603 167.53 247.443 167.39 247.523 167.13L247.643 166.73C247.723 166.49 247.823 166.43 248.103 166.43H249.783L250.543 163.45H248.663C248.383 163.45 248.223 163.31 248.303 163.05L248.423 162.65C248.503 162.41 248.603 162.35 248.883 162.35H250.823L251.743 158.85C251.823 158.57 252.003 158.43 252.283 158.43H252.763C253.043 158.43 253.143 158.57 253.063 158.85L252.143 162.35H254.943L255.863 158.85C255.943 158.57 256.123 158.43 256.403 158.43H256.883C257.163 158.43 257.263 158.57 257.183 158.85L256.263 162.35H257.883C258.163 162.35 258.323 162.49 258.243 162.75L258.123 163.15C258.043 163.39 257.943 163.45 257.663 163.45H255.983L255.223 166.43H257.103C257.383 166.43 257.543 166.57 257.463 166.83L257.343 167.23C257.263 167.47 257.163 167.53 256.883 167.53ZM251.863 163.45L251.103 166.43H253.903L254.663 163.45H251.863ZM268.526 168.31H262.386C261.506 168.31 261.046 167.73 261.046 166.93V160.31C261.046 159.61 260.966 159.43 260.186 159.29C259.746 159.23 259.926 158.51 260.246 158.51H267.466C268.126 158.49 268.346 158.39 268.626 158.39C268.966 158.39 269.426 158.75 269.426 159.01C269.426 159.19 269.366 159.45 269.366 159.99V167.51C269.366 167.85 268.986 168.31 268.526 168.31ZM262.426 166.75C262.426 167.05 262.566 167.21 262.866 167.21H267.986V159.61H262.426V166.75ZM276.286 164.07H274.186V172.47C274.186 173.25 273.926 173.99 273.306 173.99C273.006 173.99 272.806 173.69 272.806 172.97V157.91C272.806 156.97 272.406 156.71 271.386 156.45C271.006 156.35 271.206 155.65 271.626 155.71L273.886 156.03C274.306 156.09 274.266 156.33 274.266 156.47C274.266 156.63 274.186 156.97 274.186 157.53V162.97H276.286C276.666 162.97 276.806 162.89 276.986 162.89C277.146 162.89 277.326 163.09 277.326 163.27C277.326 163.59 276.726 164.07 276.286 164.07ZM290.774 174.65H282.834C281.954 174.65 281.494 174.07 281.494 173.27V170.31C281.494 169.61 281.414 169.43 280.634 169.29C280.194 169.23 280.374 168.51 280.694 168.51H289.474C290.334 168.51 290.574 168.39 290.874 168.39C291.214 168.39 291.674 168.75 291.674 169.01C291.674 169.19 291.614 169.45 291.614 169.99V173.85C291.614 174.19 291.234 174.65 290.774 174.65ZM281.214 159.79C281.214 157.19 283.554 156.23 286.474 156.23C289.414 156.23 291.774 157.19 291.774 159.79C291.774 162.35 289.414 163.29 286.474 163.29C283.554 163.29 281.214 162.35 281.214 159.79ZM282.634 159.81C282.634 161.57 284.374 162.21 286.474 162.21C288.634 162.21 290.374 161.57 290.374 159.81C290.374 157.97 288.634 157.31 286.474 157.31C284.374 157.31 282.634 157.97 282.634 159.81ZM282.874 173.09C282.874 173.39 283.014 173.55 283.314 173.55H290.234V169.61H282.874V173.09ZM278.054 165.65C277.754 165.33 278.074 164.83 278.434 165.01C278.774 165.17 279.594 165.17 280.654 165.17H294.054C294.414 165.17 294.574 165.09 294.754 165.09C294.994 165.09 295.094 165.23 295.094 165.47C295.094 165.87 294.634 166.27 294.054 166.27H280.654C280.034 166.27 279.614 166.37 279.294 166.37C278.954 166.37 278.514 166.15 278.054 165.65ZM311.201 157.53V172.47C311.201 173.25 310.941 173.99 310.321 173.99C310.021 173.99 309.821 173.69 309.821 172.97V157.91C309.821 156.97 309.421 156.71 308.401 156.45C308.021 156.35 308.221 155.65 308.641 155.71L310.901 156.03C311.321 156.09 311.281 156.33 311.281 156.47C311.281 156.63 311.201 156.97 311.201 157.53ZM297.221 163.35C297.221 159.57 299.261 158.15 301.741 158.15C304.221 158.15 306.281 159.57 306.281 163.35C306.281 167.13 304.221 168.51 301.741 168.51C299.261 168.51 297.221 167.13 297.221 163.35ZM298.661 163.37C298.661 166.37 300.081 167.43 301.741 167.43C303.421 167.43 304.841 166.37 304.841 163.37C304.841 160.33 303.421 159.23 301.741 159.23C300.081 159.23 298.661 160.33 298.661 163.37ZM324.829 166.43C324.789 166.71 324.409 166.97 324.089 166.67C323.109 165.77 321.969 164.89 320.389 163.77C318.929 165.05 317.129 166.07 315.029 166.91C314.649 167.07 314.209 166.47 314.569 166.29C317.709 164.75 320.109 162.69 321.669 160.09H317.809C317.189 160.09 316.769 160.19 316.449 160.19C316.109 160.19 315.669 159.97 315.209 159.47C314.909 159.15 315.229 158.65 315.589 158.83C315.929 158.99 316.749 158.99 317.809 158.99H321.229C322.069 158.99 322.389 158.87 322.669 158.87C323.009 158.87 323.469 159.27 323.469 159.49C323.469 159.71 323.289 160.09 323.089 160.45C322.549 161.39 321.909 162.25 321.149 163.03C322.349 163.87 323.349 164.53 324.469 165.19C324.689 165.43 324.869 165.97 324.829 166.43ZM328.209 157.53V161.69H330.309C330.689 161.69 330.829 161.61 331.009 161.61C331.169 161.61 331.349 161.81 331.349 161.99C331.349 162.31 330.749 162.79 330.309 162.79H328.209V165.87C328.209 166.65 327.949 167.39 327.329 167.39C327.029 167.39 326.829 167.09 326.829 166.37V157.91C326.829 156.97 326.429 156.71 325.409 156.45C325.029 156.35 325.229 155.65 325.649 155.71L327.909 156.03C328.329 156.09 328.289 156.33 328.289 156.47C328.289 156.63 328.209 156.97 328.209 157.53ZM328.089 169.89V173.27C328.089 174.05 327.829 174.79 327.209 174.79C326.909 174.79 326.709 174.49 326.709 173.77V169.51H319.889C319.269 169.51 318.849 169.61 318.529 169.61C318.189 169.61 317.749 169.39 317.289 168.89C316.969 168.57 317.309 168.09 317.669 168.25C318.009 168.41 318.829 168.41 319.889 168.41H325.889C326.749 168.41 327.049 168.29 327.349 168.29C327.689 168.29 328.149 168.65 328.149 168.91C328.149 169.09 328.089 169.35 328.089 169.89ZM319.529 157.61C318.549 157.61 317.809 157.63 316.969 156.85C316.649 156.55 316.969 156.01 317.349 156.17C317.689 156.33 318.189 156.43 319.529 156.43H321.649C321.809 156.43 321.969 156.67 321.969 156.89C321.969 157.23 321.189 157.61 319.529 157.61ZM345.257 174.63H337.617C336.737 174.63 336.277 174.05 336.277 173.25V169.73C336.277 168.93 336.137 168.73 335.237 168.51C334.857 168.41 334.977 167.71 335.457 167.77L337.357 167.97C337.757 168.01 337.717 168.27 337.717 168.41C337.717 168.59 337.657 168.85 337.657 169.39V170.31H344.717V169.53C344.717 168.73 344.557 168.53 343.677 168.29C343.297 168.19 343.417 167.49 343.897 167.55L345.797 167.77C346.197 167.81 346.157 168.07 346.157 168.21C346.157 168.39 346.097 168.65 346.097 169.19V173.79V173.83C346.097 174.17 345.717 174.63 345.257 174.63ZM342.897 165.35C342.857 165.63 342.457 165.91 342.157 165.59C341.137 164.57 339.877 163.53 338.437 162.43C336.997 163.83 335.197 164.99 332.977 165.83C332.577 165.99 332.157 165.39 332.517 165.21C335.897 163.53 338.237 161.25 339.697 158.41H335.997C335.377 158.41 334.957 158.51 334.637 158.51C334.297 158.51 333.857 158.29 333.397 157.79C333.097 157.47 333.417 156.97 333.777 157.15C334.117 157.31 334.937 157.31 335.997 157.31H339.257C340.097 157.31 340.417 157.19 340.697 157.19C341.037 157.19 341.497 157.59 341.497 157.81C341.497 158.03 341.317 158.41 341.117 158.77C340.577 159.81 339.937 160.77 339.177 161.65C340.297 162.53 341.417 163.33 342.517 164.07C342.737 164.31 342.937 164.89 342.897 165.35ZM346.217 157.53V160.79H348.317C348.697 160.79 348.837 160.71 349.017 160.71C349.177 160.71 349.357 160.91 349.357 161.09C349.357 161.41 348.757 161.89 348.317 161.89H346.217V165.27C346.217 166.05 345.957 166.79 345.337 166.79C345.037 166.79 344.837 166.49 344.837 165.77V157.91C344.837 156.97 344.437 156.71 343.417 156.45C343.037 156.35 343.237 155.65 343.657 155.71L345.917 156.03C346.337 156.09 346.297 156.33 346.297 156.47C346.297 156.63 346.217 156.97 346.217 157.53ZM338.097 173.53H344.717V171.41H337.657V173.07C337.657 173.37 337.797 173.53 338.097 173.53ZM351.425 163.15C351.425 161.01 353.305 160.19 355.625 160.19C357.965 160.19 359.865 161.01 359.865 163.15C359.865 165.29 357.965 166.09 355.625 166.09C353.305 166.09 351.425 165.29 351.425 163.15ZM363.365 167.35C363.705 167.35 364.165 167.71 364.165 167.97C364.165 168.15 364.105 168.41 364.105 168.95V170.77C364.105 171.09 363.825 171.55 363.365 171.55H355.585V173.09C355.585 173.39 355.725 173.55 356.025 173.55H363.825C364.205 173.55 364.445 173.45 364.625 173.45C364.785 173.45 364.965 173.65 364.965 173.83C364.965 174.15 364.305 174.63 363.825 174.63H355.545C354.665 174.63 354.205 174.05 354.205 173.25V172.15C354.205 171.53 354.145 171.33 353.345 171.23C352.905 171.17 353.065 170.47 353.405 170.47H362.725V168.55H356.045C355.425 168.55 355.005 168.65 354.685 168.65C354.345 168.65 353.905 168.43 353.445 167.93C353.125 167.61 353.465 167.15 353.825 167.31C354.165 167.47 354.985 167.47 356.045 167.47H362.205C362.865 167.45 363.085 167.35 363.365 167.35ZM364.225 157.53V161.31H366.325C366.705 161.31 366.845 161.23 367.025 161.23C367.185 161.23 367.365 161.43 367.365 161.61C367.365 161.93 366.765 162.41 366.325 162.41H364.225V165.09C364.225 165.87 363.965 166.61 363.345 166.61C363.045 166.61 362.845 166.31 362.845 165.59V157.91C362.845 156.97 362.445 156.71 361.425 156.45C361.045 156.35 361.245 155.65 361.665 155.71L363.925 156.03C364.345 156.09 364.305 156.33 364.305 156.47C364.305 156.63 364.225 156.97 364.225 157.53ZM352.845 163.17C352.845 164.55 354.125 165.01 355.625 165.01C357.185 165.01 358.465 164.55 358.465 163.17C358.465 161.75 357.185 161.29 355.625 161.29C354.125 161.29 352.845 161.75 352.845 163.17ZM359.865 159.39H352.845C352.225 159.39 351.805 159.49 351.485 159.49C351.145 159.49 350.705 159.25 350.245 158.75C349.945 158.43 350.265 157.97 350.625 158.15C350.965 158.31 351.785 158.31 352.845 158.31H359.865C360.225 158.31 360.385 158.23 360.565 158.23C360.725 158.23 360.905 158.41 360.905 158.59C360.905 158.93 360.305 159.39 359.865 159.39ZM355.545 157.29C354.565 157.29 353.585 157.31 352.745 156.53C352.425 156.23 352.745 155.69 353.125 155.85C353.465 156.01 354.205 156.11 355.545 156.11H357.905C358.065 156.11 358.225 156.35 358.225 156.57C358.225 156.91 357.205 157.29 355.545 157.29ZM380.093 157.93V163.15H382.573V157.89C382.573 156.95 382.413 156.71 381.393 156.45C381.013 156.35 381.213 155.65 381.633 155.71L383.593 156.01C384.013 156.07 383.973 156.31 383.973 156.45C383.973 156.61 383.893 156.95 383.893 157.51V172.49C383.893 173.27 383.633 173.97 383.053 173.97C382.793 173.97 382.573 173.67 382.573 172.97V164.23H380.093V171.71C380.093 172.49 379.833 173.19 379.273 173.19C379.013 173.19 378.793 172.89 378.793 172.19V167.57C377.673 168.13 376.433 168.53 375.053 168.73C374.393 168.83 373.973 168.45 373.793 167.93C372.873 168.39 371.793 168.65 370.553 168.73C369.673 168.79 369.213 168.15 369.213 167.35V160.53C369.213 159.83 369.153 159.61 368.473 159.51C368.033 159.45 368.213 158.73 368.533 158.73H371.513C371.893 158.73 372.033 158.65 372.213 158.65C372.373 158.65 372.553 158.85 372.553 159.03C372.553 159.35 371.953 159.83 371.513 159.83H370.533V167.07C370.533 167.37 370.673 167.53 370.973 167.53C371.793 167.53 372.773 167.39 373.713 167.11V160.53C373.713 159.83 373.673 159.61 373.113 159.51C372.673 159.43 372.853 158.73 373.173 158.73H376.633C377.013 158.73 377.153 158.65 377.333 158.65C377.493 158.65 377.673 158.85 377.673 159.03C377.673 159.35 377.073 159.83 376.633 159.83H375.033V167.07C375.033 167.37 375.173 167.55 375.473 167.53C376.533 167.43 377.613 167.15 378.793 166.73V158.29C378.793 157.39 378.673 157.15 377.693 156.89C377.333 156.79 377.513 156.11 377.933 156.17L379.793 156.43C380.213 156.49 380.173 156.73 380.173 156.87C380.173 157.03 380.093 157.37 380.093 157.93Z" fill="#ABB8CE"/>
<rect x="-15" y="29" width="64" height="64" rx="16" fill="#AFBACD" fill-opacity="0.15"/>
<g clip-path="url(#clip1_0_10363)">
<path d="M17 77C25.8366 77 33 69.8366 33 61C33 52.1634 25.8366 45 17 45C8.16344 45 1 52.1634 1 61C1 69.8366 8.16344 77 17 77Z" fill="#D6DBE2"/>
<path d="M22.8103 66.7776C22.7958 67.5118 22.1514 69.2955 19.8702 70.4008C18.9754 70.8363 17.9941 71.0625 17 71.0625C16.0059 71.0625 15.0246 70.8363 14.1298 70.4008C11.8446 69.2995 11.2042 67.5118 11.1897 66.7776C11.1633 66.3654 11.3742 65.8724 11.9329 66.0301C12.8449 66.3641 14.276 66.5602 15.3857 66.6623C16.4595 66.7643 17.5405 66.7643 18.6143 66.6623C19.724 66.5562 21.1551 66.3641 22.0671 66.0301C22.6258 65.8724 22.8367 66.3654 22.8103 66.7776Z" fill="#BABFC8"/>
<path d="M18.6763 55.0602C18.4447 55.9293 18.5546 56.8106 19.0256 57.8363C19.4451 58.7541 20.1349 59.755 20.9345 60.9136C21.2073 61.3094 21.5149 61.759 21.8335 62.2327C21.918 62.358 22.0447 62.4489 22.1906 62.4887C22.3373 62.5292 22.4939 62.5138 22.6299 62.4454C23.1438 62.1927 23.6251 61.9533 24.0697 61.753C25.3414 61.1485 26.4392 60.6267 27.2613 60.0434C28.1814 59.3889 28.7178 58.6816 28.9514 57.8119C29.1821 57.0057 29.0997 56.1421 28.7206 55.3941C28.5363 55.0394 28.2796 54.7275 27.967 54.4784C27.6545 54.2294 27.2931 54.0488 26.9062 53.9483C26.3192 53.7875 25.6949 53.8323 25.1368 54.0753C24.8351 54.2025 24.5535 54.3728 24.3008 54.5811C24.1861 54.2745 24.0283 53.9858 23.8321 53.7238C23.4696 53.2382 22.9535 52.8894 22.3677 52.7343C21.9823 52.6286 21.579 52.6047 21.1838 52.664C20.7886 52.7233 20.4102 52.8646 20.0727 53.0787C19.3749 53.5404 18.8764 54.2478 18.6763 55.0602Z" fill="#BABFC8"/>
<path d="M13.9237 53.0876C13.5863 52.8735 13.2078 52.7322 12.8126 52.6729C12.4174 52.6136 12.0141 52.6375 11.6287 52.7432C11.0429 52.8983 10.5268 53.247 10.1643 53.7327C9.96813 53.9947 9.81032 54.2834 9.69562 54.59C9.44293 54.3817 9.1613 54.2113 8.85956 54.0842C8.30152 53.8412 7.67717 53.7964 7.09016 53.9572C6.70333 54.0577 6.34192 54.2383 6.02937 54.4873C5.71681 54.7364 5.46008 55.0483 5.27581 55.403C4.89673 56.151 4.81428 57.0146 5.04499 57.8208C5.27861 58.6905 5.81497 59.3977 6.73515 60.0523C7.55724 60.6355 8.65501 61.1574 9.92675 61.7619C10.3606 61.9683 10.8527 62.2016 11.3666 62.4543C11.5025 62.5226 11.6591 62.5381 11.8058 62.4976C11.9517 62.4577 12.0784 62.3669 12.1629 62.2416C12.4815 61.7679 12.7891 61.3183 13.0619 60.9225C13.8615 59.7639 14.5429 58.7607 14.9708 57.8452C15.4418 56.8195 15.5517 55.9382 15.3201 55.0691C15.12 54.2567 14.6215 53.5493 13.9237 53.0876Z" fill="#BABFC8"/>
</g>
<path d="M15.3359 105.449V107.863H16.8125V108.93H15.3359V111.402H14.0352V105.449H15.3359ZM12.3945 106.094C12.3828 108.848 10.5781 110.758 7.41406 111.602L6.89844 110.559C9.35352 109.926 10.748 108.678 10.9766 107.148H7.40234V106.094H12.3945ZM15.3359 111.824V115.902H8.48047V111.824H15.3359ZM9.78125 112.891V114.871H14.0469V112.891H9.78125ZM27.0195 110.523V111.566H17.3516V110.523H21.5469V109.516H18.5352V105.93H25.8477V106.949H19.8359V108.484H25.9062V109.516H22.8242V110.523H27.0195ZM22.168 112.176C24.4531 112.176 25.8242 112.867 25.8359 114.109C25.8242 115.34 24.4531 116.043 22.168 116.043C19.8594 116.043 18.4766 115.34 18.4766 114.109C18.4766 112.867 19.8594 112.176 22.168 112.176ZM22.168 113.172C20.6211 113.172 19.7891 113.5 19.8008 114.109C19.7891 114.719 20.6211 115.035 22.168 115.035C23.6797 115.035 24.5234 114.719 24.5352 114.109C24.5234 113.5 23.6797 113.172 22.168 113.172Z" fill="#999999"/>
<rect x="57" y="29" width="64" height="64" rx="16" fill="#AFBACD" fill-opacity="0.15"/>
<g clip-path="url(#clip2_0_10363)">
<path d="M89 77C97.8366 77 105 69.8366 105 61C105 52.1634 97.8366 45 89 45C80.1634 45 73 52.1634 73 61C73 69.8366 80.1634 77 89 77Z" fill="#D6DBE2"/>
<path d="M84.875 59.5C85.8415 59.5 86.625 58.7165 86.625 57.75C86.625 56.7835 85.8415 56 84.875 56C83.9085 56 83.125 56.7835 83.125 57.75C83.125 58.7165 83.9085 59.5 84.875 59.5Z" fill="#BABFC8"/>
<path d="M93.125 59.5C94.0915 59.5 94.875 58.7165 94.875 57.75C94.875 56.7835 94.0915 56 93.125 56C92.1585 56 91.375 56.7835 91.375 57.75C91.375 58.7165 92.1585 59.5 93.125 59.5Z" fill="#BABFC8"/>
<path d="M96 64.9375C94.6756 67.3914 92.0518 69.0625 89.0312 69.0625C86.0107 69.0625 83.3869 67.3914 82.0625 64.9375" stroke="#BABFC8" stroke-width="2.15054" stroke-linecap="round"/>
</g>
<path d="M87.8281 105.449V116.043H86.5156V105.449H87.8281ZM84.6641 106.574C84.6641 109.727 83.4453 112.41 79.7305 114.168L79.0508 113.125C81.8223 111.807 83.1113 110.014 83.3398 107.605H79.5898V106.574H84.6641ZM91.3906 105.707V106.738H92.6094V105.707H93.8281V109.785H90.1602V105.707H91.3906ZM91.3906 108.742H92.6094V107.734H91.3906V108.742ZM95.7617 105.707V106.738H96.957V105.707H98.1992V109.785H94.5195V105.707H95.7617ZM95.7617 108.742H96.957V107.734H95.7617V108.742ZM99.0078 110.594V111.648H89.3516V110.594H99.0078ZM97.8242 112.492V115.914H90.4883V112.492H97.8242ZM91.7656 113.523V114.859H96.5469V113.523H91.7656Z" fill="#999999"/>
<rect x="129" y="29" width="64" height="64" rx="16" fill="#AFBACD" fill-opacity="0.15"/>
<path d="M161 77C169.837 77 177 69.8366 177 61C177 52.1634 169.837 45 161 45C152.163 45 145 52.1634 145 61C145 69.8366 152.163 77 161 77Z" fill="#D6DBE2"/>
<path d="M158.885 72.5607L158.703 71.6574L161.021 71.1856C161.194 71.1473 161.357 71.0736 161.5 70.9691C161.643 70.8646 161.762 70.7316 161.851 70.5785C162.035 70.2801 162.1 69.9241 162.034 69.5801C162.033 69.5655 162.033 69.5508 162.034 69.5362C161.951 69.2011 161.744 68.9101 161.455 68.7225C161.312 68.6265 161.151 68.5597 160.982 68.5258C160.813 68.4919 160.64 68.4916 160.471 68.525L153.957 69.8507C153.907 69.8626 153.854 69.8636 153.803 69.8535C153.752 69.8434 153.704 69.8225 153.661 69.7922C153.579 69.7334 153.521 69.6461 153.498 69.5472C153.485 69.4788 153.49 69.4081 153.513 69.3424L154.071 67.7735V67.7588C154.139 67.5033 154.141 67.2346 154.077 66.9781C154.012 66.7216 153.883 66.4857 153.702 66.2929C153.521 66.1001 153.294 65.9567 153.042 65.8763C152.79 65.7959 152.522 65.7811 152.262 65.8334C152.049 65.8763 151.847 65.9637 151.67 66.0897C151.492 66.2157 151.344 66.3775 151.233 66.5648L149.715 69.1431C148.918 70.499 148.651 72.102 148.965 73.6432C149.252 75.0542 150.087 76.2938 151.287 77.0893C152.487 77.8848 153.954 78.1712 155.365 77.8855C156.539 77.6475 157.569 76.9532 158.231 75.9553C158.892 74.9574 159.13 73.7377 158.893 72.5643L158.885 72.5607Z" fill="#BABFC8"/>
<path d="M167.023 53.5002C167.023 53.5002 165.933 53.7008 164.654 54.4781C163.376 55.2553 162.562 55.9766 162.562 55.9766" stroke="#BABFC8" stroke-width="1.79211" stroke-linecap="round" stroke-linejoin="round"/>
<path d="M153.937 57.5069C153.937 57.5069 154.997 57.2652 156.492 57.1978C157.019 57.1741 157.491 57.2019 157.882 57.248" stroke="#BABFC8" stroke-width="1.79211" stroke-linecap="round" stroke-linejoin="round"/>
<path d="M156.375 62C157.341 62 158.125 61.2165 158.125 60.25C158.125 59.2835 157.341 58.5 156.375 58.5C155.409 58.5 154.625 59.2835 154.625 60.25C154.625 61.2165 155.409 62 156.375 62Z" fill="#BABFC8"/>
<rect x="164.312" y="57" width="2.6875" height="4.6875" rx="1.34375" fill="#BABFC8"/>
<path d="M164.914 67.0098C163.591 66.1146 161.938 65.6969 160.231 65.9594C159.884 66.0127 159.548 66.0922 159.224 66.1954" stroke="#BABFC8" stroke-width="2.15054" stroke-linecap="round"/>
<path d="M159.629 106.422V107.441C159.617 108.754 159.617 110.23 159.207 112.445L157.895 112.305C158.305 110.242 158.305 108.736 158.316 107.465H151.988V106.422H159.629ZM160.637 113.605V114.672H150.98V113.605H154.543V109.926H155.832V113.605H160.637ZM167 106.328V111.367H161.891V106.328H167ZM163.18 107.371V110.324H165.711V107.371H163.18ZM170.176 105.461V113.02H168.863V105.461H170.176ZM170.469 114.707V115.762H163.168V112.305H164.48V114.707H170.469Z" fill="#999999"/>
<rect x="202.5" y="30.5" width="61" height="61" rx="14.5" stroke="#5195EE" stroke-width="3"/>
<g clip-path="url(#clip3_0_10363)">
<path d="M233 77C241.837 77 249 69.8366 249 61C249 52.1634 241.837 45 233 45C224.163 45 217 52.1634 217 61C217 69.8366 224.163 77 233 77Z" fill="#FBC85B"/>
<path d="M229.886 68.0795C229.886 69.9263 228.496 71.4221 226.777 71.4221C225.058 71.4221 223.669 69.9263 223.669 68.0795C223.669 66.6166 225.605 63.967 226.412 62.9156C226.452 62.86 226.506 62.8148 226.567 62.7837C226.629 62.7526 226.696 62.7363 226.765 62.7363C226.834 62.7363 226.902 62.7526 226.964 62.7837C227.025 62.8148 227.078 62.86 227.119 62.9156C227.949 63.967 229.886 66.6221 229.886 68.0795Z" fill="#5195EE"/>
<path d="M228.875 59.5C229.841 59.5 230.625 58.7165 230.625 57.75C230.625 56.7835 229.841 56 228.875 56C227.909 56 227.125 56.7835 227.125 57.75C227.125 58.7165 227.909 59.5 228.875 59.5Z" fill="#3E414D"/>
<path d="M237.125 59.5C238.091 59.5 238.875 58.7165 238.875 57.75C238.875 56.7835 238.091 56 237.125 56C236.159 56 235.375 56.7835 235.375 57.75C235.375 58.7165 236.159 59.5 237.125 59.5Z" fill="#3E414D"/>
<path d="M237.5 68.375C236.329 67.2893 234.758 66.625 233.031 66.625C232.68 66.625 232.336 66.6524 232 66.7052" stroke="#9A695E" stroke-width="2.15054" stroke-linecap="round"/>
</g>
<path d="M228.477 105.824C228.477 106.949 229.918 108.016 232.145 108.25L231.688 109.234C229.906 109.018 228.482 108.297 227.809 107.266C227.117 108.297 225.699 109.018 223.918 109.234L223.473 108.25C225.688 108.016 227.129 106.949 227.141 105.824V105.531H228.477V105.824ZM232.637 109.727V110.781H222.98V109.727H232.637ZM231.43 111.531V114.156H225.406V114.953H231.723V115.949H224.129V113.23H230.152V112.504H224.117V111.531H231.43ZM243.008 110.57V111.625H233.352V110.57H243.008ZM242.117 105.812V106.867H240.664V108.707H242.059V109.75H234.277V108.707H235.672V106.867H234.219V105.812H242.117ZM241.836 112.516V115.914H234.488V112.516H241.836ZM235.777 113.535V114.859H240.57V113.535H235.777ZM236.973 108.707H239.352V106.867H236.973V108.707Z" fill="#121212"/>
<rect x="273" y="29" width="64" height="64" rx="16" fill="#AFBACD" fill-opacity="0.15"/>
<path d="M305 77C313.837 77 321 69.8366 321 61C321 52.1634 313.837 45 305 45C296.163 45 289 52.1634 289 61C289 69.8366 296.163 77 305 77Z" fill="#D6DBE2"/>
<path d="M315.839 64.0977H294.161C293.591 64.0977 293.129 64.5598 293.129 65.1299V72.3557C293.129 72.9258 293.591 73.388 294.161 73.388H315.839C316.409 73.388 316.871 72.9258 316.871 72.3557V65.13C316.871 64.5598 316.409 64.0977 315.839 64.0977Z" fill="#BABFC8"/>
<path d="M313.73 70.033L314.139 69.6238C314.341 69.4222 314.341 69.0955 314.139 68.894C313.937 68.6924 313.611 68.6924 313.409 68.894L313 69.3032L312.638 68.9416C313.012 68.6587 313.258 68.2145 313.258 67.7105C313.258 66.8567 312.563 66.1621 311.71 66.1621C310.856 66.1621 310.161 66.8567 310.161 67.7105C310.161 67.8759 310.194 68.0322 310.242 68.1818C309.832 68.5559 309.604 69.1058 309.652 69.6732C309.73 70.5985 310.555 71.3234 311.529 71.3234C312.068 71.3234 312.591 71.1132 312.992 70.7545L313.409 71.1721C313.51 71.2729 313.642 71.3233 313.774 71.3233C313.906 71.3233 314.038 71.2729 314.139 71.1721C314.341 70.9705 314.341 70.6439 314.139 70.4423L313.73 70.033ZM311.71 67.1944C311.994 67.1944 312.226 67.4257 312.226 67.7105C312.226 67.9952 311.994 68.2266 311.71 68.2266C311.425 68.2266 311.194 67.9952 311.194 67.7105C311.194 67.4257 311.425 67.1944 311.71 67.1944ZM311.529 70.2911C311.094 70.2911 310.713 69.9745 310.68 69.5865C310.662 69.3689 310.735 69.1646 310.872 69.0089C311.05 69.1243 311.254 69.2008 311.472 69.2349L312.262 70.0247C312.055 70.1922 311.796 70.2911 311.529 70.2911Z" fill="#EBEFF4"/>
<path d="M300.148 66.2651C299.92 66.0948 299.597 66.1401 299.426 66.3684L296.329 70.4975C296.158 70.7253 296.204 71.0489 296.433 71.2198C296.525 71.2893 296.634 71.3231 296.742 71.3231C296.899 71.3231 297.054 71.252 297.155 71.1164L300.252 66.9874C300.423 66.7596 300.377 66.436 300.148 66.2651Z" fill="#EBEFF4"/>
<path d="M302.419 69.775C302.705 69.775 302.936 69.5441 302.936 69.2589V66.6782C302.936 66.3929 302.705 66.1621 302.419 66.1621C302.134 66.1621 301.903 66.393 301.903 66.6782V69.2589C301.903 69.5442 302.134 69.775 302.419 69.775Z" fill="#EBEFF4"/>
<path d="M302.419 70.291C302.134 70.291 301.903 70.5219 301.903 70.8071C301.903 71.0924 302.134 71.3233 302.419 71.3233H302.425C302.71 71.3233 302.938 71.0924 302.938 70.8071C302.938 70.5219 302.705 70.291 302.419 70.291Z" fill="#EBEFF4"/>
<path d="M308.613 67.1932H308.499L308.597 66.802C308.667 66.5258 308.498 66.2456 308.222 66.1765C307.945 66.105 307.665 66.2748 307.596 66.552L307.436 67.1932H306.435L306.533 66.802C306.602 66.5258 306.434 66.2456 306.157 66.1765C305.88 66.105 305.6 66.2748 305.532 66.552L305.372 67.1932H305C304.715 67.1932 304.484 67.424 304.484 67.7093C304.484 67.9945 304.715 68.2254 305 68.2254H305.113L304.855 69.2577H304.484C304.199 69.2577 303.968 69.4885 303.968 69.7738C303.968 70.059 304.199 70.2899 304.484 70.2899H304.597L304.5 70.681C304.43 70.9572 304.598 71.2375 304.875 71.3065C304.917 71.3171 304.959 71.3222 305.001 71.3222C305.232 71.3222 305.442 71.1659 305.501 70.931L305.661 70.2899H306.662L306.564 70.681C306.494 70.9572 306.663 71.2375 306.94 71.3065C306.981 71.3171 307.024 71.3222 307.065 71.3222C307.296 71.3222 307.507 71.1659 307.565 70.931L307.725 70.2899H308.097C308.382 70.2899 308.613 70.059 308.613 69.7738C308.613 69.4885 308.382 69.2577 308.097 69.2577H307.983L308.241 68.2254H308.613C308.898 68.2254 309.129 67.9945 309.129 67.7093C309.129 67.424 308.898 67.1932 308.613 67.1932ZM306.92 69.2577H305.919L306.177 68.2254H307.178L306.92 69.2577Z" fill="#EBEFF4"/>
<path d="M297.774 67.1944C297.774 66.6253 297.311 66.1621 296.742 66.1621C296.173 66.1621 295.71 66.6253 295.71 67.1944C295.71 67.7634 296.173 68.2266 296.742 68.2266C297.311 68.2266 297.774 67.7634 297.774 67.1944Z" fill="#EBEFF4"/>
<path d="M299.839 69.2578C299.27 69.2578 298.806 69.721 298.806 70.2901C298.806 70.8591 299.27 71.3223 299.839 71.3223C300.408 71.3223 300.871 70.8591 300.871 70.2901C300.871 69.721 300.408 69.2578 299.839 69.2578Z" fill="#EBEFF4"/>
<path d="M312.841 53.7168C312.665 53.4613 312.373 53.4522 312.06 53.5721C312.06 53.5721 310.647 54.2191 309.779 54.4395C308.911 54.6599 307.498 54.8635 307.498 54.8635C307.214 54.9193 306.893 55.1629 306.911 55.4729C306.93 55.783 307.196 56.0193 307.506 56.0007L307.565 55.9966C307.601 55.9939 307.652 55.9897 307.717 55.9835C307.849 55.9713 308.037 55.9512 308.272 55.9199C308.74 55.8572 309.395 55.7489 310.145 55.566C310.919 55.3772 311.549 55.1154 311.988 54.8996C312.208 54.7915 312.381 54.6945 312.501 54.623C312.561 54.5873 312.607 54.5579 312.64 54.5367L312.697 54.4991C312.953 54.3229 313.018 53.9726 312.841 53.7168Z" fill="#BABFC8"/>
<path d="M297.145 53.7168C297.321 53.4613 297.613 53.4522 297.926 53.5721C297.926 53.5721 299.339 54.2191 300.207 54.4395C301.075 54.6599 302.488 54.8635 302.488 54.8635C302.772 54.9193 303.093 55.1629 303.075 55.4729C303.056 55.783 302.79 56.0193 302.48 56.0007L302.421 55.9966C302.386 55.9939 302.334 55.9897 302.269 55.9835C302.137 55.9713 301.949 55.9512 301.714 55.9199C301.246 55.8572 300.591 55.7489 299.841 55.566C299.067 55.3772 298.437 55.1154 297.998 54.8996C297.778 54.7915 297.605 54.6945 297.485 54.623C297.425 54.5873 297.379 54.5579 297.346 54.5367L297.289 54.4991C297.033 54.3229 296.969 53.9726 297.145 53.7168Z" fill="#BABFC8"/>
<path d="M300.875 61C301.841 61 302.625 60.2165 302.625 59.25C302.625 58.2835 301.841 57.5 300.875 57.5C299.909 57.5 299.125 58.2835 299.125 59.25C299.125 60.2165 299.909 61 300.875 61Z" fill="#BABFC8"/>
<path d="M309.125 61C310.091 61 310.875 60.2165 310.875 59.25C310.875 58.2835 310.091 57.5 309.125 57.5C308.159 57.5 307.375 58.2835 307.375 59.25C307.375 60.2165 308.159 61 309.125 61Z" fill="#BABFC8"/>
<path d="M304.648 110.934V111.977H300.559V113.805H299.27V111.977H294.969V110.934H304.648ZM303.582 114.777V115.832H296.141V112.914H297.43V114.777H303.582ZM297.523 105.789V106.984H302.094V105.789H303.383V110.102H296.234V105.789H297.523ZM297.523 109.07H302.094V107.957H297.523V109.07ZM313.965 110.102V111.156H310.836V113.723H315.031V114.777H305.352V113.723H309.523V111.156H306.465V106.293H307.801V110.102H313.965Z" fill="#999999"/>
</g>
<rect x="0.5" y="0.5" width="383" height="239" rx="15.5" stroke="#D2D9E3"/>
<defs>
<clipPath id="clip0_0_10363">
<rect width="384" height="240" rx="16" fill="white"/>
</clipPath>
<clipPath id="clip1_0_10363">
<rect width="32" height="32" fill="white" transform="translate(1 45)"/>
</clipPath>
<clipPath id="clip2_0_10363">
<rect width="32" height="32" fill="white" transform="translate(73 45)"/>
</clipPath>
<clipPath id="clip3_0_10363">
<rect width="32" height="32" fill="white" transform="translate(217 45)"/>
</clipPath>
</defs>
</svg>
