<svg width="384" height="240" viewBox="0 0 384 240" fill="none" xmlns="http://www.w3.org/2000/svg">
<g clip-path="url(#clip0_0_10364)">
<rect width="384" height="240" rx="16" fill="#ECEFF4"/>
<rect x="246" y="69" width="8" height="8" rx="2" fill="#48BB98"/>
<g clip-path="url(#clip1_0_10364)">
<path d="M270 81C274.418 81 278 77.4183 278 73C278 68.5817 274.418 65 270 65C265.582 65 262 68.5817 262 73C262 77.4183 265.582 81 270 81Z" fill="#FBC85B"/>
<path d="M267.938 72.25C268.421 72.25 268.813 71.8582 268.813 71.375C268.813 70.8918 268.421 70.5 267.938 70.5C267.454 70.5 267.062 70.8918 267.062 71.375C267.062 71.8582 267.454 72.25 267.938 72.25Z" fill="#3E414D"/>
<path d="M272.063 72.25C272.546 72.25 272.938 71.8582 272.938 71.375C272.938 70.8918 272.546 70.5 272.063 70.5C271.579 70.5 271.188 70.8918 271.188 71.375C271.188 71.8582 271.579 72.25 272.063 72.25Z" fill="#3E414D"/>
<path d="M273.5 74.9688C272.838 76.1957 271.526 77.0313 270.016 77.0313C268.505 77.0313 267.193 76.1957 266.531 74.9688" stroke="#9A695E" stroke-width="1.07527" stroke-linecap="round"/>
</g>
<path d="M289.762 77.1172C288.004 77.1172 286.75 76.168 286.703 74.7852H288.016C288.062 75.5352 288.801 76.0039 289.75 76.0039C290.77 76.0039 291.52 75.4414 291.52 74.6211C291.52 73.7891 290.816 73.1797 289.609 73.1797H288.883V72.125H289.609C290.57 72.125 291.25 71.5859 291.25 70.7773C291.25 70.0039 290.676 69.4766 289.773 69.4766C288.918 69.4766 288.168 69.9453 288.133 70.7188H286.891C286.926 69.3359 288.203 68.3984 289.785 68.3984C291.449 68.3984 292.504 69.4531 292.492 70.707C292.504 71.668 291.906 72.3711 290.992 72.5938V72.6523C292.152 72.8164 292.82 73.5898 292.82 74.668C292.82 76.0859 291.52 77.1172 289.762 77.1172ZM297.121 77.1172C295.516 77.1172 294.309 76.1328 294.25 74.7852H295.504C295.574 75.5117 296.266 76.0391 297.121 76.0391C298.152 76.0391 298.891 75.2891 298.891 74.2812C298.891 73.25 298.129 72.5 297.062 72.4883C296.383 72.4883 295.867 72.7109 295.574 73.2383H294.355L294.906 68.5156H299.711V69.6172H295.973L295.691 71.9961H295.773C296.125 71.6562 296.723 71.4219 297.367 71.4219C298.961 71.4219 300.145 72.6055 300.145 74.2461C300.145 75.9219 298.891 77.1172 297.121 77.1172ZM303.461 72.5469C302.301 72.5586 301.668 71.6914 301.68 70.4375C301.668 69.1953 302.324 68.3398 303.461 68.3398C304.621 68.3398 305.242 69.1953 305.242 70.4375C305.242 71.7031 304.598 72.5586 303.461 72.5469ZM303.461 71.7266C304.012 71.7266 304.27 71.2109 304.27 70.4375C304.27 69.6758 304.023 69.1602 303.461 69.1602C302.922 69.1719 302.641 69.6758 302.641 70.4375C302.641 71.2109 302.91 71.7266 303.461 71.7266ZM308.816 77.1758C307.656 77.1758 307.023 76.3203 307.035 75.0664C307.023 73.8125 307.691 72.957 308.816 72.957C309.977 72.957 310.598 73.8125 310.598 75.0664C310.598 76.3203 309.953 77.1758 308.816 77.1758ZM308.816 76.3438C309.367 76.3438 309.625 75.8281 309.625 75.0664C309.625 74.293 309.379 73.7773 308.816 73.7773C308.277 73.7891 307.996 74.3047 307.996 75.0664C307.996 75.8281 308.277 76.3438 308.816 76.3438ZM302.641 77L308.465 68.5156H309.531L303.707 77H302.641Z" fill="#3E3E3E"/>
<rect x="246" y="93" width="8" height="8" rx="2" fill="#FBC85B"/>
<g clip-path="url(#clip2_0_10364)">
<path d="M270 105C274.418 105 278 101.418 278 97C278 92.5817 274.418 89 270 89C265.582 89 262 92.5817 262 97C262 101.418 265.582 105 270 105Z" fill="#FBC85B"/>
<path d="M272.905 99.8888C272.898 100.256 272.576 101.148 271.435 101.7C270.988 101.918 270.497 102.031 270 102.031C269.503 102.031 269.012 101.918 268.565 101.7C267.422 101.15 267.102 100.256 267.095 99.8888C267.082 99.6827 267.187 99.4362 267.466 99.5151C267.922 99.682 268.638 99.7801 269.193 99.8311C269.73 99.8822 270.27 99.8822 270.807 99.8311C271.362 99.7781 272.078 99.682 272.534 99.5151C272.813 99.4362 272.918 99.6827 272.905 99.8888Z" fill="#9A695E"/>
<path d="M270.838 94.0301C270.722 94.4646 270.777 94.9053 271.013 95.4182C271.223 95.8771 271.568 96.3775 271.967 96.9568C272.104 97.1547 272.258 97.3795 272.417 97.6164C272.459 97.679 272.522 97.7244 272.595 97.7443C272.669 97.7646 272.747 97.7569 272.815 97.7227C273.072 97.5964 273.313 97.4766 273.535 97.3765C274.171 97.0742 274.72 96.8133 275.131 96.5217C275.591 96.1944 275.859 95.8408 275.976 95.406C276.091 95.0029 276.05 94.571 275.86 94.197C275.768 94.0197 275.64 93.8637 275.484 93.7392C275.327 93.6147 275.147 93.5244 274.953 93.4742C274.66 93.3938 274.348 93.4162 274.069 93.5376C273.918 93.6012 273.777 93.6864 273.651 93.7905C273.593 93.6373 273.514 93.4929 273.416 93.3619C273.235 93.1191 272.977 92.9447 272.684 92.8672C272.491 92.8143 272.29 92.8023 272.092 92.832C271.894 92.8617 271.705 92.9323 271.536 93.0394C271.188 93.2702 270.938 93.6239 270.838 94.0301Z" fill="#E46E80"/>
<path d="M268.462 93.0428C268.293 92.9358 268.104 92.8651 267.906 92.8355C267.709 92.8058 267.507 92.8178 267.314 92.8706C267.021 92.9482 266.763 93.1225 266.582 93.3654C266.484 93.4964 266.405 93.6407 266.348 93.794C266.221 93.6899 266.081 93.6047 265.93 93.5411C265.651 93.4196 265.338 93.3972 265.045 93.4776C264.852 93.5278 264.671 93.6181 264.515 93.7427C264.358 93.8672 264.23 94.0232 264.138 94.2005C263.948 94.5745 263.907 95.0063 264.022 95.4094C264.139 95.8443 264.407 96.1979 264.867 96.5252C265.278 96.8168 265.827 97.0777 266.463 97.38C266.68 97.4832 266.926 97.5998 267.183 97.7262C267.251 97.7603 267.329 97.7681 267.403 97.7478C267.476 97.7279 267.539 97.6825 267.581 97.6198C267.741 97.383 267.894 97.1582 268.031 96.9603C268.431 96.381 268.771 95.8794 268.985 95.4216C269.221 94.9088 269.276 94.4681 269.16 94.0336C269.06 93.6274 268.811 93.2737 268.462 93.0428Z" fill="#E46E80"/>
</g>
<path d="M286.75 101V100.062L289.691 97.0977C290.617 96.125 291.086 95.5859 291.086 94.8477C291.086 94.0156 290.406 93.4766 289.516 93.4766C288.578 93.4766 287.969 94.0742 287.969 94.9766H286.75C286.738 93.4297 287.922 92.3984 289.539 92.3984C291.18 92.3984 292.305 93.4297 292.316 94.8125C292.305 95.7617 291.859 96.5117 290.266 98.082L288.543 99.8281V99.8984H292.457V101H286.75ZM296.84 101.117C294.871 101.117 293.723 99.5352 293.723 96.7578C293.723 94.0039 294.895 92.3984 296.84 92.3984C298.785 92.3984 299.957 94.0039 299.957 96.7578C299.957 99.5352 298.797 101.117 296.84 101.117ZM296.84 100.004C297.988 100.004 298.668 98.8789 298.668 96.7578C298.668 94.6484 297.977 93.4883 296.84 93.4883C295.703 93.4883 295.012 94.6484 295.012 96.7578C295.012 98.8789 295.691 100.004 296.84 100.004ZM303.238 96.5469C302.078 96.5586 301.445 95.6914 301.457 94.4375C301.445 93.1953 302.102 92.3398 303.238 92.3398C304.398 92.3398 305.02 93.1953 305.02 94.4375C305.02 95.7031 304.375 96.5586 303.238 96.5469ZM303.238 95.7266C303.789 95.7266 304.047 95.2109 304.047 94.4375C304.047 93.6758 303.801 93.1602 303.238 93.1602C302.699 93.1719 302.418 93.6758 302.418 94.4375C302.418 95.2109 302.688 95.7266 303.238 95.7266ZM308.594 101.176C307.434 101.176 306.801 100.32 306.812 99.0664C306.801 97.8125 307.469 96.957 308.594 96.957C309.754 96.957 310.375 97.8125 310.375 99.0664C310.375 100.32 309.73 101.176 308.594 101.176ZM308.594 100.344C309.145 100.344 309.402 99.8281 309.402 99.0664C309.402 98.293 309.156 97.7773 308.594 97.7773C308.055 97.7891 307.773 98.3047 307.773 99.0664C307.773 99.8281 308.055 100.344 308.594 100.344ZM302.418 101L308.242 92.5156H309.309L303.484 101H302.418Z" fill="#C6C6C6"/>
<rect x="246" y="117" width="8" height="8" rx="2" fill="#B7C2D2"/>
<path d="M270 129C274.418 129 278 125.418 278 121C278 116.582 274.418 113 270 113C265.582 113 262 116.582 262 121C262 125.418 265.582 129 270 129Z" fill="#FBC85B"/>
<path d="M268.943 126.779L268.851 126.328L270.01 126.092C270.097 126.073 270.178 126.036 270.25 125.984C270.321 125.931 270.381 125.865 270.426 125.788C270.517 125.639 270.55 125.461 270.517 125.289C270.516 125.282 270.516 125.274 270.517 125.267C270.476 125.1 270.372 124.954 270.227 124.86C270.156 124.812 270.075 124.779 269.991 124.762C269.907 124.745 269.82 124.745 269.735 124.762L266.479 125.424C266.453 125.43 266.427 125.431 266.401 125.426C266.376 125.421 266.352 125.41 266.33 125.395C266.289 125.366 266.26 125.322 266.249 125.273C266.242 125.238 266.245 125.203 266.256 125.17L266.535 124.386V124.378C266.569 124.251 266.57 124.116 266.538 123.988C266.506 123.86 266.442 123.742 266.351 123.645C266.26 123.549 266.147 123.477 266.021 123.437C265.895 123.397 265.761 123.39 265.631 123.416C265.524 123.437 265.423 123.481 265.335 123.544C265.246 123.607 265.172 123.688 265.116 123.781L264.357 125.071C263.959 125.748 263.825 126.55 263.983 127.321C264.126 128.026 264.543 128.646 265.143 129.044C265.743 129.441 266.477 129.585 267.183 129.442C267.769 129.323 268.285 128.976 268.615 128.477C268.946 127.978 269.065 127.368 268.946 126.781L268.943 126.779Z" fill="#E8AA26"/>
<path d="M273.011 117.25C273.011 117.25 272.466 117.35 271.827 117.739C271.188 118.128 270.781 118.488 270.781 118.488" stroke="#3E414D" stroke-width="0.896057" stroke-linecap="round" stroke-linejoin="round"/>
<path d="M266.469 119.254C266.469 119.254 266.999 119.134 267.746 119.1C268.01 119.088 268.246 119.102 268.441 119.125" stroke="#3E414D" stroke-width="0.896057" stroke-linecap="round" stroke-linejoin="round"/>
<path d="M267.688 121.5C268.171 121.5 268.563 121.108 268.563 120.625C268.563 120.142 268.171 119.75 267.688 119.75C267.204 119.75 266.812 120.142 266.812 120.625C266.812 121.108 267.204 121.5 267.688 121.5Z" fill="#3E414D"/>
<rect x="271.656" y="119" width="1.34375" height="2.34375" rx="0.671875" fill="#494D59"/>
<path d="M271.957 124.004C271.296 123.556 270.469 123.347 269.615 123.479C269.442 123.505 269.274 123.545 269.112 123.597" stroke="#9A695E" stroke-width="1.07527" stroke-linecap="round"/>
<path d="M289.973 116.516V125H288.672V117.805H288.625L286.598 119.129V117.898L288.707 116.516H289.973ZM295.047 116.398C296.605 116.41 298.246 117.348 298.246 120.453C298.246 123.43 296.969 125.117 294.93 125.117C293.371 125.117 292.27 124.156 292.07 122.773H293.348C293.523 123.488 294.074 123.992 294.93 123.992C296.242 123.992 297.004 122.844 297.016 120.91H296.91C296.453 121.625 295.656 122.059 294.742 122.059C293.219 122.059 292 120.898 292 119.27C292 117.652 293.207 116.387 295.047 116.398ZM295.047 117.477C294.016 117.477 293.254 118.273 293.254 119.246C293.254 120.23 293.992 121.004 295.023 121.004C296.043 121.004 296.84 120.172 296.84 119.234C296.84 118.32 296.09 117.477 295.047 117.477ZM301.551 120.547C300.391 120.559 299.758 119.691 299.77 118.438C299.758 117.195 300.414 116.34 301.551 116.34C302.711 116.34 303.332 117.195 303.332 118.438C303.332 119.703 302.688 120.559 301.551 120.547ZM301.551 119.727C302.102 119.727 302.359 119.211 302.359 118.438C302.359 117.676 302.113 117.16 301.551 117.16C301.012 117.172 300.73 117.676 300.73 118.438C300.73 119.211 301 119.727 301.551 119.727ZM306.906 125.176C305.746 125.176 305.113 124.32 305.125 123.066C305.113 121.812 305.781 120.957 306.906 120.957C308.066 120.957 308.688 121.812 308.688 123.066C308.688 124.32 308.043 125.176 306.906 125.176ZM306.906 124.344C307.457 124.344 307.715 123.828 307.715 123.066C307.715 122.293 307.469 121.777 306.906 121.777C306.367 121.789 306.086 122.305 306.086 123.066C306.086 123.828 306.367 124.344 306.906 124.344ZM300.73 125L306.555 116.516H307.621L301.797 125H300.73Z" fill="#C6C6C6"/>
<rect x="246" y="141" width="8" height="8" rx="2" fill="#D6DCE4"/>
<g clip-path="url(#clip3_0_10364)">
<path d="M270 153C274.418 153 278 149.418 278 145C278 140.582 274.418 137 270 137C265.582 137 262 140.582 262 145C262 149.418 265.582 153 270 153Z" fill="#FBC85B"/>
<path d="M268.443 148.541C268.443 149.464 267.748 150.212 266.889 150.212C266.029 150.212 265.334 149.464 265.334 148.541C265.334 147.809 266.303 146.484 266.706 145.959C266.726 145.931 266.753 145.908 266.784 145.893C266.814 145.877 266.848 145.869 266.883 145.869C266.917 145.869 266.951 145.877 266.982 145.893C267.013 145.908 267.039 145.931 267.06 145.959C267.475 146.484 268.443 147.812 268.443 148.541Z" fill="#5195EE"/>
<path d="M267.938 144.25C268.421 144.25 268.813 143.858 268.813 143.375C268.813 142.892 268.421 142.5 267.938 142.5C267.454 142.5 267.062 142.892 267.062 143.375C267.062 143.858 267.454 144.25 267.938 144.25Z" fill="#3E414D"/>
<path d="M272.063 144.25C272.546 144.25 272.938 143.858 272.938 143.375C272.938 142.892 272.546 142.5 272.063 142.5C271.579 142.5 271.188 142.892 271.188 143.375C271.188 143.858 271.579 144.25 272.063 144.25Z" fill="#3E414D"/>
<path d="M272.25 148.688C271.665 148.145 270.879 147.813 270.016 147.813C269.84 147.813 269.668 147.826 269.5 147.853" stroke="#9A695E" stroke-width="1.43369" stroke-linecap="round"/>
</g>
<path d="M289.973 140.516V149H288.672V141.805H288.625L286.598 143.129V141.898L288.707 140.516H289.973ZM292.422 149L296.207 141.688V141.617H291.836V140.516H297.543V141.664L293.77 149H292.422ZM300.789 144.547C299.629 144.559 298.996 143.691 299.008 142.438C298.996 141.195 299.652 140.34 300.789 140.34C301.949 140.34 302.57 141.195 302.57 142.438C302.57 143.703 301.926 144.559 300.789 144.547ZM300.789 143.727C301.34 143.727 301.598 143.211 301.598 142.438C301.598 141.676 301.352 141.16 300.789 141.16C300.25 141.172 299.969 141.676 299.969 142.438C299.969 143.211 300.238 143.727 300.789 143.727ZM306.145 149.176C304.984 149.176 304.352 148.32 304.363 147.066C304.352 145.812 305.02 144.957 306.145 144.957C307.305 144.957 307.926 145.812 307.926 147.066C307.926 148.32 307.281 149.176 306.145 149.176ZM306.145 148.344C306.695 148.344 306.953 147.828 306.953 147.066C306.953 146.293 306.707 145.777 306.145 145.777C305.605 145.789 305.324 146.305 305.324 147.066C305.324 147.828 305.605 148.344 306.145 148.344ZM299.969 149L305.793 140.516H306.859L301.035 149H299.969Z" fill="#C6C6C6"/>
<rect x="246" y="165" width="8" height="8" rx="2" fill="#DDE2EB"/>
<path d="M270 177C274.418 177 278 173.418 278 169C278 164.582 274.418 161 270 161C265.582 161 262 164.582 262 169C262 173.418 265.582 177 270 177Z" fill="#E46E80"/>
<path d="M275.42 170.549H264.581C264.296 170.549 264.065 170.78 264.065 171.065V174.678C264.065 174.963 264.296 175.194 264.581 175.194H275.42C275.705 175.194 275.936 174.963 275.936 174.678V171.065C275.936 170.78 275.705 170.549 275.42 170.549Z" fill="#494D59"/>
<path d="M274.365 173.516L274.57 173.311C274.67 173.21 274.67 173.047 274.57 172.946C274.469 172.845 274.305 172.845 274.205 172.946L274 173.151L273.819 172.97C274.006 172.828 274.129 172.606 274.129 172.354C274.129 171.927 273.782 171.58 273.355 171.58C272.928 171.58 272.581 171.927 272.581 172.354C272.581 172.437 272.597 172.515 272.621 172.59C272.416 172.777 272.302 173.052 272.326 173.336C272.365 173.798 272.777 174.161 273.265 174.161C273.534 174.161 273.796 174.056 273.996 173.876L274.205 174.085C274.255 174.135 274.321 174.161 274.387 174.161C274.453 174.161 274.519 174.135 274.57 174.085C274.67 173.984 274.67 173.821 274.57 173.72L274.365 173.516ZM273.355 172.096C273.497 172.096 273.613 172.212 273.613 172.354C273.613 172.497 273.497 172.612 273.355 172.612C273.212 172.612 273.097 172.497 273.097 172.354C273.097 172.212 273.212 172.096 273.355 172.096ZM273.265 173.645C273.047 173.645 272.857 173.486 272.84 173.292C272.831 173.183 272.867 173.081 272.936 173.003C273.025 173.061 273.127 173.099 273.236 173.116L273.631 173.511C273.528 173.595 273.398 173.645 273.265 173.645Z" fill="#F9FAFC"/>
<path d="M267.574 171.632C267.46 171.546 267.298 171.569 267.213 171.683L265.665 173.748C265.579 173.862 265.602 174.023 265.716 174.109C265.763 174.144 265.817 174.161 265.871 174.161C265.949 174.161 266.027 174.125 266.077 174.057L267.626 171.993C267.711 171.879 267.688 171.717 267.574 171.632Z" fill="#F9FAFC"/>
<path d="M268.71 173.387C268.852 173.387 268.968 173.271 268.968 173.128V171.838C268.968 171.695 268.852 171.58 268.71 171.58C268.567 171.58 268.452 171.696 268.452 171.838V173.128C268.452 173.271 268.567 173.387 268.71 173.387Z" fill="#F9FAFC"/>
<path d="M268.71 173.645C268.567 173.645 268.452 173.76 268.452 173.903C268.452 174.045 268.567 174.161 268.71 174.161H268.712C268.855 174.161 268.969 174.045 268.969 173.903C268.969 173.76 268.852 173.645 268.71 173.645Z" fill="#F9FAFC"/>
<path d="M271.806 172.097H271.75L271.799 171.901C271.833 171.763 271.749 171.623 271.611 171.588C271.473 171.552 271.333 171.637 271.298 171.776L271.218 172.097H270.718L270.766 171.901C270.801 171.763 270.717 171.623 270.579 171.588C270.44 171.552 270.3 171.637 270.266 171.776L270.186 172.097H270C269.857 172.097 269.742 172.212 269.742 172.355C269.742 172.497 269.857 172.613 270 172.613H270.057L269.928 173.129H269.742C269.599 173.129 269.484 173.244 269.484 173.387C269.484 173.53 269.599 173.645 269.742 173.645H269.799L269.75 173.841C269.715 173.979 269.799 174.119 269.938 174.153C269.958 174.159 269.98 174.161 270 174.161C270.116 174.161 270.221 174.083 270.25 173.966L270.33 173.645H270.831L270.782 173.841C270.747 173.979 270.831 174.119 270.97 174.153C270.991 174.159 271.012 174.161 271.033 174.161C271.148 174.161 271.253 174.083 271.283 173.966L271.363 173.645H271.548C271.691 173.645 271.806 173.53 271.806 173.387C271.806 173.244 271.691 173.129 271.548 173.129H271.492L271.621 172.613H271.806C271.949 172.613 272.065 172.497 272.065 172.355C272.065 172.212 271.949 172.097 271.806 172.097ZM270.96 173.129H270.459L270.588 172.613H271.089L270.96 173.129Z" fill="#F9FAFC"/>
<path d="M266.387 172.096C266.387 171.812 266.156 171.58 265.871 171.58C265.587 171.58 265.355 171.812 265.355 172.096C265.355 172.381 265.587 172.612 265.871 172.612C266.156 172.612 266.387 172.381 266.387 172.096Z" fill="#F9FAFC"/>
<path d="M267.419 173.129C267.135 173.129 266.903 173.36 266.903 173.645C266.903 173.93 267.135 174.161 267.419 174.161C267.704 174.161 267.936 173.93 267.936 173.645C267.936 173.36 267.704 173.129 267.419 173.129Z" fill="#F9FAFC"/>
<path d="M273.921 165.357C273.833 165.23 273.686 165.225 273.53 165.285C273.53 165.285 272.823 165.609 272.389 165.719C271.955 165.829 271.249 165.931 271.249 165.931C271.107 165.959 270.946 166.08 270.956 166.235C270.965 166.391 271.098 166.509 271.253 166.499L271.282 166.497C271.3 166.496 271.326 166.494 271.359 166.491C271.424 166.485 271.519 166.475 271.636 166.459C271.87 166.428 272.197 166.373 272.572 166.282C272.96 166.188 273.275 166.057 273.494 165.949C273.604 165.895 273.69 165.846 273.75 165.811C273.78 165.793 273.804 165.778 273.82 165.767L273.849 165.749C273.977 165.66 274.009 165.485 273.921 165.357Z" fill="#3E414D"/>
<path d="M266.072 165.357C266.16 165.23 266.307 165.225 266.463 165.285C266.463 165.285 267.17 165.609 267.604 165.719C268.037 165.829 268.744 165.931 268.744 165.931C268.886 165.959 269.047 166.08 269.037 166.235C269.028 166.391 268.895 166.509 268.74 166.499L268.71 166.497C268.693 166.496 268.667 166.494 268.634 166.491C268.569 166.485 268.474 166.475 268.357 166.459C268.123 166.428 267.795 166.373 267.42 166.282C267.033 166.188 266.718 166.057 266.499 165.949C266.389 165.895 266.303 165.846 266.243 165.811C266.213 165.793 266.189 165.778 266.173 165.767L266.144 165.749C266.016 165.66 265.984 165.485 266.072 165.357Z" fill="#3E414D"/>
<path d="M267.938 169C268.421 169 268.813 168.608 268.813 168.125C268.813 167.642 268.421 167.25 267.938 167.25C267.454 167.25 267.062 167.642 267.062 168.125C267.062 168.608 267.454 169 267.938 169Z" fill="#3E414D"/>
<path d="M272.063 169C272.546 169 272.938 168.608 272.938 168.125C272.938 167.642 272.546 167.25 272.063 167.25C271.579 167.25 271.188 167.642 271.188 168.125C271.188 168.608 271.579 169 272.063 169Z" fill="#3E414D"/>
<path d="M289.668 164.398C291.227 164.41 292.867 165.348 292.867 168.453C292.867 171.43 291.59 173.117 289.551 173.117C287.992 173.117 286.891 172.156 286.691 170.773H287.969C288.145 171.488 288.695 171.992 289.551 171.992C290.863 171.992 291.625 170.844 291.637 168.91H291.531C291.074 169.625 290.277 170.059 289.363 170.059C287.84 170.059 286.621 168.898 286.621 167.27C286.621 165.652 287.828 164.387 289.668 164.398ZM289.668 165.477C288.637 165.477 287.875 166.273 287.875 167.246C287.875 168.23 288.613 169.004 289.645 169.004C290.664 169.004 291.461 168.172 291.461 167.234C291.461 166.32 290.711 165.477 289.668 165.477ZM296.172 168.547C295.012 168.559 294.379 167.691 294.391 166.438C294.379 165.195 295.035 164.34 296.172 164.34C297.332 164.34 297.953 165.195 297.953 166.438C297.953 167.703 297.309 168.559 296.172 168.547ZM296.172 167.727C296.723 167.727 296.98 167.211 296.98 166.438C296.98 165.676 296.734 165.16 296.172 165.16C295.633 165.172 295.352 165.676 295.352 166.438C295.352 167.211 295.621 167.727 296.172 167.727ZM301.527 173.176C300.367 173.176 299.734 172.32 299.746 171.066C299.734 169.812 300.402 168.957 301.527 168.957C302.688 168.957 303.309 169.812 303.309 171.066C303.309 172.32 302.664 173.176 301.527 173.176ZM301.527 172.344C302.078 172.344 302.336 171.828 302.336 171.066C302.336 170.293 302.09 169.777 301.527 169.777C300.988 169.789 300.707 170.305 300.707 171.066C300.707 171.828 300.988 172.344 301.527 172.344ZM295.352 173L301.176 164.516H302.242L296.418 173H295.352Z" fill="#C6C6C6"/>
<path fill-rule="evenodd" clip-rule="evenodd" d="M87.404 28.2972C87.3805 24.6855 84.4301 21.754 80.8281 22.0186C68.2858 22.9398 56.0365 26.2694 44.7513 31.8252C41.5187 33.4167 40.4582 37.4275 42.2584 40.5487C44.062 43.676 48.052 44.7208 51.3063 43.1579C60.3962 38.7922 70.3824 35.9981 80.9135 35.1274C84.5133 34.8298 87.4275 31.9092 87.404 28.2972Z" fill="#DDE2EB"/>
<path d="M80.9135 35.1274L80.762 33.2942L80.9135 35.1274ZM51.3063 43.1579L50.5099 41.4998L51.3063 43.1579ZM45.5638 33.4755C56.6371 28.024 68.6562 24.7569 80.9628 23.853L80.6933 20.1841C67.9153 21.1226 55.436 24.5148 43.9389 30.175L45.5638 33.4755ZM52.1026 44.8159C60.9941 40.5456 70.7621 37.8124 81.0651 36.9606L80.762 33.2942C70.0027 34.1839 59.7984 37.0388 50.5099 41.4998L52.1026 44.8159ZM81.0651 36.9606C85.534 36.5911 89.2737 32.946 89.2434 28.2852L85.5646 28.3092C85.5813 30.8723 83.4926 33.0685 80.762 33.2942L81.0651 36.9606ZM40.665 41.4677C42.9933 45.5047 48.0627 46.7562 52.1026 44.8159L50.5099 41.4998C48.0413 42.6854 45.1307 41.8473 43.8518 39.6297L40.665 41.4677ZM80.9628 23.853C83.4219 23.6724 85.5475 25.6781 85.5646 28.3092L89.2434 28.2852C89.2135 23.6929 85.4383 19.8356 80.6933 20.1841L80.9628 23.853ZM43.9389 30.175C39.6791 32.2721 38.3751 37.4975 40.665 41.4677L43.8518 39.6297C42.5413 37.3575 43.3583 34.5613 45.5638 33.4755L43.9389 30.175Z" fill="#ECEFF4"/>
<path fill-rule="evenodd" clip-rule="evenodd" d="M40.0129 49.7382C42.984 47.6979 44.0682 43.7276 42.2675 40.6054C40.4633 37.4772 36.4496 36.3875 33.4505 38.3991C24.5965 44.3376 16.757 51.6906 10.2513 60.1779C3.74012 68.6723 -1.32901 78.1644 -4.76776 88.2721C-5.92734 91.6806 -3.84278 95.2638 -0.365406 96.1965C3.11608 97.1304 6.67078 95.0515 7.8669 91.6512C13.9037 74.4899 25.286 59.8512 40.0129 49.7382Z" fill="#D6DCE4"/>
<path d="M10.2513 60.1779L11.7112 61.2969L10.2513 60.1779ZM11.7112 61.2969C18.0949 52.9688 25.7873 45.7537 34.4751 39.9267L32.4259 36.8715C23.4057 42.9214 15.4191 50.4125 8.79142 59.0589L11.7112 61.2969ZM-3.02636 88.8646C0.347958 78.9463 5.32209 69.632 11.7112 61.2969L8.79142 59.0589C2.15816 67.7125 -3.00597 77.3826 -6.50915 87.6797L-3.02636 88.8646ZM9.60209 92.2615C15.5074 75.4739 26.6438 61.1502 41.0541 51.2545L38.9716 48.2219C23.9283 58.5522 12.2999 73.506 6.13171 91.0408L9.60209 92.2615ZM-0.841945 97.9732C3.65347 99.179 8.11701 96.4833 9.60209 92.2615L6.13171 91.0408C5.22456 93.6196 2.5787 95.0818 0.111133 94.4199L-0.841945 97.9732ZM-6.50915 87.6797C-8.03746 92.1719 -5.26631 96.7864 -0.841945 97.9732L0.111133 94.4199C-2.41924 93.7412 -3.81723 91.1892 -3.02636 88.8646L-6.50915 87.6797ZM40.6741 41.5244C41.9516 43.7394 41.2256 46.674 38.9716 48.2219L41.0541 51.2545C44.7424 48.7218 46.1848 43.7158 43.8609 39.6864L40.6741 41.5244ZM43.8609 39.6864C41.5665 35.7082 36.3772 34.2212 32.4259 36.8715L34.4751 39.9267C36.5219 38.5539 39.3601 39.2462 40.6741 41.5244L43.8609 39.6864Z" fill="#ECEFF4"/>
<path fill-rule="evenodd" clip-rule="evenodd" d="M23.328 184.636C25.8776 182.083 25.8561 177.964 23.5088 175.224C10.7657 160.354 3.06655 141.025 3.06655 119.896C3.06655 114.548 3.55981 109.315 4.50329 104.241C5.16152 100.701 3.12292 97.1299 -0.354988 96.197C-3.83702 95.263 -7.43931 97.3271 -8.13804 100.864C-11.0417 115.561 -10.5492 130.76 -6.66074 145.287C-2.77377 159.809 4.38703 173.213 14.2366 184.485C16.6138 187.205 20.7747 187.191 23.328 184.636Z" fill="#B7C2D2"/>
<path d="M14.2366 184.485L12.8515 185.695L14.2366 184.485ZM24.9055 174.027C12.4374 159.478 4.90596 140.57 4.90596 119.896H1.22714C1.22714 141.48 9.09397 161.23 22.112 176.421L24.9055 174.027ZM4.90596 119.896C4.90596 114.661 5.38875 109.541 6.3117 104.577L2.69487 103.905C1.73088 109.09 1.22714 114.435 1.22714 119.896H4.90596ZM-4.88388 144.811C-8.69954 130.556 -9.18276 115.642 -6.33351 101.22L-9.94258 100.507C-12.9006 115.48 -12.399 130.963 -8.4376 145.763L-4.88388 144.811ZM15.6218 183.274C5.95689 172.214 -1.06972 159.061 -4.88388 144.811L-8.4376 145.763C-4.47781 160.556 2.81718 174.211 12.8515 185.695L15.6218 183.274ZM0.12155 94.4204C-4.30813 93.2322 -9.02177 95.8465 -9.94258 100.507L-6.33351 101.22C-5.85685 98.8076 -3.36592 97.2938 -0.831527 97.9736L0.12155 94.4204ZM6.3117 104.577C7.12897 100.182 4.61145 95.6247 0.12155 94.4204L-0.831527 97.9736C1.6344 98.6351 3.19408 101.22 2.69487 103.905L6.3117 104.577ZM12.8515 185.695C15.9832 189.279 21.3825 189.186 24.6294 185.936L22.0267 183.336C20.167 185.197 17.2444 185.131 15.6218 183.274L12.8515 185.695ZM22.112 176.421C23.8925 178.499 23.8358 181.525 22.0267 183.336L24.6294 185.936C27.9194 182.642 27.8198 177.428 24.9055 174.027L22.112 176.421Z" fill="#ECEFF4"/>
<path fill-rule="evenodd" clip-rule="evenodd" d="M133.741 199.207C131.938 196.08 127.948 195.035 124.694 196.598C113.587 201.932 101.142 204.92 88.0001 204.92C66.8982 204.92 47.5938 197.217 32.7401 184.466C29.9988 182.112 25.8717 182.091 23.3184 184.647C20.7689 187.199 20.7553 191.353 23.469 193.73C37.9902 206.448 55.9824 214.627 75.2083 217.161C94.4361 219.695 113.932 216.456 131.248 207.93C134.481 206.339 135.541 202.328 133.741 199.207Z" fill="#FBC85B"/>
<path d="M75.2083 217.161L74.968 218.984L75.2083 217.161ZM131.248 207.93L130.436 206.28L131.248 207.93ZM123.897 194.94C113.034 200.157 100.86 203.081 88.0001 203.081V206.76C101.424 206.76 114.14 203.707 125.49 198.256L123.897 194.94ZM88.0001 203.081C67.3544 203.081 48.4712 195.546 33.9382 183.07L31.542 185.861C46.7164 198.888 66.4421 206.76 88.0001 206.76V203.081ZM75.4486 215.337C56.5841 212.851 38.9297 204.826 24.6809 192.346L22.257 195.113C37.0508 208.071 55.3808 216.403 74.968 218.984L75.4486 215.337ZM130.436 206.28C113.445 214.645 94.3152 217.824 75.4486 215.337L74.968 218.984C94.5571 221.566 114.419 218.266 132.061 209.581L130.436 206.28ZM22.0171 183.347C18.7749 186.592 18.6822 191.982 22.257 195.113L24.6809 192.346C22.8284 190.723 22.7629 187.806 24.6198 185.947L22.0171 183.347ZM33.9382 183.07C30.5351 180.149 25.3119 180.049 22.0171 183.347L24.6198 185.947C26.4314 184.133 29.4626 184.076 31.542 185.861L33.9382 183.07ZM132.061 209.581C136.32 207.484 137.624 202.258 135.335 198.288L132.148 200.126C133.458 202.398 132.641 205.194 130.436 206.28L132.061 209.581ZM125.49 198.256C127.959 197.071 130.869 197.909 132.148 200.126L135.335 198.288C133.006 194.251 127.937 193 123.897 194.94L125.49 198.256Z" fill="#ECEFF4"/>
<path fill-rule="evenodd" clip-rule="evenodd" d="M178.539 157.44C171.12 175.37 158.575 190.648 142.549 201.397C139.55 203.408 135.536 202.319 133.732 199.191C131.931 196.069 133.016 192.098 135.987 190.058C158.298 174.736 172.932 149.028 172.932 119.897C172.932 75.144 138.391 38.4667 94.5394 35.1239C90.9379 34.8494 87.9995 31.9475 87.9995 28.3356C87.9995 24.7236 90.9312 21.7727 94.5351 22.0138C113.783 23.3013 132.277 30.2534 147.658 42.0679C164.773 55.2145 177.076 73.6471 182.66 94.5068C188.244 115.367 186.795 137.488 178.539 157.44Z" fill="#48BB98"/>
<path d="M178.539 157.44L176.84 156.736L178.539 157.44ZM147.658 42.0679L148.778 40.6092L147.658 42.0679ZM182.66 94.5068L184.437 94.0312L182.66 94.5068ZM94.5394 35.1239L94.3996 36.958L94.5394 35.1239ZM135.987 190.058L134.945 188.541L135.987 190.058ZM142.549 201.397L143.574 202.925L142.549 201.397ZM143.574 202.925C159.901 191.974 172.681 176.409 180.239 158.143L176.84 156.736C169.559 174.331 157.25 189.322 141.524 199.869L143.574 202.925ZM171.093 119.897C171.093 148.397 156.778 173.549 134.945 188.541L137.028 191.574C159.818 175.924 174.772 149.659 174.772 119.897H171.093ZM94.3996 36.958C137.298 40.2282 171.093 76.1114 171.093 119.897H174.772C174.772 74.1766 139.484 36.7053 94.6792 33.2898L94.3996 36.958ZM148.778 40.6092C133.109 28.5729 114.267 21.4902 94.6579 20.1785L94.4123 23.8491C113.298 25.1124 131.445 31.9339 146.537 43.5267L148.778 40.6092ZM184.437 94.0312C178.749 72.7807 166.215 54.0025 148.778 40.6092L146.537 43.5267C163.331 56.4265 175.404 74.5134 180.883 94.9824L184.437 94.0312ZM180.239 158.143C188.649 137.817 190.125 115.282 184.437 94.0312L180.883 94.9824C186.362 115.451 184.941 137.158 176.84 156.736L180.239 158.143ZM94.6792 33.2898C91.9453 33.0814 89.8389 30.897 89.8389 28.3356L86.1601 28.3356C86.1601 32.9981 89.9305 36.6173 94.3996 36.958L94.6792 33.2898ZM135.325 198.272C134.048 196.057 134.774 193.122 137.028 191.574L134.945 188.541C131.257 191.074 129.814 196.08 132.138 200.11L135.325 198.272ZM89.8389 28.3356C89.8389 25.7043 91.9518 23.6845 94.4123 23.8491L94.6579 20.1785C89.9106 19.8609 86.1601 23.7429 86.1601 28.3356L89.8389 28.3356ZM141.524 199.869C139.477 201.242 136.639 200.55 135.325 198.272L132.138 200.11C134.433 204.088 139.622 205.575 143.574 202.925L141.524 199.869Z" fill="#ECEFF4"/>
<g clip-path="url(#clip4_0_10364)">
<path d="M86.3663 120.102C97.1911 120.102 105.966 111.318 105.966 100.482C105.966 89.6457 97.1911 80.8613 86.3663 80.8613C75.5416 80.8613 66.7664 89.6457 66.7664 100.482C66.7664 111.318 75.5416 120.102 86.3663 120.102Z" fill="#FBC85B"/>
<path d="M81.3132 98.6416C82.4971 98.6416 83.4569 97.6808 83.4569 96.4956C83.4569 95.3104 82.4971 94.3496 81.3132 94.3496C80.1292 94.3496 79.1694 95.3104 79.1694 96.4956C79.1694 97.6808 80.1292 98.6416 81.3132 98.6416Z" fill="#3E414D"/>
<path d="M91.4194 98.6416C92.6033 98.6416 93.5631 97.6808 93.5631 96.4956C93.5631 95.3104 92.6033 94.3496 91.4194 94.3496C90.2354 94.3496 89.2756 95.3104 89.2756 96.4956C89.2756 97.6808 90.2354 98.6416 91.4194 98.6416Z" fill="#3E414D"/>
<path d="M94.9413 105.311C93.319 108.32 90.1048 110.369 86.4046 110.369C82.7045 110.369 79.4903 108.32 77.8679 105.311" stroke="#9A695E" stroke-width="2.63715" stroke-linecap="round"/>
</g>
<path d="M83.9666 130.745V153.993H80.671V130.745H83.9666ZM76.9922 133.172C76.9922 140.223 74.5141 146.073 66.2112 150.008L64.4995 147.402C70.5031 144.566 73.1473 140.887 73.671 135.727H65.7513V133.172H76.9922ZM91.7586 131.307V133.351H93.9301V131.307H96.9447V140.325H88.6929V131.307H91.7586ZM91.7586 137.719H93.9301V135.803H91.7586V137.719ZM101.39 131.307V133.351H103.485V131.307H106.576V140.325H98.2987V131.307H101.39ZM101.39 137.719H103.485V135.803H101.39V137.719ZM108.237 141.883V144.489H87.0323V141.883H108.237ZM105.656 146.099V153.737H89.4849V146.099H105.656ZM92.6783 148.679V151.132H102.488V148.679H92.6783Z" fill="#3E3E3E"/>
<ellipse cx="87.9999" cy="119.897" rx="76.7665" ry="76.8466" stroke="#E8E8E8" stroke-width="1.63503" stroke-dasharray="1.64 8.18"/>
</g>
<rect x="0.5" y="0.5" width="383" height="239" rx="15.5" stroke="#D2D9E3"/>
<defs>
<clipPath id="clip0_0_10364">
<rect width="384" height="240" rx="16" fill="white"/>
</clipPath>
<clipPath id="clip1_0_10364">
<rect width="16" height="16" fill="white" transform="translate(262 65)"/>
</clipPath>
<clipPath id="clip2_0_10364">
<rect width="16" height="16" fill="white" transform="translate(262 89)"/>
</clipPath>
<clipPath id="clip3_0_10364">
<rect width="16" height="16" fill="white" transform="translate(262 137)"/>
</clipPath>
<clipPath id="clip4_0_10364">
<rect width="39.1999" height="39.2408" fill="white" transform="translate(66.7664 80.8613)"/>
</clipPath>
</defs>
</svg>
