<svg width="384" height="240" viewBox="0 0 384 240" fill="none" xmlns="http://www.w3.org/2000/svg">
<g clip-path="url(#clip0_0_6492)">
<rect width="384" height="240" rx="16" fill="#ECEFF4"/>
<g filter="url(#filter0_d_0_6492)">
<g clip-path="url(#clip1_0_6492)">
<rect x="-10" y="22" width="384" height="146" rx="16" fill="white"/>
<line x1="-10" y1="22.5" x2="374" y2="22.5" stroke="#F2F2F2"/>
<line x1="-10" y1="46.5" x2="374" y2="46.5" stroke="#F2F2F2"/>
<line x1="-10" y1="70.5" x2="374" y2="70.5" stroke="#F2F2F2"/>
<line x1="-10" y1="94.5" x2="374" y2="94.5" stroke="#F2F2F2"/>
<line x1="-10" y1="118.5" x2="374" y2="118.5" stroke="#F2F2F2"/>
<line x1="-10" y1="142.5" x2="374" y2="142.5" stroke="#F2F2F2"/>
<line x1="-10" y1="166.5" x2="374" y2="166.5" stroke="#F2F2F2"/>
<path d="M16.912 56.84C16.912 54.264 18.816 53.32 21.184 53.32C23.552 53.32 25.472 54.264 25.472 56.84C25.472 59.384 23.552 60.312 21.184 60.312C18.816 60.312 16.912 59.384 16.912 56.84ZM18.048 56.856C18.048 58.76 19.472 59.448 21.184 59.448C22.928 59.448 24.352 58.76 24.352 56.856C24.352 54.888 22.928 54.184 21.184 54.184C19.472 54.184 18.048 54.888 18.048 56.856ZM14.448 64.088C14.208 63.832 14.464 63.432 14.752 63.576C15.024 63.704 15.68 63.704 16.528 63.704H20.784V62.472C20.784 61.832 20.624 61.672 19.84 61.48C19.536 61.4 19.632 60.84 20.016 60.888L21.648 61.064C21.968 61.096 21.936 61.304 21.936 61.416C21.936 61.56 21.888 61.768 21.888 62.2V63.704H27.248C27.536 63.704 27.664 63.64 27.808 63.64C28 63.64 28.08 63.752 28.08 63.944C28.08 64.264 27.712 64.584 27.248 64.584H16.528C16.032 64.584 15.696 64.664 15.44 64.664C15.168 64.664 14.816 64.488 14.448 64.088ZM38.0383 54.216V57.208H40.2623V54.184C40.2623 53.432 39.9423 53.224 39.1263 53.016C38.8223 52.936 38.9823 52.376 39.3183 52.424L41.0943 52.68C41.4303 52.728 41.3983 52.92 41.3983 53.032C41.3983 53.16 41.3343 53.432 41.3343 53.88V61.672C41.3343 62.296 41.1103 62.856 40.6463 62.856C40.4383 62.856 40.2623 62.616 40.2623 62.056V58.072H38.0383V60.28C38.0383 60.904 37.8142 61.464 37.3663 61.464C37.1583 61.464 36.9823 61.224 36.9823 60.664V60.168C35.0943 60.712 33.1263 61.112 31.0303 61.112C30.3263 61.112 29.9583 60.648 29.9583 60.008V58.248C29.9583 57.704 29.7983 57.528 29.1103 57.432C28.7583 57.384 28.9023 56.808 29.1583 56.808H33.7343V54.584H31.5583C31.0623 54.584 30.7263 54.664 30.4703 54.664C30.1983 54.664 29.8463 54.488 29.4783 54.088C29.2383 53.832 29.4943 53.432 29.7823 53.576C30.0543 53.704 30.7103 53.704 31.5583 53.704H33.3183C33.8463 53.688 34.0223 53.608 34.2303 53.608C34.5023 53.608 34.8703 53.896 34.8703 54.104C34.8703 54.248 34.8223 54.456 34.8223 54.888V57.048C34.8223 57.32 34.5023 57.688 34.1503 57.688H31.0463V59.784C31.0463 60.024 31.1583 60.152 31.3983 60.152C33.2703 60.152 35.1263 59.896 36.9823 59.496V54.504C36.9823 53.784 36.6943 53.576 35.9103 53.368C35.6223 53.288 35.7663 52.744 36.1023 52.792L37.7983 53.016C38.1343 53.064 38.1023 53.256 38.1023 53.368C38.1023 53.496 38.0383 53.768 38.0383 54.216ZM38.0383 62.536C37.8142 63.08 37.5423 63.608 37.2222 64.104C38.8383 65.016 40.2783 65.768 41.5903 66.36C41.7983 66.536 42.0703 67 42.0703 67.368C42.0703 67.624 41.7983 67.864 41.5103 67.64C40.5343 66.92 38.9343 65.976 36.7103 64.792C35.6703 66.008 34.1503 67.032 31.9423 67.768C31.6063 67.88 31.2543 67.4 31.5583 67.272C33.8143 66.312 35.4943 64.936 36.5663 63.192C36.6623 62.76 36.3743 62.44 35.7023 62.248C35.4143 62.168 35.5423 61.592 35.9263 61.672L37.7823 62.088C38.1023 62.152 38.0863 62.424 38.0383 62.536ZM46.0125 65.032C46.0125 63.016 47.8365 62.264 50.0605 62.264C52.2685 62.264 54.1085 63.016 54.1085 65.032C54.1085 67.048 52.2685 67.784 50.0605 67.784C47.8365 67.784 46.0125 67.048 46.0125 65.032ZM53.5165 58.168H50.5405V60.152H56.0605C56.3485 60.152 56.4765 60.088 56.6205 60.088C56.8125 60.088 56.8925 60.2 56.8925 60.392C56.8925 60.712 56.5245 61.032 56.0605 61.032H45.3405C44.8445 61.032 44.5085 61.112 44.2525 61.112C43.9805 61.112 43.6285 60.936 43.2605 60.536C43.0205 60.28 43.2765 59.88 43.5645 60.024C43.8365 60.152 44.4925 60.152 45.3405 60.152H49.4365V58.168H47.0685C46.3645 58.168 45.9965 57.704 45.9965 57.064V54.696C45.9965 54.152 45.8365 53.976 45.1485 53.88C44.7965 53.832 44.9405 53.256 45.1965 53.256H53.3085C53.5965 53.256 53.7245 53.192 53.8685 53.192C53.9965 53.192 54.1405 53.352 54.1405 53.496C54.1405 53.768 53.6605 54.136 53.3085 54.136H47.1005V56.92C47.1005 57.16 47.2125 57.288 47.4525 57.288H53.5165C53.8045 57.288 53.9325 57.224 54.0765 57.224C54.2045 57.224 54.3485 57.384 54.3485 57.528C54.3485 57.8 53.8685 58.168 53.5165 58.168ZM47.1645 65.048C47.1645 66.424 48.4765 66.92 50.0605 66.92C51.6925 66.92 52.9725 66.424 52.9725 65.048C52.9725 63.64 51.6925 63.128 50.0605 63.128C48.4765 63.128 47.1645 63.64 47.1645 65.048ZM58.1148 57.272C58.1148 54.712 59.7308 53.784 61.7148 53.784C63.6988 53.784 65.3308 54.712 65.3308 57.272C65.3308 59.8 63.6988 60.728 61.7148 60.728C59.7308 60.728 58.1148 59.8 58.1148 57.272ZM59.2668 57.288C59.2668 59.192 60.3708 59.864 61.7148 59.864C63.0588 59.864 64.1948 59.192 64.1948 57.288C64.1948 55.32 63.0588 54.648 61.7148 54.648C60.3708 54.648 59.2668 55.32 59.2668 57.288ZM68.9788 53.88V57.144H70.6588C70.9628 57.144 71.0748 57.08 71.2188 57.08C71.3468 57.08 71.4908 57.24 71.4908 57.384C71.4908 57.64 71.0108 58.024 70.6588 58.024H68.9788V62.344C68.9788 62.968 68.7708 63.56 68.2748 63.56C68.0348 63.56 67.8748 63.32 67.8748 62.744V54.184C67.8748 53.432 67.5548 53.224 66.7388 53.016C66.4348 52.936 66.5948 52.376 66.9308 52.424L68.7388 52.68C69.0748 52.728 69.0428 52.92 69.0428 53.032C69.0428 53.16 68.9788 53.432 68.9788 53.88ZM61.3468 66.296V64.216C61.3468 63.512 61.1228 63.384 60.3068 63.176C60.0028 63.096 60.0988 62.536 60.4828 62.584L62.2108 62.776C62.5308 62.824 62.4988 63.016 62.4988 63.128C62.4988 63.272 62.4508 63.48 62.4508 63.912V66.152C62.4508 66.392 62.5628 66.52 62.8028 66.52H68.8188C69.1228 66.52 69.3148 66.44 69.4588 66.44C69.5868 66.44 69.7308 66.6 69.7308 66.744C69.7308 67.016 69.2028 67.4 68.8188 67.4H62.4188C61.7148 67.4 61.3468 66.936 61.3468 66.296ZM79.3094 66.472V63.752C79.3094 63.192 79.2454 63.048 78.6214 62.936C78.2694 62.888 78.4134 62.312 78.6694 62.312H82.7334V59.464H78.6374C78.1414 59.464 77.8054 59.544 77.5494 59.544C77.2774 59.544 76.9254 59.368 76.5574 58.968C76.3174 58.712 76.5734 58.312 76.8614 58.456C77.1334 58.584 77.7894 58.584 78.6374 58.584H80.3174C80.7654 57.16 81.0694 55.656 81.2774 54.136H79.9334C79.4374 54.136 79.1014 54.216 78.8454 54.216C78.5734 54.216 78.2214 54.04 77.8534 53.64C77.6134 53.384 77.8694 52.984 78.1574 53.128C78.4294 53.256 79.0854 53.256 79.9334 53.256H80.8134C81.4854 53.256 81.7254 53.16 81.9494 53.16C82.2214 53.16 82.5734 53.448 82.5734 53.656C82.5734 53.8 82.5574 53.976 82.5414 54.28C82.2534 55.816 81.7734 57.256 81.0694 58.584H86.5254C86.8614 57.16 87.0854 55.656 87.1814 54.136H85.1334C84.6374 54.136 84.3014 54.216 84.0454 54.216C83.7734 54.216 83.4214 54.04 83.0534 53.64C82.8134 53.384 83.0694 52.984 83.3574 53.128C83.6294 53.256 84.2854 53.256 85.1334 53.256H86.7174C87.3894 53.256 87.6294 53.16 87.8534 53.16C88.1254 53.16 88.4774 53.448 88.4774 53.656C88.4774 53.8 88.4614 53.96 88.4454 54.28C88.2854 55.768 87.8694 57.208 87.2614 58.584H89.3574C89.6454 58.584 89.7734 58.52 89.9174 58.52C90.1094 58.52 90.1894 58.632 90.1894 58.824C90.1894 59.144 89.8214 59.464 89.3574 59.464H83.8374V62.312H85.6934C86.3814 62.312 86.5734 62.216 86.8134 62.216C87.0854 62.216 87.4534 62.504 87.4534 62.712C87.4534 62.856 87.4054 63.064 87.4054 63.496V66.904V66.936C87.4054 67.208 87.1014 67.576 86.7334 67.576H80.3814C79.6774 67.576 79.3094 67.112 79.3094 66.472ZM80.7654 66.696H86.3014V63.192H80.4134V66.328C80.4134 66.568 80.5254 66.696 80.7654 66.696ZM93.4916 55.272C93.4916 53.304 95.3636 52.584 97.6996 52.584C100.052 52.584 101.94 53.304 101.94 55.272C101.94 57.24 100.052 57.944 97.6996 57.944C95.3636 57.944 93.4916 57.24 93.4916 55.272ZM101.364 61.448C101.636 61.448 102.004 61.736 102.004 61.944C102.004 62.088 101.956 62.296 101.956 62.728V64.296V64.328C101.956 64.584 101.732 64.952 101.364 64.952H94.8196V66.328C94.8196 66.568 94.9316 66.696 95.1716 66.696H101.7C102.004 66.696 102.196 66.616 102.34 66.616C102.468 66.616 102.612 66.776 102.612 66.92C102.612 67.176 102.084 67.56 101.7 67.56H94.7876C94.0836 67.56 93.7156 67.096 93.7156 66.456V65.432C93.7156 64.936 93.6676 64.776 93.0276 64.696C92.6756 64.648 92.8036 64.088 93.0756 64.088H100.852V62.408H95.2676C94.7716 62.408 94.4356 62.488 94.1796 62.488C93.9076 62.488 93.5556 62.312 93.1876 61.912C92.9316 61.656 93.2036 61.288 93.4916 61.416C93.7636 61.544 94.4196 61.544 95.2676 61.544H100.244C100.932 61.544 101.124 61.448 101.364 61.448ZM94.6276 55.288C94.6276 56.616 96.0356 57.08 97.6996 57.08C99.4116 57.08 100.82 56.616 100.82 55.288C100.82 53.928 99.4116 53.448 97.6996 53.448C96.0356 53.448 94.6276 53.928 94.6276 55.288ZM90.9636 59.496C90.7236 59.24 90.9796 58.84 91.2676 58.984C91.5396 59.112 92.1956 59.112 93.0436 59.112H103.764C104.052 59.112 104.18 59.048 104.324 59.048C104.516 59.048 104.596 59.16 104.596 59.352C104.596 59.672 104.228 59.992 103.764 59.992H93.0436C92.5476 59.992 92.2116 60.072 91.9556 60.072C91.6836 60.072 91.3316 59.896 90.9636 59.496ZM121.086 55.304C120.862 58.136 120.334 60.76 119.534 63.224H122.654C122.942 63.224 123.07 63.16 123.214 63.16C123.406 63.16 123.486 63.272 123.486 63.464C123.486 63.784 123.118 64.104 122.654 64.104H111.934C111.438 64.104 111.102 64.184 110.846 64.184C110.574 64.184 110.222 64.008 109.854 63.608C109.614 63.352 109.87 62.952 110.158 63.096C110.43 63.224 111.086 63.224 111.934 63.224H118.83C119.342 60.6 119.646 57.848 119.79 55H113.742C113.246 55 112.91 55.08 112.654 55.08C112.382 55.08 112.03 54.904 111.662 54.504C111.422 54.248 111.678 53.848 111.966 53.992C112.238 54.12 112.894 54.12 113.742 54.12H119.326C119.998 54.12 120.27 54.024 120.494 54.024C120.766 54.024 121.134 54.312 121.134 54.52C121.134 54.664 121.102 54.872 121.086 55.304ZM131.125 59.144H127.013V62.04C127.013 62.28 127.125 62.408 127.365 62.408C130.085 62.408 132.581 62.152 135.269 61.464V54.184C135.269 53.432 134.949 53.224 134.133 53.016C133.829 52.936 133.989 52.376 134.325 52.424L136.133 52.68C136.469 52.728 136.437 52.92 136.437 53.032C136.437 53.16 136.373 53.432 136.373 53.88V65.832C136.373 66.456 136.165 67.048 135.669 67.048C135.429 67.048 135.269 66.808 135.269 66.232V62.136C132.533 62.952 129.893 63.32 126.981 63.368C126.277 63.384 125.909 62.904 125.909 62.264V59.704C125.909 59.16 125.749 58.984 125.061 58.888C124.709 58.84 124.853 58.264 125.109 58.264H130.693V55.224H127.509C127.013 55.224 126.677 55.304 126.421 55.304C126.149 55.304 125.797 55.128 125.429 54.728C125.189 54.472 125.445 54.072 125.733 54.216C126.005 54.344 126.661 54.344 127.509 54.344H130.085C130.757 54.344 130.981 54.248 131.205 54.248C131.477 54.248 131.845 54.536 131.845 54.744C131.845 54.888 131.797 55.096 131.797 55.528V58.472V58.504C131.797 58.776 131.477 59.144 131.125 59.144ZM148.971 58.488H142.411C141.707 58.488 141.339 58.024 141.339 57.384V54.92C141.339 54.28 141.163 54.136 140.347 53.928C140.043 53.848 140.139 53.288 140.523 53.336L142.203 53.512C142.523 53.544 142.491 53.752 142.491 53.864C142.491 54.008 142.443 54.216 142.443 54.648V57.24C142.443 57.48 142.555 57.608 142.795 57.608H148.971C149.259 57.608 149.387 57.544 149.531 57.544C149.659 57.544 149.803 57.704 149.803 57.848C149.803 58.12 149.323 58.488 148.971 58.488ZM138.667 60.952C138.427 60.696 138.683 60.296 138.971 60.44C139.243 60.568 139.899 60.568 140.747 60.568H151.467C151.755 60.568 151.883 60.504 152.027 60.504C152.219 60.504 152.299 60.616 152.299 60.808C152.299 61.128 151.931 61.448 151.467 61.448H140.747C140.251 61.448 139.915 61.528 139.659 61.528C139.387 61.528 139.035 61.352 138.667 60.952ZM141.691 66.296V64.6C141.691 63.896 141.467 63.768 140.651 63.56C140.347 63.48 140.443 62.92 140.827 62.968L142.555 63.16C142.875 63.208 142.843 63.4 142.843 63.512C142.843 63.656 142.795 63.864 142.795 64.296V66.152C142.795 66.392 142.907 66.52 143.147 66.52H149.323C149.627 66.52 149.819 66.44 149.963 66.44C150.091 66.44 150.235 66.6 150.235 66.744C150.235 67.016 149.707 67.4 149.323 67.4H142.763C142.059 67.4 141.691 66.936 141.691 66.296ZM170.549 58.952H168.869V65.832C168.869 66.456 168.661 67.048 168.165 67.048C167.925 67.048 167.765 66.808 167.765 66.232V54.184C167.765 53.432 167.445 53.224 166.629 53.016C166.325 52.936 166.485 52.376 166.821 52.424L168.629 52.68C168.965 52.728 168.933 52.92 168.933 53.032C168.933 53.16 168.869 53.432 168.869 53.88V58.072H170.549C170.853 58.072 170.965 58.008 171.109 58.008C171.237 58.008 171.381 58.168 171.381 58.312C171.381 58.568 170.901 58.952 170.549 58.952ZM165.653 62.28C165.605 62.52 165.301 62.728 165.061 62.472C164.053 61.288 162.693 60.008 161.397 58.904C160.565 60.456 159.461 61.8 158.069 62.872C157.813 63.096 157.397 62.712 157.605 62.456C159.589 60.408 160.981 57.944 161.605 55.256C161.605 54.76 161.285 54.536 160.581 54.28C160.293 54.152 160.421 53.624 160.805 53.704L162.661 54.136C162.981 54.2 162.933 54.472 162.917 54.584C162.661 55.832 162.293 57.016 161.797 58.088C162.901 59.128 164.181 60.248 165.349 61.16C165.525 61.352 165.701 61.896 165.653 62.28ZM182.508 67.56H176.396C175.692 67.56 175.324 67.096 175.324 66.456V63.944C175.324 63.384 175.26 63.24 174.636 63.128C174.284 63.08 174.428 62.504 174.684 62.504H181.66C182.188 62.488 182.364 62.408 182.588 62.408C182.86 62.408 183.228 62.696 183.228 62.904C183.228 63.048 183.18 63.256 183.18 63.688V66.92C183.18 67.192 182.876 67.56 182.508 67.56ZM183.276 53.88V56.888H184.956C185.26 56.888 185.372 56.824 185.516 56.824C185.644 56.824 185.788 56.984 185.788 57.128C185.788 57.384 185.308 57.768 184.956 57.768H183.276V60.472C183.276 61.096 183.068 61.688 182.572 61.688C182.332 61.688 182.172 61.448 182.172 60.872V59.56C179.164 60.424 176.556 60.856 174.124 60.888C173.42 60.904 173.052 60.424 173.052 59.784V58.184C173.052 57.64 172.892 57.464 172.204 57.368C171.852 57.32 171.996 56.744 172.252 56.744H178.188V54.664H174.652C174.156 54.664 173.82 54.744 173.564 54.744C173.292 54.744 172.94 54.568 172.572 54.168C172.332 53.912 172.588 53.512 172.876 53.656C173.148 53.784 173.804 53.784 174.652 53.784H177.58C178.252 53.784 178.476 53.688 178.7 53.688C178.972 53.688 179.34 53.976 179.34 54.184C179.34 54.328 179.292 54.536 179.292 54.968V56.984C179.292 57.256 178.972 57.624 178.62 57.624H174.156V59.56C174.156 59.8 174.268 59.928 174.508 59.928C176.748 59.976 179.148 59.64 182.172 58.888V54.184C182.172 53.432 181.852 53.224 181.036 53.016C180.732 52.936 180.892 52.376 181.228 52.424L183.036 52.68C183.372 52.728 183.34 52.92 183.34 53.032C183.34 53.16 183.276 53.432 183.276 53.88ZM176.428 66.312C176.428 66.552 176.54 66.68 176.78 66.68H182.076V63.384H176.428V66.312ZM188.898 55.992C188.898 53.8 190.77 53 193.106 53C195.458 53 197.346 53.8 197.346 55.992C197.346 58.168 195.458 58.952 193.106 58.952C190.77 58.952 188.898 58.168 188.898 55.992ZM190.034 56.008C190.034 57.544 191.442 58.088 193.106 58.088C194.818 58.088 196.226 57.544 196.226 56.008C196.226 54.424 194.818 53.864 193.106 53.864C191.442 53.864 190.034 54.424 190.034 56.008ZM186.37 60.984C186.13 60.728 186.386 60.328 186.674 60.472C186.946 60.6 187.602 60.6 188.45 60.6H199.17C199.458 60.6 199.586 60.536 199.73 60.536C199.922 60.536 200.002 60.648 200.002 60.84C200.002 61.16 199.634 61.48 199.17 61.48H188.45C187.954 61.48 187.618 61.56 187.362 61.56C187.09 61.56 186.738 61.384 186.37 60.984ZM189.394 66.296V64.536C189.394 63.832 189.17 63.704 188.354 63.496C188.05 63.416 188.146 62.856 188.53 62.904L190.258 63.096C190.578 63.144 190.546 63.336 190.546 63.448C190.546 63.592 190.498 63.8 190.498 64.232V66.152C190.498 66.392 190.61 66.52 190.85 66.52H197.026C197.33 66.52 197.522 66.44 197.666 66.44C197.794 66.44 197.938 66.6 197.938 66.744C197.938 67.016 197.41 67.4 197.026 67.4H190.466C189.762 67.4 189.394 66.936 189.394 66.296ZM212.045 62.504H207.133C206.429 62.504 206.061 62.04 206.061 61.4V56.104C206.061 55.544 205.997 55.4 205.373 55.288C205.021 55.24 205.165 54.664 205.421 54.664H211.197C211.725 54.648 211.901 54.568 212.125 54.568C212.397 54.568 212.765 54.856 212.765 55.064C212.765 55.208 212.717 55.416 212.717 55.848V61.864C212.717 62.136 212.413 62.504 212.045 62.504ZM207.164 61.256C207.164 61.496 207.277 61.624 207.517 61.624H211.613V55.544H207.164V61.256ZM218.253 59.112H216.573V65.832C216.573 66.456 216.365 67.048 215.869 67.048C215.629 67.048 215.469 66.808 215.469 66.232V54.184C215.469 53.432 215.149 53.224 214.333 53.016C214.029 52.936 214.189 52.376 214.525 52.424L216.333 52.68C216.669 52.728 216.637 52.92 216.637 53.032C216.637 53.16 216.573 53.432 216.573 53.88V58.232H218.253C218.557 58.232 218.669 58.168 218.813 58.168C218.941 58.168 219.085 58.328 219.085 58.472C219.085 58.728 218.605 59.112 218.253 59.112ZM231.011 67.56H224.739C224.035 67.56 223.667 67.096 223.667 66.456V63.944C223.667 63.384 223.603 63.24 222.979 63.128C222.627 63.08 222.771 62.504 223.027 62.504H229.971C230.659 62.504 230.851 62.408 231.091 62.408C231.363 62.408 231.731 62.696 231.731 62.904C231.731 63.048 231.683 63.256 231.683 63.688V66.888V66.92C231.683 67.192 231.379 67.56 231.011 67.56ZM224.771 66.312C224.771 66.552 224.883 66.68 225.123 66.68H230.579V63.384H224.771V66.312ZM228.595 60.92C228.563 61.144 228.259 61.352 228.003 61.112C227.235 60.424 226.195 59.656 224.915 58.776C223.763 59.752 222.339 60.568 220.675 61.224C220.371 61.352 220.019 60.872 220.307 60.728C222.883 59.464 224.787 57.864 225.987 55.88H222.899C222.403 55.88 222.067 55.96 221.811 55.96C221.539 55.96 221.187 55.784 220.819 55.384C220.579 55.128 220.835 54.728 221.123 54.872C221.395 55 222.051 55 222.899 55H225.635C226.307 55 226.563 54.904 226.787 54.904C227.059 54.904 227.427 55.224 227.427 55.4C227.427 55.576 227.283 55.88 227.123 56.168C226.691 56.904 226.179 57.576 225.555 58.2C226.515 58.872 227.427 59.448 228.307 59.928C228.483 60.12 228.627 60.552 228.595 60.92ZM231.779 53.88V60.472C231.779 61.096 231.571 61.688 231.075 61.688C230.835 61.688 230.675 61.448 230.675 60.872V54.184C230.675 53.432 230.355 53.224 229.539 53.016C229.235 52.936 229.395 52.376 229.731 52.424L231.539 52.68C231.875 52.728 231.843 52.92 231.843 53.032C231.843 53.16 231.779 53.432 231.779 53.88ZM224.275 53.944C223.491 53.944 222.899 53.96 222.227 53.336C221.971 53.096 222.227 52.664 222.531 52.792C222.803 52.92 223.203 53 224.275 53H225.971C226.099 53 226.227 53.192 226.227 53.368C226.227 53.64 225.603 53.944 224.275 53.944ZM243.097 54.216V58.056H245.481V54.184C245.481 53.432 245.161 53.224 244.345 53.016C244.041 52.936 244.201 52.376 244.537 52.424L246.313 52.68C246.649 52.728 246.617 52.92 246.617 53.032C246.617 53.16 246.553 53.432 246.553 53.88V65.848C246.553 66.472 246.329 67.032 245.865 67.032C245.657 67.032 245.481 66.792 245.481 66.232V58.92H243.097V65.224C243.097 65.848 242.873 66.408 242.425 66.408C242.217 66.408 242.041 66.168 242.041 65.608V61.832C240.121 62.472 238.297 62.76 236.185 62.76C235.481 62.76 235.113 62.296 235.113 61.656V56.232C235.113 55.704 235.097 55.464 234.281 55.256C233.993 55.176 234.073 54.632 234.457 54.68L235.961 54.84C236.281 54.888 236.249 55.08 236.249 55.192C236.249 55.336 236.201 55.544 236.201 55.976V61.432C236.201 61.672 236.313 61.8 236.553 61.8C238.537 61.8 240.201 61.656 242.041 61.16V54.504C242.041 53.784 241.753 53.576 240.969 53.368C240.681 53.288 240.825 52.744 241.161 52.792L242.857 53.016C243.193 53.064 243.161 53.256 243.161 53.368C243.161 53.496 243.097 53.768 243.097 54.216ZM264.196 55.304C263.972 58.136 263.444 60.76 262.644 63.224H265.764C266.052 63.224 266.18 63.16 266.324 63.16C266.516 63.16 266.596 63.272 266.596 63.464C266.596 63.784 266.228 64.104 265.764 64.104H255.044C254.548 64.104 254.212 64.184 253.956 64.184C253.684 64.184 253.332 64.008 252.964 63.608C252.724 63.352 252.98 62.952 253.268 63.096C253.54 63.224 254.196 63.224 255.044 63.224H261.94C262.452 60.6 262.756 57.848 262.9 55H256.852C256.356 55 256.02 55.08 255.764 55.08C255.492 55.08 255.14 54.904 254.772 54.504C254.532 54.248 254.788 53.848 255.076 53.992C255.348 54.12 256.004 54.12 256.852 54.12H262.436C263.108 54.12 263.38 54.024 263.604 54.024C263.876 54.024 264.244 54.312 264.244 54.52C264.244 54.664 264.212 54.872 264.196 55.304ZM274.606 66.472V63.752C274.606 63.192 274.542 63.048 273.918 62.936C273.566 62.888 273.71 62.312 273.966 62.312H278.03V59.464H273.934C273.438 59.464 273.102 59.544 272.846 59.544C272.574 59.544 272.222 59.368 271.854 58.968C271.614 58.712 271.87 58.312 272.158 58.456C272.43 58.584 273.086 58.584 273.934 58.584H275.614C276.062 57.16 276.366 55.656 276.574 54.136H275.23C274.734 54.136 274.398 54.216 274.142 54.216C273.87 54.216 273.518 54.04 273.15 53.64C272.91 53.384 273.166 52.984 273.454 53.128C273.726 53.256 274.382 53.256 275.23 53.256H276.11C276.782 53.256 277.022 53.16 277.246 53.16C277.518 53.16 277.87 53.448 277.87 53.656C277.87 53.8 277.854 53.976 277.838 54.28C277.55 55.816 277.07 57.256 276.366 58.584H281.822C282.158 57.16 282.382 55.656 282.478 54.136H280.43C279.934 54.136 279.598 54.216 279.342 54.216C279.07 54.216 278.718 54.04 278.35 53.64C278.11 53.384 278.366 52.984 278.654 53.128C278.926 53.256 279.582 53.256 280.43 53.256H282.014C282.686 53.256 282.926 53.16 283.15 53.16C283.422 53.16 283.774 53.448 283.774 53.656C283.774 53.8 283.758 53.96 283.742 54.28C283.582 55.768 283.166 57.208 282.558 58.584H284.654C284.942 58.584 285.07 58.52 285.214 58.52C285.406 58.52 285.486 58.632 285.486 58.824C285.486 59.144 285.118 59.464 284.654 59.464H279.134V62.312H280.99C281.678 62.312 281.87 62.216 282.11 62.216C282.382 62.216 282.75 62.504 282.75 62.712C282.75 62.856 282.702 63.064 282.702 63.496V66.904V66.936C282.702 67.208 282.398 67.576 282.03 67.576H275.678C274.974 67.576 274.606 67.112 274.606 66.472ZM276.062 66.696H281.598V63.192H275.71V66.328C275.71 66.568 275.822 66.696 276.062 66.696ZM288.789 55.272C288.789 53.304 290.661 52.584 292.997 52.584C295.349 52.584 297.237 53.304 297.237 55.272C297.237 57.24 295.349 57.944 292.997 57.944C290.661 57.944 288.789 57.24 288.789 55.272ZM296.661 61.448C296.933 61.448 297.301 61.736 297.301 61.944C297.301 62.088 297.253 62.296 297.253 62.728V64.296V64.328C297.253 64.584 297.029 64.952 296.661 64.952H290.117V66.328C290.117 66.568 290.229 66.696 290.469 66.696H296.997C297.301 66.696 297.493 66.616 297.637 66.616C297.765 66.616 297.909 66.776 297.909 66.92C297.909 67.176 297.381 67.56 296.997 67.56H290.085C289.381 67.56 289.013 67.096 289.013 66.456V65.432C289.013 64.936 288.965 64.776 288.325 64.696C287.973 64.648 288.101 64.088 288.373 64.088H296.149V62.408H290.565C290.069 62.408 289.733 62.488 289.477 62.488C289.205 62.488 288.853 62.312 288.485 61.912C288.229 61.656 288.501 61.288 288.789 61.416C289.061 61.544 289.717 61.544 290.565 61.544H295.541C296.229 61.544 296.421 61.448 296.661 61.448ZM289.924 55.288C289.924 56.616 291.333 57.08 292.997 57.08C294.709 57.08 296.117 56.616 296.117 55.288C296.117 53.928 294.709 53.448 292.997 53.448C291.333 53.448 289.924 53.928 289.924 55.288ZM286.261 59.496C286.021 59.24 286.277 58.84 286.565 58.984C286.837 59.112 287.493 59.112 288.341 59.112H299.061C299.349 59.112 299.477 59.048 299.621 59.048C299.813 59.048 299.893 59.16 299.893 59.352C299.893 59.672 299.525 59.992 299.061 59.992H288.341C287.845 59.992 287.509 60.072 287.253 60.072C286.981 60.072 286.629 59.896 286.261 59.496ZM316.463 53.88V56.328H318.143C318.447 56.328 318.559 56.264 318.703 56.264C318.831 56.264 318.975 56.424 318.975 56.568C318.975 56.824 318.495 57.208 318.143 57.208H316.463V59.416C316.463 60.04 316.255 60.632 315.759 60.632C315.519 60.632 315.359 60.392 315.359 59.816V58.28C312.351 59.144 309.615 59.576 307.183 59.608C306.479 59.624 306.111 59.144 306.111 58.504V55.192C306.111 54.632 305.951 54.488 305.263 54.376C304.911 54.328 305.055 53.752 305.311 53.752H311.871C312.175 53.752 312.287 53.688 312.431 53.688C312.559 53.688 312.703 53.848 312.703 53.992C312.703 54.248 312.223 54.632 311.871 54.632H307.215V58.28C307.215 58.52 307.327 58.648 307.567 58.648C309.807 58.696 312.335 58.36 315.359 57.608V54.184C315.359 53.432 315.039 53.224 314.223 53.016C313.919 52.936 314.079 52.376 314.415 52.424L316.223 52.68C316.559 52.728 316.527 52.92 316.527 53.032C316.527 53.16 316.463 53.432 316.463 53.88ZM315.791 67.56H313.279C312.575 67.56 312.207 67.096 312.207 66.456V62.6C312.207 62.088 312.111 61.944 311.679 61.864C311.327 61.816 311.455 61.32 311.727 61.32H314.767C315.455 61.32 315.631 61.224 315.871 61.224C316.143 61.224 316.511 61.512 316.511 61.72C316.511 61.864 316.463 62.072 316.463 62.504V66.92C316.463 67.192 316.159 67.56 315.791 67.56ZM310.495 61.224C310.767 61.224 311.135 61.512 311.135 61.72C311.135 61.864 311.087 62.072 311.087 62.504V64.216C311.087 64.488 310.863 64.84 310.495 64.84H308.351V66.328C308.351 66.568 308.463 66.696 308.703 66.696C309.519 66.696 310.351 66.664 311.103 66.584C311.407 66.536 311.471 66.488 311.615 66.472C311.743 66.472 311.903 66.616 311.903 66.76C311.919 67.032 311.535 67.304 311.167 67.368C310.431 67.496 309.487 67.56 308.351 67.56C307.647 67.56 307.279 67.096 307.279 66.456V65.272C307.279 64.808 307.247 64.616 306.671 64.536C306.319 64.488 306.447 63.976 306.719 63.976H310.015V62.184H308.831C308.335 62.184 307.999 62.248 307.743 62.248C307.471 62.248 307.119 62.088 306.751 61.688C306.495 61.432 306.767 61.064 307.055 61.192C307.327 61.32 307.983 61.32 308.831 61.32H309.599C310.127 61.304 310.271 61.224 310.495 61.224ZM313.279 66.312C313.279 66.552 313.391 66.68 313.631 66.68H315.391V62.2H313.279V66.312ZM320.005 58.536C320.005 55.512 321.653 54.376 323.669 54.376C325.669 54.376 327.333 55.512 327.333 58.536C327.333 61.56 325.669 62.664 323.669 62.664C321.653 62.664 320.005 61.56 320.005 58.536ZM321.157 58.552C321.157 60.952 322.309 61.8 323.669 61.8C325.061 61.8 326.181 60.952 326.181 58.552C326.181 56.12 325.061 55.24 323.669 55.24C322.309 55.24 321.157 56.12 321.157 58.552ZM332.549 59.112H330.869V65.832C330.869 66.456 330.661 67.048 330.165 67.048C329.925 67.048 329.765 66.808 329.765 66.232V54.184C329.765 53.432 329.445 53.224 328.629 53.016C328.325 52.936 328.485 52.376 328.821 52.424L330.629 52.68C330.965 52.728 330.933 52.92 330.933 53.032C330.933 53.16 330.869 53.432 330.869 53.88V58.232H332.549C332.853 58.232 332.965 58.168 333.109 58.168C333.237 58.168 333.381 58.328 333.381 58.472C333.381 58.728 332.901 59.112 332.549 59.112ZM14.592 87.176C17.632 85.736 19.648 83.64 20.64 80.872H17.424C16.928 80.872 16.592 80.952 16.336 80.952C16.064 80.952 15.712 80.776 15.344 80.376C15.104 80.12 15.36 79.72 15.648 79.864C15.92 79.992 16.576 79.992 17.424 79.992H20.208C20.88 79.992 21.168 79.896 21.392 79.896C21.664 79.896 22.032 80.184 22.032 80.392C22.032 80.568 21.904 80.824 21.792 81.16C20.736 84.168 18.464 86.408 14.928 87.704C14.608 87.816 14.288 87.32 14.592 87.176ZM25.76 79.88V83.464H27.44C27.728 83.464 27.856 83.4 28 83.4C28.128 83.4 28.272 83.56 28.272 83.704C28.272 83.976 27.792 84.344 27.44 84.344H25.76V88.184C25.76 88.808 25.536 89.4 25.056 89.4C24.832 89.4 24.656 89.16 24.656 88.584V80.184C24.656 79.448 24.32 79.224 23.52 79.016C23.216 78.936 23.36 78.376 23.712 78.424L25.52 78.68C25.856 78.728 25.824 78.92 25.824 79.032C25.824 79.16 25.76 79.432 25.76 79.88ZM18.128 92.296V90.056C18.128 89.368 17.904 89.224 17.088 89.016C16.784 88.936 16.88 88.376 17.264 88.424L18.992 88.616C19.312 88.648 19.28 88.856 19.28 88.968C19.28 89.112 19.232 89.32 19.232 89.752V92.152C19.232 92.392 19.344 92.52 19.584 92.52H25.6C25.904 92.52 26.096 92.44 26.24 92.44C26.368 92.44 26.512 92.6 26.512 92.744C26.512 93.016 25.968 93.4 25.6 93.4H19.2C18.496 93.4 18.128 92.936 18.128 92.296ZM30.9183 87.336C30.9183 87.576 31.0303 87.704 31.2703 87.704C33.5103 87.752 36.0383 87.416 39.0623 86.664V80.184C39.0623 79.432 38.7423 79.224 37.9263 79.016C37.6223 78.936 37.7823 78.376 38.1183 78.424L39.9263 78.68C40.2623 78.728 40.2303 78.92 40.2303 79.032C40.2303 79.16 40.1663 79.432 40.1663 79.88V84.232H41.8463C42.1503 84.232 42.2623 84.168 42.4063 84.168C42.5343 84.168 42.6783 84.328 42.6783 84.472C42.6783 84.728 42.1983 85.112 41.8463 85.112H40.1663V91.832C40.1663 92.456 39.9583 93.048 39.4623 93.048C39.2223 93.048 39.0623 92.808 39.0623 92.232V87.336C36.0543 88.2 33.3183 88.632 30.8863 88.664C30.1823 88.68 29.8143 88.2 29.8143 87.56V82.104C29.8143 81.544 29.6543 81.4 28.9663 81.288C28.6143 81.24 28.7583 80.664 29.0143 80.664H35.5743C35.8783 80.664 35.9903 80.6 36.1343 80.6C36.2623 80.6 36.4062 80.76 36.4062 80.904C36.4062 81.16 35.9263 81.544 35.5743 81.544H30.9183V87.336ZM44.7645 91.736C44.2525 91.736 43.8525 91.336 43.8525 90.856C43.8525 90.344 44.2685 89.96 44.7645 89.96C45.2605 89.96 45.6925 90.328 45.6925 90.856C45.6925 91.352 45.2925 91.736 44.7645 91.736Z" fill="#373737"/>
<path d="M255.045 132.36H250.917C250.693 132.36 250.581 132.248 250.581 132.024V131.736C250.581 131.512 250.693 131.4 250.917 131.4H255.045C255.269 131.4 255.381 131.512 255.381 131.736V132.024C255.381 132.248 255.269 132.36 255.045 132.36ZM265.153 136.824C265.153 134.648 266.945 133.848 269.137 133.848C271.312 133.848 273.121 134.648 273.121 136.824C273.121 139 271.312 139.784 269.137 139.784C266.945 139.784 265.153 139 265.153 136.824ZM262.209 129.032C262.209 126.664 263.825 125.784 265.809 125.784C267.793 125.784 269.425 126.664 269.425 129.032C269.425 131.384 267.793 132.232 265.809 132.232C263.825 132.232 262.209 131.384 262.209 129.032ZM266.305 136.84C266.305 138.36 267.601 138.92 269.137 138.92C270.72 138.92 271.985 138.36 271.985 136.84C271.985 135.288 270.72 134.712 269.137 134.712C267.601 134.712 266.305 135.288 266.305 136.84ZM263.361 129.048C263.361 130.776 264.465 131.368 265.809 131.368C267.153 131.368 268.289 130.776 268.289 129.048C268.289 127.256 267.153 126.648 265.809 126.648C264.465 126.648 263.361 127.256 263.361 129.048ZM273.073 125.88V128.728H274.753C275.057 128.728 275.169 128.664 275.313 128.664C275.441 128.664 275.585 128.824 275.585 128.968C275.585 129.224 275.105 129.608 274.753 129.608H273.073V132.536C273.073 133.16 272.865 133.752 272.369 133.752C272.129 133.752 271.969 133.512 271.969 132.936V126.184C271.969 125.432 271.649 125.224 270.833 125.016C270.529 124.936 270.689 124.376 271.025 124.424L272.833 124.68C273.169 124.728 273.137 124.92 273.137 125.032C273.137 125.16 273.073 125.432 273.073 125.88ZM278.823 131.272V127.272C278.823 126.728 278.663 126.552 277.975 126.456C277.623 126.408 277.767 125.832 278.023 125.832H286.295C286.583 125.832 286.711 125.768 286.855 125.768C286.983 125.768 287.127 125.928 287.127 126.072C287.127 126.344 286.647 126.712 286.295 126.712H279.927V131.128C279.927 131.368 280.039 131.496 280.279 131.496H286.503C286.791 131.496 286.919 131.432 287.063 131.432C287.191 131.432 287.335 131.592 287.335 131.736C287.335 132.008 286.855 132.376 286.503 132.376H279.895C279.191 132.376 278.823 131.912 278.823 131.272ZM276.167 135.928C275.927 135.672 276.183 135.272 276.471 135.416C276.743 135.544 277.399 135.544 278.247 135.544H288.967C289.255 135.544 289.383 135.48 289.527 135.48C289.719 135.48 289.799 135.592 289.799 135.784C289.799 136.104 289.431 136.424 288.967 136.424H278.247C277.751 136.424 277.415 136.504 277.159 136.504C276.887 136.504 276.535 136.328 276.167 135.928ZM295.869 126.584C296.141 126.584 296.509 126.872 296.509 127.08C296.509 127.224 296.461 127.432 296.461 127.864V130.68V130.712C296.461 130.984 296.141 131.352 295.789 131.352H292.765V134.264C292.765 134.504 292.877 134.632 293.117 134.632C294.477 134.632 295.853 134.568 297.213 134.36C297.517 134.312 297.581 134.264 297.725 134.248C297.853 134.248 298.013 134.392 298.013 134.536C298.029 134.808 297.645 135.064 297.277 135.144C295.901 135.416 294.397 135.56 292.733 135.592C292.029 135.608 291.677 135.128 291.677 134.488V131.912C291.677 131.368 291.517 131.192 290.829 131.096C290.477 131.048 290.621 130.472 290.877 130.472H295.373V127.56H293.277C292.781 127.56 292.445 127.64 292.189 127.64C291.917 127.64 291.565 127.464 291.197 127.064C290.957 126.808 291.213 126.408 291.501 126.552C291.773 126.68 292.429 126.68 293.277 126.68H294.957C295.485 126.664 295.661 126.584 295.869 126.584ZM296.925 130.6C296.669 130.344 296.941 129.976 297.229 130.104C297.469 130.216 297.837 130.232 298.733 130.232H299.021V126.504C299.021 125.784 298.733 125.576 297.949 125.368C297.661 125.288 297.805 124.744 298.141 124.792L299.837 125.016C300.173 125.064 300.141 125.256 300.141 125.368C300.141 125.496 300.077 125.768 300.077 126.216V137.224C300.077 137.848 299.853 138.408 299.405 138.408C299.197 138.408 299.021 138.168 299.021 137.608V131.096H298.733C298.237 131.096 298.141 131.176 297.901 131.176C297.693 131.176 297.293 130.968 296.925 130.6ZM303.053 125.88V137.848C303.053 138.472 302.829 139.032 302.365 139.032C302.157 139.032 301.981 138.792 301.981 138.232V126.184C301.981 125.432 301.661 125.224 300.845 125.016C300.541 124.936 300.701 124.376 301.037 124.424L302.813 124.68C303.149 124.728 303.117 124.92 303.117 125.032C303.117 125.16 303.053 125.432 303.053 125.88ZM316.248 131.448H311.336C310.632 131.448 310.264 130.984 310.264 130.344V127.192C310.264 126.632 310.2 126.488 309.576 126.376C309.224 126.328 309.368 125.752 309.624 125.752H315.4C315.928 125.736 316.104 125.656 316.328 125.656C316.6 125.656 316.968 125.944 316.968 126.152C316.968 126.296 316.92 126.504 316.92 126.936V130.808C316.92 131.08 316.616 131.448 316.248 131.448ZM320.088 133.16C320.36 133.16 320.728 133.448 320.728 133.656C320.728 133.8 320.68 134.008 320.68 134.44V136.184C320.68 136.44 320.456 136.808 320.088 136.808H313.864V138.328C313.864 138.568 313.976 138.696 314.216 138.696H320.456C320.76 138.696 320.952 138.616 321.096 138.616C321.224 138.616 321.368 138.776 321.368 138.92C321.368 139.176 320.84 139.56 320.456 139.56H313.832C313.128 139.56 312.76 139.096 312.76 138.456V137.288C312.76 136.792 312.712 136.632 312.072 136.552C311.72 136.504 311.848 135.944 312.12 135.944H319.576V134.12H314.232C313.736 134.12 313.4 134.2 313.144 134.2C312.872 134.2 312.52 134.024 312.152 133.624C311.896 133.368 312.168 133 312.456 133.128C312.728 133.256 313.384 133.256 314.232 133.256H319.16C319.688 133.24 319.864 133.16 320.088 133.16ZM311.368 130.2C311.368 130.44 311.48 130.568 311.72 130.568H315.816V126.632H311.368V130.2ZM320.776 125.88V128.328H322.456C322.76 128.328 322.872 128.264 323.016 128.264C323.144 128.264 323.288 128.424 323.288 128.568C323.288 128.824 322.808 129.208 322.456 129.208H320.776V131.352C320.776 131.976 320.568 132.568 320.072 132.568C319.832 132.568 319.672 132.328 319.672 131.752V126.184C319.672 125.432 319.352 125.224 318.536 125.016C318.232 124.936 318.392 124.376 318.728 124.424L320.536 124.68C320.872 124.728 320.84 124.92 320.84 125.032C320.84 125.16 320.776 125.432 320.776 125.88ZM334.158 125.56C334.43 125.56 334.798 125.848 334.798 126.056C334.798 126.2 334.75 126.408 334.75 126.84V129.08V129.112C334.75 129.384 334.43 129.752 334.078 129.752H327.582V131.736C327.582 131.976 327.694 132.104 327.934 132.104H334.494C334.782 132.104 334.91 132.04 335.054 132.04C335.182 132.04 335.326 132.216 335.326 132.36C335.326 132.632 334.846 132.984 334.494 132.984H327.55C326.846 132.984 326.478 132.52 326.478 131.88V130.232C326.478 129.736 326.43 129.576 325.79 129.496C325.438 129.448 325.582 128.872 325.838 128.872H333.646V126.536H328.11C327.614 126.536 327.278 126.616 327.022 126.616C326.75 126.616 326.398 126.44 326.03 126.04C325.79 125.784 326.046 125.384 326.334 125.528C326.606 125.656 327.262 125.656 328.11 125.656H333.23C333.758 125.64 333.95 125.56 334.158 125.56ZM323.87 136.248C323.63 135.992 323.886 135.592 324.174 135.736C324.446 135.864 325.102 135.864 325.95 135.864H330.206V135.016C330.206 134.376 330.046 134.216 329.262 134.024C328.958 133.944 329.054 133.384 329.438 133.432L331.07 133.608C331.39 133.64 331.358 133.848 331.358 133.96C331.358 134.104 331.31 134.312 331.31 134.744V135.864H336.67C336.958 135.864 337.086 135.8 337.23 135.8C337.422 135.8 337.502 135.912 337.502 136.104C337.502 136.424 337.134 136.744 336.67 136.744H325.95C325.454 136.744 325.118 136.824 324.862 136.824C324.59 136.824 324.238 136.648 323.87 136.248ZM348.217 132.36H344.089C343.865 132.36 343.753 132.248 343.753 132.024V131.736C343.753 131.512 343.865 131.4 344.089 131.4H348.217C348.441 131.4 348.553 131.512 348.553 131.736V132.024C348.553 132.248 348.441 132.36 348.217 132.36Z" fill="#ABB8CE"/>
</g>
<rect x="-9.5" y="22.5" width="383" height="145" rx="15.5" stroke="#F2F2F2"/>
</g>
<path d="M147.48 191.88H145.928L145.208 194.664C145.144 194.888 145 195 144.776 195H144.392C144.168 195 144.088 194.888 144.152 194.664L144.872 191.88H142.632L141.912 194.664C141.848 194.888 141.704 195 141.48 195H141.096C140.872 195 140.792 194.888 140.856 194.664L141.576 191.88H140.28C140.056 191.88 139.928 191.768 139.992 191.56L140.088 191.24C140.152 191.048 140.232 191 140.456 191H141.8L142.408 188.616H140.904C140.68 188.616 140.552 188.504 140.616 188.296L140.712 187.976C140.776 187.784 140.856 187.736 141.08 187.736H142.632L143.368 184.936C143.432 184.712 143.576 184.6 143.8 184.6H144.184C144.408 184.6 144.488 184.712 144.424 184.936L143.688 187.736H145.928L146.664 184.936C146.728 184.712 146.872 184.6 147.096 184.6H147.48C147.704 184.6 147.784 184.712 147.72 184.936L146.984 187.736H148.28C148.504 187.736 148.632 187.848 148.568 188.056L148.472 188.376C148.408 188.568 148.328 188.616 148.104 188.616H146.76L146.152 191H147.656C147.88 191 148.008 191.112 147.944 191.32L147.848 191.64C147.784 191.832 147.704 191.88 147.48 191.88ZM143.464 188.616L142.856 191H145.096L145.704 188.616H143.464ZM151.131 186.056C151.131 185.416 150.955 185.272 150.139 185.064C149.835 184.984 149.931 184.424 150.315 184.472L151.995 184.648C152.315 184.696 152.283 184.888 152.283 185C152.283 185.144 152.235 185.352 152.235 185.784V191.304C152.235 191.544 152.347 191.672 152.587 191.672C154.827 191.72 157.195 191.384 160.219 190.632V184.184C160.219 183.432 159.899 183.224 159.083 183.016C158.779 182.936 158.939 182.376 159.275 182.424L161.083 182.68C161.419 182.728 161.387 182.92 161.387 183.032C161.387 183.16 161.323 183.432 161.323 183.88V187.912H163.003C163.307 187.912 163.419 187.848 163.563 187.848C163.691 187.848 163.835 188.008 163.835 188.152C163.835 188.408 163.355 188.792 163.003 188.792H161.323V195.832C161.323 196.456 161.115 197.048 160.619 197.048C160.379 197.048 160.219 196.808 160.219 196.232V191.304C157.195 192.184 154.683 192.584 152.203 192.632C151.499 192.648 151.131 192.168 151.131 191.528V186.056ZM164.865 188.536C164.865 185.512 166.513 184.376 168.529 184.376C170.529 184.376 172.193 185.512 172.193 188.536C172.193 191.56 170.529 192.664 168.529 192.664C166.513 192.664 164.865 191.56 164.865 188.536ZM166.017 188.552C166.017 190.952 167.169 191.8 168.529 191.8C169.921 191.8 171.041 190.952 171.041 188.552C171.041 186.12 169.921 185.24 168.529 185.24C167.169 185.24 166.017 186.12 166.017 188.552ZM177.409 189.112H175.729V195.832C175.729 196.456 175.521 197.048 175.025 197.048C174.785 197.048 174.625 196.808 174.625 196.232V184.184C174.625 183.432 174.305 183.224 173.489 183.016C173.185 182.936 173.345 182.376 173.681 182.424L175.489 182.68C175.825 182.728 175.793 182.92 175.793 183.032C175.793 183.16 175.729 183.432 175.729 183.88V188.232H177.409C177.713 188.232 177.825 188.168 177.969 188.168C178.097 188.168 178.241 188.328 178.241 188.472C178.241 188.728 177.761 189.112 177.409 189.112ZM191.815 189.592H190.135V195.832C190.135 196.456 189.927 197.048 189.431 197.048C189.191 197.048 189.031 196.808 189.031 196.232V184.184C189.031 183.432 188.711 183.224 187.895 183.016C187.591 182.936 187.751 182.376 188.087 182.424L189.895 182.68C190.231 182.728 190.199 182.92 190.199 183.032C190.199 183.16 190.135 183.432 190.135 183.88V188.712H191.815C192.119 188.712 192.231 188.648 192.375 188.648C192.503 188.648 192.647 188.808 192.647 188.952C192.647 189.208 192.167 189.592 191.815 189.592ZM178.839 192.968C182.007 191.24 184.087 188.648 185.191 185.464H181.463C180.967 185.464 180.631 185.544 180.375 185.544C180.103 185.544 179.751 185.368 179.383 184.968C179.143 184.712 179.399 184.312 179.687 184.456C179.959 184.584 180.615 184.584 181.463 184.584H184.759C185.431 184.584 185.687 184.488 185.911 184.488C186.183 184.488 186.551 184.776 186.551 184.984C186.551 185.16 186.423 185.416 186.343 185.752C185.207 189.256 182.791 191.832 179.175 193.496C178.855 193.64 178.535 193.128 178.839 192.968ZM193.677 188.536C193.677 185.512 195.325 184.376 197.341 184.376C199.341 184.376 201.005 185.512 201.005 188.536C201.005 191.56 199.341 192.664 197.341 192.664C195.325 192.664 193.677 191.56 193.677 188.536ZM194.829 188.552C194.829 190.952 195.981 191.8 197.341 191.8C198.733 191.8 199.853 190.952 199.853 188.552C199.853 186.12 198.733 185.24 197.341 185.24C195.981 185.24 194.829 186.12 194.829 188.552ZM206.221 191.496H204.541V195.832C204.541 196.456 204.333 197.048 203.837 197.048C203.597 197.048 203.437 196.808 203.437 196.232V184.184C203.437 183.432 203.117 183.224 202.301 183.016C201.997 182.936 202.157 182.376 202.493 182.424L204.301 182.68C204.637 182.728 204.605 182.92 204.605 183.032C204.605 183.16 204.541 183.432 204.541 183.88V186.616H206.221C206.525 186.616 206.637 186.552 206.781 186.552C206.909 186.552 207.053 186.712 207.053 186.856C207.053 187.112 206.573 187.496 206.221 187.496H204.541V190.616H206.221C206.525 190.616 206.637 190.552 206.781 190.552C206.909 190.552 207.053 190.712 207.053 190.856C207.053 191.112 206.573 191.496 206.221 191.496ZM208.708 188.376C208.708 186.664 210.212 186.008 212.068 186.008C213.94 186.008 215.46 186.664 215.46 188.376C215.46 190.088 213.94 190.728 212.068 190.728C210.212 190.728 208.708 190.088 208.708 188.376ZM218.26 191.736C218.532 191.736 218.9 192.024 218.9 192.232C218.9 192.376 218.852 192.584 218.852 193.016V194.472C218.852 194.728 218.628 195.096 218.26 195.096H212.036V196.328C212.036 196.568 212.148 196.696 212.388 196.696H218.628C218.932 196.696 219.124 196.616 219.268 196.616C219.396 196.616 219.54 196.776 219.54 196.92C219.54 197.176 219.012 197.56 218.628 197.56H212.004C211.299 197.56 210.932 197.096 210.932 196.456V195.576C210.932 195.08 210.884 194.92 210.244 194.84C209.892 194.792 210.02 194.232 210.292 194.232H217.748V192.696H212.404C211.908 192.696 211.572 192.776 211.316 192.776C211.044 192.776 210.692 192.6 210.324 192.2C210.068 191.944 210.34 191.576 210.628 191.704C210.9 191.832 211.556 191.832 212.404 191.832H217.332C217.86 191.816 218.036 191.736 218.26 191.736ZM218.948 183.88V186.904H220.628C220.932 186.904 221.044 186.84 221.188 186.84C221.316 186.84 221.46 187 221.46 187.144C221.46 187.4 220.98 187.784 220.628 187.784H218.948V189.928C218.948 190.552 218.74 191.144 218.244 191.144C218.004 191.144 217.844 190.904 217.844 190.328V184.184C217.844 183.432 217.524 183.224 216.708 183.016C216.404 182.936 216.564 182.376 216.9 182.424L218.708 182.68C219.044 182.728 219.012 182.92 219.012 183.032C219.012 183.16 218.948 183.432 218.948 183.88ZM209.844 188.392C209.844 189.496 210.868 189.864 212.068 189.864C213.316 189.864 214.34 189.496 214.34 188.392C214.34 187.256 213.316 186.888 212.068 186.888C210.868 186.888 209.844 187.256 209.844 188.392ZM215.46 185.368H209.844C209.348 185.368 209.012 185.448 208.756 185.448C208.484 185.448 208.132 185.256 207.764 184.856C207.524 184.6 207.78 184.232 208.068 184.376C208.34 184.504 208.996 184.504 209.844 184.504H215.46C215.748 184.504 215.876 184.44 216.02 184.44C216.148 184.44 216.292 184.584 216.292 184.728C216.292 185 215.812 185.368 215.46 185.368ZM212.004 183.688C211.22 183.688 210.436 183.704 209.764 183.08C209.508 182.84 209.764 182.408 210.068 182.536C210.34 182.664 210.932 182.744 212.004 182.744H213.892C214.02 182.744 214.148 182.936 214.148 183.112C214.148 183.384 213.332 183.688 212.004 183.688ZM231.642 184.2V188.376H233.626V184.168C233.626 183.416 233.498 183.224 232.682 183.016C232.378 182.936 232.538 182.376 232.874 182.424L234.442 182.664C234.778 182.712 234.746 182.904 234.746 183.016C234.746 183.144 234.682 183.416 234.682 183.864V195.848C234.682 196.472 234.474 197.032 234.01 197.032C233.802 197.032 233.626 196.792 233.626 196.232V189.24H231.642V195.224C231.642 195.848 231.434 196.408 230.986 196.408C230.778 196.408 230.602 196.168 230.602 195.608V191.912C229.706 192.36 228.714 192.68 227.61 192.84C227.082 192.92 226.746 192.616 226.602 192.2C225.866 192.568 225.002 192.776 224.01 192.84C223.306 192.888 222.938 192.376 222.938 191.736V186.28C222.938 185.72 222.89 185.544 222.346 185.464C221.994 185.416 222.138 184.84 222.394 184.84H224.778C225.082 184.84 225.194 184.776 225.338 184.776C225.466 184.776 225.61 184.936 225.61 185.08C225.61 185.336 225.13 185.72 224.778 185.72H223.994V191.512C223.994 191.752 224.106 191.88 224.346 191.88C225.002 191.88 225.786 191.768 226.538 191.544V186.28C226.538 185.72 226.506 185.544 226.058 185.464C225.706 185.4 225.85 184.84 226.106 184.84H228.874C229.178 184.84 229.29 184.776 229.434 184.776C229.562 184.776 229.706 184.936 229.706 185.08C229.706 185.336 229.226 185.72 228.874 185.72H227.594V191.512C227.594 191.752 227.706 191.896 227.946 191.88C228.794 191.8 229.658 191.576 230.602 191.24V184.488C230.602 183.768 230.506 183.576 229.722 183.368C229.434 183.288 229.578 182.744 229.914 182.792L231.402 183C231.738 183.048 231.706 183.24 231.706 183.352C231.706 183.48 231.642 183.752 231.642 184.2Z" fill="#ABB8CE"/>
<path d="M256.668 191.88H255.116L254.396 194.664C254.332 194.888 254.188 195 253.964 195H253.58C253.356 195 253.276 194.888 253.34 194.664L254.06 191.88H251.82L251.1 194.664C251.036 194.888 250.892 195 250.668 195H250.284C250.06 195 249.98 194.888 250.044 194.664L250.764 191.88H249.468C249.243 191.88 249.116 191.768 249.18 191.56L249.276 191.24C249.34 191.048 249.42 191 249.644 191H250.988L251.596 188.616H250.092C249.868 188.616 249.74 188.504 249.804 188.296L249.9 187.976C249.964 187.784 250.044 187.736 250.268 187.736H251.82L252.556 184.936C252.62 184.712 252.764 184.6 252.988 184.6H253.372C253.596 184.6 253.676 184.712 253.612 184.936L252.876 187.736H255.116L255.852 184.936C255.916 184.712 256.06 184.6 256.284 184.6H256.668C256.892 184.6 256.972 184.712 256.908 184.936L256.172 187.736H257.468C257.692 187.736 257.82 187.848 257.756 188.056L257.66 188.376C257.595 188.568 257.516 188.616 257.292 188.616H255.948L255.34 191H256.844C257.068 191 257.196 191.112 257.132 191.32L257.036 191.64C256.972 191.832 256.892 191.88 256.668 191.88ZM252.652 188.616L252.044 191H254.284L254.892 188.616H252.652ZM261.95 196.472V193.752C261.95 193.192 261.886 193.048 261.262 192.936C260.91 192.888 261.054 192.312 261.31 192.312H265.374V189.464H261.278C260.782 189.464 260.446 189.544 260.19 189.544C259.918 189.544 259.566 189.368 259.198 188.968C258.958 188.712 259.214 188.312 259.502 188.456C259.774 188.584 260.43 188.584 261.278 188.584H262.958C263.406 187.16 263.71 185.656 263.918 184.136H262.574C262.078 184.136 261.742 184.216 261.486 184.216C261.214 184.216 260.862 184.04 260.494 183.64C260.254 183.384 260.51 182.984 260.798 183.128C261.07 183.256 261.726 183.256 262.574 183.256H263.454C264.126 183.256 264.366 183.16 264.59 183.16C264.862 183.16 265.214 183.448 265.214 183.656C265.214 183.8 265.198 183.976 265.182 184.28C264.894 185.816 264.414 187.256 263.71 188.584H269.166C269.502 187.16 269.726 185.656 269.822 184.136H267.774C267.278 184.136 266.942 184.216 266.686 184.216C266.414 184.216 266.062 184.04 265.694 183.64C265.454 183.384 265.71 182.984 265.998 183.128C266.27 183.256 266.926 183.256 267.774 183.256H269.358C270.03 183.256 270.27 183.16 270.494 183.16C270.766 183.16 271.118 183.448 271.118 183.656C271.118 183.8 271.102 183.96 271.086 184.28C270.926 185.768 270.51 187.208 269.902 188.584H271.998C272.286 188.584 272.414 188.52 272.558 188.52C272.75 188.52 272.83 188.632 272.83 188.824C272.83 189.144 272.462 189.464 271.998 189.464H266.478V192.312H268.334C269.022 192.312 269.214 192.216 269.454 192.216C269.726 192.216 270.094 192.504 270.094 192.712C270.094 192.856 270.046 193.064 270.046 193.496V196.904V196.936C270.046 197.208 269.742 197.576 269.374 197.576H263.022C262.318 197.576 261.95 197.112 261.95 196.472ZM263.406 196.696H268.942V193.192H263.054V196.328C263.054 196.568 263.166 196.696 263.406 196.696ZM276.132 185.272C276.132 183.304 278.004 182.584 280.34 182.584C282.692 182.584 284.58 183.304 284.58 185.272C284.58 187.24 282.692 187.944 280.34 187.944C278.004 187.944 276.132 187.24 276.132 185.272ZM284.004 191.448C284.276 191.448 284.644 191.736 284.644 191.944C284.644 192.088 284.596 192.296 284.596 192.728V194.296V194.328C284.596 194.584 284.372 194.952 284.004 194.952H277.46V196.328C277.46 196.568 277.572 196.696 277.812 196.696H284.34C284.644 196.696 284.836 196.616 284.98 196.616C285.108 196.616 285.252 196.776 285.252 196.92C285.252 197.176 284.724 197.56 284.34 197.56H277.428C276.724 197.56 276.356 197.096 276.356 196.456V195.432C276.356 194.936 276.308 194.776 275.668 194.696C275.316 194.648 275.444 194.088 275.716 194.088H283.492V192.408H277.908C277.412 192.408 277.076 192.488 276.82 192.488C276.548 192.488 276.196 192.312 275.828 191.912C275.572 191.656 275.844 191.288 276.132 191.416C276.404 191.544 277.06 191.544 277.908 191.544H282.884C283.572 191.544 283.764 191.448 284.004 191.448ZM277.268 185.288C277.268 186.616 278.676 187.08 280.34 187.08C282.052 187.08 283.46 186.616 283.46 185.288C283.46 183.928 282.052 183.448 280.34 183.448C278.676 183.448 277.268 183.928 277.268 185.288ZM273.604 189.496C273.364 189.24 273.62 188.84 273.908 188.984C274.18 189.112 274.836 189.112 275.684 189.112H286.404C286.692 189.112 286.82 189.048 286.964 189.048C287.156 189.048 287.236 189.16 287.236 189.352C287.236 189.672 286.868 189.992 286.404 189.992H275.684C275.188 189.992 274.852 190.072 274.596 190.072C274.324 190.072 273.972 189.896 273.604 189.496ZM300.123 183.88V195.832C300.123 196.456 299.915 197.048 299.419 197.048C299.179 197.048 299.019 196.808 299.019 196.232V184.184C299.019 183.432 298.699 183.224 297.883 183.016C297.579 182.936 297.739 182.376 298.075 182.424L299.883 182.68C300.219 182.728 300.187 182.92 300.187 183.032C300.187 183.16 300.123 183.432 300.123 183.88ZM288.939 188.536C288.939 185.512 290.571 184.376 292.555 184.376C294.539 184.376 296.187 185.512 296.187 188.536C296.187 191.56 294.539 192.664 292.555 192.664C290.571 192.664 288.939 191.56 288.939 188.536ZM290.091 188.552C290.091 190.952 291.227 191.8 292.555 191.8C293.899 191.8 295.035 190.952 295.035 188.552C295.035 186.12 293.899 185.24 292.555 185.24C291.227 185.24 290.091 186.12 290.091 188.552ZM312.673 183.016C312.945 183.016 313.313 183.304 313.313 183.512C313.313 183.656 313.265 183.864 313.265 184.296V186.296C313.265 186.552 313.041 186.92 312.673 186.92H306.161V188.6C306.161 188.84 306.273 188.968 306.513 188.968H312.913C313.217 188.968 313.409 188.888 313.553 188.888C313.681 188.888 313.825 189.048 313.825 189.192C313.825 189.448 313.297 189.832 312.913 189.832H306.129C305.425 189.832 305.057 189.368 305.057 188.728V187.4C305.057 186.904 305.009 186.744 304.369 186.664C304.017 186.616 304.145 186.056 304.417 186.056H312.161V183.976H306.689C306.193 183.976 305.857 184.056 305.601 184.056C305.329 184.056 304.977 183.88 304.609 183.48C304.353 183.224 304.625 182.856 304.913 182.984C305.185 183.112 305.841 183.112 306.689 183.112H311.553C312.241 183.112 312.433 183.016 312.673 183.016ZM302.417 192.008C302.177 191.752 302.433 191.352 302.721 191.496C302.993 191.624 303.649 191.624 304.497 191.624H315.217C315.505 191.624 315.633 191.56 315.777 191.56C315.969 191.56 316.049 191.672 316.049 191.864C316.049 192.184 315.681 192.504 315.217 192.504H309.713V196.152C309.713 196.776 309.489 197.368 308.977 197.368C308.657 197.368 308.609 196.92 308.609 196.552V192.504H304.497C304.001 192.504 303.665 192.584 303.409 192.584C303.137 192.584 302.785 192.408 302.417 192.008ZM316.823 193.768C316.583 193.512 316.839 193.112 317.127 193.256C317.399 193.384 318.055 193.384 318.903 193.384H322.039V189.912C322.039 189.272 321.879 189.112 321.095 188.92C320.791 188.84 320.887 188.28 321.271 188.328L322.903 188.504C323.223 188.536 323.191 188.744 323.191 188.856C323.191 189 323.143 189.208 323.143 189.64V193.384H329.623C329.911 193.384 330.039 193.32 330.183 193.32C330.375 193.32 330.455 193.432 330.455 193.624C330.455 193.944 330.087 194.264 329.623 194.264H318.903C318.407 194.264 318.071 194.344 317.815 194.344C317.543 194.344 317.191 194.168 316.823 193.768ZM328.055 185.144C328.007 186.728 327.415 189.464 326.567 191.624C326.439 191.96 325.863 191.8 325.927 191.496C326.407 189.288 326.695 187.08 326.759 184.84H320.711C320.215 184.84 319.879 184.92 319.623 184.92C319.351 184.92 318.999 184.744 318.631 184.344C318.391 184.088 318.647 183.688 318.935 183.832C319.207 183.96 319.863 183.96 320.711 183.96H326.295C326.967 183.96 327.239 183.864 327.463 183.864C327.735 183.864 328.103 184.152 328.103 184.36C328.103 184.504 328.071 184.712 328.055 185.144ZM343.261 197.56H335.869C335.373 197.56 335.037 197.64 334.781 197.64C334.509 197.64 334.157 197.464 333.789 197.064C333.549 196.808 333.805 196.408 334.093 196.552C334.365 196.68 335.021 196.68 335.869 196.68H336.525V195.176C336.525 194.536 336.509 194.376 335.853 194.216C335.549 194.136 335.645 193.608 336.029 193.656L337.357 193.8C337.677 193.832 337.645 194.04 337.645 194.152C337.645 194.296 337.597 194.504 337.597 194.936V196.68H340.941V195.08C340.941 194.44 340.925 194.264 340.269 194.104C339.965 194.024 340.061 193.496 340.445 193.544L341.773 193.704C342.093 193.736 342.061 193.944 342.061 194.056C342.061 194.2 342.013 194.408 342.013 194.84V196.68H343.261C343.597 196.68 343.837 196.616 343.981 196.616C344.109 196.616 344.253 196.776 344.253 196.92C344.253 197.192 343.661 197.56 343.261 197.56ZM336.925 183.928C336.701 184.872 336.381 185.736 335.949 186.536C337.069 187.4 338.269 188.2 339.389 188.824C339.581 189 339.805 189.512 339.805 189.896C339.805 190.136 339.501 190.392 339.245 190.152C338.285 189.288 336.989 188.296 335.517 187.288C334.717 188.52 333.613 189.56 332.189 190.392C331.885 190.568 331.469 190.184 331.725 189.976C333.613 188.52 334.941 186.744 335.613 184.616C335.613 184.12 335.293 183.896 334.589 183.64C334.301 183.512 334.429 182.984 334.813 183.064L336.669 183.48C336.989 183.544 336.941 183.816 336.925 183.928ZM343.341 183.88V190.088C343.341 190.712 343.117 191.304 342.637 191.304C342.413 191.304 342.237 191.064 342.237 190.488V184.184C342.237 183.448 341.901 183.224 341.101 183.016C340.797 182.936 340.941 182.376 341.293 182.424L343.101 182.68C343.437 182.728 343.405 182.92 343.405 183.032C343.405 183.16 343.341 183.432 343.341 183.88ZM342.781 193.016H336.349C335.853 193.016 335.517 193.096 335.261 193.096C334.989 193.096 334.637 192.92 334.269 192.52C334.029 192.264 334.285 191.864 334.573 192.008C334.845 192.136 335.501 192.136 336.349 192.136H342.781C343.117 192.136 343.357 192.072 343.501 192.072C343.629 192.072 343.773 192.232 343.773 192.376C343.773 192.648 343.181 193.016 342.781 193.016ZM348.164 185.272C348.164 183.304 350.036 182.584 352.372 182.584C354.724 182.584 356.612 183.304 356.612 185.272C356.612 187.24 354.724 187.944 352.372 187.944C350.036 187.944 348.164 187.24 348.164 185.272ZM356.036 191.448C356.308 191.448 356.676 191.736 356.676 191.944C356.676 192.088 356.628 192.296 356.628 192.728V194.296V194.328C356.628 194.584 356.404 194.952 356.036 194.952H349.492V196.328C349.492 196.568 349.604 196.696 349.844 196.696H356.372C356.676 196.696 356.868 196.616 357.012 196.616C357.14 196.616 357.284 196.776 357.284 196.92C357.284 197.176 356.756 197.56 356.372 197.56H349.46C348.756 197.56 348.388 197.096 348.388 196.456V195.432C348.388 194.936 348.34 194.776 347.7 194.696C347.348 194.648 347.476 194.088 347.748 194.088H355.524V192.408H349.94C349.444 192.408 349.108 192.488 348.852 192.488C348.58 192.488 348.228 192.312 347.86 191.912C347.604 191.656 347.876 191.288 348.164 191.416C348.436 191.544 349.092 191.544 349.94 191.544H354.916C355.604 191.544 355.796 191.448 356.036 191.448ZM349.299 185.288C349.299 186.616 350.708 187.08 352.372 187.08C354.084 187.08 355.492 186.616 355.492 185.288C355.492 183.928 354.084 183.448 352.372 183.448C350.708 183.448 349.299 183.928 349.299 185.288ZM345.636 189.496C345.396 189.24 345.652 188.84 345.94 188.984C346.212 189.112 346.868 189.112 347.716 189.112H358.436C358.724 189.112 358.852 189.048 358.996 189.048C359.188 189.048 359.268 189.16 359.268 189.352C359.268 189.672 358.9 189.992 358.436 189.992H347.716C347.22 189.992 346.884 190.072 346.628 190.072C346.356 190.072 346.004 189.896 345.636 189.496ZM369.642 184.2V188.376H371.626V184.168C371.626 183.416 371.498 183.224 370.682 183.016C370.378 182.936 370.538 182.376 370.874 182.424L372.442 182.664C372.778 182.712 372.746 182.904 372.746 183.016C372.746 183.144 372.682 183.416 372.682 183.864V195.848C372.682 196.472 372.474 197.032 372.01 197.032C371.802 197.032 371.626 196.792 371.626 196.232V189.24H369.642V195.224C369.642 195.848 369.434 196.408 368.986 196.408C368.778 196.408 368.602 196.168 368.602 195.608V191.912C367.706 192.36 366.714 192.68 365.61 192.84C365.082 192.92 364.746 192.616 364.602 192.2C363.866 192.568 363.002 192.776 362.01 192.84C361.306 192.888 360.938 192.376 360.938 191.736V186.28C360.938 185.72 360.89 185.544 360.346 185.464C359.994 185.416 360.138 184.84 360.394 184.84H362.778C363.082 184.84 363.194 184.776 363.338 184.776C363.466 184.776 363.61 184.936 363.61 185.08C363.61 185.336 363.13 185.72 362.778 185.72H361.994V191.512C361.994 191.752 362.106 191.88 362.346 191.88C363.002 191.88 363.786 191.768 364.538 191.544V186.28C364.538 185.72 364.506 185.544 364.058 185.464C363.706 185.4 363.85 184.84 364.106 184.84H366.874C367.178 184.84 367.29 184.776 367.434 184.776C367.562 184.776 367.706 184.936 367.706 185.08C367.706 185.336 367.226 185.72 366.874 185.72H365.594V191.512C365.594 191.752 365.706 191.896 365.946 191.88C366.794 191.8 367.658 191.576 368.602 191.24V184.488C368.602 183.768 368.506 183.576 367.722 183.368C367.434 183.288 367.578 182.744 367.914 182.792L369.402 183C369.738 183.048 369.706 183.24 369.706 183.352C369.706 183.48 369.642 183.752 369.642 184.2Z" fill="#ABB8CE"/>
<g filter="url(#filter1_d_0_6492)">
<g clip-path="url(#clip2_0_6492)">
<rect x="-10" y="222" width="384" height="146" rx="16" fill="white"/>
<line x1="-10" y1="222.5" x2="374" y2="222.5" stroke="#F2F2F2"/>
</g>
<rect x="-9.5" y="222.5" width="383" height="145" rx="15.5" stroke="#F2F2F2"/>
</g>
</g>
<rect x="0.5" y="0.5" width="383" height="239" rx="15.5" stroke="#D2D9E3"/>
<defs>
<filter id="filter0_d_0_6492" x="-22" y="13" width="408" height="170" filterUnits="userSpaceOnUse" color-interpolation-filters="sRGB">
<feFlood flood-opacity="0" result="BackgroundImageFix"/>
<feColorMatrix in="SourceAlpha" type="matrix" values="0 0 0 0 0 0 0 0 0 0 0 0 0 0 0 0 0 0 127 0" result="hardAlpha"/>
<feOffset dy="3"/>
<feGaussianBlur stdDeviation="6"/>
<feComposite in2="hardAlpha" operator="out"/>
<feColorMatrix type="matrix" values="0 0 0 0 0 0 0 0 0 0 0 0 0 0 0 0 0 0 0.04 0"/>
<feBlend mode="normal" in2="BackgroundImageFix" result="effect1_dropShadow_0_6492"/>
<feBlend mode="normal" in="SourceGraphic" in2="effect1_dropShadow_0_6492" result="shape"/>
</filter>
<filter id="filter1_d_0_6492" x="-22" y="213" width="408" height="170" filterUnits="userSpaceOnUse" color-interpolation-filters="sRGB">
<feFlood flood-opacity="0" result="BackgroundImageFix"/>
<feColorMatrix in="SourceAlpha" type="matrix" values="0 0 0 0 0 0 0 0 0 0 0 0 0 0 0 0 0 0 127 0" result="hardAlpha"/>
<feOffset dy="3"/>
<feGaussianBlur stdDeviation="6"/>
<feComposite in2="hardAlpha" operator="out"/>
<feColorMatrix type="matrix" values="0 0 0 0 0 0 0 0 0 0 0 0 0 0 0 0 0 0 0.04 0"/>
<feBlend mode="normal" in2="BackgroundImageFix" result="effect1_dropShadow_0_6492"/>
<feBlend mode="normal" in="SourceGraphic" in2="effect1_dropShadow_0_6492" result="shape"/>
</filter>
<clipPath id="clip0_0_6492">
<rect width="384" height="240" rx="16" fill="white"/>
</clipPath>
<clipPath id="clip1_0_6492">
<rect x="-10" y="22" width="384" height="146" rx="16" fill="white"/>
</clipPath>
<clipPath id="clip2_0_6492">
<rect x="-10" y="222" width="384" height="146" rx="16" fill="white"/>
</clipPath>
</defs>
</svg>
