<svg width="20" height="20" viewBox="0 0 20 20" fill="none" xmlns="http://www.w3.org/2000/svg">
<path fill-rule="evenodd" clip-rule="evenodd" d="M14.9621 5.30861C14.9377 5.24964 14.9015 5.19439 14.8536 5.14645C14.8056 5.09851 14.7504 5.06234 14.6914 5.03794C14.6324 5.01349 14.5678 5 14.5 5H14.4999H11.5C11.2239 5 11 5.22386 11 5.5C11 5.77614 11.2239 6 11.5 6H13.2929L8.64645 10.6464C8.45118 10.8417 8.45118 11.1583 8.64645 11.3536C8.84171 11.5488 9.15829 11.5488 9.35355 11.3536L14 6.70711V8.5C14 8.77614 14.2239 9 14.5 9C14.7761 9 15 8.77614 15 8.5V5.5C15 5.43221 14.9865 5.36756 14.9621 5.30861ZM6.5 7.5C6.36739 7.5 6.24021 7.55268 6.14645 7.64645C6.05268 7.74021 6 7.86739 6 8V13.5C6 13.6326 6.05268 13.7598 6.14645 13.8536C6.24021 13.9473 6.36739 14 6.5 14H12C12.1326 14 12.2598 13.9473 12.3536 13.8536C12.4473 13.7598 12.5 13.6326 12.5 13.5V10.5C12.5 10.2239 12.7239 10 13 10C13.2761 10 13.5 10.2239 13.5 10.5V13.5C13.5 13.8978 13.342 14.2794 13.0607 14.5607C12.7794 14.842 12.3978 15 12 15H6.5C6.10217 15 5.72064 14.842 5.43934 14.5607C5.15804 14.2794 5 13.8978 5 13.5V8C5 7.60218 5.15804 7.22064 5.43934 6.93934C5.72064 6.65804 6.10218 6.5 6.5 6.5H9.5C9.77614 6.5 10 6.72386 10 7C10 7.27614 9.77614 7.5 9.5 7.5H6.5Z" fill="#ABABAB"/>
</svg>
