<svg width="32" height="32" viewBox="0 0 32 32" fill="none" xmlns="http://www.w3.org/2000/svg">
<g clip-path="url(#clip0_0_9814)">
<path d="M16 32C24.8366 32 32 24.8366 32 16C32 7.16344 24.8366 0 16 0C7.16344 0 0 7.16344 0 16C0 24.8366 7.16344 32 16 32Z" fill="#FBC85B"/>
<path d="M11.875 14.5C12.8415 14.5 13.625 13.7165 13.625 12.75C13.625 11.7835 12.8415 11 11.875 11C10.9085 11 10.125 11.7835 10.125 12.75C10.125 13.7165 10.9085 14.5 11.875 14.5Z" fill="#3E414D"/>
<path d="M20.125 14.5C21.0915 14.5 21.875 13.7165 21.875 12.75C21.875 11.7835 21.0915 11 20.125 11C19.1585 11 18.375 11.7835 18.375 12.75C18.375 13.7165 19.1585 14.5 20.125 14.5Z" fill="#3E414D"/>
<path d="M23 19.9375C21.6756 22.3914 19.0518 24.0625 16.0312 24.0625C13.0107 24.0625 10.3869 22.3914 9.0625 19.9375" stroke="#9A695E" stroke-width="2.15054" stroke-linecap="round"/>
</g>
<defs>
<clipPath id="clip0_0_9814">
<rect width="32" height="32" fill="white"/>
</clipPath>
</defs>
</svg>
