<svg width="32" height="32" viewBox="0 0 32 32" fill="none" xmlns="http://www.w3.org/2000/svg">
<g clip-path="url(#clip0_0_9798)">
<path d="M16 32C24.8366 32 32 24.8366 32 16C32 7.16344 24.8366 0 16 0C7.16344 0 0 7.16344 0 16C0 24.8366 7.16344 32 16 32Z" fill="#FBC85B"/>
<path d="M21.8103 21.7776C21.7958 22.5118 21.1514 24.2955 18.8702 25.4008C17.9754 25.8363 16.9941 26.0625 16 26.0625C15.0059 26.0625 14.0246 25.8363 13.1298 25.4008C10.8446 24.2995 10.2042 22.5118 10.1897 21.7776C10.1633 21.3654 10.3742 20.8724 10.9329 21.0301C11.8449 21.3641 13.276 21.5602 14.3857 21.6623C15.4595 21.7643 16.5405 21.7643 17.6143 21.6623C18.724 21.5562 20.1551 21.3641 21.0671 21.0301C21.6258 20.8724 21.8367 21.3654 21.8103 21.7776Z" fill="#9A695E"/>
<path d="M17.6765 10.0602C17.445 10.9293 17.5549 11.8106 18.0259 12.8363C18.4454 13.7541 19.1351 14.755 19.9347 15.9136C20.2076 16.3094 20.5152 16.759 20.8337 17.2327C20.9183 17.358 21.045 17.4489 21.1908 17.4887C21.3376 17.5292 21.4941 17.5138 21.6301 17.4454C22.144 17.1927 22.6254 16.9533 23.0699 16.753C24.3416 16.1485 25.4394 15.6267 26.2615 15.0434C27.1817 14.3889 27.718 13.6816 27.9517 12.8119C28.1824 12.0057 28.0999 11.1421 27.7208 10.3941C27.5366 10.0394 27.2798 9.72749 26.9673 9.47843C26.6547 9.22937 26.2933 9.04876 25.9065 8.94833C25.3195 8.78754 24.6951 8.83233 24.1371 9.07528C23.8354 9.20246 23.5537 9.37284 23.301 9.58109C23.1863 9.27451 23.0285 8.98584 22.8324 8.7238C22.4699 8.23815 21.9538 7.88942 21.368 7.73432C20.9825 7.62864 20.5793 7.60469 20.1841 7.66401C19.7889 7.72332 19.4104 7.86459 19.073 8.07874C18.3752 8.54044 17.8767 9.2478 17.6765 10.0602Z" fill="#E46E80"/>
<path d="M12.9234 8.08763C12.586 7.87347 12.2076 7.73221 11.8123 7.67289C11.4171 7.61358 11.0139 7.63753 10.6284 7.7432C10.0426 7.89831 9.52652 8.24704 9.16404 8.73269C8.96788 8.99473 8.81008 9.2834 8.69538 9.58997C8.44269 9.38173 8.16105 9.21135 7.85932 9.08417C7.30127 8.84122 6.67693 8.79642 6.08991 8.95721C5.70309 9.05765 5.34168 9.23825 5.02912 9.48731C4.71657 9.73637 4.45983 10.0483 4.27557 10.403C3.89648 11.151 3.81404 12.0146 4.04475 12.8208C4.27837 13.6905 4.81473 14.3977 5.73491 15.0523C6.55699 15.6355 7.65476 16.1574 8.9265 16.7619C9.36037 16.9683 9.85241 17.2016 10.3663 17.4543C10.5023 17.5226 10.6588 17.5381 10.8056 17.4976C10.9514 17.4577 11.0781 17.3669 11.1627 17.2416C11.4812 16.7679 11.7888 16.3183 12.0617 15.9225C12.8613 14.7639 13.5426 13.7607 13.9706 12.8452C14.4415 11.8195 14.5514 10.9382 14.3199 10.0691C14.1198 9.25669 13.6212 8.54933 12.9234 8.08763Z" fill="#E46E80"/>
</g>
<defs>
<clipPath id="clip0_0_9798">
<rect width="32" height="32" fill="white"/>
</clipPath>
</defs>
</svg>
