<svg width="101" height="26" viewBox="0 0 101 26" fill="none" xmlns="http://www.w3.org/2000/svg">
<path d="M19.6797 8.73365L12.9233 5.44873C12.7556 5.36721 12.5607 5.36286 12.3895 5.43683L4.76102 8.73365L12.362 12.4292C12.5484 12.5198 12.7672 12.5146 12.949 12.4151L19.6797 8.73365Z" fill="#2B2B2B"/>
<path d="M4.76102 8.73365L12.362 12.4292C12.5484 12.5198 12.7672 12.5146 12.949 12.4151L19.6797 8.73365L12.9233 5.44873C12.7556 5.36721 12.5607 5.36286 12.3895 5.43683L4.76102 8.73365ZM4.76102 8.73365C4.76102 8.73365 4.35584 9.75408 4.32224 10.4403C4.28068 11.289 4.76102 12.5736 4.76102 12.5736M19.6797 12.5736L12.949 16.2551C12.7672 16.3546 12.5484 16.3598 12.362 16.2692L4.76102 12.5736M4.76102 12.5736C4.76102 12.5736 4.32224 13.8574 4.32224 14.707C4.32224 15.5566 4.76102 16.8403 4.76102 16.8403L12.362 20.5359C12.5484 20.6265 12.7672 20.6212 12.949 20.5218L19.6797 16.8403" stroke="#2B2B2B" stroke-width="1.92" stroke-linecap="round" stroke-linejoin="round"/>
<path d="M32.368 11.96H37.36V14.68H32.368V11.96ZM32.624 16.152H38.224V19H28.912V7.8H38.016V10.648H32.624V16.152ZM45.4056 19.16C44.6483 19.16 44.019 19 43.5176 18.68C43.027 18.3493 42.6643 17.8533 42.4296 17.192C42.195 16.52 42.0776 15.6667 42.0776 14.632C42.0776 13.576 42.1843 12.7173 42.3976 12.056C42.6216 11.384 42.979 10.888 43.4696 10.568C43.9603 10.248 44.6056 10.088 45.4056 10.088C46.1736 10.088 46.8776 10.2747 47.5176 10.648C48.1576 11.0107 48.6696 11.5333 49.0536 12.216C49.4376 12.888 49.6296 13.6933 49.6296 14.632C49.6296 15.5707 49.4376 16.3813 49.0536 17.064C48.6696 17.736 48.1576 18.2533 47.5176 18.616C46.8776 18.9787 46.1736 19.16 45.4056 19.16ZM39.5656 22.104V10.248H43.0056V11.432L43.0216 14.632L43.1816 17.832V22.104H39.5656ZM44.5416 16.344C44.8083 16.344 45.0483 16.28 45.2616 16.152C45.475 16.024 45.6456 15.832 45.7736 15.576C45.9016 15.32 45.9656 15.0053 45.9656 14.632C45.9656 14.248 45.9016 13.928 45.7736 13.672C45.6456 13.416 45.475 13.224 45.2616 13.096C45.0483 12.968 44.8083 12.904 44.5416 12.904C44.275 12.904 44.035 12.968 43.8216 13.096C43.6083 13.224 43.4376 13.416 43.3096 13.672C43.1816 13.928 43.1176 14.248 43.1176 14.632C43.1176 15.0053 43.1816 15.32 43.3096 15.576C43.4376 15.832 43.6083 16.024 43.8216 16.152C44.035 16.28 44.275 16.344 44.5416 16.344ZM50.7688 19V10.248H54.3848V19H50.7688ZM52.5768 9.544C51.9154 9.544 51.3874 9.368 50.9928 9.016C50.5981 8.664 50.4008 8.22667 50.4008 7.704C50.4008 7.18133 50.5981 6.744 50.9928 6.392C51.3874 6.04 51.9154 5.864 52.5768 5.864C53.2381 5.864 53.7661 6.02933 54.1608 6.36C54.5554 6.69067 54.7528 7.11733 54.7528 7.64C54.7528 8.19467 54.5554 8.65333 54.1608 9.016C53.7661 9.368 53.2381 9.544 52.5768 9.544ZM60.4355 22.264C59.5715 22.264 58.7608 22.1733 58.0035 21.992C57.2462 21.8107 56.5955 21.5387 56.0515 21.176L57.2675 18.712C57.6088 18.9787 58.0408 19.1867 58.5635 19.336C59.0968 19.496 59.5982 19.576 60.0675 19.576C60.8142 19.576 61.3475 19.416 61.6675 19.096C61.9875 18.7867 62.1475 18.3387 62.1475 17.752V17.016L62.3075 14.296L62.3235 11.576V10.248H65.7635V17.256C65.7635 18.952 65.2942 20.2107 64.3555 21.032C63.4168 21.8533 62.1102 22.264 60.4355 22.264ZM59.7315 18.52C58.9955 18.52 58.3075 18.3493 57.6675 18.008C57.0275 17.656 56.5102 17.1653 56.1155 16.536C55.7208 15.9067 55.5235 15.16 55.5235 14.296C55.5235 13.432 55.7208 12.6853 56.1155 12.056C56.5102 11.4267 57.0275 10.9413 57.6675 10.6C58.3075 10.2587 58.9955 10.088 59.7315 10.088C60.4888 10.088 61.1075 10.2373 61.5875 10.536C62.0782 10.8347 62.4408 11.2987 62.6755 11.928C62.9102 12.5467 63.0275 13.336 63.0275 14.296C63.0275 15.256 62.9102 16.0507 62.6755 16.68C62.4408 17.2987 62.0782 17.7627 61.5875 18.072C61.1075 18.3707 60.4888 18.52 59.7315 18.52ZM60.6915 15.704C60.9795 15.704 61.2355 15.6453 61.4595 15.528C61.6835 15.4107 61.8595 15.2453 61.9875 15.032C62.1155 14.8187 62.1795 14.5733 62.1795 14.296C62.1795 14.008 62.1155 13.7627 61.9875 13.56C61.8595 13.3467 61.6835 13.1867 61.4595 13.08C61.2355 12.9627 60.9795 12.904 60.6915 12.904C60.4142 12.904 60.1582 12.9627 59.9235 13.08C59.6995 13.1867 59.5182 13.3467 59.3795 13.56C59.2515 13.7627 59.1875 14.008 59.1875 14.296C59.1875 14.5733 59.2515 14.8187 59.3795 15.032C59.5182 15.2453 59.6995 15.4107 59.9235 15.528C60.1582 15.6453 60.4142 15.704 60.6915 15.704ZM67.3625 19V10.248H70.8025V12.888L70.2425 12.136C70.5092 11.4533 70.9358 10.9413 71.5225 10.6C72.1092 10.2587 72.8132 10.088 73.6345 10.088V13.288C73.4745 13.2667 73.3305 13.2507 73.2025 13.24C73.0852 13.2293 72.9625 13.224 72.8345 13.224C72.2905 13.224 71.8425 13.368 71.4905 13.656C71.1492 13.9333 70.9785 14.4187 70.9785 15.112V19H67.3625ZM79.471 19V17.448L79.215 17.032V14.088C79.215 13.6613 79.0817 13.336 78.815 13.112C78.559 12.888 78.1377 12.776 77.551 12.776C77.1563 12.776 76.7563 12.84 76.351 12.968C75.9457 13.0853 75.599 13.2507 75.311 13.464L74.159 11.08C74.671 10.76 75.2843 10.5147 75.999 10.344C76.7137 10.1733 77.4123 10.088 78.095 10.088C79.599 10.088 80.7617 10.424 81.583 11.096C82.415 11.768 82.831 12.8347 82.831 14.296V19H79.471ZM76.991 19.16C76.2763 19.16 75.679 19.0373 75.199 18.792C74.719 18.5467 74.3563 18.2213 74.111 17.816C73.8657 17.4 73.743 16.9413 73.743 16.44C73.743 15.8747 73.887 15.3947 74.175 15C74.463 14.6053 74.9003 14.3067 75.487 14.104C76.0843 13.9013 76.8363 13.8 77.743 13.8H79.567V15.544H78.319C77.935 15.544 77.6523 15.608 77.471 15.736C77.3003 15.8533 77.215 16.0347 77.215 16.28C77.215 16.4827 77.2897 16.6533 77.439 16.792C77.599 16.92 77.8123 16.984 78.079 16.984C78.3243 16.984 78.5483 16.92 78.751 16.792C78.9643 16.6533 79.119 16.44 79.215 16.152L79.679 17.224C79.5403 17.8747 79.247 18.36 78.799 18.68C78.351 19 77.7483 19.16 76.991 19.16ZM95.9778 10.088C96.6391 10.088 97.2311 10.2267 97.7538 10.504C98.2871 10.7707 98.7031 11.192 99.0018 11.768C99.3111 12.344 99.4658 13.0907 99.4658 14.008V19H95.8498V14.632C95.8498 14.088 95.7591 13.704 95.5778 13.48C95.3964 13.2453 95.1618 13.128 94.8738 13.128C94.6604 13.128 94.4684 13.1813 94.2978 13.288C94.1271 13.3947 93.9884 13.5653 93.8818 13.8C93.7858 14.024 93.7378 14.3333 93.7378 14.728V19H90.1218V14.632C90.1218 14.088 90.0364 13.704 89.8658 13.48C89.6951 13.2453 89.4551 13.128 89.1458 13.128C88.9324 13.128 88.7404 13.1813 88.5698 13.288C88.3991 13.3947 88.2604 13.5653 88.1538 13.8C88.0578 14.024 88.0098 14.3333 88.0098 14.728V19H84.3938V10.248H87.8338V12.76L87.1298 12.056C87.4604 11.3947 87.9031 10.904 88.4578 10.584C89.0124 10.2533 89.6311 10.088 90.3138 10.088C91.0818 10.088 91.7591 10.2907 92.3458 10.696C92.9431 11.0907 93.3431 11.72 93.5458 12.584L92.4418 12.408C92.7618 11.6827 93.2258 11.1173 93.8338 10.712C94.4524 10.296 95.1671 10.088 95.9778 10.088Z" fill="#2B2B2B"/>
</svg>
