<svg width="184" height="105" viewBox="0 0 184 105" fill="none" xmlns="http://www.w3.org/2000/svg">
<path d="M64.2218 39.264C64.2218 39.744 64.0298 40.128 63.7418 40.464C63.3578 40.752 62.9738 40.896 62.5418 40.896H30.9578C27.6938 40.896 26.1098 39.264 26.1098 36V29.376C26.1098 28.944 26.2538 28.56 26.5898 28.224C26.8778 27.936 27.2618 27.792 27.7418 27.792H53.3258V26.448H27.5498C27.0698 26.448 26.6858 26.304 26.3978 25.968C26.0618 25.68 25.9178 25.344 25.9178 24.864V21.888C25.9178 21.456 26.0618 21.072 26.3978 20.736C26.6858 20.448 27.0698 20.304 27.5498 20.304H62.3018C62.7338 20.304 63.1178 20.496 63.5018 20.784C63.7898 21.168 63.9818 21.552 63.9818 21.984V31.824C63.9818 32.304 63.7898 32.64 63.5018 32.928C63.1178 33.264 62.7338 33.408 62.3018 33.408H36.8618V34.656H62.5418C62.9738 34.656 63.3578 34.8 63.7418 35.136C64.0298 35.424 64.2218 35.808 64.2218 36.288V39.264ZM30.0938 18.672C28.3658 18.672 27.0218 18.24 26.1098 17.376C25.1498 16.56 24.7178 15.216 24.7178 13.392V2.112C24.7178 1.68 24.8618 1.296 25.1978 0.960002C25.4858 0.672 25.8218 0.480002 26.3018 0.480002H33.8378C34.2698 0.480002 34.6538 0.672 34.9898 0.960002C35.2778 1.296 35.4698 1.68 35.4698 2.112V11.232H49.5338C49.9658 11.232 50.3498 11.424 50.6858 11.712C50.9738 12.096 51.1658 12.48 51.1658 12.96V17.04C51.1658 17.52 50.9738 17.904 50.6858 18.192C50.3498 18.528 49.9658 18.672 49.5338 18.672H30.0938ZM62.3498 0C62.7818 0 63.1658 0.192 63.5018 0.480002C63.7898 0.816001 63.9818 1.2 63.9818 1.632V5.184H67.1978C67.6298 5.184 68.0138 5.376 68.3498 5.664C68.6378 6.048 68.8298 6.432 68.8298 6.912V11.808C68.8298 12.288 68.6378 12.672 68.3498 12.96C68.0138 13.296 67.6298 13.44 67.1978 13.44H63.9818V17.472C63.9818 17.952 63.7898 18.336 63.5018 18.624C63.1658 18.96 62.7818 19.104 62.3498 19.104H55.1498C54.6698 19.104 54.2858 18.96 53.9978 18.624C53.6618 18.336 53.5178 17.952 53.5178 17.472V1.632C53.5178 1.2 53.6618 0.816001 53.9978 0.480002C54.2858 0.192 54.6698 0 55.1498 0H62.3498Z" fill="#373737"/>
<path d="M96.6443 0.960002C97.1243 0.960002 97.5083 1.152 97.8443 1.44C98.1323 1.776 98.3243 2.16 98.3243 2.592V31.776C98.3243 34.464 97.6523 36.48 96.3563 37.872C95.0123 39.216 92.9003 39.936 90.1163 39.936H80.1323C74.6123 39.936 71.8763 37.2 71.8763 31.776V2.592C71.8763 2.16 72.0203 1.776 72.4043 1.44C72.6923 1.152 73.0763 0.960002 73.5563 0.960002H96.6443ZM82.0523 31.776H88.2443V9.12H82.0523V31.776ZM109.508 0.480002C109.94 0.480002 110.324 0.672 110.66 0.960002C110.948 1.296 111.14 1.68 111.14 2.112V13.824H114.356C114.788 13.824 115.172 14.016 115.508 14.304C115.796 14.688 115.988 15.072 115.988 15.552V21.408C115.988 21.888 115.796 22.272 115.508 22.56C115.172 22.896 114.788 23.04 114.356 23.04H111.14V39.744C111.14 40.224 110.948 40.608 110.66 40.944C110.324 41.232 109.94 41.376 109.508 41.376H102.26C101.78 41.376 101.444 41.232 101.156 40.944C100.82 40.608 100.676 40.224 100.676 39.744V2.112C100.676 1.68 100.82 1.296 101.156 0.960002C101.444 0.672 101.78 0.480002 102.26 0.480002H109.508Z" fill="#373737"/>
<path d="M143.275 0.960002C143.707 0.960002 144.091 1.152 144.427 1.44C144.715 1.824 144.907 2.208 144.907 2.688V7.488C144.907 7.968 144.715 8.352 144.427 8.64C144.091 8.976 143.707 9.12 143.275 9.12H129.115V31.776H144.235C144.667 31.776 145.051 31.968 145.387 32.256C145.675 32.64 145.867 33.024 145.867 33.504V38.304C145.867 38.736 145.675 39.12 145.387 39.456C145.051 39.744 144.667 39.936 144.235 39.936H127.195C121.675 39.936 118.939 37.2 118.939 31.776V2.592C118.939 2.16 119.083 1.776 119.467 1.44C119.755 1.152 120.139 0.960002 120.619 0.960002H143.275ZM156.571 0.480002C157.003 0.480002 157.387 0.672 157.723 0.960002C158.011 1.296 158.203 1.68 158.203 2.112V13.824H161.419C161.851 13.824 162.235 14.016 162.571 14.304C162.859 14.688 163.051 15.072 163.051 15.552V21.408C163.051 21.888 162.859 22.272 162.571 22.56C162.235 22.896 161.851 23.04 161.419 23.04H158.203V39.744C158.203 40.224 158.011 40.608 157.723 40.944C157.387 41.232 157.003 41.376 156.571 41.376H149.323C148.843 41.376 148.507 41.232 148.219 40.944C147.883 40.608 147.739 40.224 147.739 39.744V2.112C147.739 1.68 147.883 1.296 148.219 0.960002C148.507 0.672 148.843 0.480002 149.323 0.480002H156.571Z" fill="#373737"/>
<path d="M32.488 63.48C32.92 63.48 33.304 63.672 33.64 63.96C33.928 64.296 34.12 64.68 34.12 65.112V102.36C34.12 102.84 33.928 103.224 33.64 103.56C33.304 103.848 32.92 103.992 32.488 103.992H26.584C26.104 103.992 25.768 103.848 25.48 103.56C25.144 103.224 25 102.84 25 102.36V85.8H22.36V92.568C22.36 94.104 22.168 95.448 21.784 96.696C21.4 97.944 20.824 99.048 20.104 100.008C19.336 100.92 18.424 101.64 17.32 102.168C16.168 102.648 14.824 102.936 13.384 102.936H9.928C8.392 102.936 7.096 102.648 5.992 102.168C4.84 101.64 3.928 100.92 3.208 100.008C2.44 99.048 1.912 97.944 1.576 96.696C1.192 95.448 1 94.104 1 92.568V73.896C1 72.408 1.192 71.016 1.576 69.72C1.912 68.472 2.44 67.368 3.208 66.408C3.928 65.496 4.84 64.776 5.992 64.248C7.096 63.768 8.392 63.48 9.928 63.48H13.384C14.824 63.48 16.168 63.768 17.32 64.248C18.424 64.776 19.336 65.496 20.104 66.408C20.824 67.368 21.4 68.472 21.784 69.72C22.168 71.016 22.36 72.408 22.36 73.896V76.584H25V65.112C25 64.68 25.144 64.296 25.48 63.96C25.768 63.672 26.104 63.48 26.584 63.48H32.488ZM43.624 63.48C44.056 63.48 44.44 63.672 44.776 63.96C45.064 64.296 45.256 64.68 45.256 65.112V102.744C45.256 103.224 45.064 103.608 44.776 103.944C44.44 104.232 44.056 104.376 43.624 104.376H37.624C37.144 104.376 36.808 104.232 36.52 103.944C36.184 103.608 36.04 103.224 36.04 102.744V65.112C36.04 64.68 36.184 64.296 36.52 63.96C36.808 63.672 37.144 63.48 37.624 63.48H43.624ZM11.656 71.64C11.176 71.64 10.792 71.832 10.456 72.168C10.072 72.552 9.88 73.272 9.88 74.424V92.04C9.88 93.192 10.072 93.912 10.456 94.248C10.792 94.632 11.176 94.776 11.656 94.776H11.896C12.328 94.776 12.76 94.632 13.144 94.248C13.528 93.912 13.72 93.192 13.72 92.04V74.424C13.72 73.272 13.528 72.552 13.144 72.168C12.76 71.832 12.328 71.64 11.896 71.64H11.656Z" fill="#373737"/>
<path d="M50.8608 102.936C50.3808 102.936 49.9967 102.744 49.7087 102.456C49.3727 102.12 49.2288 101.736 49.2288 101.304V96.504C49.2288 96.024 49.3727 95.64 49.7087 95.256C49.9967 94.968 50.3808 94.776 50.8608 94.776H52.1087V72.12H51.3408C50.8608 72.12 50.4767 71.976 50.1888 71.64C49.8527 71.352 49.7087 70.968 49.7087 70.488V65.688C49.7087 65.208 49.8527 64.824 50.1888 64.44C50.4767 64.152 50.8608 63.96 51.3408 63.96H74.5247C74.9568 63.96 75.3408 64.152 75.6768 64.44C75.9648 64.824 76.1568 65.208 76.1568 65.688V70.488C76.1568 70.968 75.9648 71.352 75.6768 71.64C75.3408 71.976 74.9568 72.12 74.5247 72.12H73.7568V94.776H75.0048C75.4368 94.776 75.8208 94.968 76.1568 95.256C76.4447 95.64 76.6368 96.024 76.6368 96.504V101.304C76.6368 101.736 76.4447 102.12 76.1568 102.456C75.8208 102.744 75.4368 102.936 75.0048 102.936H50.8608ZM88.3008 63.48C88.7327 63.48 89.1168 63.672 89.4528 63.96C89.7408 64.296 89.9328 64.68 89.9328 65.112V102.744C89.9328 103.224 89.7408 103.608 89.4528 103.944C89.1168 104.232 88.7327 104.376 88.3008 104.376H81.0528C80.5728 104.376 80.2368 104.232 79.9488 103.944C79.6128 103.608 79.4688 103.224 79.4688 102.744V65.112C79.4688 64.68 79.6128 64.296 79.9488 63.96C80.2368 63.672 80.5728 63.48 81.0528 63.48H88.3008ZM61.3247 94.776H64.7808V72.12H61.3247V94.776Z" fill="#373737"/>
<path d="M97.1178 72.6C96.6377 72.6 96.2538 72.456 95.9658 72.12C95.6298 71.832 95.4857 71.448 95.4857 70.968V65.208C95.4857 64.728 95.6298 64.344 95.9658 63.96C96.2538 63.672 96.6377 63.48 97.1178 63.48H132.206C132.686 63.48 133.07 63.672 133.406 63.96C133.694 64.296 133.886 64.68 133.886 65.112V88.344C133.886 88.824 133.694 89.208 133.406 89.496C133.07 89.832 132.686 89.976 132.254 89.976H125.15C124.67 89.976 124.238 89.832 123.95 89.496C123.566 89.208 123.422 88.824 123.422 88.344V72.6H97.1178ZM133.982 95.544C134.414 95.544 134.798 95.736 135.134 96.024C135.422 96.36 135.566 96.744 135.566 97.176V102.264C135.566 102.744 135.422 103.128 135.134 103.464C134.798 103.752 134.414 103.896 133.982 103.896H95.3897C94.9097 103.896 94.5737 103.752 94.2858 103.464C93.9497 103.128 93.8057 102.744 93.8057 102.264V97.176C93.8057 96.744 93.9497 96.36 94.2858 96.024C94.5737 95.736 94.9097 95.544 95.3897 95.544H133.982Z" fill="#373737"/>
<path d="M159.874 74.568C159.874 75.048 159.682 75.432 159.394 75.72C159.058 76.056 158.674 76.2 158.242 76.2H147.874V77.256H159.202C159.634 77.256 160.018 77.448 160.354 77.736C160.642 78.12 160.834 78.504 160.834 78.984V81.96C160.834 82.44 160.642 82.824 160.354 83.112C160.018 83.448 159.634 83.592 159.202 83.592H144.85C143.122 83.592 141.778 83.16 140.866 82.296C139.906 81.48 139.474 80.136 139.474 78.312V72.456C139.474 71.976 139.618 71.592 139.954 71.208C140.242 70.92 140.626 70.728 141.106 70.728H151.666V69.72H140.866C140.386 69.72 140.002 69.576 139.714 69.24C139.378 68.952 139.234 68.568 139.234 68.088V65.208C139.234 64.728 139.378 64.344 139.714 63.96C140.002 63.672 140.386 63.48 140.866 63.48H158.194C158.626 63.48 159.01 63.672 159.394 63.96C159.682 64.296 159.874 64.68 159.874 65.112V74.568ZM170.146 63C170.578 63 170.962 63.192 171.298 63.48C171.586 63.816 171.778 64.2 171.778 64.632V68.664H174.034V64.632C174.034 64.2 174.178 63.816 174.514 63.48C174.802 63.192 175.138 63 175.618 63H181.858C182.29 63 182.674 63.192 183.01 63.48C183.298 63.816 183.49 64.2 183.49 64.632V82.152C183.49 82.632 183.298 83.016 183.01 83.304C182.674 83.64 182.29 83.784 181.858 83.784H175.618C175.138 83.784 174.802 83.64 174.514 83.304C174.178 83.016 174.034 82.632 174.034 82.152V76.92H171.778V82.056C171.778 82.536 171.586 82.92 171.298 83.208C170.962 83.544 170.578 83.688 170.146 83.688H164.002C163.522 83.688 163.186 83.544 162.898 83.208C162.562 82.92 162.418 82.536 162.418 82.056V64.632C162.418 64.2 162.562 63.816 162.898 63.48C163.186 63.192 163.522 63 164.002 63H170.146ZM151.522 96.6H173.41V92.664H151.522V96.6ZM146.818 103.896C145.09 103.896 143.746 103.464 142.834 102.648C141.874 101.784 141.442 100.44 141.442 98.616V87.096C141.442 86.664 141.586 86.28 141.97 85.944C142.258 85.656 142.642 85.464 143.122 85.464H181.81C182.29 85.464 182.674 85.656 183.01 85.944C183.298 86.28 183.49 86.664 183.49 87.096V98.616C183.49 100.44 183.01 101.784 182.098 102.648C181.138 103.464 179.842 103.896 178.114 103.896H146.818Z" fill="#373737"/>
</svg>
