<svg width="32" height="32" viewBox="0 0 32 32" fill="none" xmlns="http://www.w3.org/2000/svg">
<g clip-path="url(#clip0_0_9852)">
<path d="M16 32C24.8366 32 32 24.8366 32 16C32 7.16344 24.8366 0 16 0C7.16344 0 0 7.16344 0 16C0 24.8366 7.16344 32 16 32Z" fill="#FBC85B"/>
<path d="M12.8861 23.0795C12.8861 24.9263 11.4964 26.4221 9.77752 26.4221C8.05866 26.4221 6.66895 24.9263 6.66895 23.0795C6.66895 21.6166 8.6054 18.967 9.4118 17.9156C9.45257 17.86 9.50584 17.8148 9.56731 17.7837C9.62878 17.7526 9.69672 17.7363 9.76563 17.7363C9.83454 17.7363 9.90248 17.7526 9.96395 17.7837C10.0254 17.8148 10.0787 17.86 10.1195 17.9156C10.9496 18.967 12.8861 21.6221 12.8861 23.0795Z" fill="#5195EE"/>
<path d="M11.875 14.5C12.8415 14.5 13.625 13.7165 13.625 12.75C13.625 11.7835 12.8415 11 11.875 11C10.9085 11 10.125 11.7835 10.125 12.75C10.125 13.7165 10.9085 14.5 11.875 14.5Z" fill="#3E414D"/>
<path d="M20.125 14.5C21.0915 14.5 21.875 13.7165 21.875 12.75C21.875 11.7835 21.0915 11 20.125 11C19.1585 11 18.375 11.7835 18.375 12.75C18.375 13.7165 19.1585 14.5 20.125 14.5Z" fill="#3E414D"/>
<path d="M20.5 23.375C19.3291 22.2893 17.7581 21.625 16.0312 21.625C15.6804 21.625 15.3359 21.6524 15 21.7052" stroke="#9A695E" stroke-width="2.15054" stroke-linecap="round"/>
</g>
<defs>
<clipPath id="clip0_0_9852">
<rect width="32" height="32" fill="white"/>
</clipPath>
</defs>
</svg>
