<svg width="32" height="32" viewBox="0 0 32 32" fill="none" xmlns="http://www.w3.org/2000/svg">
<path d="M16 32C24.8366 32 32 24.8366 32 16C32 7.16344 24.8366 0 16 0C7.16344 0 0 7.16344 0 16C0 24.8366 7.16344 32 16 32Z" fill="#E46E80"/>
<path d="M26.8385 19.0977H5.16116C4.59103 19.0977 4.12891 19.5598 4.12891 20.1299V27.3557C4.12891 27.9258 4.59109 28.388 5.16116 28.388H26.8386C27.4087 28.388 27.8708 27.9258 27.8708 27.3557V20.13C27.8708 19.5598 27.4087 19.0977 26.8385 19.0977Z" fill="#494D59"/>
<path d="M24.7298 25.033L25.1391 24.6238C25.3407 24.4222 25.3407 24.0955 25.1391 23.894C24.9374 23.6924 24.6108 23.6924 24.4092 23.894L24 24.3032L23.6384 23.9416C24.0123 23.6587 24.2581 23.2145 24.2581 22.7105C24.2581 21.8567 23.5635 21.1621 22.7097 21.1621C21.8559 21.1621 21.1613 21.8567 21.1613 22.7105C21.1613 22.8759 21.1942 23.0322 21.2425 23.1818C20.832 23.5559 20.6041 24.1058 20.6517 24.6732C20.7304 25.5985 21.555 26.3234 22.5292 26.3234C23.0682 26.3234 23.5914 26.1132 23.9917 25.7545L24.4092 26.1721C24.5101 26.2729 24.6421 26.3233 24.7742 26.3233C24.9062 26.3233 25.0383 26.2729 25.1391 26.1721C25.3407 25.9705 25.3407 25.6439 25.1391 25.4423L24.7298 25.033ZM22.7097 22.1944C22.9944 22.1944 23.2258 22.4257 23.2258 22.7105C23.2258 22.9952 22.9944 23.2266 22.7097 23.2266C22.4249 23.2266 22.1936 22.9952 22.1936 22.7105C22.1936 22.4257 22.4249 22.1944 22.7097 22.1944ZM22.5292 25.2911C22.0942 25.2911 21.7132 24.9745 21.6799 24.5865C21.6619 24.3689 21.7349 24.1646 21.8717 24.0089C22.0499 24.1243 22.2536 24.2008 22.4719 24.2349L23.2618 25.0247C23.0554 25.1922 22.7965 25.2911 22.5292 25.2911Z" fill="#F9FAFC"/>
<path d="M11.148 21.2651C10.9202 21.0948 10.5966 21.1401 10.4258 21.3684L7.32904 25.4975C7.15766 25.7253 7.20404 26.0489 7.43235 26.2198C7.5251 26.2893 7.63348 26.3231 7.74135 26.3231C7.8986 26.3231 8.05335 26.252 8.15466 26.1164L11.2514 21.9874C11.4227 21.7596 11.3764 21.436 11.148 21.2651Z" fill="#F9FAFC"/>
<path d="M13.4194 24.775C13.7048 24.775 13.9356 24.5441 13.9356 24.2589V21.6782C13.9356 21.3929 13.7047 21.1621 13.4194 21.1621C13.1341 21.1621 12.9033 21.393 12.9033 21.6782V24.2589C12.9033 24.5442 13.1341 24.775 13.4194 24.775Z" fill="#F9FAFC"/>
<path d="M13.4194 25.291C13.1341 25.291 12.9033 25.5219 12.9033 25.8071C12.9033 26.0924 13.1342 26.3233 13.4194 26.3233H13.4245C13.7098 26.3233 13.9381 26.0924 13.9381 25.8071C13.9381 25.5219 13.7047 25.291 13.4194 25.291Z" fill="#F9FAFC"/>
<path d="M19.6129 22.1932H19.4995L19.5973 21.802C19.6668 21.5258 19.4985 21.2456 19.2218 21.1765C18.9451 21.105 18.6653 21.2748 18.5963 21.552L18.436 22.1932H17.435L17.5328 21.802C17.6024 21.5258 17.434 21.2456 17.1573 21.1765C16.8796 21.105 16.6004 21.2748 16.5318 21.552L16.3715 22.1932H16C15.7147 22.1932 15.4839 22.424 15.4839 22.7093C15.4839 22.9945 15.7148 23.2254 16 23.2254H16.1135L15.8554 24.2577H15.4839C15.1986 24.2577 14.9678 24.4885 14.9678 24.7738C14.9678 25.059 15.1986 25.2899 15.4839 25.2899H15.5973L15.4995 25.681C15.43 25.9572 15.5983 26.2375 15.875 26.3065C15.9168 26.3171 15.9592 26.3222 16.0005 26.3222C16.2319 26.3222 16.4421 26.1659 16.5005 25.931L16.6608 25.2899H17.6618L17.564 25.681C17.4945 25.9572 17.6628 26.2375 17.9395 26.3065C17.9813 26.3171 18.0237 26.3222 18.065 26.3222C18.2964 26.3222 18.5066 26.1659 18.565 25.931L18.7253 25.2899H19.0968C19.3821 25.2899 19.613 25.059 19.613 24.7738C19.613 24.4885 19.3821 24.2577 19.0968 24.2577H18.9834L19.2415 23.2254H19.613C19.8983 23.2254 20.1291 22.9945 20.1291 22.7093C20.1291 22.424 19.8982 22.1932 19.6129 22.1932ZM17.9199 24.2577H16.9189L17.177 23.2254H18.178L17.9199 24.2577Z" fill="#F9FAFC"/>
<path d="M8.77397 22.1944C8.77397 21.6253 8.31079 21.1621 7.74172 21.1621C7.17266 21.1621 6.70947 21.6253 6.70947 22.1944C6.70947 22.7634 7.17266 23.2266 7.74172 23.2266C8.31079 23.2266 8.77397 22.7634 8.77397 22.1944Z" fill="#F9FAFC"/>
<path d="M10.8389 24.2578C10.2698 24.2578 9.80664 24.721 9.80664 25.2901C9.80664 25.8591 10.2698 26.3223 10.8389 26.3223C11.408 26.3223 11.8711 25.8591 11.8711 25.2901C11.8711 24.721 11.408 24.2578 10.8389 24.2578Z" fill="#F9FAFC"/>
<path d="M23.8412 8.71678C23.6652 8.46134 23.3727 8.4522 23.0599 8.5721C23.0599 8.5721 21.6467 9.2191 20.7788 9.43949C19.911 9.65988 18.4976 9.8635 18.4976 9.8635C18.2141 9.91933 17.8926 10.1629 17.9113 10.4729C17.9299 10.783 18.1963 11.0193 18.5064 11.0007L18.5649 10.9966C18.6005 10.9939 18.6518 10.9897 18.7174 10.9835C18.8486 10.9713 19.0371 10.9512 19.2716 10.9199C19.7402 10.8572 20.395 10.7489 21.1449 10.566C21.9191 10.3772 22.5494 10.1154 22.9883 9.89956C23.208 9.7915 23.3808 9.69447 23.5007 9.62304C23.5606 9.58731 23.6075 9.55792 23.6405 9.53669L23.6973 9.49914C23.9531 9.32285 24.0175 8.97258 23.8412 8.71678Z" fill="#3E414D"/>
<path d="M8.1451 8.71678C8.32114 8.46134 8.61358 8.4522 8.9264 8.5721C8.9264 8.5721 10.3396 9.2191 11.2075 9.43949C12.0754 9.65988 13.4887 9.8635 13.4887 9.8635C13.7722 9.91933 14.0937 10.1629 14.0751 10.4729C14.0565 10.783 13.79 11.0193 13.4799 11.0007L13.4214 10.9966C13.3858 10.9939 13.3345 10.9897 13.2689 10.9835C13.1377 10.9713 12.9492 10.9512 12.7147 10.9199C12.2461 10.8572 11.5914 10.7489 10.8414 10.566C10.0672 10.3772 9.43692 10.1154 8.99808 9.89956C8.77833 9.7915 8.60557 9.69447 8.48568 9.62304C8.4257 9.58731 8.37885 9.55792 8.34586 9.53669L8.28905 9.49914C8.03326 9.32285 7.96881 8.97258 8.1451 8.71678Z" fill="#3E414D"/>
<path d="M11.875 16C12.8415 16 13.625 15.2165 13.625 14.25C13.625 13.2835 12.8415 12.5 11.875 12.5C10.9085 12.5 10.125 13.2835 10.125 14.25C10.125 15.2165 10.9085 16 11.875 16Z" fill="#3E414D"/>
<path d="M20.125 16C21.0915 16 21.875 15.2165 21.875 14.25C21.875 13.2835 21.0915 12.5 20.125 12.5C19.1585 12.5 18.375 13.2835 18.375 14.25C18.375 15.2165 19.1585 16 20.125 16Z" fill="#3E414D"/>
</svg>
