<svg width="32" height="33" viewBox="0 0 32 33" fill="none" xmlns="http://www.w3.org/2000/svg">
<path d="M16 32C24.8366 32 32 24.8366 32 16C32 7.16344 24.8366 0 16 0C7.16344 0 0 7.16344 0 16C0 24.8366 7.16344 32 16 32Z" fill="#FBC85B"/>
<path d="M13.8851 27.5607L13.7023 26.6574L16.0209 26.1856C16.1937 26.1473 16.3568 26.0736 16.4997 25.9691C16.6425 25.8646 16.7622 25.7316 16.8511 25.5785C17.0344 25.2801 17.0996 24.9241 17.0339 24.5801C17.0325 24.5655 17.0325 24.5508 17.0339 24.5362C16.9512 24.2011 16.744 23.9101 16.4543 23.7225C16.3113 23.6265 16.1509 23.5597 15.9821 23.5258C15.8133 23.4919 15.6394 23.4916 15.4705 23.525L8.95714 24.8507C8.90644 24.8626 8.85379 24.8636 8.8027 24.8535C8.75162 24.8434 8.70327 24.8225 8.66091 24.7922C8.57832 24.7334 8.52037 24.6461 8.49817 24.5472C8.48473 24.4788 8.48978 24.4081 8.5128 24.3424L9.07051 22.7735V22.7588C9.13889 22.5033 9.14093 22.2346 9.07645 21.9781C9.01196 21.7216 8.88308 21.4857 8.702 21.2929C8.52092 21.1001 8.29363 20.9567 8.04165 20.8763C7.78968 20.7959 7.52134 20.7811 7.26205 20.8334C7.04878 20.8763 6.84693 20.9637 6.66958 21.0897C6.49222 21.2157 6.34334 21.3775 6.23257 21.5648L4.71485 24.1431C3.91751 25.499 3.65044 27.102 3.96514 28.6432C4.25162 30.0542 5.08673 31.2938 6.28686 32.0893C7.487 32.8848 8.95392 33.1712 10.3651 32.8855C11.5384 32.6475 12.5692 31.9532 13.2307 30.9553C13.8921 29.9574 14.1302 28.7377 13.8925 27.5643L13.8851 27.5607Z" fill="#E8AA26"/>
<path d="M22.0234 8.5002C22.0234 8.5002 20.9334 8.70078 19.6546 9.47807C18.3759 10.2553 17.5626 10.9766 17.5626 10.9766" stroke="#3E414D" stroke-width="1.79211" stroke-linecap="round" stroke-linejoin="round"/>
<path d="M8.93741 12.5069C8.93741 12.5069 9.99721 12.2652 11.4921 12.1978C12.0193 12.1741 12.4915 12.2019 12.8819 12.248" stroke="#3E414D" stroke-width="1.79211" stroke-linecap="round" stroke-linejoin="round"/>
<path d="M11.375 17C12.3415 17 13.125 16.2165 13.125 15.25C13.125 14.2835 12.3415 13.5 11.375 13.5C10.4085 13.5 9.625 14.2835 9.625 15.25C9.625 16.2165 10.4085 17 11.375 17Z" fill="#3E414D"/>
<rect x="19.3125" y="12" width="2.6875" height="4.6875" rx="1.34375" fill="#494D59"/>
<path d="M19.9136 22.0098C18.5912 21.1146 16.9376 20.6969 15.2307 20.9594C14.884 21.0127 14.5477 21.0922 14.2237 21.1954" stroke="#9A695E" stroke-width="2.15054" stroke-linecap="round"/>
</svg>
